G04 #@! TF.GenerationSoftware,KiCad,Pcbnew,8.0.8*
G04 #@! TF.CreationDate,2025-06-14T11:12:35+09:00*
G04 #@! TF.ProjectId,stm32c0_fdcan_module,73746d33-3263-4305-9f66-6463616e5f6d,rev?*
G04 #@! TF.SameCoordinates,Original*
G04 #@! TF.FileFunction,Legend,Top*
G04 #@! TF.FilePolarity,Positive*
%FSLAX46Y46*%
G04 Gerber Fmt 4.6, Leading zero omitted, Abs format (unit mm)*
G04 Created by KiCad (PCBNEW 8.0.8) date 2025-06-14 11:12:35*
%MOMM*%
%LPD*%
G01*
G04 APERTURE LIST*
G04 Aperture macros list*
%AMRoundRect*
0 Rectangle with rounded corners*
0 $1 Rounding radius*
0 $2 $3 $4 $5 $6 $7 $8 $9 X,Y pos of 4 corners*
0 Add a 4 corners polygon primitive as box body*
4,1,4,$2,$3,$4,$5,$6,$7,$8,$9,$2,$3,0*
0 Add four circle primitives for the rounded corners*
1,1,$1+$1,$2,$3*
1,1,$1+$1,$4,$5*
1,1,$1+$1,$6,$7*
1,1,$1+$1,$8,$9*
0 Add four rect primitives between the rounded corners*
20,1,$1+$1,$2,$3,$4,$5,0*
20,1,$1+$1,$4,$5,$6,$7,0*
20,1,$1+$1,$6,$7,$8,$9,0*
20,1,$1+$1,$8,$9,$2,$3,0*%
G04 Aperture macros list end*
%ADD10C,0.150000*%
%ADD11C,0.300000*%
%ADD12C,0.120000*%
%ADD13C,0.250000*%
%ADD14C,0.200000*%
%ADD15C,0.100000*%
%ADD16RoundRect,0.200000X0.275000X-0.200000X0.275000X0.200000X-0.275000X0.200000X-0.275000X-0.200000X0*%
%ADD17R,0.850000X0.350000*%
%ADD18R,1.650000X2.450000*%
%ADD19R,1.050000X0.650000*%
%ADD20RoundRect,0.225000X0.250000X-0.225000X0.250000X0.225000X-0.250000X0.225000X-0.250000X-0.225000X0*%
%ADD21RoundRect,0.250000X0.250000X0.475000X-0.250000X0.475000X-0.250000X-0.475000X0.250000X-0.475000X0*%
%ADD22RoundRect,0.250000X-0.475000X0.250000X-0.475000X-0.250000X0.475000X-0.250000X0.475000X0.250000X0*%
%ADD23R,1.400000X0.600000*%
%ADD24RoundRect,0.200000X-0.275000X0.200000X-0.275000X-0.200000X0.275000X-0.200000X0.275000X0.200000X0*%
%ADD25RoundRect,0.200000X0.200000X0.275000X-0.200000X0.275000X-0.200000X-0.275000X0.200000X-0.275000X0*%
%ADD26R,0.760000X2.160000*%
%ADD27RoundRect,0.250000X-0.250000X-0.475000X0.250000X-0.475000X0.250000X0.475000X-0.250000X0.475000X0*%
%ADD28RoundRect,0.218750X-0.256250X0.218750X-0.256250X-0.218750X0.256250X-0.218750X0.256250X0.218750X0*%
%ADD29R,0.300000X0.600000*%
%ADD30R,0.600000X0.300000*%
%ADD31RoundRect,0.150000X0.150000X-0.587500X0.150000X0.587500X-0.150000X0.587500X-0.150000X-0.587500X0*%
%ADD32R,1.700000X1.700000*%
%ADD33O,1.700000X1.700000*%
%ADD34RoundRect,0.225000X-0.250000X0.225000X-0.250000X-0.225000X0.250000X-0.225000X0.250000X0.225000X0*%
%ADD35R,0.600000X1.050000*%
%ADD36RoundRect,0.225000X-0.225000X-0.250000X0.225000X-0.250000X0.225000X0.250000X-0.225000X0.250000X0*%
%ADD37R,0.800000X1.600000*%
%ADD38R,2.100000X3.000000*%
%ADD39R,0.800000X1.750000*%
%ADD40R,2.250000X3.150000*%
%ADD41R,1.150000X1.150000*%
%ADD42R,1.500000X1.800000*%
G04 APERTURE END LIST*
D10*
G36*
X140772701Y-104805390D02*
G01*
X140824239Y-104812388D01*
X140851222Y-104818193D01*
X140898573Y-104833322D01*
X140944067Y-104856376D01*
X140958933Y-104866309D01*
X140995892Y-104898900D01*
X141025558Y-104938971D01*
X141032694Y-104951794D01*
X141050564Y-104998051D01*
X141058973Y-105047476D01*
X141060294Y-105079289D01*
X141055732Y-105130823D01*
X141043243Y-105178535D01*
X141039533Y-105188710D01*
X141017187Y-105233957D01*
X140986051Y-105274809D01*
X140975541Y-105285674D01*
X140936425Y-105317742D01*
X140893235Y-105342620D01*
X140864899Y-105355039D01*
X140815634Y-105370196D01*
X140765488Y-105378516D01*
X140715992Y-105381558D01*
X140704432Y-105381662D01*
X140593057Y-105381662D01*
X140593057Y-105694293D01*
X140470691Y-105694293D01*
X140470691Y-105276149D01*
X140593057Y-105276149D01*
X140707118Y-105276149D01*
X140758226Y-105273172D01*
X140808278Y-105262707D01*
X140854646Y-105242242D01*
X140874181Y-105228521D01*
X140907693Y-105190005D01*
X140927295Y-105139945D01*
X140932986Y-105090400D01*
X140933043Y-105084418D01*
X140927509Y-105034057D01*
X140908640Y-104987862D01*
X140876379Y-104951306D01*
X140832112Y-104924885D01*
X140782652Y-104910383D01*
X140730634Y-104905081D01*
X140718109Y-104904900D01*
X140593057Y-104904900D01*
X140593057Y-105276149D01*
X140470691Y-105276149D01*
X140470691Y-104803295D01*
X140723483Y-104803295D01*
X140772701Y-104805390D01*
G37*
G36*
X141897802Y-105694293D02*
G01*
X141764446Y-105694293D01*
X141701920Y-105506714D01*
X141328228Y-105506714D01*
X141264969Y-105694293D01*
X141137963Y-105694293D01*
X141237370Y-105397293D01*
X141363399Y-105397293D01*
X141666993Y-105397293D01*
X141515074Y-104916135D01*
X141363399Y-105397293D01*
X141237370Y-105397293D01*
X141436183Y-104803295D01*
X141603734Y-104803295D01*
X141897802Y-105694293D01*
G37*
G36*
X142584857Y-105694293D02*
G01*
X142020901Y-105694293D01*
X142020901Y-105580964D01*
X142251710Y-105580964D01*
X142251710Y-104920531D01*
X142036776Y-105053399D01*
X141992813Y-104951794D01*
X142278577Y-104803295D01*
X142384334Y-104803295D01*
X142384334Y-105580964D01*
X142584857Y-105580964D01*
X142584857Y-105694293D01*
G37*
G36*
X143361305Y-105694293D02*
G01*
X142769749Y-105694293D01*
X142769749Y-105587803D01*
X143002024Y-105357726D01*
X143038777Y-105320894D01*
X143073078Y-105284796D01*
X143094836Y-105260517D01*
X143126527Y-105221255D01*
X143150280Y-105185535D01*
X143171584Y-105140701D01*
X143177146Y-105121543D01*
X143183658Y-105071621D01*
X143183985Y-105056574D01*
X143178469Y-105007225D01*
X143174948Y-104994048D01*
X143153155Y-104948981D01*
X143147593Y-104941780D01*
X143108444Y-104910405D01*
X143099477Y-104906121D01*
X143051163Y-104894200D01*
X143028891Y-104893176D01*
X142977618Y-104898918D01*
X142930960Y-104916145D01*
X142925088Y-104919310D01*
X142883017Y-104947192D01*
X142844273Y-104981835D01*
X142839358Y-104986965D01*
X142773413Y-104907098D01*
X142810158Y-104872389D01*
X142850539Y-104842817D01*
X142890405Y-104820392D01*
X142938479Y-104801758D01*
X142986641Y-104791530D01*
X143039048Y-104787695D01*
X143044522Y-104787663D01*
X143094825Y-104791076D01*
X143144155Y-104802306D01*
X143153455Y-104805493D01*
X143199189Y-104827230D01*
X143238207Y-104856784D01*
X143270020Y-104894031D01*
X143293650Y-104938849D01*
X143307675Y-104987153D01*
X143313018Y-105037175D01*
X143313190Y-105048514D01*
X143309770Y-105097974D01*
X143299512Y-105143769D01*
X143280981Y-105190152D01*
X143257991Y-105230964D01*
X143228721Y-105272420D01*
X143195689Y-105312370D01*
X143187893Y-105321089D01*
X143154039Y-105357165D01*
X143119204Y-105392467D01*
X143087998Y-105422939D01*
X142925088Y-105580964D01*
X143361305Y-105580964D01*
X143361305Y-105694293D01*
G37*
D11*
G36*
X133939433Y-76710710D02*
G01*
X134019658Y-76718155D01*
X134075715Y-76727187D01*
X134154981Y-76748305D01*
X134227624Y-76781514D01*
X134240628Y-76789469D01*
X134301102Y-76839753D01*
X134345750Y-76903408D01*
X134372116Y-76975853D01*
X134381910Y-77049708D01*
X134382484Y-77074501D01*
X134375977Y-77147700D01*
X134359427Y-77204560D01*
X134321087Y-77272308D01*
X134294556Y-77302379D01*
X134233119Y-77349450D01*
X134195296Y-77368691D01*
X134119031Y-77394422D01*
X134069462Y-77404228D01*
X134140656Y-77436049D01*
X134165987Y-77458084D01*
X134212796Y-77516996D01*
X134251178Y-77583835D01*
X134253914Y-77589242D01*
X134483698Y-78045000D01*
X134165987Y-78045000D01*
X133963949Y-77607927D01*
X133922082Y-77544816D01*
X133884228Y-77514138D01*
X133809295Y-77486030D01*
X133763866Y-77482264D01*
X133712281Y-77482264D01*
X133712281Y-78045000D01*
X133441856Y-78045000D01*
X133441856Y-77294685D01*
X133712281Y-77294685D01*
X133822093Y-77294685D01*
X133902878Y-77288971D01*
X133935812Y-77282595D01*
X134009198Y-77254614D01*
X134023349Y-77245959D01*
X134076724Y-77189953D01*
X134079232Y-77185509D01*
X134098851Y-77114182D01*
X134099162Y-77102711D01*
X134086297Y-77027708D01*
X134040086Y-76967921D01*
X134031946Y-76962393D01*
X133954529Y-76931626D01*
X133871328Y-76920575D01*
X133831081Y-76919528D01*
X133712281Y-76919528D01*
X133712281Y-77294685D01*
X133441856Y-77294685D01*
X133441856Y-76708503D01*
X133860390Y-76708503D01*
X133939433Y-76710710D01*
G37*
G36*
X135287550Y-76919528D02*
G01*
X135287550Y-78045000D01*
X135010481Y-78045000D01*
X135010481Y-76919528D01*
X134616957Y-76919528D01*
X134616957Y-76708503D01*
X135681074Y-76708503D01*
X135681074Y-76919528D01*
X135287550Y-76919528D01*
G37*
G36*
X136385666Y-77482264D02*
G01*
X136385666Y-77271238D01*
X136896817Y-77271238D01*
X136896817Y-77984549D01*
X136821401Y-78013555D01*
X136743457Y-78036275D01*
X136690090Y-78047930D01*
X136606797Y-78060433D01*
X136525714Y-78066824D01*
X136456008Y-78068447D01*
X136374386Y-78065056D01*
X136289207Y-78053335D01*
X136209828Y-78033243D01*
X136187145Y-78025582D01*
X136116124Y-77994520D01*
X136046023Y-77951012D01*
X135984326Y-77897721D01*
X135931672Y-77834481D01*
X135891738Y-77768650D01*
X135859360Y-77694876D01*
X135856538Y-77687062D01*
X135835003Y-77613011D01*
X135820515Y-77532643D01*
X135813555Y-77455901D01*
X135811988Y-77395069D01*
X135814895Y-77313897D01*
X135823614Y-77237075D01*
X135838147Y-77164603D01*
X135858492Y-77096482D01*
X135888240Y-77025333D01*
X135929196Y-76953892D01*
X135978472Y-76890465D01*
X135994877Y-76873000D01*
X136054984Y-76820013D01*
X136122952Y-76775542D01*
X136198782Y-76739585D01*
X136214891Y-76733415D01*
X136291028Y-76710038D01*
X136373037Y-76694312D01*
X136450865Y-76686755D01*
X136512281Y-76685055D01*
X136591774Y-76687172D01*
X136675507Y-76694184D01*
X136704940Y-76697878D01*
X136787198Y-76710711D01*
X136869157Y-76726769D01*
X136892519Y-76731950D01*
X136892519Y-76989870D01*
X136818104Y-76965046D01*
X136737107Y-76944430D01*
X136712756Y-76939312D01*
X136632484Y-76926503D01*
X136551696Y-76920224D01*
X136514235Y-76919528D01*
X136436122Y-76924849D01*
X136355447Y-76944212D01*
X136335645Y-76951769D01*
X136264521Y-76990512D01*
X136205903Y-77042993D01*
X136162672Y-77104329D01*
X136132240Y-77172470D01*
X136126964Y-77188440D01*
X136109506Y-77262020D01*
X136101290Y-77336381D01*
X136100000Y-77382613D01*
X136102912Y-77458038D01*
X136112641Y-77533237D01*
X136120711Y-77570924D01*
X136146076Y-77643760D01*
X136185436Y-77709385D01*
X136188318Y-77713073D01*
X136245643Y-77767601D01*
X136308681Y-77802833D01*
X136384879Y-77825185D01*
X136468547Y-77833700D01*
X136488053Y-77833974D01*
X136531821Y-77832508D01*
X136566992Y-77828112D01*
X136598646Y-77821151D01*
X136629909Y-77812358D01*
X136629909Y-77482264D01*
X136385666Y-77482264D01*
G37*
G36*
X138094193Y-77998105D02*
G01*
X138017434Y-78023956D01*
X137937078Y-78045033D01*
X137908960Y-78050861D01*
X137829234Y-78062883D01*
X137746666Y-78068172D01*
X137722554Y-78068447D01*
X137638318Y-78065085D01*
X137559709Y-78055000D01*
X137478964Y-78035909D01*
X137448611Y-78025949D01*
X137371054Y-77991587D01*
X137302271Y-77947442D01*
X137247355Y-77898820D01*
X137195821Y-77835832D01*
X137156986Y-77770230D01*
X137125784Y-77696685D01*
X137123084Y-77688893D01*
X137102682Y-77615226D01*
X137088957Y-77535184D01*
X137082363Y-77458682D01*
X137080879Y-77398000D01*
X137083761Y-77315362D01*
X137092407Y-77237441D01*
X137106817Y-77164237D01*
X137126992Y-77095750D01*
X137156053Y-77024423D01*
X137195666Y-76952854D01*
X137242988Y-76889370D01*
X137258688Y-76871901D01*
X137315970Y-76819143D01*
X137380351Y-76774900D01*
X137451830Y-76739173D01*
X137466978Y-76733049D01*
X137546609Y-76707740D01*
X137623301Y-76692976D01*
X137704754Y-76685805D01*
X137742484Y-76685055D01*
X137821783Y-76686620D01*
X137835491Y-76687254D01*
X137915450Y-76693908D01*
X137920683Y-76694581D01*
X137999772Y-76708105D01*
X138005094Y-76709235D01*
X138082714Y-76728550D01*
X138094193Y-76731950D01*
X138094193Y-76989870D01*
X138019726Y-76962540D01*
X137942704Y-76941223D01*
X137915994Y-76935648D01*
X137835394Y-76923558D01*
X137762414Y-76919528D01*
X137684127Y-76925152D01*
X137605976Y-76945615D01*
X137587341Y-76953600D01*
X137521395Y-76994175D01*
X137468150Y-77048489D01*
X137427704Y-77115442D01*
X137400787Y-77188691D01*
X137399371Y-77193935D01*
X137384412Y-77270892D01*
X137378022Y-77348128D01*
X137377487Y-77379316D01*
X137380620Y-77456407D01*
X137391083Y-77532829D01*
X137399762Y-77570924D01*
X137426421Y-77644286D01*
X137466782Y-77710118D01*
X137469713Y-77713806D01*
X137527344Y-77768230D01*
X137590467Y-77803199D01*
X137665721Y-77825288D01*
X137746803Y-77833703D01*
X137765540Y-77833974D01*
X137844089Y-77828112D01*
X137921549Y-77814478D01*
X137929672Y-77812725D01*
X138007718Y-77792752D01*
X138015645Y-77790376D01*
X138089628Y-77765325D01*
X138094193Y-77763632D01*
X138094193Y-77998105D01*
G37*
G36*
X138820425Y-76710907D02*
G01*
X138904087Y-76719359D01*
X138981195Y-76733898D01*
X139028960Y-76746971D01*
X139102339Y-76774863D01*
X139173713Y-76814967D01*
X139235296Y-76864940D01*
X139287090Y-76924914D01*
X139329094Y-76995018D01*
X139358785Y-77067540D01*
X139378809Y-77140286D01*
X139392280Y-77220451D01*
X139398753Y-77297937D01*
X139400209Y-77359898D01*
X139397620Y-77435782D01*
X139388518Y-77516880D01*
X139372863Y-77593458D01*
X139358785Y-77641999D01*
X139328598Y-77717612D01*
X139289329Y-77785997D01*
X139240976Y-77847156D01*
X139230216Y-77858520D01*
X139170941Y-77910419D01*
X139102049Y-77954376D01*
X139031824Y-77987146D01*
X139006685Y-77996639D01*
X138925733Y-78020017D01*
X138846666Y-78034374D01*
X138760906Y-78042685D01*
X138680376Y-78045000D01*
X138315380Y-78045000D01*
X138315380Y-77833974D01*
X138585806Y-77833974D01*
X138704605Y-77833974D01*
X138786895Y-77828697D01*
X138869767Y-77809743D01*
X138940719Y-77777005D01*
X139006294Y-77723698D01*
X139051601Y-77660638D01*
X139080626Y-77592462D01*
X139099740Y-77512154D01*
X139108235Y-77433663D01*
X139109853Y-77376385D01*
X139107215Y-77298401D01*
X139098404Y-77221476D01*
X139091095Y-77183311D01*
X139067842Y-77109423D01*
X139030547Y-77043385D01*
X139027787Y-77039696D01*
X138972155Y-76985090D01*
X138908597Y-76950303D01*
X138830636Y-76928214D01*
X138750150Y-76920009D01*
X138722972Y-76919528D01*
X138585806Y-76919528D01*
X138585806Y-77833974D01*
X138315380Y-77833974D01*
X138315380Y-76708503D01*
X138740558Y-76708503D01*
X138820425Y-76710907D01*
G37*
G36*
X140572184Y-77644197D02*
G01*
X140565605Y-77720768D01*
X140543807Y-77796062D01*
X140532323Y-77821151D01*
X140489634Y-77885335D01*
X140430639Y-77940683D01*
X140410788Y-77954874D01*
X140343542Y-77992483D01*
X140271375Y-78020623D01*
X140204842Y-78039138D01*
X140123067Y-78054594D01*
X140042029Y-78063610D01*
X139953944Y-78067989D01*
X139912533Y-78068447D01*
X139833984Y-78066615D01*
X139754850Y-78062034D01*
X139752309Y-78061852D01*
X139672979Y-78054891D01*
X139603810Y-78045000D01*
X139603810Y-77833974D01*
X139682155Y-77843839D01*
X139759344Y-77850826D01*
X139841856Y-77855560D01*
X139921656Y-77857363D01*
X139939106Y-77857421D01*
X140018974Y-77854362D01*
X140096203Y-77843499D01*
X140172787Y-77819862D01*
X140204842Y-77803199D01*
X140261247Y-77749818D01*
X140268150Y-77737986D01*
X140287975Y-77665053D01*
X140288471Y-77650059D01*
X140271140Y-77577959D01*
X140267369Y-77571290D01*
X140214069Y-77517515D01*
X140203670Y-77511207D01*
X140129922Y-77481262D01*
X140094249Y-77472739D01*
X140016715Y-77461876D01*
X139936762Y-77458817D01*
X139777320Y-77458817D01*
X139777320Y-77271238D01*
X139923475Y-77271238D01*
X140002023Y-77267208D01*
X140065722Y-77255118D01*
X140137749Y-77224206D01*
X140155994Y-77211154D01*
X140201835Y-77150940D01*
X140203670Y-77146308D01*
X140218073Y-77073021D01*
X140218129Y-77067906D01*
X140203768Y-76993809D01*
X140160683Y-76940045D01*
X140087997Y-76907072D01*
X140005919Y-76896468D01*
X139984047Y-76896081D01*
X139903962Y-76898899D01*
X139824907Y-76907351D01*
X139814445Y-76908904D01*
X139735121Y-76922777D01*
X139658762Y-76939066D01*
X139642107Y-76942976D01*
X139642107Y-76731950D01*
X139719660Y-76714015D01*
X139736678Y-76710701D01*
X139815324Y-76697918D01*
X139826559Y-76696413D01*
X139906488Y-76688318D01*
X139918004Y-76687620D01*
X139998323Y-76685118D01*
X140013747Y-76685055D01*
X140091958Y-76687913D01*
X140175460Y-76698657D01*
X140222037Y-76709235D01*
X140299666Y-76736069D01*
X140368653Y-76774629D01*
X140372491Y-76777379D01*
X140428772Y-76829674D01*
X140464326Y-76885090D01*
X140488415Y-76956568D01*
X140495198Y-77026507D01*
X140488133Y-77106056D01*
X140464310Y-77180099D01*
X140435408Y-77226908D01*
X140378895Y-77282959D01*
X140312647Y-77324286D01*
X140267759Y-77343778D01*
X140345214Y-77361126D01*
X140392812Y-77378949D01*
X140459602Y-77417478D01*
X140488946Y-77442697D01*
X140535425Y-77501635D01*
X140550690Y-77532090D01*
X140569644Y-77603181D01*
X140572184Y-77644197D01*
G37*
D10*
G36*
X141837649Y-110080317D02*
G01*
X141793276Y-110056815D01*
X141747782Y-110038456D01*
X141734578Y-110034155D01*
X141686546Y-110022969D01*
X141634774Y-110018047D01*
X141619295Y-110017791D01*
X141568004Y-110021363D01*
X141517400Y-110033295D01*
X141492289Y-110043192D01*
X141446929Y-110069439D01*
X141408300Y-110103726D01*
X141398500Y-110115000D01*
X141370485Y-110155650D01*
X141348355Y-110202589D01*
X141340126Y-110226374D01*
X141327772Y-110277058D01*
X141321457Y-110326959D01*
X141319854Y-110370233D01*
X141321452Y-110420007D01*
X141326901Y-110470902D01*
X141336218Y-110517756D01*
X141352736Y-110567318D01*
X141377286Y-110613480D01*
X141387753Y-110628154D01*
X141422221Y-110663623D01*
X141464075Y-110690958D01*
X141477390Y-110697274D01*
X141525390Y-110712772D01*
X141575994Y-110720065D01*
X141608304Y-110721210D01*
X141636392Y-110719989D01*
X141666679Y-110716325D01*
X141695743Y-110710464D01*
X141720900Y-110703136D01*
X141720900Y-110424211D01*
X141537474Y-110424211D01*
X141537474Y-110322606D01*
X141841801Y-110322606D01*
X141841801Y-110776898D01*
X141795975Y-110795484D01*
X141782450Y-110800101D01*
X141734731Y-110813336D01*
X141718458Y-110816953D01*
X141669732Y-110825288D01*
X141653489Y-110827212D01*
X141604456Y-110830467D01*
X141591207Y-110830631D01*
X141540842Y-110828351D01*
X141488235Y-110820471D01*
X141439157Y-110806961D01*
X141425122Y-110801810D01*
X141376980Y-110778706D01*
X141333975Y-110749021D01*
X141299337Y-110716325D01*
X141266567Y-110674079D01*
X141241685Y-110629962D01*
X141221478Y-110580408D01*
X141219714Y-110575153D01*
X141206373Y-110525511D01*
X141197397Y-110471658D01*
X141193085Y-110420252D01*
X141192115Y-110379515D01*
X141194038Y-110325644D01*
X141199808Y-110274673D01*
X141209425Y-110226603D01*
X141222889Y-110181434D01*
X141242308Y-110134237D01*
X141265668Y-110091291D01*
X141296246Y-110048558D01*
X141309840Y-110032934D01*
X141347015Y-109997762D01*
X141388627Y-109968267D01*
X141434675Y-109944448D01*
X141444418Y-109940366D01*
X141495146Y-109923493D01*
X141543493Y-109913651D01*
X141594390Y-109908870D01*
X141617830Y-109908370D01*
X141669662Y-109910708D01*
X141719156Y-109917720D01*
X141732868Y-109920582D01*
X141783140Y-109935022D01*
X141828220Y-109954310D01*
X141837649Y-109959173D01*
X141837649Y-110080317D01*
G37*
G36*
X142607990Y-110815000D02*
G01*
X142448744Y-110815000D01*
X142186916Y-110259103D01*
X142111445Y-110080317D01*
X142111445Y-110529968D01*
X142111445Y-110815000D01*
X141997383Y-110815000D01*
X141997383Y-109924002D01*
X142154676Y-109924002D01*
X142404048Y-110453520D01*
X142493929Y-110658684D01*
X142493929Y-110178503D01*
X142493929Y-109924002D01*
X142607990Y-109924002D01*
X142607990Y-110815000D01*
G37*
G36*
X143041621Y-109925681D02*
G01*
X143100547Y-109932502D01*
X143154249Y-109944571D01*
X143202728Y-109961888D01*
X143254008Y-109989594D01*
X143297765Y-110024857D01*
X143304327Y-110031468D01*
X143339521Y-110075678D01*
X143363287Y-110118633D01*
X143381996Y-110167145D01*
X143395649Y-110221215D01*
X143404245Y-110280842D01*
X143407481Y-110332545D01*
X143407886Y-110359731D01*
X143406233Y-110410837D01*
X143401275Y-110460170D01*
X143397872Y-110482341D01*
X143386819Y-110532089D01*
X143371184Y-110578752D01*
X143365876Y-110591517D01*
X143342370Y-110636701D01*
X143313068Y-110677913D01*
X143308723Y-110683108D01*
X143272491Y-110719176D01*
X143232380Y-110748094D01*
X143222994Y-110753695D01*
X143178976Y-110775332D01*
X143129476Y-110792615D01*
X143104780Y-110799124D01*
X143056381Y-110808162D01*
X143003537Y-110813449D01*
X142951640Y-110815000D01*
X142759421Y-110815000D01*
X142759421Y-110709487D01*
X142881542Y-110709487D01*
X142972889Y-110709487D01*
X143027669Y-110706483D01*
X143077060Y-110697474D01*
X143134533Y-110676118D01*
X143182428Y-110644084D01*
X143220743Y-110601372D01*
X143249480Y-110547982D01*
X143264746Y-110500932D01*
X143274625Y-110447876D01*
X143279115Y-110388813D01*
X143279414Y-110367791D01*
X143277984Y-110316803D01*
X143273042Y-110265589D01*
X143263529Y-110215864D01*
X143261340Y-110207568D01*
X143243790Y-110158576D01*
X143218038Y-110115192D01*
X143207118Y-110102055D01*
X143168922Y-110069157D01*
X143122568Y-110046027D01*
X143115771Y-110043681D01*
X143067977Y-110031978D01*
X143018277Y-110026471D01*
X142986811Y-110025607D01*
X142881542Y-110025607D01*
X142881542Y-110709487D01*
X142759421Y-110709487D01*
X142759421Y-109924002D01*
X142990719Y-109924002D01*
X143041621Y-109925681D01*
G37*
G36*
X106257139Y-102265390D02*
G01*
X106308677Y-102272388D01*
X106335660Y-102278193D01*
X106383011Y-102293322D01*
X106428505Y-102316376D01*
X106443371Y-102326309D01*
X106480330Y-102358900D01*
X106509996Y-102398971D01*
X106517132Y-102411794D01*
X106535002Y-102458051D01*
X106543411Y-102507476D01*
X106544732Y-102539289D01*
X106540170Y-102590823D01*
X106527681Y-102638535D01*
X106523971Y-102648710D01*
X106501625Y-102693957D01*
X106470489Y-102734809D01*
X106459979Y-102745674D01*
X106420863Y-102777742D01*
X106377673Y-102802620D01*
X106349337Y-102815039D01*
X106300072Y-102830196D01*
X106249926Y-102838516D01*
X106200430Y-102841558D01*
X106188870Y-102841662D01*
X106077495Y-102841662D01*
X106077495Y-103154293D01*
X105955129Y-103154293D01*
X105955129Y-102736149D01*
X106077495Y-102736149D01*
X106191556Y-102736149D01*
X106242664Y-102733172D01*
X106292716Y-102722707D01*
X106339084Y-102702242D01*
X106358619Y-102688521D01*
X106392131Y-102650005D01*
X106411733Y-102599945D01*
X106417424Y-102550400D01*
X106417481Y-102544418D01*
X106411947Y-102494057D01*
X106393078Y-102447862D01*
X106360817Y-102411306D01*
X106316550Y-102384885D01*
X106267090Y-102370383D01*
X106215072Y-102365081D01*
X106202547Y-102364900D01*
X106077495Y-102364900D01*
X106077495Y-102736149D01*
X105955129Y-102736149D01*
X105955129Y-102263295D01*
X106207921Y-102263295D01*
X106257139Y-102265390D01*
G37*
G36*
X107382240Y-103154293D02*
G01*
X107248884Y-103154293D01*
X107186358Y-102966714D01*
X106812666Y-102966714D01*
X106749407Y-103154293D01*
X106622401Y-103154293D01*
X106721808Y-102857293D01*
X106847837Y-102857293D01*
X107151431Y-102857293D01*
X106999512Y-102376135D01*
X106847837Y-102857293D01*
X106721808Y-102857293D01*
X106920621Y-102263295D01*
X107088172Y-102263295D01*
X107382240Y-103154293D01*
G37*
G36*
X108071982Y-102376623D02*
G01*
X107695604Y-103154293D01*
X107558828Y-103154293D01*
X107949861Y-102376623D01*
X107464794Y-102376623D01*
X107464794Y-102263295D01*
X108071982Y-102263295D01*
X108071982Y-102376623D01*
G37*
G36*
X106538356Y-110080317D02*
G01*
X106493983Y-110056815D01*
X106448489Y-110038456D01*
X106435285Y-110034155D01*
X106387253Y-110022969D01*
X106335481Y-110018047D01*
X106320002Y-110017791D01*
X106268711Y-110021363D01*
X106218107Y-110033295D01*
X106192996Y-110043192D01*
X106147636Y-110069439D01*
X106109007Y-110103726D01*
X106099207Y-110115000D01*
X106071192Y-110155650D01*
X106049062Y-110202589D01*
X106040833Y-110226374D01*
X106028479Y-110277058D01*
X106022164Y-110326959D01*
X106020561Y-110370233D01*
X106022159Y-110420007D01*
X106027608Y-110470902D01*
X106036925Y-110517756D01*
X106053443Y-110567318D01*
X106077993Y-110613480D01*
X106088460Y-110628154D01*
X106122928Y-110663623D01*
X106164782Y-110690958D01*
X106178097Y-110697274D01*
X106226097Y-110712772D01*
X106276701Y-110720065D01*
X106309011Y-110721210D01*
X106337099Y-110719989D01*
X106367386Y-110716325D01*
X106396450Y-110710464D01*
X106421607Y-110703136D01*
X106421607Y-110424211D01*
X106238181Y-110424211D01*
X106238181Y-110322606D01*
X106542508Y-110322606D01*
X106542508Y-110776898D01*
X106496682Y-110795484D01*
X106483157Y-110800101D01*
X106435438Y-110813336D01*
X106419165Y-110816953D01*
X106370439Y-110825288D01*
X106354196Y-110827212D01*
X106305163Y-110830467D01*
X106291914Y-110830631D01*
X106241549Y-110828351D01*
X106188942Y-110820471D01*
X106139864Y-110806961D01*
X106125829Y-110801810D01*
X106077687Y-110778706D01*
X106034682Y-110749021D01*
X106000044Y-110716325D01*
X105967274Y-110674079D01*
X105942392Y-110629962D01*
X105922185Y-110580408D01*
X105920421Y-110575153D01*
X105907080Y-110525511D01*
X105898104Y-110471658D01*
X105893792Y-110420252D01*
X105892822Y-110379515D01*
X105894745Y-110325644D01*
X105900515Y-110274673D01*
X105910132Y-110226603D01*
X105923596Y-110181434D01*
X105943015Y-110134237D01*
X105966375Y-110091291D01*
X105996953Y-110048558D01*
X106010547Y-110032934D01*
X106047722Y-109997762D01*
X106089334Y-109968267D01*
X106135382Y-109944448D01*
X106145125Y-109940366D01*
X106195853Y-109923493D01*
X106244200Y-109913651D01*
X106295097Y-109908870D01*
X106318537Y-109908370D01*
X106370369Y-109910708D01*
X106419863Y-109917720D01*
X106433575Y-109920582D01*
X106483847Y-109935022D01*
X106528927Y-109954310D01*
X106538356Y-109959173D01*
X106538356Y-110080317D01*
G37*
G36*
X107308697Y-110815000D02*
G01*
X107149451Y-110815000D01*
X106887623Y-110259103D01*
X106812152Y-110080317D01*
X106812152Y-110529968D01*
X106812152Y-110815000D01*
X106698090Y-110815000D01*
X106698090Y-109924002D01*
X106855383Y-109924002D01*
X107104755Y-110453520D01*
X107194636Y-110658684D01*
X107194636Y-110178503D01*
X107194636Y-109924002D01*
X107308697Y-109924002D01*
X107308697Y-110815000D01*
G37*
G36*
X107742328Y-109925681D02*
G01*
X107801254Y-109932502D01*
X107854956Y-109944571D01*
X107903435Y-109961888D01*
X107954715Y-109989594D01*
X107998472Y-110024857D01*
X108005034Y-110031468D01*
X108040228Y-110075678D01*
X108063994Y-110118633D01*
X108082703Y-110167145D01*
X108096356Y-110221215D01*
X108104952Y-110280842D01*
X108108188Y-110332545D01*
X108108593Y-110359731D01*
X108106940Y-110410837D01*
X108101982Y-110460170D01*
X108098579Y-110482341D01*
X108087526Y-110532089D01*
X108071891Y-110578752D01*
X108066583Y-110591517D01*
X108043077Y-110636701D01*
X108013775Y-110677913D01*
X108009430Y-110683108D01*
X107973198Y-110719176D01*
X107933087Y-110748094D01*
X107923701Y-110753695D01*
X107879683Y-110775332D01*
X107830183Y-110792615D01*
X107805487Y-110799124D01*
X107757088Y-110808162D01*
X107704244Y-110813449D01*
X107652347Y-110815000D01*
X107460128Y-110815000D01*
X107460128Y-110709487D01*
X107582249Y-110709487D01*
X107673596Y-110709487D01*
X107728376Y-110706483D01*
X107777767Y-110697474D01*
X107835240Y-110676118D01*
X107883135Y-110644084D01*
X107921450Y-110601372D01*
X107950187Y-110547982D01*
X107965453Y-110500932D01*
X107975332Y-110447876D01*
X107979822Y-110388813D01*
X107980121Y-110367791D01*
X107978691Y-110316803D01*
X107973749Y-110265589D01*
X107964236Y-110215864D01*
X107962047Y-110207568D01*
X107944497Y-110158576D01*
X107918745Y-110115192D01*
X107907825Y-110102055D01*
X107869629Y-110069157D01*
X107823275Y-110046027D01*
X107816478Y-110043681D01*
X107768684Y-110031978D01*
X107718984Y-110026471D01*
X107687518Y-110025607D01*
X107582249Y-110025607D01*
X107582249Y-110709487D01*
X107460128Y-110709487D01*
X107460128Y-109924002D01*
X107691426Y-109924002D01*
X107742328Y-109925681D01*
G37*
G36*
X106257139Y-107345390D02*
G01*
X106308677Y-107352388D01*
X106335660Y-107358193D01*
X106383011Y-107373322D01*
X106428505Y-107396376D01*
X106443371Y-107406309D01*
X106480330Y-107438900D01*
X106509996Y-107478971D01*
X106517132Y-107491794D01*
X106535002Y-107538051D01*
X106543411Y-107587476D01*
X106544732Y-107619289D01*
X106540170Y-107670823D01*
X106527681Y-107718535D01*
X106523971Y-107728710D01*
X106501625Y-107773957D01*
X106470489Y-107814809D01*
X106459979Y-107825674D01*
X106420863Y-107857742D01*
X106377673Y-107882620D01*
X106349337Y-107895039D01*
X106300072Y-107910196D01*
X106249926Y-107918516D01*
X106200430Y-107921558D01*
X106188870Y-107921662D01*
X106077495Y-107921662D01*
X106077495Y-108234293D01*
X105955129Y-108234293D01*
X105955129Y-107816149D01*
X106077495Y-107816149D01*
X106191556Y-107816149D01*
X106242664Y-107813172D01*
X106292716Y-107802707D01*
X106339084Y-107782242D01*
X106358619Y-107768521D01*
X106392131Y-107730005D01*
X106411733Y-107679945D01*
X106417424Y-107630400D01*
X106417481Y-107624418D01*
X106411947Y-107574057D01*
X106393078Y-107527862D01*
X106360817Y-107491306D01*
X106316550Y-107464885D01*
X106267090Y-107450383D01*
X106215072Y-107445081D01*
X106202547Y-107444900D01*
X106077495Y-107444900D01*
X106077495Y-107816149D01*
X105955129Y-107816149D01*
X105955129Y-107343295D01*
X106207921Y-107343295D01*
X106257139Y-107345390D01*
G37*
G36*
X107298953Y-108210845D02*
G01*
X107251327Y-108226072D01*
X107202696Y-108237559D01*
X107153060Y-108245306D01*
X107102418Y-108249313D01*
X107073029Y-108249924D01*
X107015724Y-108247145D01*
X106962724Y-108238809D01*
X106914029Y-108224915D01*
X106861278Y-108200907D01*
X106814727Y-108168896D01*
X106780670Y-108136107D01*
X106746057Y-108089496D01*
X106722684Y-108044789D01*
X106704283Y-107994751D01*
X106690856Y-107939383D01*
X106682402Y-107878684D01*
X106679219Y-107826286D01*
X106678821Y-107798808D01*
X106680576Y-107746005D01*
X106685843Y-107695798D01*
X106695964Y-107642417D01*
X106706909Y-107603169D01*
X106724621Y-107556090D01*
X106748788Y-107508721D01*
X106777677Y-107466551D01*
X106787265Y-107454914D01*
X106822055Y-107419494D01*
X106861091Y-107389560D01*
X106904372Y-107365111D01*
X106913538Y-107360880D01*
X106961686Y-107343363D01*
X107013315Y-107332334D01*
X107062759Y-107327955D01*
X107079868Y-107327663D01*
X107129179Y-107329719D01*
X107178947Y-107336531D01*
X107195883Y-107340119D01*
X107245292Y-107354749D01*
X107292769Y-107375282D01*
X107298953Y-107378466D01*
X107298953Y-107499610D01*
X107255723Y-107475701D01*
X107207849Y-107456309D01*
X107198081Y-107453204D01*
X107146987Y-107441633D01*
X107095522Y-107437226D01*
X107084020Y-107437084D01*
X107034597Y-107440994D01*
X106985790Y-107453950D01*
X106969470Y-107460775D01*
X106924995Y-107487709D01*
X106889585Y-107521369D01*
X106882764Y-107529652D01*
X106854694Y-107572975D01*
X106834238Y-107619986D01*
X106827809Y-107639805D01*
X106816051Y-107691108D01*
X106810040Y-107742661D01*
X106808514Y-107788061D01*
X106810243Y-107840611D01*
X106816883Y-107898130D01*
X106828504Y-107949605D01*
X106848356Y-108002018D01*
X106874987Y-108046203D01*
X106879344Y-108051843D01*
X106918866Y-108090632D01*
X106966600Y-108118338D01*
X107015104Y-108133490D01*
X107069897Y-108140157D01*
X107086706Y-108140503D01*
X107136375Y-108138166D01*
X107187412Y-108130474D01*
X107197348Y-108128291D01*
X107246071Y-108114467D01*
X107292861Y-108096349D01*
X107298953Y-108093609D01*
X107298953Y-108210845D01*
G37*
G36*
X108017760Y-107448808D02*
G01*
X107921528Y-107448808D01*
X107868795Y-107451059D01*
X107816994Y-107458649D01*
X107782066Y-107467858D01*
X107734161Y-107487520D01*
X107690823Y-107515226D01*
X107683147Y-107521592D01*
X107647976Y-107559877D01*
X107623433Y-107602313D01*
X107622087Y-107605367D01*
X107605600Y-107653739D01*
X107596411Y-107703534D01*
X107595220Y-107714788D01*
X107592533Y-107749715D01*
X107636014Y-107725622D01*
X107681922Y-107707590D01*
X107692429Y-107704286D01*
X107743786Y-107692598D01*
X107794657Y-107687606D01*
X107815039Y-107687189D01*
X107867584Y-107690454D01*
X107917860Y-107701273D01*
X107934229Y-107706972D01*
X107978504Y-107728954D01*
X108017331Y-107759973D01*
X108019470Y-107762171D01*
X108050785Y-107803538D01*
X108070517Y-107846679D01*
X108082964Y-107894850D01*
X108087705Y-107943684D01*
X108087858Y-107954634D01*
X108084149Y-108003394D01*
X108071861Y-108053108D01*
X108065388Y-108070161D01*
X108042293Y-108114727D01*
X108011906Y-108153963D01*
X108001884Y-108164195D01*
X107962708Y-108195804D01*
X107916987Y-108220962D01*
X107902722Y-108226965D01*
X107853436Y-108241830D01*
X107804291Y-108248825D01*
X107774006Y-108249924D01*
X107724979Y-108247153D01*
X107676104Y-108237811D01*
X107642603Y-108226477D01*
X107599388Y-108203075D01*
X107562220Y-108171370D01*
X107547104Y-108153937D01*
X107518971Y-108109856D01*
X107498369Y-108061725D01*
X107488730Y-108030350D01*
X107478297Y-107980991D01*
X107472212Y-107932040D01*
X107469256Y-107878801D01*
X107468946Y-107853762D01*
X107469006Y-107851320D01*
X107592533Y-107851320D01*
X107593726Y-107902439D01*
X107597793Y-107952279D01*
X107604746Y-107995423D01*
X107619053Y-108044646D01*
X107641626Y-108088235D01*
X107676545Y-108123765D01*
X107701710Y-108137572D01*
X107750787Y-108150166D01*
X107784264Y-108152227D01*
X107834880Y-108146339D01*
X107855827Y-108139771D01*
X107898206Y-108115457D01*
X107912247Y-108102646D01*
X107941004Y-108061759D01*
X107949372Y-108042806D01*
X107960916Y-107995026D01*
X107962806Y-107962694D01*
X107958493Y-107912525D01*
X107952792Y-107888933D01*
X107930371Y-107843442D01*
X107921528Y-107833002D01*
X107881320Y-107803539D01*
X107867551Y-107797586D01*
X107819340Y-107786386D01*
X107789637Y-107784886D01*
X107740235Y-107789608D01*
X107736881Y-107790259D01*
X107688987Y-107802966D01*
X107684124Y-107804669D01*
X107637971Y-107824433D01*
X107635032Y-107825918D01*
X107592533Y-107851320D01*
X107469006Y-107851320D01*
X107470183Y-107803055D01*
X107473892Y-107753516D01*
X107477739Y-107721138D01*
X107486976Y-107670038D01*
X107500003Y-107621518D01*
X107507293Y-107599994D01*
X107528029Y-107552069D01*
X107553909Y-107507884D01*
X107562247Y-107495946D01*
X107595560Y-107457104D01*
X107635230Y-107423498D01*
X107647732Y-107414858D01*
X107692389Y-107389773D01*
X107738906Y-107371054D01*
X107768388Y-107362101D01*
X107818674Y-107351394D01*
X107868897Y-107345517D01*
X107917768Y-107343368D01*
X107929100Y-107343295D01*
X108017760Y-107343295D01*
X108017760Y-107448808D01*
G37*
D11*
G36*
X142745000Y-90397034D02*
G01*
X141408503Y-90397034D01*
X141408503Y-90139480D01*
X142533974Y-90139480D01*
X142533974Y-89570516D01*
X142745000Y-89570516D01*
X142745000Y-90397034D01*
G37*
G36*
X142745000Y-89256908D02*
G01*
X141408503Y-89256908D01*
X141408503Y-88446144D01*
X141619528Y-88446144D01*
X141619528Y-88999354D01*
X141947791Y-88999354D01*
X141947791Y-88471789D01*
X142158817Y-88471789D01*
X142158817Y-88999354D01*
X142533974Y-88999354D01*
X142533974Y-88446144D01*
X142745000Y-88446144D01*
X142745000Y-89256908D01*
G37*
G36*
X142135782Y-87190110D02*
G01*
X142216880Y-87198643D01*
X142293458Y-87213320D01*
X142341999Y-87226517D01*
X142417612Y-87254818D01*
X142485997Y-87291633D01*
X142547156Y-87336963D01*
X142558520Y-87347051D01*
X142610419Y-87402621D01*
X142654376Y-87467207D01*
X142687146Y-87533043D01*
X142696639Y-87556612D01*
X142720017Y-87632504D01*
X142734374Y-87706629D01*
X142742685Y-87787029D01*
X142745000Y-87862526D01*
X142745000Y-88204710D01*
X141408503Y-88204710D01*
X141408503Y-87822592D01*
X141619528Y-87822592D01*
X141619528Y-87951186D01*
X142533974Y-87951186D01*
X142533974Y-87839811D01*
X142528697Y-87762664D01*
X142509743Y-87684972D01*
X142477005Y-87618454D01*
X142423698Y-87556978D01*
X142360638Y-87514503D01*
X142292462Y-87487292D01*
X142212154Y-87469372D01*
X142133663Y-87461408D01*
X142076385Y-87459891D01*
X141998401Y-87462364D01*
X141921476Y-87470625D01*
X141883311Y-87477477D01*
X141809423Y-87499276D01*
X141743385Y-87534241D01*
X141739696Y-87536828D01*
X141685090Y-87588983D01*
X141650303Y-87648569D01*
X141628214Y-87721658D01*
X141620009Y-87797112D01*
X141619528Y-87822592D01*
X141408503Y-87822592D01*
X141408503Y-87806106D01*
X141410907Y-87731230D01*
X141419359Y-87652797D01*
X141433898Y-87580508D01*
X141446971Y-87535729D01*
X141474863Y-87466935D01*
X141514967Y-87400023D01*
X141564940Y-87342288D01*
X141624914Y-87293732D01*
X141695018Y-87254352D01*
X141767540Y-87226517D01*
X141840286Y-87207745D01*
X141920451Y-87195116D01*
X141997937Y-87189048D01*
X142059898Y-87187683D01*
X142135782Y-87190110D01*
G37*
D10*
G36*
X106257139Y-99725390D02*
G01*
X106308677Y-99732388D01*
X106335660Y-99738193D01*
X106383011Y-99753322D01*
X106428505Y-99776376D01*
X106443371Y-99786309D01*
X106480330Y-99818900D01*
X106509996Y-99858971D01*
X106517132Y-99871794D01*
X106535002Y-99918051D01*
X106543411Y-99967476D01*
X106544732Y-99999289D01*
X106540170Y-100050823D01*
X106527681Y-100098535D01*
X106523971Y-100108710D01*
X106501625Y-100153957D01*
X106470489Y-100194809D01*
X106459979Y-100205674D01*
X106420863Y-100237742D01*
X106377673Y-100262620D01*
X106349337Y-100275039D01*
X106300072Y-100290196D01*
X106249926Y-100298516D01*
X106200430Y-100301558D01*
X106188870Y-100301662D01*
X106077495Y-100301662D01*
X106077495Y-100614293D01*
X105955129Y-100614293D01*
X105955129Y-100196149D01*
X106077495Y-100196149D01*
X106191556Y-100196149D01*
X106242664Y-100193172D01*
X106292716Y-100182707D01*
X106339084Y-100162242D01*
X106358619Y-100148521D01*
X106392131Y-100110005D01*
X106411733Y-100059945D01*
X106417424Y-100010400D01*
X106417481Y-100004418D01*
X106411947Y-99954057D01*
X106393078Y-99907862D01*
X106360817Y-99871306D01*
X106316550Y-99844885D01*
X106267090Y-99830383D01*
X106215072Y-99825081D01*
X106202547Y-99824900D01*
X106077495Y-99824900D01*
X106077495Y-100196149D01*
X105955129Y-100196149D01*
X105955129Y-99723295D01*
X106207921Y-99723295D01*
X106257139Y-99725390D01*
G37*
G36*
X107382240Y-100614293D02*
G01*
X107248884Y-100614293D01*
X107186358Y-100426714D01*
X106812666Y-100426714D01*
X106749407Y-100614293D01*
X106622401Y-100614293D01*
X106721808Y-100317293D01*
X106847837Y-100317293D01*
X107151431Y-100317293D01*
X106999512Y-99836135D01*
X106847837Y-100317293D01*
X106721808Y-100317293D01*
X106920621Y-99723295D01*
X107088172Y-99723295D01*
X107382240Y-100614293D01*
G37*
G36*
X108017760Y-99828808D02*
G01*
X107921528Y-99828808D01*
X107868795Y-99831059D01*
X107816994Y-99838649D01*
X107782066Y-99847858D01*
X107734161Y-99867520D01*
X107690823Y-99895226D01*
X107683147Y-99901592D01*
X107647976Y-99939877D01*
X107623433Y-99982313D01*
X107622087Y-99985367D01*
X107605600Y-100033739D01*
X107596411Y-100083534D01*
X107595220Y-100094788D01*
X107592533Y-100129715D01*
X107636014Y-100105622D01*
X107681922Y-100087590D01*
X107692429Y-100084286D01*
X107743786Y-100072598D01*
X107794657Y-100067606D01*
X107815039Y-100067189D01*
X107867584Y-100070454D01*
X107917860Y-100081273D01*
X107934229Y-100086972D01*
X107978504Y-100108954D01*
X108017331Y-100139973D01*
X108019470Y-100142171D01*
X108050785Y-100183538D01*
X108070517Y-100226679D01*
X108082964Y-100274850D01*
X108087705Y-100323684D01*
X108087858Y-100334634D01*
X108084149Y-100383394D01*
X108071861Y-100433108D01*
X108065388Y-100450161D01*
X108042293Y-100494727D01*
X108011906Y-100533963D01*
X108001884Y-100544195D01*
X107962708Y-100575804D01*
X107916987Y-100600962D01*
X107902722Y-100606965D01*
X107853436Y-100621830D01*
X107804291Y-100628825D01*
X107774006Y-100629924D01*
X107724979Y-100627153D01*
X107676104Y-100617811D01*
X107642603Y-100606477D01*
X107599388Y-100583075D01*
X107562220Y-100551370D01*
X107547104Y-100533937D01*
X107518971Y-100489856D01*
X107498369Y-100441725D01*
X107488730Y-100410350D01*
X107478297Y-100360991D01*
X107472212Y-100312040D01*
X107469256Y-100258801D01*
X107468946Y-100233762D01*
X107469006Y-100231320D01*
X107592533Y-100231320D01*
X107593726Y-100282439D01*
X107597793Y-100332279D01*
X107604746Y-100375423D01*
X107619053Y-100424646D01*
X107641626Y-100468235D01*
X107676545Y-100503765D01*
X107701710Y-100517572D01*
X107750787Y-100530166D01*
X107784264Y-100532227D01*
X107834880Y-100526339D01*
X107855827Y-100519771D01*
X107898206Y-100495457D01*
X107912247Y-100482646D01*
X107941004Y-100441759D01*
X107949372Y-100422806D01*
X107960916Y-100375026D01*
X107962806Y-100342694D01*
X107958493Y-100292525D01*
X107952792Y-100268933D01*
X107930371Y-100223442D01*
X107921528Y-100213002D01*
X107881320Y-100183539D01*
X107867551Y-100177586D01*
X107819340Y-100166386D01*
X107789637Y-100164886D01*
X107740235Y-100169608D01*
X107736881Y-100170259D01*
X107688987Y-100182966D01*
X107684124Y-100184669D01*
X107637971Y-100204433D01*
X107635032Y-100205918D01*
X107592533Y-100231320D01*
X107469006Y-100231320D01*
X107470183Y-100183055D01*
X107473892Y-100133516D01*
X107477739Y-100101138D01*
X107486976Y-100050038D01*
X107500003Y-100001518D01*
X107507293Y-99979994D01*
X107528029Y-99932069D01*
X107553909Y-99887884D01*
X107562247Y-99875946D01*
X107595560Y-99837104D01*
X107635230Y-99803498D01*
X107647732Y-99794858D01*
X107692389Y-99769773D01*
X107738906Y-99751054D01*
X107768388Y-99742101D01*
X107818674Y-99731394D01*
X107868897Y-99725517D01*
X107917768Y-99723368D01*
X107929100Y-99723295D01*
X108017760Y-99723295D01*
X108017760Y-99828808D01*
G37*
G36*
X141557139Y-97185390D02*
G01*
X141608677Y-97192388D01*
X141635660Y-97198193D01*
X141683011Y-97213322D01*
X141728505Y-97236376D01*
X141743371Y-97246309D01*
X141780330Y-97278900D01*
X141809996Y-97318971D01*
X141817132Y-97331794D01*
X141835002Y-97378051D01*
X141843411Y-97427476D01*
X141844732Y-97459289D01*
X141840170Y-97510823D01*
X141827681Y-97558535D01*
X141823971Y-97568710D01*
X141801625Y-97613957D01*
X141770489Y-97654809D01*
X141759979Y-97665674D01*
X141720863Y-97697742D01*
X141677673Y-97722620D01*
X141649337Y-97735039D01*
X141600072Y-97750196D01*
X141549926Y-97758516D01*
X141500430Y-97761558D01*
X141488870Y-97761662D01*
X141377495Y-97761662D01*
X141377495Y-98074293D01*
X141255129Y-98074293D01*
X141255129Y-97656149D01*
X141377495Y-97656149D01*
X141491556Y-97656149D01*
X141542664Y-97653172D01*
X141592716Y-97642707D01*
X141639084Y-97622242D01*
X141658619Y-97608521D01*
X141692131Y-97570005D01*
X141711733Y-97519945D01*
X141717424Y-97470400D01*
X141717481Y-97464418D01*
X141711947Y-97414057D01*
X141693078Y-97367862D01*
X141660817Y-97331306D01*
X141616550Y-97304885D01*
X141567090Y-97290383D01*
X141515072Y-97285081D01*
X141502547Y-97284900D01*
X141377495Y-97284900D01*
X141377495Y-97656149D01*
X141255129Y-97656149D01*
X141255129Y-97183295D01*
X141507921Y-97183295D01*
X141557139Y-97185390D01*
G37*
G36*
X142334594Y-97185209D02*
G01*
X142397912Y-97193720D01*
X142451849Y-97209038D01*
X142496407Y-97231165D01*
X142538912Y-97268398D01*
X142566760Y-97316269D01*
X142579951Y-97374777D01*
X142581124Y-97401159D01*
X142576247Y-97452828D01*
X142559955Y-97502213D01*
X142546441Y-97525967D01*
X142511087Y-97563843D01*
X142465715Y-97591005D01*
X142433601Y-97603392D01*
X142481793Y-97617298D01*
X142502478Y-97626595D01*
X142543670Y-97653378D01*
X142559875Y-97668605D01*
X142588945Y-97708485D01*
X142598953Y-97729666D01*
X142611547Y-97777160D01*
X142613608Y-97809045D01*
X142609456Y-97858461D01*
X142595698Y-97906360D01*
X142588451Y-97922129D01*
X142560197Y-97964826D01*
X142522606Y-98000869D01*
X142516888Y-98005172D01*
X142472756Y-98031746D01*
X142425079Y-98050812D01*
X142405025Y-98056707D01*
X142353688Y-98067423D01*
X142303008Y-98072901D01*
X142258967Y-98074293D01*
X142024006Y-98074293D01*
X142024006Y-97972687D01*
X142146371Y-97972687D01*
X142275576Y-97972687D01*
X142324745Y-97970276D01*
X142376804Y-97960477D01*
X142422003Y-97940994D01*
X142432136Y-97934097D01*
X142465503Y-97895567D01*
X142481205Y-97847264D01*
X142483671Y-97813441D01*
X142474875Y-97764801D01*
X142469261Y-97752625D01*
X142437137Y-97714213D01*
X142427251Y-97706951D01*
X142381619Y-97684459D01*
X142360328Y-97678131D01*
X142309898Y-97669565D01*
X142271424Y-97667872D01*
X142146371Y-97667872D01*
X142146371Y-97972687D01*
X142024006Y-97972687D01*
X142024006Y-97566267D01*
X142146371Y-97566267D01*
X142268737Y-97566267D01*
X142317891Y-97562833D01*
X142344452Y-97557475D01*
X142390111Y-97538561D01*
X142402826Y-97529875D01*
X142436218Y-97491944D01*
X142440684Y-97483469D01*
X142453278Y-97435659D01*
X142454117Y-97417035D01*
X142446819Y-97368077D01*
X142445813Y-97365011D01*
X142418278Y-97324336D01*
X142416993Y-97323246D01*
X142373979Y-97299506D01*
X142361305Y-97295402D01*
X142310396Y-97286377D01*
X142272889Y-97284900D01*
X142146371Y-97284900D01*
X142146371Y-97566267D01*
X142024006Y-97566267D01*
X142024006Y-97183295D01*
X142280949Y-97183295D01*
X142334594Y-97185209D01*
G37*
G36*
X143268423Y-97765570D02*
G01*
X143421563Y-97765570D01*
X143421563Y-97871082D01*
X143268423Y-97871082D01*
X143268423Y-98074293D01*
X143146057Y-98074293D01*
X143146057Y-97871082D01*
X142713992Y-97871082D01*
X142713992Y-97765570D01*
X142833427Y-97765570D01*
X143146057Y-97765570D01*
X143146057Y-97296868D01*
X142833427Y-97765570D01*
X142713992Y-97765570D01*
X143096720Y-97183295D01*
X143268423Y-97183295D01*
X143268423Y-97765570D01*
G37*
G36*
X141557139Y-94645390D02*
G01*
X141608677Y-94652388D01*
X141635660Y-94658193D01*
X141683011Y-94673322D01*
X141728505Y-94696376D01*
X141743371Y-94706309D01*
X141780330Y-94738900D01*
X141809996Y-94778971D01*
X141817132Y-94791794D01*
X141835002Y-94838051D01*
X141843411Y-94887476D01*
X141844732Y-94919289D01*
X141840170Y-94970823D01*
X141827681Y-95018535D01*
X141823971Y-95028710D01*
X141801625Y-95073957D01*
X141770489Y-95114809D01*
X141759979Y-95125674D01*
X141720863Y-95157742D01*
X141677673Y-95182620D01*
X141649337Y-95195039D01*
X141600072Y-95210196D01*
X141549926Y-95218516D01*
X141500430Y-95221558D01*
X141488870Y-95221662D01*
X141377495Y-95221662D01*
X141377495Y-95534293D01*
X141255129Y-95534293D01*
X141255129Y-95116149D01*
X141377495Y-95116149D01*
X141491556Y-95116149D01*
X141542664Y-95113172D01*
X141592716Y-95102707D01*
X141639084Y-95082242D01*
X141658619Y-95068521D01*
X141692131Y-95030005D01*
X141711733Y-94979945D01*
X141717424Y-94930400D01*
X141717481Y-94924418D01*
X141711947Y-94874057D01*
X141693078Y-94827862D01*
X141660817Y-94791306D01*
X141616550Y-94764885D01*
X141567090Y-94750383D01*
X141515072Y-94745081D01*
X141502547Y-94744900D01*
X141377495Y-94744900D01*
X141377495Y-95116149D01*
X141255129Y-95116149D01*
X141255129Y-94643295D01*
X141507921Y-94643295D01*
X141557139Y-94645390D01*
G37*
G36*
X142334594Y-94645209D02*
G01*
X142397912Y-94653720D01*
X142451849Y-94669038D01*
X142496407Y-94691165D01*
X142538912Y-94728398D01*
X142566760Y-94776269D01*
X142579951Y-94834777D01*
X142581124Y-94861159D01*
X142576247Y-94912828D01*
X142559955Y-94962213D01*
X142546441Y-94985967D01*
X142511087Y-95023843D01*
X142465715Y-95051005D01*
X142433601Y-95063392D01*
X142481793Y-95077298D01*
X142502478Y-95086595D01*
X142543670Y-95113378D01*
X142559875Y-95128605D01*
X142588945Y-95168485D01*
X142598953Y-95189666D01*
X142611547Y-95237160D01*
X142613608Y-95269045D01*
X142609456Y-95318461D01*
X142595698Y-95366360D01*
X142588451Y-95382129D01*
X142560197Y-95424826D01*
X142522606Y-95460869D01*
X142516888Y-95465172D01*
X142472756Y-95491746D01*
X142425079Y-95510812D01*
X142405025Y-95516707D01*
X142353688Y-95527423D01*
X142303008Y-95532901D01*
X142258967Y-95534293D01*
X142024006Y-95534293D01*
X142024006Y-95432687D01*
X142146371Y-95432687D01*
X142275576Y-95432687D01*
X142324745Y-95430276D01*
X142376804Y-95420477D01*
X142422003Y-95400994D01*
X142432136Y-95394097D01*
X142465503Y-95355567D01*
X142481205Y-95307264D01*
X142483671Y-95273441D01*
X142474875Y-95224801D01*
X142469261Y-95212625D01*
X142437137Y-95174213D01*
X142427251Y-95166951D01*
X142381619Y-95144459D01*
X142360328Y-95138131D01*
X142309898Y-95129565D01*
X142271424Y-95127872D01*
X142146371Y-95127872D01*
X142146371Y-95432687D01*
X142024006Y-95432687D01*
X142024006Y-95026267D01*
X142146371Y-95026267D01*
X142268737Y-95026267D01*
X142317891Y-95022833D01*
X142344452Y-95017475D01*
X142390111Y-94998561D01*
X142402826Y-94989875D01*
X142436218Y-94951944D01*
X142440684Y-94943469D01*
X142453278Y-94895659D01*
X142454117Y-94877035D01*
X142446819Y-94828077D01*
X142445813Y-94825011D01*
X142418278Y-94784336D01*
X142416993Y-94783246D01*
X142373979Y-94759506D01*
X142361305Y-94755402D01*
X142310396Y-94746377D01*
X142272889Y-94744900D01*
X142146371Y-94744900D01*
X142146371Y-95026267D01*
X142024006Y-95026267D01*
X142024006Y-94643295D01*
X142280949Y-94643295D01*
X142334594Y-94645209D01*
G37*
G36*
X143354152Y-95253902D02*
G01*
X143349396Y-95305588D01*
X143335126Y-95353485D01*
X143325332Y-95374313D01*
X143298327Y-95415870D01*
X143264148Y-95452427D01*
X143245953Y-95467614D01*
X143202009Y-95496346D01*
X143156007Y-95517858D01*
X143126762Y-95528186D01*
X143078279Y-95540562D01*
X143027198Y-95547801D01*
X142978507Y-95549924D01*
X142935520Y-95548947D01*
X142889847Y-95546260D01*
X142845395Y-95542841D01*
X142806804Y-95538200D01*
X142806804Y-95428780D01*
X142857313Y-95437233D01*
X142891556Y-95440747D01*
X142942505Y-95443606D01*
X142988032Y-95444411D01*
X143037137Y-95441620D01*
X143086951Y-95431711D01*
X143134508Y-95412550D01*
X143161689Y-95395074D01*
X143196090Y-95359346D01*
X143209072Y-95337189D01*
X143223718Y-95289053D01*
X143225681Y-95260985D01*
X143218581Y-95209875D01*
X143194641Y-95166232D01*
X143165597Y-95141794D01*
X143118084Y-95120519D01*
X143069980Y-95109680D01*
X143020246Y-95105009D01*
X142992917Y-95104425D01*
X142822436Y-95104425D01*
X142822436Y-94643295D01*
X143306037Y-94643295D01*
X143306037Y-94748808D01*
X142935276Y-94748808D01*
X142935276Y-95002820D01*
X143013434Y-95002820D01*
X143065417Y-95004715D01*
X143116192Y-95010398D01*
X143139219Y-95014299D01*
X143186613Y-95026529D01*
X143232695Y-95046190D01*
X143247907Y-95054844D01*
X143288654Y-95086210D01*
X143321137Y-95126271D01*
X143324843Y-95132269D01*
X143344879Y-95179352D01*
X143353437Y-95231612D01*
X143354152Y-95253902D01*
G37*
G36*
X106257139Y-92105390D02*
G01*
X106308677Y-92112388D01*
X106335660Y-92118193D01*
X106383011Y-92133322D01*
X106428505Y-92156376D01*
X106443371Y-92166309D01*
X106480330Y-92198900D01*
X106509996Y-92238971D01*
X106517132Y-92251794D01*
X106535002Y-92298051D01*
X106543411Y-92347476D01*
X106544732Y-92379289D01*
X106540170Y-92430823D01*
X106527681Y-92478535D01*
X106523971Y-92488710D01*
X106501625Y-92533957D01*
X106470489Y-92574809D01*
X106459979Y-92585674D01*
X106420863Y-92617742D01*
X106377673Y-92642620D01*
X106349337Y-92655039D01*
X106300072Y-92670196D01*
X106249926Y-92678516D01*
X106200430Y-92681558D01*
X106188870Y-92681662D01*
X106077495Y-92681662D01*
X106077495Y-92994293D01*
X105955129Y-92994293D01*
X105955129Y-92576149D01*
X106077495Y-92576149D01*
X106191556Y-92576149D01*
X106242664Y-92573172D01*
X106292716Y-92562707D01*
X106339084Y-92542242D01*
X106358619Y-92528521D01*
X106392131Y-92490005D01*
X106411733Y-92439945D01*
X106417424Y-92390400D01*
X106417481Y-92384418D01*
X106411947Y-92334057D01*
X106393078Y-92287862D01*
X106360817Y-92251306D01*
X106316550Y-92224885D01*
X106267090Y-92210383D01*
X106215072Y-92205081D01*
X106202547Y-92204900D01*
X106077495Y-92204900D01*
X106077495Y-92576149D01*
X105955129Y-92576149D01*
X105955129Y-92103295D01*
X106207921Y-92103295D01*
X106257139Y-92105390D01*
G37*
G36*
X107382240Y-92994293D02*
G01*
X107248884Y-92994293D01*
X107186358Y-92806714D01*
X106812666Y-92806714D01*
X106749407Y-92994293D01*
X106622401Y-92994293D01*
X106721808Y-92697293D01*
X106847837Y-92697293D01*
X107151431Y-92697293D01*
X106999512Y-92216135D01*
X106847837Y-92697293D01*
X106721808Y-92697293D01*
X106920621Y-92103295D01*
X107088172Y-92103295D01*
X107382240Y-92994293D01*
G37*
G36*
X108059770Y-92727335D02*
G01*
X108055142Y-92777270D01*
X108041257Y-92824494D01*
X108035590Y-92837489D01*
X108010018Y-92879937D01*
X107975189Y-92917524D01*
X107963538Y-92927370D01*
X107920373Y-92955866D01*
X107873301Y-92977447D01*
X107842638Y-92987942D01*
X107794786Y-92999534D01*
X107742212Y-93006833D01*
X107690858Y-93009731D01*
X107672889Y-93009924D01*
X107622087Y-93008825D01*
X107576658Y-93005528D01*
X107528085Y-92999446D01*
X107497034Y-92994293D01*
X107497034Y-92888780D01*
X107546588Y-92896216D01*
X107587160Y-92900503D01*
X107638056Y-92903552D01*
X107683880Y-92904411D01*
X107735387Y-92902476D01*
X107786703Y-92895435D01*
X107798919Y-92892687D01*
X107847133Y-92875978D01*
X107876832Y-92858493D01*
X107911788Y-92821623D01*
X107920796Y-92804516D01*
X107933358Y-92757048D01*
X107934718Y-92732953D01*
X107925375Y-92683722D01*
X107918109Y-92669694D01*
X107884192Y-92632849D01*
X107871703Y-92624509D01*
X107825190Y-92603708D01*
X107800384Y-92597154D01*
X107751122Y-92589649D01*
X107709281Y-92587872D01*
X107606944Y-92587872D01*
X107606944Y-92490175D01*
X107710747Y-92490175D01*
X107760806Y-92485547D01*
X107784508Y-92479429D01*
X107829205Y-92458088D01*
X107841661Y-92448654D01*
X107872904Y-92409982D01*
X107878053Y-92399317D01*
X107889960Y-92350590D01*
X107890754Y-92332394D01*
X107884571Y-92283370D01*
X107859456Y-92237739D01*
X107846790Y-92226393D01*
X107800421Y-92203686D01*
X107748100Y-92194344D01*
X107717586Y-92193176D01*
X107668559Y-92195382D01*
X107624041Y-92200992D01*
X107574398Y-92210761D01*
X107524642Y-92223470D01*
X107521214Y-92224439D01*
X107521214Y-92118926D01*
X107569150Y-92106105D01*
X107570796Y-92105737D01*
X107618848Y-92096717D01*
X107623796Y-92095967D01*
X107673041Y-92090143D01*
X107676309Y-92089861D01*
X107725110Y-92087665D01*
X107726623Y-92087663D01*
X107777708Y-92089861D01*
X107827623Y-92097204D01*
X107852164Y-92103295D01*
X107899254Y-92120901D01*
X107943022Y-92147991D01*
X107978322Y-92184630D01*
X107997976Y-92218577D01*
X108012460Y-92265658D01*
X108016539Y-92312122D01*
X108011864Y-92362576D01*
X107996098Y-92410902D01*
X107976972Y-92442548D01*
X107943209Y-92478944D01*
X107901272Y-92509364D01*
X107868772Y-92526323D01*
X107916335Y-92538906D01*
X107937649Y-92548061D01*
X107979478Y-92573536D01*
X107998953Y-92590071D01*
X108031382Y-92629500D01*
X108042917Y-92650399D01*
X108057779Y-92699180D01*
X108059770Y-92727335D01*
G37*
D11*
G36*
X112449961Y-104511349D02*
G01*
X112523970Y-104519889D01*
X112600090Y-104537046D01*
X112673603Y-104566144D01*
X112712247Y-104589469D01*
X112767856Y-104641385D01*
X112805266Y-104706458D01*
X112824476Y-104784688D01*
X112827285Y-104833834D01*
X112820484Y-104908435D01*
X112815195Y-104932752D01*
X112788827Y-105003047D01*
X112778558Y-105021046D01*
X112732602Y-105078425D01*
X112717009Y-105092487D01*
X112653880Y-105131574D01*
X112629448Y-105141214D01*
X112702607Y-105162165D01*
X112725802Y-105173087D01*
X112788107Y-105216845D01*
X112806036Y-105235003D01*
X112848159Y-105296440D01*
X112860624Y-105324396D01*
X112878393Y-105397080D01*
X112880774Y-105439434D01*
X112874165Y-105523108D01*
X112854337Y-105597174D01*
X112815491Y-105670058D01*
X112759380Y-105730393D01*
X112742655Y-105743517D01*
X112676372Y-105783059D01*
X112598379Y-105812890D01*
X112522207Y-105830728D01*
X112437430Y-105841432D01*
X112360211Y-105844900D01*
X112344050Y-105845000D01*
X111932990Y-105845000D01*
X111932990Y-105633974D01*
X112184316Y-105633974D01*
X112361636Y-105633974D01*
X112434989Y-105627662D01*
X112468248Y-105619319D01*
X112534834Y-105585886D01*
X112544818Y-105577920D01*
X112590713Y-105517873D01*
X112591713Y-105515638D01*
X112607770Y-105444133D01*
X112607833Y-105439068D01*
X112591438Y-105363688D01*
X112542254Y-105306810D01*
X112471799Y-105274002D01*
X112397649Y-105261113D01*
X112341852Y-105258817D01*
X112184316Y-105258817D01*
X112184316Y-105633974D01*
X111932990Y-105633974D01*
X111932990Y-105071238D01*
X112184316Y-105071238D01*
X112337822Y-105071238D01*
X112413778Y-105064312D01*
X112442236Y-105056584D01*
X112506990Y-105020695D01*
X112512212Y-105015917D01*
X112551413Y-104956566D01*
X112563503Y-104884026D01*
X112551046Y-104816249D01*
X112511479Y-104764225D01*
X112443801Y-104731994D01*
X112441137Y-104731252D01*
X112367086Y-104720261D01*
X112337822Y-104719528D01*
X112184316Y-104719528D01*
X112184316Y-105071238D01*
X111932990Y-105071238D01*
X111932990Y-104508503D01*
X112367864Y-104508503D01*
X112449961Y-104511349D01*
G37*
G36*
X113621463Y-104770536D02*
G01*
X113699172Y-104784403D01*
X113752721Y-104801228D01*
X113822781Y-104835069D01*
X113883529Y-104880036D01*
X113908426Y-104904542D01*
X113955202Y-104965649D01*
X113989471Y-105031714D01*
X114005512Y-105074535D01*
X114024702Y-105147819D01*
X114035235Y-105220978D01*
X114039185Y-105300361D01*
X114039218Y-105308642D01*
X114035783Y-105384420D01*
X114024071Y-105462981D01*
X114004047Y-105536521D01*
X113973564Y-105609885D01*
X113934323Y-105675006D01*
X113903297Y-105713841D01*
X113849613Y-105764434D01*
X113787480Y-105805753D01*
X113741364Y-105828147D01*
X113665835Y-105852705D01*
X113589903Y-105865259D01*
X113523011Y-105868447D01*
X113446023Y-105864421D01*
X113368554Y-105850845D01*
X113314916Y-105834375D01*
X113245093Y-105800831D01*
X113184461Y-105756162D01*
X113159577Y-105731793D01*
X113112680Y-105670803D01*
X113078085Y-105604523D01*
X113061758Y-105561434D01*
X113042360Y-105487178D01*
X113031712Y-105412760D01*
X113027719Y-105331759D01*
X113027686Y-105323297D01*
X113027969Y-105317069D01*
X113289270Y-105317069D01*
X113293392Y-105396318D01*
X113307882Y-105473047D01*
X113336218Y-105542871D01*
X113355216Y-105571692D01*
X113411476Y-105623933D01*
X113481337Y-105652063D01*
X113535467Y-105657421D01*
X113610916Y-105646219D01*
X113644644Y-105631409D01*
X113702254Y-105583608D01*
X113719748Y-105559235D01*
X113751424Y-105491225D01*
X113762979Y-105450059D01*
X113774829Y-105376269D01*
X113777634Y-105314870D01*
X113773787Y-105236010D01*
X113760263Y-105159774D01*
X113733816Y-105090565D01*
X113716085Y-105062079D01*
X113662006Y-105010508D01*
X113591544Y-104982738D01*
X113535467Y-104977449D01*
X113460620Y-104987896D01*
X113422993Y-105004193D01*
X113364963Y-105052522D01*
X113346789Y-105077100D01*
X113314625Y-105144472D01*
X113303192Y-105185177D01*
X113291568Y-105261367D01*
X113289270Y-105317069D01*
X113027969Y-105317069D01*
X113031157Y-105246976D01*
X113042991Y-105168147D01*
X113063224Y-105094685D01*
X113094204Y-105021750D01*
X113133840Y-104957368D01*
X113165073Y-104919197D01*
X113219152Y-104869154D01*
X113281371Y-104828384D01*
X113327372Y-104806357D01*
X113402815Y-104782022D01*
X113478035Y-104769582D01*
X113543893Y-104766423D01*
X113621463Y-104770536D01*
G37*
G36*
X115113398Y-105845000D02*
G01*
X115040788Y-105855047D01*
X114976378Y-105861852D01*
X114901094Y-105867185D01*
X114845586Y-105868447D01*
X114772341Y-105865356D01*
X114696918Y-105853935D01*
X114667899Y-105846465D01*
X114599572Y-105818713D01*
X114544068Y-105779420D01*
X114497249Y-105720662D01*
X114471894Y-105664382D01*
X114455327Y-105592984D01*
X114449016Y-105515887D01*
X114448813Y-105498053D01*
X114448813Y-104977449D01*
X114167445Y-104977449D01*
X114167445Y-104789870D01*
X114448813Y-104789870D01*
X114448813Y-104527187D01*
X114706367Y-104461608D01*
X114706367Y-104789870D01*
X115113398Y-104789870D01*
X115113398Y-104977449D01*
X114706367Y-104977449D01*
X114706367Y-105474605D01*
X114715383Y-105549518D01*
X114747400Y-105611259D01*
X114811478Y-105648585D01*
X114885519Y-105657421D01*
X114961626Y-105654702D01*
X115006053Y-105650460D01*
X115078895Y-105640054D01*
X115113398Y-105633974D01*
X115113398Y-105845000D01*
G37*
G36*
X116266713Y-105845000D02*
G01*
X116194103Y-105855047D01*
X116129692Y-105861852D01*
X116054409Y-105867185D01*
X115998900Y-105868447D01*
X115925656Y-105865356D01*
X115850232Y-105853935D01*
X115821214Y-105846465D01*
X115752887Y-105818713D01*
X115697383Y-105779420D01*
X115650564Y-105720662D01*
X115625209Y-105664382D01*
X115608642Y-105592984D01*
X115602331Y-105515887D01*
X115602128Y-105498053D01*
X115602128Y-104977449D01*
X115320760Y-104977449D01*
X115320760Y-104789870D01*
X115602128Y-104789870D01*
X115602128Y-104527187D01*
X115859682Y-104461608D01*
X115859682Y-104789870D01*
X116266713Y-104789870D01*
X116266713Y-104977449D01*
X115859682Y-104977449D01*
X115859682Y-105474605D01*
X115868698Y-105549518D01*
X115900715Y-105611259D01*
X115964793Y-105648585D01*
X116038834Y-105657421D01*
X116114941Y-105654702D01*
X116159368Y-105650460D01*
X116232210Y-105640054D01*
X116266713Y-105633974D01*
X116266713Y-105845000D01*
G37*
G36*
X117081407Y-104770536D02*
G01*
X117159117Y-104784403D01*
X117212665Y-104801228D01*
X117282725Y-104835069D01*
X117343473Y-104880036D01*
X117368370Y-104904542D01*
X117415146Y-104965649D01*
X117449416Y-105031714D01*
X117465457Y-105074535D01*
X117484646Y-105147819D01*
X117495179Y-105220978D01*
X117499129Y-105300361D01*
X117499162Y-105308642D01*
X117495727Y-105384420D01*
X117484015Y-105462981D01*
X117463991Y-105536521D01*
X117433508Y-105609885D01*
X117394267Y-105675006D01*
X117363241Y-105713841D01*
X117309557Y-105764434D01*
X117247424Y-105805753D01*
X117201308Y-105828147D01*
X117125780Y-105852705D01*
X117049847Y-105865259D01*
X116982955Y-105868447D01*
X116905968Y-105864421D01*
X116828499Y-105850845D01*
X116774860Y-105834375D01*
X116705037Y-105800831D01*
X116644406Y-105756162D01*
X116619521Y-105731793D01*
X116572624Y-105670803D01*
X116538029Y-105604523D01*
X116521702Y-105561434D01*
X116502304Y-105487178D01*
X116491656Y-105412760D01*
X116487664Y-105331759D01*
X116487630Y-105323297D01*
X116487913Y-105317069D01*
X116749214Y-105317069D01*
X116753336Y-105396318D01*
X116767826Y-105473047D01*
X116796162Y-105542871D01*
X116815160Y-105571692D01*
X116871420Y-105623933D01*
X116941281Y-105652063D01*
X116995411Y-105657421D01*
X117070860Y-105646219D01*
X117104588Y-105631409D01*
X117162198Y-105583608D01*
X117179692Y-105559235D01*
X117211369Y-105491225D01*
X117222923Y-105450059D01*
X117234773Y-105376269D01*
X117237578Y-105314870D01*
X117233731Y-105236010D01*
X117220207Y-105159774D01*
X117193760Y-105090565D01*
X117176029Y-105062079D01*
X117121950Y-105010508D01*
X117051488Y-104982738D01*
X116995411Y-104977449D01*
X116920564Y-104987896D01*
X116882937Y-105004193D01*
X116824907Y-105052522D01*
X116806734Y-105077100D01*
X116774569Y-105144472D01*
X116763136Y-105185177D01*
X116751512Y-105261367D01*
X116749214Y-105317069D01*
X116487913Y-105317069D01*
X116491101Y-105246976D01*
X116502935Y-105168147D01*
X116523168Y-105094685D01*
X116554148Y-105021750D01*
X116593784Y-104957368D01*
X116625017Y-104919197D01*
X116679096Y-104869154D01*
X116741315Y-104828384D01*
X116787316Y-104806357D01*
X116862759Y-104782022D01*
X116937979Y-104769582D01*
X117003838Y-104766423D01*
X117081407Y-104770536D01*
G37*
G36*
X118334106Y-105845000D02*
G01*
X118334106Y-105152205D01*
X118326115Y-105075749D01*
X118289030Y-105006290D01*
X118214112Y-104977620D01*
X118206245Y-104977449D01*
X118132482Y-104995918D01*
X118084246Y-105029839D01*
X118032013Y-105082833D01*
X117985233Y-105139642D01*
X117961147Y-105171988D01*
X117961147Y-105845000D01*
X117709822Y-105845000D01*
X117709822Y-104789870D01*
X117927076Y-104789870D01*
X117933304Y-104945575D01*
X117982557Y-104888697D01*
X117999616Y-104871570D01*
X118057128Y-104825515D01*
X118074354Y-104814783D01*
X118143711Y-104783937D01*
X118160816Y-104778879D01*
X118233568Y-104767408D01*
X118265230Y-104766423D01*
X118340334Y-104773109D01*
X118405181Y-104793168D01*
X118469427Y-104832241D01*
X118505198Y-104867906D01*
X118545951Y-104932002D01*
X118565648Y-104984043D01*
X118580761Y-105056217D01*
X118585779Y-105131200D01*
X118585799Y-105136451D01*
X118585799Y-105845000D01*
X118334106Y-105845000D01*
G37*
D10*
G36*
X140772701Y-107326097D02*
G01*
X140824239Y-107333095D01*
X140851222Y-107338900D01*
X140898573Y-107354029D01*
X140944067Y-107377083D01*
X140958933Y-107387016D01*
X140995892Y-107419607D01*
X141025558Y-107459678D01*
X141032694Y-107472501D01*
X141050564Y-107518758D01*
X141058973Y-107568183D01*
X141060294Y-107599996D01*
X141055732Y-107651530D01*
X141043243Y-107699242D01*
X141039533Y-107709417D01*
X141017187Y-107754664D01*
X140986051Y-107795516D01*
X140975541Y-107806381D01*
X140936425Y-107838449D01*
X140893235Y-107863327D01*
X140864899Y-107875746D01*
X140815634Y-107890903D01*
X140765488Y-107899223D01*
X140715992Y-107902265D01*
X140704432Y-107902369D01*
X140593057Y-107902369D01*
X140593057Y-108215000D01*
X140470691Y-108215000D01*
X140470691Y-107796856D01*
X140593057Y-107796856D01*
X140707118Y-107796856D01*
X140758226Y-107793879D01*
X140808278Y-107783414D01*
X140854646Y-107762949D01*
X140874181Y-107749228D01*
X140907693Y-107710712D01*
X140927295Y-107660652D01*
X140932986Y-107611107D01*
X140933043Y-107605125D01*
X140927509Y-107554764D01*
X140908640Y-107508569D01*
X140876379Y-107472013D01*
X140832112Y-107445592D01*
X140782652Y-107431090D01*
X140730634Y-107425788D01*
X140718109Y-107425607D01*
X140593057Y-107425607D01*
X140593057Y-107796856D01*
X140470691Y-107796856D01*
X140470691Y-107324002D01*
X140723483Y-107324002D01*
X140772701Y-107326097D01*
G37*
G36*
X141897802Y-108215000D02*
G01*
X141764446Y-108215000D01*
X141701920Y-108027421D01*
X141328228Y-108027421D01*
X141264969Y-108215000D01*
X141137963Y-108215000D01*
X141237370Y-107918000D01*
X141363399Y-107918000D01*
X141666993Y-107918000D01*
X141515074Y-107436842D01*
X141363399Y-107918000D01*
X141237370Y-107918000D01*
X141436183Y-107324002D01*
X141603734Y-107324002D01*
X141897802Y-108215000D01*
G37*
G36*
X142584857Y-108215000D02*
G01*
X142020901Y-108215000D01*
X142020901Y-108101671D01*
X142251710Y-108101671D01*
X142251710Y-107441238D01*
X142036776Y-107574106D01*
X141992813Y-107472501D01*
X142278577Y-107324002D01*
X142384334Y-107324002D01*
X142384334Y-108101671D01*
X142584857Y-108101671D01*
X142584857Y-108215000D01*
G37*
G36*
X143353734Y-108215000D02*
G01*
X142789777Y-108215000D01*
X142789777Y-108101671D01*
X143020587Y-108101671D01*
X143020587Y-107441238D01*
X142805653Y-107574106D01*
X142761689Y-107472501D01*
X143047453Y-107324002D01*
X143153211Y-107324002D01*
X143153211Y-108101671D01*
X143353734Y-108101671D01*
X143353734Y-108215000D01*
G37*
G36*
X106617516Y-87024002D02*
G01*
X106312457Y-87915000D01*
X106147593Y-87915000D01*
X105849372Y-87024002D01*
X105987614Y-87024002D01*
X106181298Y-87624595D01*
X106236253Y-87800450D01*
X106292429Y-87624595D01*
X106486846Y-87024002D01*
X106617516Y-87024002D01*
G37*
G36*
X107298953Y-87891552D02*
G01*
X107251327Y-87906779D01*
X107202696Y-87918266D01*
X107153060Y-87926013D01*
X107102418Y-87930020D01*
X107073029Y-87930631D01*
X107015724Y-87927852D01*
X106962724Y-87919516D01*
X106914029Y-87905622D01*
X106861278Y-87881614D01*
X106814727Y-87849603D01*
X106780670Y-87816814D01*
X106746057Y-87770203D01*
X106722684Y-87725496D01*
X106704283Y-87675458D01*
X106690856Y-87620090D01*
X106682402Y-87559391D01*
X106679219Y-87506993D01*
X106678821Y-87479515D01*
X106680576Y-87426712D01*
X106685843Y-87376505D01*
X106695964Y-87323124D01*
X106706909Y-87283876D01*
X106724621Y-87236797D01*
X106748788Y-87189428D01*
X106777677Y-87147258D01*
X106787265Y-87135621D01*
X106822055Y-87100201D01*
X106861091Y-87070267D01*
X106904372Y-87045818D01*
X106913538Y-87041587D01*
X106961686Y-87024070D01*
X107013315Y-87013041D01*
X107062759Y-87008662D01*
X107079868Y-87008370D01*
X107129179Y-87010426D01*
X107178947Y-87017238D01*
X107195883Y-87020826D01*
X107245292Y-87035456D01*
X107292769Y-87055989D01*
X107298953Y-87059173D01*
X107298953Y-87180317D01*
X107255723Y-87156408D01*
X107207849Y-87137016D01*
X107198081Y-87133911D01*
X107146987Y-87122340D01*
X107095522Y-87117933D01*
X107084020Y-87117791D01*
X107034597Y-87121701D01*
X106985790Y-87134657D01*
X106969470Y-87141482D01*
X106924995Y-87168416D01*
X106889585Y-87202076D01*
X106882764Y-87210359D01*
X106854694Y-87253682D01*
X106834238Y-87300693D01*
X106827809Y-87320512D01*
X106816051Y-87371815D01*
X106810040Y-87423368D01*
X106808514Y-87468768D01*
X106810243Y-87521318D01*
X106816883Y-87578837D01*
X106828504Y-87630312D01*
X106848356Y-87682725D01*
X106874987Y-87726910D01*
X106879344Y-87732550D01*
X106918866Y-87771339D01*
X106966600Y-87799045D01*
X107015104Y-87814197D01*
X107069897Y-87820864D01*
X107086706Y-87821210D01*
X107136375Y-87818873D01*
X107187412Y-87811181D01*
X107197348Y-87808998D01*
X107246071Y-87795174D01*
X107292861Y-87777056D01*
X107298953Y-87774316D01*
X107298953Y-87891552D01*
G37*
G36*
X108067830Y-87891552D02*
G01*
X108020204Y-87906779D01*
X107971573Y-87918266D01*
X107921936Y-87926013D01*
X107871295Y-87930020D01*
X107841905Y-87930631D01*
X107784600Y-87927852D01*
X107731600Y-87919516D01*
X107682905Y-87905622D01*
X107630155Y-87881614D01*
X107583603Y-87849603D01*
X107549547Y-87816814D01*
X107514934Y-87770203D01*
X107491560Y-87725496D01*
X107473160Y-87675458D01*
X107459732Y-87620090D01*
X107451278Y-87559391D01*
X107448095Y-87506993D01*
X107447697Y-87479515D01*
X107449453Y-87426712D01*
X107454719Y-87376505D01*
X107464841Y-87323124D01*
X107475785Y-87283876D01*
X107493497Y-87236797D01*
X107517664Y-87189428D01*
X107546553Y-87147258D01*
X107556141Y-87135621D01*
X107590931Y-87100201D01*
X107629967Y-87070267D01*
X107673249Y-87045818D01*
X107682415Y-87041587D01*
X107730562Y-87024070D01*
X107782192Y-87013041D01*
X107831636Y-87008662D01*
X107848744Y-87008370D01*
X107898055Y-87010426D01*
X107947823Y-87017238D01*
X107964759Y-87020826D01*
X108014169Y-87035456D01*
X108061646Y-87055989D01*
X108067830Y-87059173D01*
X108067830Y-87180317D01*
X108024600Y-87156408D01*
X107976726Y-87137016D01*
X107966958Y-87133911D01*
X107915863Y-87122340D01*
X107864399Y-87117933D01*
X107852896Y-87117791D01*
X107803474Y-87121701D01*
X107754667Y-87134657D01*
X107738346Y-87141482D01*
X107693871Y-87168416D01*
X107658462Y-87202076D01*
X107651640Y-87210359D01*
X107623570Y-87253682D01*
X107603115Y-87300693D01*
X107596686Y-87320512D01*
X107584927Y-87371815D01*
X107578917Y-87423368D01*
X107577390Y-87468768D01*
X107579120Y-87521318D01*
X107585760Y-87578837D01*
X107597381Y-87630312D01*
X107617232Y-87682725D01*
X107643863Y-87726910D01*
X107648221Y-87732550D01*
X107687742Y-87771339D01*
X107735476Y-87799045D01*
X107783981Y-87814197D01*
X107838773Y-87820864D01*
X107855583Y-87821210D01*
X107905251Y-87818873D01*
X107956288Y-87811181D01*
X107966225Y-87808998D01*
X108014947Y-87795174D01*
X108061737Y-87777056D01*
X108067830Y-87774316D01*
X108067830Y-87891552D01*
G37*
D11*
G36*
X112025261Y-76982264D02*
G01*
X112025261Y-76771238D01*
X112536413Y-76771238D01*
X112536413Y-77484549D01*
X112460997Y-77513555D01*
X112383053Y-77536275D01*
X112329685Y-77547930D01*
X112246393Y-77560433D01*
X112165310Y-77566824D01*
X112095603Y-77568447D01*
X112013982Y-77565056D01*
X111928802Y-77553335D01*
X111849423Y-77533243D01*
X111826741Y-77525582D01*
X111755719Y-77494520D01*
X111685618Y-77451012D01*
X111623921Y-77397721D01*
X111571267Y-77334481D01*
X111531333Y-77268650D01*
X111498956Y-77194876D01*
X111496133Y-77187062D01*
X111474598Y-77113011D01*
X111460111Y-77032643D01*
X111453150Y-76955901D01*
X111451584Y-76895069D01*
X111454490Y-76813897D01*
X111463210Y-76737075D01*
X111477742Y-76664603D01*
X111498087Y-76596482D01*
X111527835Y-76525333D01*
X111568792Y-76453892D01*
X111618068Y-76390465D01*
X111634473Y-76373000D01*
X111694579Y-76320013D01*
X111762547Y-76275542D01*
X111838377Y-76239585D01*
X111854487Y-76233415D01*
X111930623Y-76210038D01*
X112012632Y-76194312D01*
X112090460Y-76186755D01*
X112151877Y-76185055D01*
X112231370Y-76187172D01*
X112315102Y-76194184D01*
X112344535Y-76197878D01*
X112426793Y-76210711D01*
X112508752Y-76226769D01*
X112532114Y-76231950D01*
X112532114Y-76489870D01*
X112457699Y-76465046D01*
X112376702Y-76444430D01*
X112352351Y-76439312D01*
X112272079Y-76426503D01*
X112191291Y-76420224D01*
X112153831Y-76419528D01*
X112075717Y-76424849D01*
X111995042Y-76444212D01*
X111975240Y-76451769D01*
X111904117Y-76490512D01*
X111845498Y-76542993D01*
X111802267Y-76604329D01*
X111771835Y-76672470D01*
X111766559Y-76688440D01*
X111749101Y-76762020D01*
X111740885Y-76836381D01*
X111739595Y-76882613D01*
X111742507Y-76958038D01*
X111752236Y-77033237D01*
X111760307Y-77070924D01*
X111785672Y-77143760D01*
X111825031Y-77209385D01*
X111827913Y-77213073D01*
X111885238Y-77267601D01*
X111948276Y-77302833D01*
X112024474Y-77325185D01*
X112108142Y-77333700D01*
X112127648Y-77333974D01*
X112171416Y-77332508D01*
X112206587Y-77328112D01*
X112238241Y-77321151D01*
X112269504Y-77312358D01*
X112269504Y-76982264D01*
X112025261Y-76982264D01*
G37*
G36*
X112846699Y-77545000D02*
G01*
X112846699Y-76208503D01*
X113121423Y-76208503D01*
X113121423Y-77333974D01*
X113728318Y-77333974D01*
X113728318Y-77545000D01*
X112846699Y-77545000D01*
G37*
G36*
X114723265Y-77545000D02*
G01*
X114723265Y-76958817D01*
X114235170Y-76958817D01*
X114235170Y-77545000D01*
X113964745Y-77545000D01*
X113964745Y-76208503D01*
X114235170Y-76208503D01*
X114235170Y-76747791D01*
X114723265Y-76747791D01*
X114723265Y-76208503D01*
X114993691Y-76208503D01*
X114993691Y-77545000D01*
X114723265Y-77545000D01*
G37*
G36*
X116196147Y-77123681D02*
G01*
X116189333Y-77200291D01*
X116166571Y-77275727D01*
X116147690Y-77313091D01*
X116102379Y-77376072D01*
X116044557Y-77430466D01*
X116013649Y-77452676D01*
X115945121Y-77491453D01*
X115867909Y-77522605D01*
X115811612Y-77539138D01*
X115729194Y-77555824D01*
X115650181Y-77564984D01*
X115567276Y-77568418D01*
X115558771Y-77568447D01*
X115486085Y-77566249D01*
X115408318Y-77561486D01*
X115331332Y-77554159D01*
X115262163Y-77545000D01*
X115262163Y-77333974D01*
X115343025Y-77345170D01*
X115405973Y-77351193D01*
X115488136Y-77355864D01*
X115566761Y-77357415D01*
X115572058Y-77357421D01*
X115658577Y-77352929D01*
X115740063Y-77337402D01*
X115811889Y-77307511D01*
X115822944Y-77300635D01*
X115878862Y-77246942D01*
X115907200Y-77172891D01*
X115909309Y-77142365D01*
X115896023Y-77066120D01*
X115851998Y-77003889D01*
X115828806Y-76986660D01*
X115754819Y-76955405D01*
X115671921Y-76940378D01*
X115591700Y-76935570D01*
X115569713Y-76935369D01*
X115288346Y-76935369D01*
X115288346Y-76208503D01*
X116117208Y-76208503D01*
X116117208Y-76442976D01*
X115539232Y-76442976D01*
X115539232Y-76724344D01*
X115642400Y-76724344D01*
X115723385Y-76726920D01*
X115801622Y-76734648D01*
X115852254Y-76742662D01*
X115929603Y-76762020D01*
X116004103Y-76792874D01*
X116028499Y-76806409D01*
X116093437Y-76855740D01*
X116141651Y-76914564D01*
X116150425Y-76928775D01*
X116180029Y-76998058D01*
X116193960Y-77074033D01*
X116196147Y-77123681D01*
G37*
D10*
G36*
X106257139Y-104805390D02*
G01*
X106308677Y-104812388D01*
X106335660Y-104818193D01*
X106383011Y-104833322D01*
X106428505Y-104856376D01*
X106443371Y-104866309D01*
X106480330Y-104898900D01*
X106509996Y-104938971D01*
X106517132Y-104951794D01*
X106535002Y-104998051D01*
X106543411Y-105047476D01*
X106544732Y-105079289D01*
X106540170Y-105130823D01*
X106527681Y-105178535D01*
X106523971Y-105188710D01*
X106501625Y-105233957D01*
X106470489Y-105274809D01*
X106459979Y-105285674D01*
X106420863Y-105317742D01*
X106377673Y-105342620D01*
X106349337Y-105355039D01*
X106300072Y-105370196D01*
X106249926Y-105378516D01*
X106200430Y-105381558D01*
X106188870Y-105381662D01*
X106077495Y-105381662D01*
X106077495Y-105694293D01*
X105955129Y-105694293D01*
X105955129Y-105276149D01*
X106077495Y-105276149D01*
X106191556Y-105276149D01*
X106242664Y-105273172D01*
X106292716Y-105262707D01*
X106339084Y-105242242D01*
X106358619Y-105228521D01*
X106392131Y-105190005D01*
X106411733Y-105139945D01*
X106417424Y-105090400D01*
X106417481Y-105084418D01*
X106411947Y-105034057D01*
X106393078Y-104987862D01*
X106360817Y-104951306D01*
X106316550Y-104924885D01*
X106267090Y-104910383D01*
X106215072Y-104905081D01*
X106202547Y-104904900D01*
X106077495Y-104904900D01*
X106077495Y-105276149D01*
X105955129Y-105276149D01*
X105955129Y-104803295D01*
X106207921Y-104803295D01*
X106257139Y-104805390D01*
G37*
G36*
X107382240Y-105694293D02*
G01*
X107248884Y-105694293D01*
X107186358Y-105506714D01*
X106812666Y-105506714D01*
X106749407Y-105694293D01*
X106622401Y-105694293D01*
X106721808Y-105397293D01*
X106847837Y-105397293D01*
X107151431Y-105397293D01*
X106999512Y-104916135D01*
X106847837Y-105397293D01*
X106721808Y-105397293D01*
X106920621Y-104803295D01*
X107088172Y-104803295D01*
X107382240Y-105694293D01*
G37*
G36*
X107824881Y-104789758D02*
G01*
X107873324Y-104796757D01*
X107897104Y-104802562D01*
X107945586Y-104820697D01*
X107985520Y-104845304D01*
X108019996Y-104880338D01*
X108039009Y-104912715D01*
X108053426Y-104960088D01*
X108056839Y-105000887D01*
X108051673Y-105052493D01*
X108034253Y-105102404D01*
X108013120Y-105135465D01*
X107978872Y-105171966D01*
X107940175Y-105202344D01*
X107894275Y-105230050D01*
X107889288Y-105232674D01*
X107932376Y-105256244D01*
X107963538Y-105276393D01*
X108003056Y-105308202D01*
X108023378Y-105329394D01*
X108051773Y-105370592D01*
X108062701Y-105394607D01*
X108074875Y-105442730D01*
X108076867Y-105474718D01*
X108071715Y-105524875D01*
X108054862Y-105572342D01*
X108053420Y-105575102D01*
X108025515Y-105615402D01*
X107988207Y-105648863D01*
X107945671Y-105673686D01*
X107899869Y-105691237D01*
X107889288Y-105694293D01*
X107841438Y-105704413D01*
X107790362Y-105709374D01*
X107765702Y-105709924D01*
X107713037Y-105707623D01*
X107661564Y-105699936D01*
X107636253Y-105693560D01*
X107587788Y-105675374D01*
X107544847Y-105649706D01*
X107542464Y-105647886D01*
X107507479Y-105613712D01*
X107485311Y-105578521D01*
X107469906Y-105530711D01*
X107466260Y-105490105D01*
X107467379Y-105477893D01*
X107595220Y-105477893D01*
X107604783Y-105525846D01*
X107608653Y-105533581D01*
X107641025Y-105571389D01*
X107645290Y-105574614D01*
X107689196Y-105596517D01*
X107700977Y-105600015D01*
X107750323Y-105607662D01*
X107771075Y-105608319D01*
X107821469Y-105604408D01*
X107839951Y-105600747D01*
X107886698Y-105582887D01*
X107895883Y-105577300D01*
X107930600Y-105541705D01*
X107933252Y-105537244D01*
X107946596Y-105489659D01*
X107946930Y-105479359D01*
X107938625Y-105430022D01*
X107913185Y-105386998D01*
X107909316Y-105382639D01*
X107871200Y-105349059D01*
X107852164Y-105335988D01*
X107808830Y-105310731D01*
X107761549Y-105287872D01*
X107716119Y-105311869D01*
X107682903Y-105332813D01*
X107644797Y-105363720D01*
X107631368Y-105377998D01*
X107605776Y-105419672D01*
X107603524Y-105425870D01*
X107595252Y-105474484D01*
X107595220Y-105477893D01*
X107467379Y-105477893D01*
X107470744Y-105441185D01*
X107486035Y-105392497D01*
X107512177Y-105349177D01*
X107545894Y-105313156D01*
X107584560Y-105282573D01*
X107631108Y-105253728D01*
X107654327Y-105241466D01*
X107608616Y-105215395D01*
X107566617Y-105184569D01*
X107531108Y-105148401D01*
X107525855Y-105141571D01*
X107501148Y-105097871D01*
X107487845Y-105049568D01*
X107485311Y-105014809D01*
X107486735Y-105003329D01*
X107608409Y-105003329D01*
X107616834Y-105051956D01*
X107618667Y-105056574D01*
X107646488Y-105098194D01*
X107650419Y-105102248D01*
X107688933Y-105133847D01*
X107704397Y-105144258D01*
X107747277Y-105168965D01*
X107781577Y-105186267D01*
X107826104Y-105161509D01*
X107866157Y-105133504D01*
X107896860Y-105104690D01*
X107924033Y-105061843D01*
X107934570Y-105012985D01*
X107934718Y-105006016D01*
X107925272Y-104957258D01*
X107891731Y-104918089D01*
X107843810Y-104897402D01*
X107794500Y-104889972D01*
X107771075Y-104889268D01*
X107722193Y-104892645D01*
X107674767Y-104905342D01*
X107651152Y-104917844D01*
X107617801Y-104956081D01*
X107608409Y-105003329D01*
X107486735Y-105003329D01*
X107491596Y-104964129D01*
X107503140Y-104930545D01*
X107529115Y-104887320D01*
X107557118Y-104857761D01*
X107597785Y-104829001D01*
X107644117Y-104807917D01*
X107647488Y-104806714D01*
X107698625Y-104793691D01*
X107748336Y-104788333D01*
X107775227Y-104787663D01*
X107824881Y-104789758D01*
G37*
G36*
X106537649Y-89780317D02*
G01*
X106493276Y-89756815D01*
X106447782Y-89738456D01*
X106434578Y-89734155D01*
X106386546Y-89722969D01*
X106334774Y-89718047D01*
X106319295Y-89717791D01*
X106268004Y-89721363D01*
X106217400Y-89733295D01*
X106192289Y-89743192D01*
X106146929Y-89769439D01*
X106108300Y-89803726D01*
X106098500Y-89815000D01*
X106070485Y-89855650D01*
X106048355Y-89902589D01*
X106040126Y-89926374D01*
X106027772Y-89977058D01*
X106021457Y-90026959D01*
X106019854Y-90070233D01*
X106021452Y-90120007D01*
X106026901Y-90170902D01*
X106036218Y-90217756D01*
X106052736Y-90267318D01*
X106077286Y-90313480D01*
X106087753Y-90328154D01*
X106122221Y-90363623D01*
X106164075Y-90390958D01*
X106177390Y-90397274D01*
X106225390Y-90412772D01*
X106275994Y-90420065D01*
X106308304Y-90421210D01*
X106336392Y-90419989D01*
X106366679Y-90416325D01*
X106395743Y-90410464D01*
X106420900Y-90403136D01*
X106420900Y-90124211D01*
X106237474Y-90124211D01*
X106237474Y-90022606D01*
X106541801Y-90022606D01*
X106541801Y-90476898D01*
X106495975Y-90495484D01*
X106482450Y-90500101D01*
X106434731Y-90513336D01*
X106418458Y-90516953D01*
X106369732Y-90525288D01*
X106353489Y-90527212D01*
X106304456Y-90530467D01*
X106291207Y-90530631D01*
X106240842Y-90528351D01*
X106188235Y-90520471D01*
X106139157Y-90506961D01*
X106125122Y-90501810D01*
X106076980Y-90478706D01*
X106033975Y-90449021D01*
X105999337Y-90416325D01*
X105966567Y-90374079D01*
X105941685Y-90329962D01*
X105921478Y-90280408D01*
X105919714Y-90275153D01*
X105906373Y-90225511D01*
X105897397Y-90171658D01*
X105893085Y-90120252D01*
X105892115Y-90079515D01*
X105894038Y-90025644D01*
X105899808Y-89974673D01*
X105909425Y-89926603D01*
X105922889Y-89881434D01*
X105942308Y-89834237D01*
X105965668Y-89791291D01*
X105996246Y-89748558D01*
X106009840Y-89732934D01*
X106047015Y-89697762D01*
X106088627Y-89668267D01*
X106134675Y-89644448D01*
X106144418Y-89640366D01*
X106195146Y-89623493D01*
X106243493Y-89613651D01*
X106294390Y-89608870D01*
X106317830Y-89608370D01*
X106369662Y-89610708D01*
X106419156Y-89617720D01*
X106432868Y-89620582D01*
X106483140Y-89635022D01*
X106528220Y-89654310D01*
X106537649Y-89659173D01*
X106537649Y-89780317D01*
G37*
G36*
X107307990Y-90515000D02*
G01*
X107148744Y-90515000D01*
X106886916Y-89959103D01*
X106811445Y-89780317D01*
X106811445Y-90229968D01*
X106811445Y-90515000D01*
X106697383Y-90515000D01*
X106697383Y-89624002D01*
X106854676Y-89624002D01*
X107104048Y-90153520D01*
X107193929Y-90358684D01*
X107193929Y-89878503D01*
X107193929Y-89624002D01*
X107307990Y-89624002D01*
X107307990Y-90515000D01*
G37*
G36*
X107741621Y-89625681D02*
G01*
X107800547Y-89632502D01*
X107854249Y-89644571D01*
X107902728Y-89661888D01*
X107954008Y-89689594D01*
X107997765Y-89724857D01*
X108004327Y-89731468D01*
X108039521Y-89775678D01*
X108063287Y-89818633D01*
X108081996Y-89867145D01*
X108095649Y-89921215D01*
X108104245Y-89980842D01*
X108107481Y-90032545D01*
X108107886Y-90059731D01*
X108106233Y-90110837D01*
X108101275Y-90160170D01*
X108097872Y-90182341D01*
X108086819Y-90232089D01*
X108071184Y-90278752D01*
X108065876Y-90291517D01*
X108042370Y-90336701D01*
X108013068Y-90377913D01*
X108008723Y-90383108D01*
X107972491Y-90419176D01*
X107932380Y-90448094D01*
X107922994Y-90453695D01*
X107878976Y-90475332D01*
X107829476Y-90492615D01*
X107804780Y-90499124D01*
X107756381Y-90508162D01*
X107703537Y-90513449D01*
X107651640Y-90515000D01*
X107459421Y-90515000D01*
X107459421Y-90409487D01*
X107581542Y-90409487D01*
X107672889Y-90409487D01*
X107727669Y-90406483D01*
X107777060Y-90397474D01*
X107834533Y-90376118D01*
X107882428Y-90344084D01*
X107920743Y-90301372D01*
X107949480Y-90247982D01*
X107964746Y-90200932D01*
X107974625Y-90147876D01*
X107979115Y-90088813D01*
X107979414Y-90067791D01*
X107977984Y-90016803D01*
X107973042Y-89965589D01*
X107963529Y-89915864D01*
X107961340Y-89907568D01*
X107943790Y-89858576D01*
X107918038Y-89815192D01*
X107907118Y-89802055D01*
X107868922Y-89769157D01*
X107822568Y-89746027D01*
X107815771Y-89743681D01*
X107767977Y-89731978D01*
X107718277Y-89726471D01*
X107686811Y-89725607D01*
X107581542Y-89725607D01*
X107581542Y-90409487D01*
X107459421Y-90409487D01*
X107459421Y-89624002D01*
X107690719Y-89624002D01*
X107741621Y-89625681D01*
G37*
G36*
X140772701Y-102266097D02*
G01*
X140824239Y-102273095D01*
X140851222Y-102278900D01*
X140898573Y-102294029D01*
X140944067Y-102317083D01*
X140958933Y-102327016D01*
X140995892Y-102359607D01*
X141025558Y-102399678D01*
X141032694Y-102412501D01*
X141050564Y-102458758D01*
X141058973Y-102508183D01*
X141060294Y-102539996D01*
X141055732Y-102591530D01*
X141043243Y-102639242D01*
X141039533Y-102649417D01*
X141017187Y-102694664D01*
X140986051Y-102735516D01*
X140975541Y-102746381D01*
X140936425Y-102778449D01*
X140893235Y-102803327D01*
X140864899Y-102815746D01*
X140815634Y-102830903D01*
X140765488Y-102839223D01*
X140715992Y-102842265D01*
X140704432Y-102842369D01*
X140593057Y-102842369D01*
X140593057Y-103155000D01*
X140470691Y-103155000D01*
X140470691Y-102736856D01*
X140593057Y-102736856D01*
X140707118Y-102736856D01*
X140758226Y-102733879D01*
X140808278Y-102723414D01*
X140854646Y-102702949D01*
X140874181Y-102689228D01*
X140907693Y-102650712D01*
X140927295Y-102600652D01*
X140932986Y-102551107D01*
X140933043Y-102545125D01*
X140927509Y-102494764D01*
X140908640Y-102448569D01*
X140876379Y-102412013D01*
X140832112Y-102385592D01*
X140782652Y-102371090D01*
X140730634Y-102365788D01*
X140718109Y-102365607D01*
X140593057Y-102365607D01*
X140593057Y-102736856D01*
X140470691Y-102736856D01*
X140470691Y-102264002D01*
X140723483Y-102264002D01*
X140772701Y-102266097D01*
G37*
G36*
X141897802Y-103155000D02*
G01*
X141764446Y-103155000D01*
X141701920Y-102967421D01*
X141328228Y-102967421D01*
X141264969Y-103155000D01*
X141137963Y-103155000D01*
X141237370Y-102858000D01*
X141363399Y-102858000D01*
X141666993Y-102858000D01*
X141515074Y-102376842D01*
X141363399Y-102858000D01*
X141237370Y-102858000D01*
X141436183Y-102264002D01*
X141603734Y-102264002D01*
X141897802Y-103155000D01*
G37*
G36*
X142584857Y-103155000D02*
G01*
X142020901Y-103155000D01*
X142020901Y-103041671D01*
X142251710Y-103041671D01*
X142251710Y-102381238D01*
X142036776Y-102514106D01*
X141992813Y-102412501D01*
X142278577Y-102264002D01*
X142384334Y-102264002D01*
X142384334Y-103041671D01*
X142584857Y-103041671D01*
X142584857Y-103155000D01*
G37*
G36*
X143338591Y-102874609D02*
G01*
X143333834Y-102926295D01*
X143319565Y-102974192D01*
X143309770Y-102995020D01*
X143282766Y-103036577D01*
X143248586Y-103073134D01*
X143230391Y-103088321D01*
X143186448Y-103117053D01*
X143140446Y-103138565D01*
X143111201Y-103148893D01*
X143062717Y-103161269D01*
X143011636Y-103168508D01*
X142962945Y-103170631D01*
X142919959Y-103169654D01*
X142874285Y-103166967D01*
X142829833Y-103163548D01*
X142791243Y-103158907D01*
X142791243Y-103049487D01*
X142841751Y-103057940D01*
X142875995Y-103061454D01*
X142926944Y-103064313D01*
X142972471Y-103065118D01*
X143021576Y-103062327D01*
X143071389Y-103052418D01*
X143118946Y-103033257D01*
X143146127Y-103015781D01*
X143180529Y-102980053D01*
X143193511Y-102957896D01*
X143208157Y-102909760D01*
X143210119Y-102881692D01*
X143203019Y-102830582D01*
X143179080Y-102786939D01*
X143150035Y-102762501D01*
X143102523Y-102741226D01*
X143054418Y-102730387D01*
X143004684Y-102725716D01*
X142977356Y-102725132D01*
X142806874Y-102725132D01*
X142806874Y-102264002D01*
X143290475Y-102264002D01*
X143290475Y-102369515D01*
X142919714Y-102369515D01*
X142919714Y-102623527D01*
X142997872Y-102623527D01*
X143049856Y-102625422D01*
X143100631Y-102631105D01*
X143123657Y-102635006D01*
X143171052Y-102647236D01*
X143217134Y-102666897D01*
X143232345Y-102675551D01*
X143273092Y-102706917D01*
X143305575Y-102746978D01*
X143309282Y-102752976D01*
X143329317Y-102800059D01*
X143337875Y-102852319D01*
X143338591Y-102874609D01*
G37*
G36*
X106257139Y-94645390D02*
G01*
X106308677Y-94652388D01*
X106335660Y-94658193D01*
X106383011Y-94673322D01*
X106428505Y-94696376D01*
X106443371Y-94706309D01*
X106480330Y-94738900D01*
X106509996Y-94778971D01*
X106517132Y-94791794D01*
X106535002Y-94838051D01*
X106543411Y-94887476D01*
X106544732Y-94919289D01*
X106540170Y-94970823D01*
X106527681Y-95018535D01*
X106523971Y-95028710D01*
X106501625Y-95073957D01*
X106470489Y-95114809D01*
X106459979Y-95125674D01*
X106420863Y-95157742D01*
X106377673Y-95182620D01*
X106349337Y-95195039D01*
X106300072Y-95210196D01*
X106249926Y-95218516D01*
X106200430Y-95221558D01*
X106188870Y-95221662D01*
X106077495Y-95221662D01*
X106077495Y-95534293D01*
X105955129Y-95534293D01*
X105955129Y-95116149D01*
X106077495Y-95116149D01*
X106191556Y-95116149D01*
X106242664Y-95113172D01*
X106292716Y-95102707D01*
X106339084Y-95082242D01*
X106358619Y-95068521D01*
X106392131Y-95030005D01*
X106411733Y-94979945D01*
X106417424Y-94930400D01*
X106417481Y-94924418D01*
X106411947Y-94874057D01*
X106393078Y-94827862D01*
X106360817Y-94791306D01*
X106316550Y-94764885D01*
X106267090Y-94750383D01*
X106215072Y-94745081D01*
X106202547Y-94744900D01*
X106077495Y-94744900D01*
X106077495Y-95116149D01*
X105955129Y-95116149D01*
X105955129Y-94643295D01*
X106207921Y-94643295D01*
X106257139Y-94645390D01*
G37*
G36*
X107382240Y-95534293D02*
G01*
X107248884Y-95534293D01*
X107186358Y-95346714D01*
X106812666Y-95346714D01*
X106749407Y-95534293D01*
X106622401Y-95534293D01*
X106721808Y-95237293D01*
X106847837Y-95237293D01*
X107151431Y-95237293D01*
X106999512Y-94756135D01*
X106847837Y-95237293D01*
X106721808Y-95237293D01*
X106920621Y-94643295D01*
X107088172Y-94643295D01*
X107382240Y-95534293D01*
G37*
G36*
X107968423Y-95225570D02*
G01*
X108121563Y-95225570D01*
X108121563Y-95331082D01*
X107968423Y-95331082D01*
X107968423Y-95534293D01*
X107846057Y-95534293D01*
X107846057Y-95331082D01*
X107413992Y-95331082D01*
X107413992Y-95225570D01*
X107533427Y-95225570D01*
X107846057Y-95225570D01*
X107846057Y-94756868D01*
X107533427Y-95225570D01*
X107413992Y-95225570D01*
X107796720Y-94643295D01*
X107968423Y-94643295D01*
X107968423Y-95225570D01*
G37*
G36*
X141557139Y-99726097D02*
G01*
X141608677Y-99733095D01*
X141635660Y-99738900D01*
X141683011Y-99754029D01*
X141728505Y-99777083D01*
X141743371Y-99787016D01*
X141780330Y-99819607D01*
X141809996Y-99859678D01*
X141817132Y-99872501D01*
X141835002Y-99918758D01*
X141843411Y-99968183D01*
X141844732Y-99999996D01*
X141840170Y-100051530D01*
X141827681Y-100099242D01*
X141823971Y-100109417D01*
X141801625Y-100154664D01*
X141770489Y-100195516D01*
X141759979Y-100206381D01*
X141720863Y-100238449D01*
X141677673Y-100263327D01*
X141649337Y-100275746D01*
X141600072Y-100290903D01*
X141549926Y-100299223D01*
X141500430Y-100302265D01*
X141488870Y-100302369D01*
X141377495Y-100302369D01*
X141377495Y-100615000D01*
X141255129Y-100615000D01*
X141255129Y-100196856D01*
X141377495Y-100196856D01*
X141491556Y-100196856D01*
X141542664Y-100193879D01*
X141592716Y-100183414D01*
X141639084Y-100162949D01*
X141658619Y-100149228D01*
X141692131Y-100110712D01*
X141711733Y-100060652D01*
X141717424Y-100011107D01*
X141717481Y-100005125D01*
X141711947Y-99954764D01*
X141693078Y-99908569D01*
X141660817Y-99872013D01*
X141616550Y-99845592D01*
X141567090Y-99831090D01*
X141515072Y-99825788D01*
X141502547Y-99825607D01*
X141377495Y-99825607D01*
X141377495Y-100196856D01*
X141255129Y-100196856D01*
X141255129Y-99724002D01*
X141507921Y-99724002D01*
X141557139Y-99726097D01*
G37*
G36*
X142334594Y-99725916D02*
G01*
X142397912Y-99734427D01*
X142451849Y-99749745D01*
X142496407Y-99771872D01*
X142538912Y-99809105D01*
X142566760Y-99856976D01*
X142579951Y-99915484D01*
X142581124Y-99941866D01*
X142576247Y-99993535D01*
X142559955Y-100042920D01*
X142546441Y-100066674D01*
X142511087Y-100104550D01*
X142465715Y-100131712D01*
X142433601Y-100144099D01*
X142481793Y-100158005D01*
X142502478Y-100167302D01*
X142543670Y-100194085D01*
X142559875Y-100209312D01*
X142588945Y-100249192D01*
X142598953Y-100270373D01*
X142611547Y-100317867D01*
X142613608Y-100349752D01*
X142609456Y-100399168D01*
X142595698Y-100447067D01*
X142588451Y-100462836D01*
X142560197Y-100505533D01*
X142522606Y-100541576D01*
X142516888Y-100545879D01*
X142472756Y-100572453D01*
X142425079Y-100591519D01*
X142405025Y-100597414D01*
X142353688Y-100608130D01*
X142303008Y-100613608D01*
X142258967Y-100615000D01*
X142024006Y-100615000D01*
X142024006Y-100513394D01*
X142146371Y-100513394D01*
X142275576Y-100513394D01*
X142324745Y-100510983D01*
X142376804Y-100501184D01*
X142422003Y-100481701D01*
X142432136Y-100474804D01*
X142465503Y-100436274D01*
X142481205Y-100387971D01*
X142483671Y-100354148D01*
X142474875Y-100305508D01*
X142469261Y-100293332D01*
X142437137Y-100254920D01*
X142427251Y-100247658D01*
X142381619Y-100225166D01*
X142360328Y-100218838D01*
X142309898Y-100210272D01*
X142271424Y-100208579D01*
X142146371Y-100208579D01*
X142146371Y-100513394D01*
X142024006Y-100513394D01*
X142024006Y-100106974D01*
X142146371Y-100106974D01*
X142268737Y-100106974D01*
X142317891Y-100103540D01*
X142344452Y-100098182D01*
X142390111Y-100079268D01*
X142402826Y-100070582D01*
X142436218Y-100032651D01*
X142440684Y-100024176D01*
X142453278Y-99976366D01*
X142454117Y-99957742D01*
X142446819Y-99908784D01*
X142445813Y-99905718D01*
X142418278Y-99865043D01*
X142416993Y-99863953D01*
X142373979Y-99840213D01*
X142361305Y-99836109D01*
X142310396Y-99827084D01*
X142272889Y-99825607D01*
X142146371Y-99825607D01*
X142146371Y-100106974D01*
X142024006Y-100106974D01*
X142024006Y-99724002D01*
X142280949Y-99724002D01*
X142334594Y-99725916D01*
G37*
G36*
X143359770Y-100348042D02*
G01*
X143355142Y-100397977D01*
X143341257Y-100445201D01*
X143335590Y-100458196D01*
X143310018Y-100500644D01*
X143275189Y-100538231D01*
X143263538Y-100548077D01*
X143220373Y-100576573D01*
X143173301Y-100598154D01*
X143142638Y-100608649D01*
X143094786Y-100620241D01*
X143042212Y-100627540D01*
X142990858Y-100630438D01*
X142972889Y-100630631D01*
X142922087Y-100629532D01*
X142876658Y-100626235D01*
X142828085Y-100620153D01*
X142797034Y-100615000D01*
X142797034Y-100509487D01*
X142846588Y-100516923D01*
X142887160Y-100521210D01*
X142938056Y-100524259D01*
X142983880Y-100525118D01*
X143035387Y-100523183D01*
X143086703Y-100516142D01*
X143098919Y-100513394D01*
X143147133Y-100496685D01*
X143176832Y-100479200D01*
X143211788Y-100442330D01*
X143220796Y-100425223D01*
X143233358Y-100377755D01*
X143234718Y-100353660D01*
X143225375Y-100304429D01*
X143218109Y-100290401D01*
X143184192Y-100253556D01*
X143171703Y-100245216D01*
X143125190Y-100224415D01*
X143100384Y-100217861D01*
X143051122Y-100210356D01*
X143009281Y-100208579D01*
X142906944Y-100208579D01*
X142906944Y-100110882D01*
X143010747Y-100110882D01*
X143060806Y-100106254D01*
X143084508Y-100100136D01*
X143129205Y-100078795D01*
X143141661Y-100069361D01*
X143172904Y-100030689D01*
X143178053Y-100020024D01*
X143189960Y-99971297D01*
X143190754Y-99953101D01*
X143184571Y-99904077D01*
X143159456Y-99858446D01*
X143146790Y-99847100D01*
X143100421Y-99824393D01*
X143048100Y-99815051D01*
X143017586Y-99813883D01*
X142968559Y-99816089D01*
X142924041Y-99821699D01*
X142874398Y-99831468D01*
X142824642Y-99844177D01*
X142821214Y-99845146D01*
X142821214Y-99739633D01*
X142869150Y-99726812D01*
X142870796Y-99726444D01*
X142918848Y-99717424D01*
X142923796Y-99716674D01*
X142973041Y-99710850D01*
X142976309Y-99710568D01*
X143025110Y-99708372D01*
X143026623Y-99708370D01*
X143077708Y-99710568D01*
X143127623Y-99717911D01*
X143152164Y-99724002D01*
X143199254Y-99741608D01*
X143243022Y-99768698D01*
X143278322Y-99805337D01*
X143297976Y-99839284D01*
X143312460Y-99886365D01*
X143316539Y-99932829D01*
X143311864Y-99983283D01*
X143296098Y-100031609D01*
X143276972Y-100063255D01*
X143243209Y-100099651D01*
X143201272Y-100130071D01*
X143168772Y-100147030D01*
X143216335Y-100159613D01*
X143237649Y-100168768D01*
X143279478Y-100194243D01*
X143298953Y-100210778D01*
X143331382Y-100250207D01*
X143342917Y-100271106D01*
X143357779Y-100319887D01*
X143359770Y-100348042D01*
G37*
D11*
G36*
X140744197Y-90648900D02*
G01*
X140820768Y-90655068D01*
X140896062Y-90675504D01*
X140921151Y-90686270D01*
X140985335Y-90726291D01*
X141040683Y-90781599D01*
X141054874Y-90800209D01*
X141092483Y-90863252D01*
X141120623Y-90930908D01*
X141139138Y-90993283D01*
X141154594Y-91069947D01*
X141163610Y-91145920D01*
X141167989Y-91228500D01*
X141168447Y-91267323D01*
X141166615Y-91340963D01*
X141162034Y-91415151D01*
X141161852Y-91417533D01*
X141154891Y-91491905D01*
X141145000Y-91556751D01*
X140933974Y-91556751D01*
X140943839Y-91483302D01*
X140950826Y-91410938D01*
X140955560Y-91333583D01*
X140957363Y-91258770D01*
X140957421Y-91242411D01*
X140954362Y-91167535D01*
X140943499Y-91095132D01*
X140919862Y-91023335D01*
X140903199Y-90993283D01*
X140849818Y-90940404D01*
X140837986Y-90933932D01*
X140765053Y-90915346D01*
X140750059Y-90914881D01*
X140677959Y-90931129D01*
X140671290Y-90934665D01*
X140617515Y-90984633D01*
X140611207Y-90994382D01*
X140581262Y-91063521D01*
X140572739Y-91096964D01*
X140561876Y-91169653D01*
X140558817Y-91244609D01*
X140558817Y-91394085D01*
X140371238Y-91394085D01*
X140371238Y-91257065D01*
X140367208Y-91183426D01*
X140355118Y-91123709D01*
X140324206Y-91056183D01*
X140311154Y-91039078D01*
X140250940Y-90996102D01*
X140246308Y-90994382D01*
X140173021Y-90980879D01*
X140167906Y-90980826D01*
X140093809Y-90994290D01*
X140040045Y-91034682D01*
X140007072Y-91102826D01*
X139996468Y-91179774D01*
X139996081Y-91200279D01*
X139998899Y-91275358D01*
X140007351Y-91349472D01*
X140008904Y-91359281D01*
X140022777Y-91433647D01*
X140039066Y-91505234D01*
X140042976Y-91520847D01*
X139831950Y-91520847D01*
X139814015Y-91448141D01*
X139810701Y-91432187D01*
X139797918Y-91358456D01*
X139796413Y-91347923D01*
X139788318Y-91272990D01*
X139787620Y-91262194D01*
X139785118Y-91186895D01*
X139785055Y-91172435D01*
X139787913Y-91099112D01*
X139798657Y-91020829D01*
X139809235Y-90977163D01*
X139836069Y-90904385D01*
X139874629Y-90839711D01*
X139877379Y-90836113D01*
X139929674Y-90783349D01*
X139985090Y-90750017D01*
X140056568Y-90727434D01*
X140126507Y-90721074D01*
X140206056Y-90727698D01*
X140280099Y-90750032D01*
X140326908Y-90777128D01*
X140382959Y-90830109D01*
X140424286Y-90892216D01*
X140443778Y-90934298D01*
X140461126Y-90861684D01*
X140478949Y-90817062D01*
X140517478Y-90754446D01*
X140542697Y-90726936D01*
X140601635Y-90683362D01*
X140632090Y-90669050D01*
X140703181Y-90651281D01*
X140744197Y-90648900D01*
G37*
G36*
X140769842Y-89972592D02*
G01*
X140782781Y-89899351D01*
X140785596Y-89892358D01*
X140826777Y-89829583D01*
X140828461Y-89827878D01*
X140889562Y-89785987D01*
X140891842Y-89785013D01*
X140965043Y-89769686D01*
X140970244Y-89769626D01*
X141042629Y-89783150D01*
X141047180Y-89785013D01*
X141108492Y-89826173D01*
X141110195Y-89827878D01*
X141151698Y-89890033D01*
X141152693Y-89892358D01*
X141168308Y-89964541D01*
X141168447Y-89972592D01*
X141154601Y-90045385D01*
X141152693Y-90049895D01*
X141111856Y-90111206D01*
X141110195Y-90112909D01*
X141049416Y-90154069D01*
X141047180Y-90155041D01*
X140975310Y-90170369D01*
X140970244Y-90170429D01*
X140896441Y-90156905D01*
X140891842Y-90155041D01*
X140830142Y-90114570D01*
X140828461Y-90112909D01*
X140786592Y-90052130D01*
X140785596Y-90049895D01*
X140769904Y-89977745D01*
X140769842Y-89972592D01*
G37*
G36*
X140744197Y-88342271D02*
G01*
X140820768Y-88348438D01*
X140896062Y-88368875D01*
X140921151Y-88379640D01*
X140985335Y-88419661D01*
X141040683Y-88474969D01*
X141054874Y-88493579D01*
X141092483Y-88556623D01*
X141120623Y-88624279D01*
X141139138Y-88686653D01*
X141154594Y-88763318D01*
X141163610Y-88839291D01*
X141167989Y-88921871D01*
X141168447Y-88960694D01*
X141166615Y-89034333D01*
X141162034Y-89108521D01*
X141161852Y-89110903D01*
X141154891Y-89185275D01*
X141145000Y-89250122D01*
X140933974Y-89250122D01*
X140943839Y-89176673D01*
X140950826Y-89104309D01*
X140955560Y-89026954D01*
X140957363Y-88952141D01*
X140957421Y-88935781D01*
X140954362Y-88860905D01*
X140943499Y-88788503D01*
X140919862Y-88716705D01*
X140903199Y-88686653D01*
X140849818Y-88633775D01*
X140837986Y-88627302D01*
X140765053Y-88608717D01*
X140750059Y-88608251D01*
X140677959Y-88624500D01*
X140671290Y-88628035D01*
X140617515Y-88678004D01*
X140611207Y-88687752D01*
X140581262Y-88756892D01*
X140572739Y-88790334D01*
X140561876Y-88863023D01*
X140558817Y-88937979D01*
X140558817Y-89087456D01*
X140371238Y-89087456D01*
X140371238Y-88950436D01*
X140367208Y-88876796D01*
X140355118Y-88817079D01*
X140324206Y-88749554D01*
X140311154Y-88732449D01*
X140250940Y-88689473D01*
X140246308Y-88687752D01*
X140173021Y-88674250D01*
X140167906Y-88674197D01*
X140093809Y-88687661D01*
X140040045Y-88728053D01*
X140007072Y-88796196D01*
X139996468Y-88873144D01*
X139996081Y-88893649D01*
X139998899Y-88968729D01*
X140007351Y-89042842D01*
X140008904Y-89052651D01*
X140022777Y-89127017D01*
X140039066Y-89198604D01*
X140042976Y-89214218D01*
X139831950Y-89214218D01*
X139814015Y-89141512D01*
X139810701Y-89125558D01*
X139797918Y-89051827D01*
X139796413Y-89041294D01*
X139788318Y-88966361D01*
X139787620Y-88955565D01*
X139785118Y-88880265D01*
X139785055Y-88865806D01*
X139787913Y-88792482D01*
X139798657Y-88714199D01*
X139809235Y-88670533D01*
X139836069Y-88597756D01*
X139874629Y-88533081D01*
X139877379Y-88529483D01*
X139929674Y-88476720D01*
X139985090Y-88443387D01*
X140056568Y-88420804D01*
X140126507Y-88414445D01*
X140206056Y-88421068D01*
X140280099Y-88443402D01*
X140326908Y-88470498D01*
X140382959Y-88523479D01*
X140424286Y-88585587D01*
X140443778Y-88627669D01*
X140461126Y-88555055D01*
X140478949Y-88510432D01*
X140517478Y-88447816D01*
X140542697Y-88420307D01*
X140601635Y-88376732D01*
X140632090Y-88362421D01*
X140703181Y-88344652D01*
X140744197Y-88342271D01*
G37*
G36*
X141145000Y-87493039D02*
G01*
X141145000Y-87828995D01*
X139808503Y-88240055D01*
X139808503Y-87952459D01*
X140613405Y-87724947D01*
X140877187Y-87651674D01*
X140598018Y-87575471D01*
X139808503Y-87349790D01*
X139808503Y-87079780D01*
X141145000Y-87493039D01*
G37*
D10*
G36*
X141557139Y-92126097D02*
G01*
X141608677Y-92133095D01*
X141635660Y-92138900D01*
X141683011Y-92154029D01*
X141728505Y-92177083D01*
X141743371Y-92187016D01*
X141780330Y-92219607D01*
X141809996Y-92259678D01*
X141817132Y-92272501D01*
X141835002Y-92318758D01*
X141843411Y-92368183D01*
X141844732Y-92399996D01*
X141840170Y-92451530D01*
X141827681Y-92499242D01*
X141823971Y-92509417D01*
X141801625Y-92554664D01*
X141770489Y-92595516D01*
X141759979Y-92606381D01*
X141720863Y-92638449D01*
X141677673Y-92663327D01*
X141649337Y-92675746D01*
X141600072Y-92690903D01*
X141549926Y-92699223D01*
X141500430Y-92702265D01*
X141488870Y-92702369D01*
X141377495Y-92702369D01*
X141377495Y-93015000D01*
X141255129Y-93015000D01*
X141255129Y-92596856D01*
X141377495Y-92596856D01*
X141491556Y-92596856D01*
X141542664Y-92593879D01*
X141592716Y-92583414D01*
X141639084Y-92562949D01*
X141658619Y-92549228D01*
X141692131Y-92510712D01*
X141711733Y-92460652D01*
X141717424Y-92411107D01*
X141717481Y-92405125D01*
X141711947Y-92354764D01*
X141693078Y-92308569D01*
X141660817Y-92272013D01*
X141616550Y-92245592D01*
X141567090Y-92231090D01*
X141515072Y-92225788D01*
X141502547Y-92225607D01*
X141377495Y-92225607D01*
X141377495Y-92596856D01*
X141255129Y-92596856D01*
X141255129Y-92124002D01*
X141507921Y-92124002D01*
X141557139Y-92126097D01*
G37*
G36*
X142334594Y-92125916D02*
G01*
X142397912Y-92134427D01*
X142451849Y-92149745D01*
X142496407Y-92171872D01*
X142538912Y-92209105D01*
X142566760Y-92256976D01*
X142579951Y-92315484D01*
X142581124Y-92341866D01*
X142576247Y-92393535D01*
X142559955Y-92442920D01*
X142546441Y-92466674D01*
X142511087Y-92504550D01*
X142465715Y-92531712D01*
X142433601Y-92544099D01*
X142481793Y-92558005D01*
X142502478Y-92567302D01*
X142543670Y-92594085D01*
X142559875Y-92609312D01*
X142588945Y-92649192D01*
X142598953Y-92670373D01*
X142611547Y-92717867D01*
X142613608Y-92749752D01*
X142609456Y-92799168D01*
X142595698Y-92847067D01*
X142588451Y-92862836D01*
X142560197Y-92905533D01*
X142522606Y-92941576D01*
X142516888Y-92945879D01*
X142472756Y-92972453D01*
X142425079Y-92991519D01*
X142405025Y-92997414D01*
X142353688Y-93008130D01*
X142303008Y-93013608D01*
X142258967Y-93015000D01*
X142024006Y-93015000D01*
X142024006Y-92913394D01*
X142146371Y-92913394D01*
X142275576Y-92913394D01*
X142324745Y-92910983D01*
X142376804Y-92901184D01*
X142422003Y-92881701D01*
X142432136Y-92874804D01*
X142465503Y-92836274D01*
X142481205Y-92787971D01*
X142483671Y-92754148D01*
X142474875Y-92705508D01*
X142469261Y-92693332D01*
X142437137Y-92654920D01*
X142427251Y-92647658D01*
X142381619Y-92625166D01*
X142360328Y-92618838D01*
X142309898Y-92610272D01*
X142271424Y-92608579D01*
X142146371Y-92608579D01*
X142146371Y-92913394D01*
X142024006Y-92913394D01*
X142024006Y-92506974D01*
X142146371Y-92506974D01*
X142268737Y-92506974D01*
X142317891Y-92503540D01*
X142344452Y-92498182D01*
X142390111Y-92479268D01*
X142402826Y-92470582D01*
X142436218Y-92432651D01*
X142440684Y-92424176D01*
X142453278Y-92376366D01*
X142454117Y-92357742D01*
X142446819Y-92308784D01*
X142445813Y-92305718D01*
X142418278Y-92265043D01*
X142416993Y-92263953D01*
X142373979Y-92240213D01*
X142361305Y-92236109D01*
X142310396Y-92227084D01*
X142272889Y-92225607D01*
X142146371Y-92225607D01*
X142146371Y-92506974D01*
X142024006Y-92506974D01*
X142024006Y-92124002D01*
X142280949Y-92124002D01*
X142334594Y-92125916D01*
G37*
G36*
X143317760Y-92229515D02*
G01*
X143221528Y-92229515D01*
X143168795Y-92231766D01*
X143116994Y-92239356D01*
X143082066Y-92248565D01*
X143034161Y-92268227D01*
X142990823Y-92295933D01*
X142983147Y-92302299D01*
X142947976Y-92340584D01*
X142923433Y-92383020D01*
X142922087Y-92386074D01*
X142905600Y-92434446D01*
X142896411Y-92484241D01*
X142895220Y-92495495D01*
X142892533Y-92530422D01*
X142936014Y-92506329D01*
X142981922Y-92488297D01*
X142992429Y-92484993D01*
X143043786Y-92473305D01*
X143094657Y-92468313D01*
X143115039Y-92467896D01*
X143167584Y-92471161D01*
X143217860Y-92481980D01*
X143234229Y-92487679D01*
X143278504Y-92509661D01*
X143317331Y-92540680D01*
X143319470Y-92542878D01*
X143350785Y-92584245D01*
X143370517Y-92627386D01*
X143382964Y-92675557D01*
X143387705Y-92724391D01*
X143387858Y-92735341D01*
X143384149Y-92784101D01*
X143371861Y-92833815D01*
X143365388Y-92850868D01*
X143342293Y-92895434D01*
X143311906Y-92934670D01*
X143301884Y-92944902D01*
X143262708Y-92976511D01*
X143216987Y-93001669D01*
X143202722Y-93007672D01*
X143153436Y-93022537D01*
X143104291Y-93029532D01*
X143074006Y-93030631D01*
X143024979Y-93027860D01*
X142976104Y-93018518D01*
X142942603Y-93007184D01*
X142899388Y-92983782D01*
X142862220Y-92952077D01*
X142847104Y-92934644D01*
X142818971Y-92890563D01*
X142798369Y-92842432D01*
X142788730Y-92811057D01*
X142778297Y-92761698D01*
X142772212Y-92712747D01*
X142769256Y-92659508D01*
X142768946Y-92634469D01*
X142769006Y-92632027D01*
X142892533Y-92632027D01*
X142893726Y-92683146D01*
X142897793Y-92732986D01*
X142904746Y-92776130D01*
X142919053Y-92825353D01*
X142941626Y-92868942D01*
X142976545Y-92904472D01*
X143001710Y-92918279D01*
X143050787Y-92930873D01*
X143084264Y-92932934D01*
X143134880Y-92927046D01*
X143155827Y-92920478D01*
X143198206Y-92896164D01*
X143212247Y-92883353D01*
X143241004Y-92842466D01*
X143249372Y-92823513D01*
X143260916Y-92775733D01*
X143262806Y-92743401D01*
X143258493Y-92693232D01*
X143252792Y-92669640D01*
X143230371Y-92624149D01*
X143221528Y-92613709D01*
X143181320Y-92584246D01*
X143167551Y-92578293D01*
X143119340Y-92567093D01*
X143089637Y-92565593D01*
X143040235Y-92570315D01*
X143036881Y-92570966D01*
X142988987Y-92583673D01*
X142984124Y-92585376D01*
X142937971Y-92605140D01*
X142935032Y-92606625D01*
X142892533Y-92632027D01*
X142769006Y-92632027D01*
X142770183Y-92583762D01*
X142773892Y-92534223D01*
X142777739Y-92501845D01*
X142786976Y-92450745D01*
X142800003Y-92402225D01*
X142807293Y-92380701D01*
X142828029Y-92332776D01*
X142853909Y-92288591D01*
X142862247Y-92276653D01*
X142895560Y-92237811D01*
X142935230Y-92204205D01*
X142947732Y-92195565D01*
X142992389Y-92170480D01*
X143038906Y-92151761D01*
X143068388Y-92142808D01*
X143118674Y-92132101D01*
X143168897Y-92126224D01*
X143217768Y-92124075D01*
X143229100Y-92124002D01*
X143317760Y-92124002D01*
X143317760Y-92229515D01*
G37*
G36*
X106257139Y-97185390D02*
G01*
X106308677Y-97192388D01*
X106335660Y-97198193D01*
X106383011Y-97213322D01*
X106428505Y-97236376D01*
X106443371Y-97246309D01*
X106480330Y-97278900D01*
X106509996Y-97318971D01*
X106517132Y-97331794D01*
X106535002Y-97378051D01*
X106543411Y-97427476D01*
X106544732Y-97459289D01*
X106540170Y-97510823D01*
X106527681Y-97558535D01*
X106523971Y-97568710D01*
X106501625Y-97613957D01*
X106470489Y-97654809D01*
X106459979Y-97665674D01*
X106420863Y-97697742D01*
X106377673Y-97722620D01*
X106349337Y-97735039D01*
X106300072Y-97750196D01*
X106249926Y-97758516D01*
X106200430Y-97761558D01*
X106188870Y-97761662D01*
X106077495Y-97761662D01*
X106077495Y-98074293D01*
X105955129Y-98074293D01*
X105955129Y-97656149D01*
X106077495Y-97656149D01*
X106191556Y-97656149D01*
X106242664Y-97653172D01*
X106292716Y-97642707D01*
X106339084Y-97622242D01*
X106358619Y-97608521D01*
X106392131Y-97570005D01*
X106411733Y-97519945D01*
X106417424Y-97470400D01*
X106417481Y-97464418D01*
X106411947Y-97414057D01*
X106393078Y-97367862D01*
X106360817Y-97331306D01*
X106316550Y-97304885D01*
X106267090Y-97290383D01*
X106215072Y-97285081D01*
X106202547Y-97284900D01*
X106077495Y-97284900D01*
X106077495Y-97656149D01*
X105955129Y-97656149D01*
X105955129Y-97183295D01*
X106207921Y-97183295D01*
X106257139Y-97185390D01*
G37*
G36*
X107382240Y-98074293D02*
G01*
X107248884Y-98074293D01*
X107186358Y-97886714D01*
X106812666Y-97886714D01*
X106749407Y-98074293D01*
X106622401Y-98074293D01*
X106721808Y-97777293D01*
X106847837Y-97777293D01*
X107151431Y-97777293D01*
X106999512Y-97296135D01*
X106847837Y-97777293D01*
X106721808Y-97777293D01*
X106920621Y-97183295D01*
X107088172Y-97183295D01*
X107382240Y-98074293D01*
G37*
G36*
X108054152Y-97793902D02*
G01*
X108049396Y-97845588D01*
X108035126Y-97893485D01*
X108025332Y-97914313D01*
X107998327Y-97955870D01*
X107964148Y-97992427D01*
X107945953Y-98007614D01*
X107902009Y-98036346D01*
X107856007Y-98057858D01*
X107826762Y-98068186D01*
X107778279Y-98080562D01*
X107727198Y-98087801D01*
X107678507Y-98089924D01*
X107635520Y-98088947D01*
X107589847Y-98086260D01*
X107545395Y-98082841D01*
X107506804Y-98078200D01*
X107506804Y-97968780D01*
X107557313Y-97977233D01*
X107591556Y-97980747D01*
X107642505Y-97983606D01*
X107688032Y-97984411D01*
X107737137Y-97981620D01*
X107786951Y-97971711D01*
X107834508Y-97952550D01*
X107861689Y-97935074D01*
X107896090Y-97899346D01*
X107909072Y-97877189D01*
X107923718Y-97829053D01*
X107925681Y-97800985D01*
X107918581Y-97749875D01*
X107894641Y-97706232D01*
X107865597Y-97681794D01*
X107818084Y-97660519D01*
X107769980Y-97649680D01*
X107720246Y-97645009D01*
X107692917Y-97644425D01*
X107522436Y-97644425D01*
X107522436Y-97183295D01*
X108006037Y-97183295D01*
X108006037Y-97288808D01*
X107635276Y-97288808D01*
X107635276Y-97542820D01*
X107713434Y-97542820D01*
X107765417Y-97544715D01*
X107816192Y-97550398D01*
X107839219Y-97554299D01*
X107886613Y-97566529D01*
X107932695Y-97586190D01*
X107947907Y-97594844D01*
X107988654Y-97626210D01*
X108021137Y-97666271D01*
X108024843Y-97672269D01*
X108044879Y-97719352D01*
X108053437Y-97771612D01*
X108054152Y-97793902D01*
G37*
D11*
G36*
X112799468Y-98010710D02*
G01*
X112874679Y-98018155D01*
X112927233Y-98027187D01*
X113001544Y-98048305D01*
X113069647Y-98081514D01*
X113081838Y-98089469D01*
X113138533Y-98139753D01*
X113180390Y-98203408D01*
X113205109Y-98275853D01*
X113214290Y-98349708D01*
X113214829Y-98374501D01*
X113208728Y-98447700D01*
X113193213Y-98504560D01*
X113157269Y-98572308D01*
X113132397Y-98602379D01*
X113074799Y-98649450D01*
X113039340Y-98668691D01*
X112967842Y-98694422D01*
X112921371Y-98704228D01*
X112988115Y-98736049D01*
X113011863Y-98758084D01*
X113055746Y-98816996D01*
X113091730Y-98883835D01*
X113094295Y-98889242D01*
X113309717Y-99345000D01*
X113011863Y-99345000D01*
X112822452Y-98907927D01*
X112783202Y-98844816D01*
X112747714Y-98814138D01*
X112677464Y-98786030D01*
X112634874Y-98782264D01*
X112586514Y-98782264D01*
X112586514Y-99345000D01*
X112332990Y-99345000D01*
X112332990Y-98594685D01*
X112586514Y-98594685D01*
X112689462Y-98594685D01*
X112765198Y-98588971D01*
X112796074Y-98582595D01*
X112864873Y-98554614D01*
X112878140Y-98545959D01*
X112928179Y-98489953D01*
X112930530Y-98485509D01*
X112948922Y-98414182D01*
X112949214Y-98402711D01*
X112937153Y-98327708D01*
X112893830Y-98267921D01*
X112886200Y-98262393D01*
X112813621Y-98231626D01*
X112735620Y-98220575D01*
X112697889Y-98219528D01*
X112586514Y-98219528D01*
X112586514Y-98594685D01*
X112332990Y-98594685D01*
X112332990Y-98008503D01*
X112725366Y-98008503D01*
X112799468Y-98010710D01*
G37*
G36*
X114024351Y-98270492D02*
G01*
X114097518Y-98284214D01*
X114147592Y-98300861D01*
X114217205Y-98336254D01*
X114276020Y-98382166D01*
X114290840Y-98397215D01*
X114336091Y-98455879D01*
X114370542Y-98523519D01*
X114378401Y-98544494D01*
X114397852Y-98616572D01*
X114407387Y-98694092D01*
X114408443Y-98731706D01*
X114406978Y-98799117D01*
X114402419Y-98873804D01*
X114402215Y-98876053D01*
X113713817Y-98876053D01*
X113721179Y-98952032D01*
X113734699Y-98997320D01*
X113772056Y-99061391D01*
X113794417Y-99085247D01*
X113858191Y-99127289D01*
X113887473Y-99139103D01*
X113959830Y-99154845D01*
X114007641Y-99157421D01*
X114081416Y-99155006D01*
X114154486Y-99148394D01*
X114170673Y-99146430D01*
X114248231Y-99134148D01*
X114322509Y-99117972D01*
X114351657Y-99110526D01*
X114351657Y-99321552D01*
X114278695Y-99337559D01*
X114264096Y-99340237D01*
X114188909Y-99352285D01*
X114167376Y-99355258D01*
X114092569Y-99363295D01*
X114067358Y-99365150D01*
X113993376Y-99368241D01*
X113969539Y-99368447D01*
X113890328Y-99364421D01*
X113816918Y-99352343D01*
X113755216Y-99334375D01*
X113688120Y-99303961D01*
X113624618Y-99260664D01*
X113594382Y-99232892D01*
X113545880Y-99173218D01*
X113510125Y-99108904D01*
X113493265Y-99067295D01*
X113473450Y-98995653D01*
X113461860Y-98916737D01*
X113458461Y-98838684D01*
X113461860Y-98760567D01*
X113471846Y-98688475D01*
X113718213Y-98688475D01*
X114153087Y-98688475D01*
X114145956Y-98613636D01*
X114137334Y-98584427D01*
X114101263Y-98520217D01*
X114092637Y-98510788D01*
X114031371Y-98469722D01*
X114026692Y-98467923D01*
X113954146Y-98454124D01*
X113946092Y-98454002D01*
X113869586Y-98465782D01*
X113802089Y-98504551D01*
X113790387Y-98515551D01*
X113746639Y-98578763D01*
X113722970Y-98654790D01*
X113718213Y-98688475D01*
X113471846Y-98688475D01*
X113472056Y-98686958D01*
X113491124Y-98611194D01*
X113493265Y-98604577D01*
X113520822Y-98535630D01*
X113558586Y-98468611D01*
X113592184Y-98423960D01*
X113644082Y-98372199D01*
X113708909Y-98327056D01*
X113747522Y-98307456D01*
X113818877Y-98282452D01*
X113896106Y-98268988D01*
X113950854Y-98266423D01*
X114024351Y-98270492D01*
G37*
G36*
X115513398Y-99033956D02*
G01*
X115505754Y-99108018D01*
X115478300Y-99180123D01*
X115473464Y-99188196D01*
X115427394Y-99246081D01*
X115368318Y-99292243D01*
X115298617Y-99326681D01*
X115225120Y-99348985D01*
X115219940Y-99350129D01*
X115146790Y-99362651D01*
X115072238Y-99368161D01*
X115050680Y-99368447D01*
X114974023Y-99367711D01*
X114896520Y-99365229D01*
X114842585Y-99362219D01*
X114768967Y-99356549D01*
X114693473Y-99348414D01*
X114667463Y-99345000D01*
X114667463Y-99110526D01*
X114739951Y-99135445D01*
X114812337Y-99154696D01*
X114860537Y-99164382D01*
X114937071Y-99175056D01*
X115015570Y-99180466D01*
X115042620Y-99180868D01*
X115119566Y-99174487D01*
X115190265Y-99147529D01*
X115235474Y-99088668D01*
X115239357Y-99059968D01*
X115229099Y-99016371D01*
X115190265Y-98978635D01*
X115122945Y-98946017D01*
X115110397Y-98941266D01*
X115038123Y-98916658D01*
X114975575Y-98898035D01*
X114903035Y-98874679D01*
X114840020Y-98848576D01*
X114775077Y-98810365D01*
X114743667Y-98783729D01*
X114698737Y-98723766D01*
X114686514Y-98696901D01*
X114669714Y-98624728D01*
X114667463Y-98581130D01*
X114677537Y-98507143D01*
X114696039Y-98459497D01*
X114740354Y-98396665D01*
X114782135Y-98359480D01*
X114846615Y-98320828D01*
X114919709Y-98292911D01*
X114925017Y-98291336D01*
X114999211Y-98275206D01*
X115076285Y-98267615D01*
X115125052Y-98266423D01*
X115201674Y-98267632D01*
X115275806Y-98271639D01*
X115300174Y-98273750D01*
X115376177Y-98281949D01*
X115434996Y-98289870D01*
X115434996Y-98500896D01*
X115363881Y-98482538D01*
X115291352Y-98468313D01*
X115266468Y-98464626D01*
X115192945Y-98457000D01*
X115115230Y-98454012D01*
X115110397Y-98454002D01*
X115036845Y-98461860D01*
X114986200Y-98481845D01*
X114940954Y-98541361D01*
X114939305Y-98559148D01*
X114948464Y-98601646D01*
X114985101Y-98638283D01*
X115052355Y-98671661D01*
X115061304Y-98675286D01*
X115130581Y-98699200D01*
X115190631Y-98717051D01*
X115264592Y-98740513D01*
X115335552Y-98769043D01*
X115343405Y-98772739D01*
X115408276Y-98810690D01*
X115442690Y-98839783D01*
X115485957Y-98898990D01*
X115496912Y-98925146D01*
X115511788Y-98997041D01*
X115513398Y-99033956D01*
G37*
G36*
X116330980Y-98270492D02*
G01*
X116404147Y-98284214D01*
X116454221Y-98300861D01*
X116523835Y-98336254D01*
X116582649Y-98382166D01*
X116597470Y-98397215D01*
X116642720Y-98455879D01*
X116677171Y-98523519D01*
X116685031Y-98544494D01*
X116704482Y-98616572D01*
X116714017Y-98694092D01*
X116715073Y-98731706D01*
X116713607Y-98799117D01*
X116709049Y-98873804D01*
X116708845Y-98876053D01*
X116020446Y-98876053D01*
X116027808Y-98952032D01*
X116041329Y-98997320D01*
X116078685Y-99061391D01*
X116101046Y-99085247D01*
X116164820Y-99127289D01*
X116194103Y-99139103D01*
X116266460Y-99154845D01*
X116314270Y-99157421D01*
X116388046Y-99155006D01*
X116461115Y-99148394D01*
X116477302Y-99146430D01*
X116554860Y-99134148D01*
X116629138Y-99117972D01*
X116658286Y-99110526D01*
X116658286Y-99321552D01*
X116585324Y-99337559D01*
X116570725Y-99340237D01*
X116495538Y-99352285D01*
X116474005Y-99355258D01*
X116399198Y-99363295D01*
X116373988Y-99365150D01*
X116300005Y-99368241D01*
X116276168Y-99368447D01*
X116196957Y-99364421D01*
X116123548Y-99352343D01*
X116061845Y-99334375D01*
X115994749Y-99303961D01*
X115931248Y-99260664D01*
X115901011Y-99232892D01*
X115852510Y-99173218D01*
X115816755Y-99108904D01*
X115799895Y-99067295D01*
X115780079Y-98995653D01*
X115768489Y-98916737D01*
X115765090Y-98838684D01*
X115768489Y-98760567D01*
X115778476Y-98688475D01*
X116024842Y-98688475D01*
X116459717Y-98688475D01*
X116452586Y-98613636D01*
X116443963Y-98584427D01*
X116407893Y-98520217D01*
X116399267Y-98510788D01*
X116338001Y-98469722D01*
X116333321Y-98467923D01*
X116260775Y-98454124D01*
X116252721Y-98454002D01*
X116176215Y-98465782D01*
X116108719Y-98504551D01*
X116097016Y-98515551D01*
X116053269Y-98578763D01*
X116029599Y-98654790D01*
X116024842Y-98688475D01*
X115778476Y-98688475D01*
X115778686Y-98686958D01*
X115797754Y-98611194D01*
X115799895Y-98604577D01*
X115827452Y-98535630D01*
X115865216Y-98468611D01*
X115898813Y-98423960D01*
X115950711Y-98372199D01*
X116015538Y-98327056D01*
X116054152Y-98307456D01*
X116125507Y-98282452D01*
X116202735Y-98268988D01*
X116257484Y-98266423D01*
X116330980Y-98270492D01*
G37*
G36*
X117820027Y-99345000D02*
G01*
X117747418Y-99355047D01*
X117683007Y-99361852D01*
X117607724Y-99367185D01*
X117552215Y-99368447D01*
X117478971Y-99365356D01*
X117403547Y-99353935D01*
X117374528Y-99346465D01*
X117306202Y-99318713D01*
X117250697Y-99279420D01*
X117203879Y-99220662D01*
X117178524Y-99164382D01*
X117161957Y-99092984D01*
X117155645Y-99015887D01*
X117155443Y-98998053D01*
X117155443Y-98477449D01*
X116874075Y-98477449D01*
X116874075Y-98289870D01*
X117155443Y-98289870D01*
X117155443Y-98027187D01*
X117412997Y-97961608D01*
X117412997Y-98289870D01*
X117820027Y-98289870D01*
X117820027Y-98477449D01*
X117412997Y-98477449D01*
X117412997Y-98974605D01*
X117422013Y-99049518D01*
X117454030Y-99111259D01*
X117518107Y-99148585D01*
X117592149Y-99157421D01*
X117668255Y-99154702D01*
X117712683Y-99150460D01*
X117785524Y-99140054D01*
X117820027Y-99133974D01*
X117820027Y-99345000D01*
G37*
D10*
X140954819Y-79666666D02*
X140478628Y-79999999D01*
X140954819Y-80238094D02*
X139954819Y-80238094D01*
X139954819Y-80238094D02*
X139954819Y-79857142D01*
X139954819Y-79857142D02*
X140002438Y-79761904D01*
X140002438Y-79761904D02*
X140050057Y-79714285D01*
X140050057Y-79714285D02*
X140145295Y-79666666D01*
X140145295Y-79666666D02*
X140288152Y-79666666D01*
X140288152Y-79666666D02*
X140383390Y-79714285D01*
X140383390Y-79714285D02*
X140431009Y-79761904D01*
X140431009Y-79761904D02*
X140478628Y-79857142D01*
X140478628Y-79857142D02*
X140478628Y-80238094D01*
X140050057Y-79285713D02*
X140002438Y-79238094D01*
X140002438Y-79238094D02*
X139954819Y-79142856D01*
X139954819Y-79142856D02*
X139954819Y-78904761D01*
X139954819Y-78904761D02*
X140002438Y-78809523D01*
X140002438Y-78809523D02*
X140050057Y-78761904D01*
X140050057Y-78761904D02*
X140145295Y-78714285D01*
X140145295Y-78714285D02*
X140240533Y-78714285D01*
X140240533Y-78714285D02*
X140383390Y-78761904D01*
X140383390Y-78761904D02*
X140954819Y-79333332D01*
X140954819Y-79333332D02*
X140954819Y-78714285D01*
X115523810Y-85054819D02*
X115523810Y-84054819D01*
X116571428Y-84959580D02*
X116523809Y-85007200D01*
X116523809Y-85007200D02*
X116380952Y-85054819D01*
X116380952Y-85054819D02*
X116285714Y-85054819D01*
X116285714Y-85054819D02*
X116142857Y-85007200D01*
X116142857Y-85007200D02*
X116047619Y-84911961D01*
X116047619Y-84911961D02*
X116000000Y-84816723D01*
X116000000Y-84816723D02*
X115952381Y-84626247D01*
X115952381Y-84626247D02*
X115952381Y-84483390D01*
X115952381Y-84483390D02*
X116000000Y-84292914D01*
X116000000Y-84292914D02*
X116047619Y-84197676D01*
X116047619Y-84197676D02*
X116142857Y-84102438D01*
X116142857Y-84102438D02*
X116285714Y-84054819D01*
X116285714Y-84054819D02*
X116380952Y-84054819D01*
X116380952Y-84054819D02*
X116523809Y-84102438D01*
X116523809Y-84102438D02*
X116571428Y-84150057D01*
X116952381Y-84150057D02*
X117000000Y-84102438D01*
X117000000Y-84102438D02*
X117095238Y-84054819D01*
X117095238Y-84054819D02*
X117333333Y-84054819D01*
X117333333Y-84054819D02*
X117428571Y-84102438D01*
X117428571Y-84102438D02*
X117476190Y-84150057D01*
X117476190Y-84150057D02*
X117523809Y-84245295D01*
X117523809Y-84245295D02*
X117523809Y-84340533D01*
X117523809Y-84340533D02*
X117476190Y-84483390D01*
X117476190Y-84483390D02*
X116904762Y-85054819D01*
X116904762Y-85054819D02*
X117523809Y-85054819D01*
X114238095Y-102907200D02*
X114380952Y-102954819D01*
X114380952Y-102954819D02*
X114619047Y-102954819D01*
X114619047Y-102954819D02*
X114714285Y-102907200D01*
X114714285Y-102907200D02*
X114761904Y-102859580D01*
X114761904Y-102859580D02*
X114809523Y-102764342D01*
X114809523Y-102764342D02*
X114809523Y-102669104D01*
X114809523Y-102669104D02*
X114761904Y-102573866D01*
X114761904Y-102573866D02*
X114714285Y-102526247D01*
X114714285Y-102526247D02*
X114619047Y-102478628D01*
X114619047Y-102478628D02*
X114428571Y-102431009D01*
X114428571Y-102431009D02*
X114333333Y-102383390D01*
X114333333Y-102383390D02*
X114285714Y-102335771D01*
X114285714Y-102335771D02*
X114238095Y-102240533D01*
X114238095Y-102240533D02*
X114238095Y-102145295D01*
X114238095Y-102145295D02*
X114285714Y-102050057D01*
X114285714Y-102050057D02*
X114333333Y-102002438D01*
X114333333Y-102002438D02*
X114428571Y-101954819D01*
X114428571Y-101954819D02*
X114666666Y-101954819D01*
X114666666Y-101954819D02*
X114809523Y-102002438D01*
X115761904Y-102954819D02*
X115190476Y-102954819D01*
X115476190Y-102954819D02*
X115476190Y-101954819D01*
X115476190Y-101954819D02*
X115380952Y-102097676D01*
X115380952Y-102097676D02*
X115285714Y-102192914D01*
X115285714Y-102192914D02*
X115190476Y-102240533D01*
X127259580Y-102766666D02*
X127307200Y-102814285D01*
X127307200Y-102814285D02*
X127354819Y-102957142D01*
X127354819Y-102957142D02*
X127354819Y-103052380D01*
X127354819Y-103052380D02*
X127307200Y-103195237D01*
X127307200Y-103195237D02*
X127211961Y-103290475D01*
X127211961Y-103290475D02*
X127116723Y-103338094D01*
X127116723Y-103338094D02*
X126926247Y-103385713D01*
X126926247Y-103385713D02*
X126783390Y-103385713D01*
X126783390Y-103385713D02*
X126592914Y-103338094D01*
X126592914Y-103338094D02*
X126497676Y-103290475D01*
X126497676Y-103290475D02*
X126402438Y-103195237D01*
X126402438Y-103195237D02*
X126354819Y-103052380D01*
X126354819Y-103052380D02*
X126354819Y-102957142D01*
X126354819Y-102957142D02*
X126402438Y-102814285D01*
X126402438Y-102814285D02*
X126450057Y-102766666D01*
X126354819Y-101861904D02*
X126354819Y-102338094D01*
X126354819Y-102338094D02*
X126831009Y-102385713D01*
X126831009Y-102385713D02*
X126783390Y-102338094D01*
X126783390Y-102338094D02*
X126735771Y-102242856D01*
X126735771Y-102242856D02*
X126735771Y-102004761D01*
X126735771Y-102004761D02*
X126783390Y-101909523D01*
X126783390Y-101909523D02*
X126831009Y-101861904D01*
X126831009Y-101861904D02*
X126926247Y-101814285D01*
X126926247Y-101814285D02*
X127164342Y-101814285D01*
X127164342Y-101814285D02*
X127259580Y-101861904D01*
X127259580Y-101861904D02*
X127307200Y-101909523D01*
X127307200Y-101909523D02*
X127354819Y-102004761D01*
X127354819Y-102004761D02*
X127354819Y-102242856D01*
X127354819Y-102242856D02*
X127307200Y-102338094D01*
X127307200Y-102338094D02*
X127259580Y-102385713D01*
X133333333Y-86539580D02*
X133285714Y-86587200D01*
X133285714Y-86587200D02*
X133142857Y-86634819D01*
X133142857Y-86634819D02*
X133047619Y-86634819D01*
X133047619Y-86634819D02*
X132904762Y-86587200D01*
X132904762Y-86587200D02*
X132809524Y-86491961D01*
X132809524Y-86491961D02*
X132761905Y-86396723D01*
X132761905Y-86396723D02*
X132714286Y-86206247D01*
X132714286Y-86206247D02*
X132714286Y-86063390D01*
X132714286Y-86063390D02*
X132761905Y-85872914D01*
X132761905Y-85872914D02*
X132809524Y-85777676D01*
X132809524Y-85777676D02*
X132904762Y-85682438D01*
X132904762Y-85682438D02*
X133047619Y-85634819D01*
X133047619Y-85634819D02*
X133142857Y-85634819D01*
X133142857Y-85634819D02*
X133285714Y-85682438D01*
X133285714Y-85682438D02*
X133333333Y-85730057D01*
X133714286Y-85730057D02*
X133761905Y-85682438D01*
X133761905Y-85682438D02*
X133857143Y-85634819D01*
X133857143Y-85634819D02*
X134095238Y-85634819D01*
X134095238Y-85634819D02*
X134190476Y-85682438D01*
X134190476Y-85682438D02*
X134238095Y-85730057D01*
X134238095Y-85730057D02*
X134285714Y-85825295D01*
X134285714Y-85825295D02*
X134285714Y-85920533D01*
X134285714Y-85920533D02*
X134238095Y-86063390D01*
X134238095Y-86063390D02*
X133666667Y-86634819D01*
X133666667Y-86634819D02*
X134285714Y-86634819D01*
X130359580Y-83866666D02*
X130407200Y-83914285D01*
X130407200Y-83914285D02*
X130454819Y-84057142D01*
X130454819Y-84057142D02*
X130454819Y-84152380D01*
X130454819Y-84152380D02*
X130407200Y-84295237D01*
X130407200Y-84295237D02*
X130311961Y-84390475D01*
X130311961Y-84390475D02*
X130216723Y-84438094D01*
X130216723Y-84438094D02*
X130026247Y-84485713D01*
X130026247Y-84485713D02*
X129883390Y-84485713D01*
X129883390Y-84485713D02*
X129692914Y-84438094D01*
X129692914Y-84438094D02*
X129597676Y-84390475D01*
X129597676Y-84390475D02*
X129502438Y-84295237D01*
X129502438Y-84295237D02*
X129454819Y-84152380D01*
X129454819Y-84152380D02*
X129454819Y-84057142D01*
X129454819Y-84057142D02*
X129502438Y-83914285D01*
X129502438Y-83914285D02*
X129550057Y-83866666D01*
X130454819Y-82914285D02*
X130454819Y-83485713D01*
X130454819Y-83199999D02*
X129454819Y-83199999D01*
X129454819Y-83199999D02*
X129597676Y-83295237D01*
X129597676Y-83295237D02*
X129692914Y-83390475D01*
X129692914Y-83390475D02*
X129740533Y-83485713D01*
X108261905Y-82954819D02*
X108261905Y-81954819D01*
X108261905Y-81954819D02*
X108500000Y-81954819D01*
X108500000Y-81954819D02*
X108642857Y-82002438D01*
X108642857Y-82002438D02*
X108738095Y-82097676D01*
X108738095Y-82097676D02*
X108785714Y-82192914D01*
X108785714Y-82192914D02*
X108833333Y-82383390D01*
X108833333Y-82383390D02*
X108833333Y-82526247D01*
X108833333Y-82526247D02*
X108785714Y-82716723D01*
X108785714Y-82716723D02*
X108738095Y-82811961D01*
X108738095Y-82811961D02*
X108642857Y-82907200D01*
X108642857Y-82907200D02*
X108500000Y-82954819D01*
X108500000Y-82954819D02*
X108261905Y-82954819D01*
X109785714Y-82954819D02*
X109214286Y-82954819D01*
X109500000Y-82954819D02*
X109500000Y-81954819D01*
X109500000Y-81954819D02*
X109404762Y-82097676D01*
X109404762Y-82097676D02*
X109309524Y-82192914D01*
X109309524Y-82192914D02*
X109214286Y-82240533D01*
X117454819Y-82991666D02*
X116978628Y-83324999D01*
X117454819Y-83563094D02*
X116454819Y-83563094D01*
X116454819Y-83563094D02*
X116454819Y-83182142D01*
X116454819Y-83182142D02*
X116502438Y-83086904D01*
X116502438Y-83086904D02*
X116550057Y-83039285D01*
X116550057Y-83039285D02*
X116645295Y-82991666D01*
X116645295Y-82991666D02*
X116788152Y-82991666D01*
X116788152Y-82991666D02*
X116883390Y-83039285D01*
X116883390Y-83039285D02*
X116931009Y-83086904D01*
X116931009Y-83086904D02*
X116978628Y-83182142D01*
X116978628Y-83182142D02*
X116978628Y-83563094D01*
X116454819Y-82134523D02*
X116454819Y-82324999D01*
X116454819Y-82324999D02*
X116502438Y-82420237D01*
X116502438Y-82420237D02*
X116550057Y-82467856D01*
X116550057Y-82467856D02*
X116692914Y-82563094D01*
X116692914Y-82563094D02*
X116883390Y-82610713D01*
X116883390Y-82610713D02*
X117264342Y-82610713D01*
X117264342Y-82610713D02*
X117359580Y-82563094D01*
X117359580Y-82563094D02*
X117407200Y-82515475D01*
X117407200Y-82515475D02*
X117454819Y-82420237D01*
X117454819Y-82420237D02*
X117454819Y-82229761D01*
X117454819Y-82229761D02*
X117407200Y-82134523D01*
X117407200Y-82134523D02*
X117359580Y-82086904D01*
X117359580Y-82086904D02*
X117264342Y-82039285D01*
X117264342Y-82039285D02*
X117026247Y-82039285D01*
X117026247Y-82039285D02*
X116931009Y-82086904D01*
X116931009Y-82086904D02*
X116883390Y-82134523D01*
X116883390Y-82134523D02*
X116835771Y-82229761D01*
X116835771Y-82229761D02*
X116835771Y-82420237D01*
X116835771Y-82420237D02*
X116883390Y-82515475D01*
X116883390Y-82515475D02*
X116931009Y-82563094D01*
X116931009Y-82563094D02*
X117026247Y-82610713D01*
X114238095Y-96407200D02*
X114380952Y-96454819D01*
X114380952Y-96454819D02*
X114619047Y-96454819D01*
X114619047Y-96454819D02*
X114714285Y-96407200D01*
X114714285Y-96407200D02*
X114761904Y-96359580D01*
X114761904Y-96359580D02*
X114809523Y-96264342D01*
X114809523Y-96264342D02*
X114809523Y-96169104D01*
X114809523Y-96169104D02*
X114761904Y-96073866D01*
X114761904Y-96073866D02*
X114714285Y-96026247D01*
X114714285Y-96026247D02*
X114619047Y-95978628D01*
X114619047Y-95978628D02*
X114428571Y-95931009D01*
X114428571Y-95931009D02*
X114333333Y-95883390D01*
X114333333Y-95883390D02*
X114285714Y-95835771D01*
X114285714Y-95835771D02*
X114238095Y-95740533D01*
X114238095Y-95740533D02*
X114238095Y-95645295D01*
X114238095Y-95645295D02*
X114285714Y-95550057D01*
X114285714Y-95550057D02*
X114333333Y-95502438D01*
X114333333Y-95502438D02*
X114428571Y-95454819D01*
X114428571Y-95454819D02*
X114666666Y-95454819D01*
X114666666Y-95454819D02*
X114809523Y-95502438D01*
X115190476Y-95550057D02*
X115238095Y-95502438D01*
X115238095Y-95502438D02*
X115333333Y-95454819D01*
X115333333Y-95454819D02*
X115571428Y-95454819D01*
X115571428Y-95454819D02*
X115666666Y-95502438D01*
X115666666Y-95502438D02*
X115714285Y-95550057D01*
X115714285Y-95550057D02*
X115761904Y-95645295D01*
X115761904Y-95645295D02*
X115761904Y-95740533D01*
X115761904Y-95740533D02*
X115714285Y-95883390D01*
X115714285Y-95883390D02*
X115142857Y-96454819D01*
X115142857Y-96454819D02*
X115761904Y-96454819D01*
X122833333Y-90454819D02*
X122500000Y-89978628D01*
X122261905Y-90454819D02*
X122261905Y-89454819D01*
X122261905Y-89454819D02*
X122642857Y-89454819D01*
X122642857Y-89454819D02*
X122738095Y-89502438D01*
X122738095Y-89502438D02*
X122785714Y-89550057D01*
X122785714Y-89550057D02*
X122833333Y-89645295D01*
X122833333Y-89645295D02*
X122833333Y-89788152D01*
X122833333Y-89788152D02*
X122785714Y-89883390D01*
X122785714Y-89883390D02*
X122738095Y-89931009D01*
X122738095Y-89931009D02*
X122642857Y-89978628D01*
X122642857Y-89978628D02*
X122261905Y-89978628D01*
X123166667Y-89454819D02*
X123833333Y-89454819D01*
X123833333Y-89454819D02*
X123404762Y-90454819D01*
X120833333Y-90454819D02*
X120500000Y-89978628D01*
X120261905Y-90454819D02*
X120261905Y-89454819D01*
X120261905Y-89454819D02*
X120642857Y-89454819D01*
X120642857Y-89454819D02*
X120738095Y-89502438D01*
X120738095Y-89502438D02*
X120785714Y-89550057D01*
X120785714Y-89550057D02*
X120833333Y-89645295D01*
X120833333Y-89645295D02*
X120833333Y-89788152D01*
X120833333Y-89788152D02*
X120785714Y-89883390D01*
X120785714Y-89883390D02*
X120738095Y-89931009D01*
X120738095Y-89931009D02*
X120642857Y-89978628D01*
X120642857Y-89978628D02*
X120261905Y-89978628D01*
X121785714Y-90454819D02*
X121214286Y-90454819D01*
X121500000Y-90454819D02*
X121500000Y-89454819D01*
X121500000Y-89454819D02*
X121404762Y-89597676D01*
X121404762Y-89597676D02*
X121309524Y-89692914D01*
X121309524Y-89692914D02*
X121214286Y-89740533D01*
X114833333Y-92384819D02*
X114500000Y-91908628D01*
X114261905Y-92384819D02*
X114261905Y-91384819D01*
X114261905Y-91384819D02*
X114642857Y-91384819D01*
X114642857Y-91384819D02*
X114738095Y-91432438D01*
X114738095Y-91432438D02*
X114785714Y-91480057D01*
X114785714Y-91480057D02*
X114833333Y-91575295D01*
X114833333Y-91575295D02*
X114833333Y-91718152D01*
X114833333Y-91718152D02*
X114785714Y-91813390D01*
X114785714Y-91813390D02*
X114738095Y-91861009D01*
X114738095Y-91861009D02*
X114642857Y-91908628D01*
X114642857Y-91908628D02*
X114261905Y-91908628D01*
X115690476Y-91718152D02*
X115690476Y-92384819D01*
X115452381Y-91337200D02*
X115214286Y-92051485D01*
X115214286Y-92051485D02*
X115833333Y-92051485D01*
X119407200Y-80833332D02*
X119454819Y-80690475D01*
X119454819Y-80690475D02*
X119454819Y-80452380D01*
X119454819Y-80452380D02*
X119407200Y-80357142D01*
X119407200Y-80357142D02*
X119359580Y-80309523D01*
X119359580Y-80309523D02*
X119264342Y-80261904D01*
X119264342Y-80261904D02*
X119169104Y-80261904D01*
X119169104Y-80261904D02*
X119073866Y-80309523D01*
X119073866Y-80309523D02*
X119026247Y-80357142D01*
X119026247Y-80357142D02*
X118978628Y-80452380D01*
X118978628Y-80452380D02*
X118931009Y-80642856D01*
X118931009Y-80642856D02*
X118883390Y-80738094D01*
X118883390Y-80738094D02*
X118835771Y-80785713D01*
X118835771Y-80785713D02*
X118740533Y-80833332D01*
X118740533Y-80833332D02*
X118645295Y-80833332D01*
X118645295Y-80833332D02*
X118550057Y-80785713D01*
X118550057Y-80785713D02*
X118502438Y-80738094D01*
X118502438Y-80738094D02*
X118454819Y-80642856D01*
X118454819Y-80642856D02*
X118454819Y-80404761D01*
X118454819Y-80404761D02*
X118502438Y-80261904D01*
X118454819Y-79928570D02*
X119454819Y-79690475D01*
X119454819Y-79690475D02*
X118740533Y-79499999D01*
X118740533Y-79499999D02*
X119454819Y-79309523D01*
X119454819Y-79309523D02*
X118454819Y-79071428D01*
X119454819Y-78166666D02*
X119454819Y-78738094D01*
X119454819Y-78452380D02*
X118454819Y-78452380D01*
X118454819Y-78452380D02*
X118597676Y-78547618D01*
X118597676Y-78547618D02*
X118692914Y-78642856D01*
X118692914Y-78642856D02*
X118740533Y-78738094D01*
X115859580Y-79991666D02*
X115907200Y-80039285D01*
X115907200Y-80039285D02*
X115954819Y-80182142D01*
X115954819Y-80182142D02*
X115954819Y-80277380D01*
X115954819Y-80277380D02*
X115907200Y-80420237D01*
X115907200Y-80420237D02*
X115811961Y-80515475D01*
X115811961Y-80515475D02*
X115716723Y-80563094D01*
X115716723Y-80563094D02*
X115526247Y-80610713D01*
X115526247Y-80610713D02*
X115383390Y-80610713D01*
X115383390Y-80610713D02*
X115192914Y-80563094D01*
X115192914Y-80563094D02*
X115097676Y-80515475D01*
X115097676Y-80515475D02*
X115002438Y-80420237D01*
X115002438Y-80420237D02*
X114954819Y-80277380D01*
X114954819Y-80277380D02*
X114954819Y-80182142D01*
X114954819Y-80182142D02*
X115002438Y-80039285D01*
X115002438Y-80039285D02*
X115050057Y-79991666D01*
X114954819Y-79658332D02*
X114954819Y-78991666D01*
X114954819Y-78991666D02*
X115954819Y-79420237D01*
X127333333Y-73609580D02*
X127285714Y-73657200D01*
X127285714Y-73657200D02*
X127142857Y-73704819D01*
X127142857Y-73704819D02*
X127047619Y-73704819D01*
X127047619Y-73704819D02*
X126904762Y-73657200D01*
X126904762Y-73657200D02*
X126809524Y-73561961D01*
X126809524Y-73561961D02*
X126761905Y-73466723D01*
X126761905Y-73466723D02*
X126714286Y-73276247D01*
X126714286Y-73276247D02*
X126714286Y-73133390D01*
X126714286Y-73133390D02*
X126761905Y-72942914D01*
X126761905Y-72942914D02*
X126809524Y-72847676D01*
X126809524Y-72847676D02*
X126904762Y-72752438D01*
X126904762Y-72752438D02*
X127047619Y-72704819D01*
X127047619Y-72704819D02*
X127142857Y-72704819D01*
X127142857Y-72704819D02*
X127285714Y-72752438D01*
X127285714Y-72752438D02*
X127333333Y-72800057D01*
X127809524Y-73704819D02*
X128000000Y-73704819D01*
X128000000Y-73704819D02*
X128095238Y-73657200D01*
X128095238Y-73657200D02*
X128142857Y-73609580D01*
X128142857Y-73609580D02*
X128238095Y-73466723D01*
X128238095Y-73466723D02*
X128285714Y-73276247D01*
X128285714Y-73276247D02*
X128285714Y-72895295D01*
X128285714Y-72895295D02*
X128238095Y-72800057D01*
X128238095Y-72800057D02*
X128190476Y-72752438D01*
X128190476Y-72752438D02*
X128095238Y-72704819D01*
X128095238Y-72704819D02*
X127904762Y-72704819D01*
X127904762Y-72704819D02*
X127809524Y-72752438D01*
X127809524Y-72752438D02*
X127761905Y-72800057D01*
X127761905Y-72800057D02*
X127714286Y-72895295D01*
X127714286Y-72895295D02*
X127714286Y-73133390D01*
X127714286Y-73133390D02*
X127761905Y-73228628D01*
X127761905Y-73228628D02*
X127809524Y-73276247D01*
X127809524Y-73276247D02*
X127904762Y-73323866D01*
X127904762Y-73323866D02*
X128095238Y-73323866D01*
X128095238Y-73323866D02*
X128190476Y-73276247D01*
X128190476Y-73276247D02*
X128238095Y-73228628D01*
X128238095Y-73228628D02*
X128285714Y-73133390D01*
X117359580Y-79991666D02*
X117407200Y-80039285D01*
X117407200Y-80039285D02*
X117454819Y-80182142D01*
X117454819Y-80182142D02*
X117454819Y-80277380D01*
X117454819Y-80277380D02*
X117407200Y-80420237D01*
X117407200Y-80420237D02*
X117311961Y-80515475D01*
X117311961Y-80515475D02*
X117216723Y-80563094D01*
X117216723Y-80563094D02*
X117026247Y-80610713D01*
X117026247Y-80610713D02*
X116883390Y-80610713D01*
X116883390Y-80610713D02*
X116692914Y-80563094D01*
X116692914Y-80563094D02*
X116597676Y-80515475D01*
X116597676Y-80515475D02*
X116502438Y-80420237D01*
X116502438Y-80420237D02*
X116454819Y-80277380D01*
X116454819Y-80277380D02*
X116454819Y-80182142D01*
X116454819Y-80182142D02*
X116502438Y-80039285D01*
X116502438Y-80039285D02*
X116550057Y-79991666D01*
X116883390Y-79420237D02*
X116835771Y-79515475D01*
X116835771Y-79515475D02*
X116788152Y-79563094D01*
X116788152Y-79563094D02*
X116692914Y-79610713D01*
X116692914Y-79610713D02*
X116645295Y-79610713D01*
X116645295Y-79610713D02*
X116550057Y-79563094D01*
X116550057Y-79563094D02*
X116502438Y-79515475D01*
X116502438Y-79515475D02*
X116454819Y-79420237D01*
X116454819Y-79420237D02*
X116454819Y-79229761D01*
X116454819Y-79229761D02*
X116502438Y-79134523D01*
X116502438Y-79134523D02*
X116550057Y-79086904D01*
X116550057Y-79086904D02*
X116645295Y-79039285D01*
X116645295Y-79039285D02*
X116692914Y-79039285D01*
X116692914Y-79039285D02*
X116788152Y-79086904D01*
X116788152Y-79086904D02*
X116835771Y-79134523D01*
X116835771Y-79134523D02*
X116883390Y-79229761D01*
X116883390Y-79229761D02*
X116883390Y-79420237D01*
X116883390Y-79420237D02*
X116931009Y-79515475D01*
X116931009Y-79515475D02*
X116978628Y-79563094D01*
X116978628Y-79563094D02*
X117073866Y-79610713D01*
X117073866Y-79610713D02*
X117264342Y-79610713D01*
X117264342Y-79610713D02*
X117359580Y-79563094D01*
X117359580Y-79563094D02*
X117407200Y-79515475D01*
X117407200Y-79515475D02*
X117454819Y-79420237D01*
X117454819Y-79420237D02*
X117454819Y-79229761D01*
X117454819Y-79229761D02*
X117407200Y-79134523D01*
X117407200Y-79134523D02*
X117359580Y-79086904D01*
X117359580Y-79086904D02*
X117264342Y-79039285D01*
X117264342Y-79039285D02*
X117073866Y-79039285D01*
X117073866Y-79039285D02*
X116978628Y-79086904D01*
X116978628Y-79086904D02*
X116931009Y-79134523D01*
X116931009Y-79134523D02*
X116883390Y-79229761D01*
X122923810Y-111054819D02*
X122923810Y-110054819D01*
X123971428Y-110959580D02*
X123923809Y-111007200D01*
X123923809Y-111007200D02*
X123780952Y-111054819D01*
X123780952Y-111054819D02*
X123685714Y-111054819D01*
X123685714Y-111054819D02*
X123542857Y-111007200D01*
X123542857Y-111007200D02*
X123447619Y-110911961D01*
X123447619Y-110911961D02*
X123400000Y-110816723D01*
X123400000Y-110816723D02*
X123352381Y-110626247D01*
X123352381Y-110626247D02*
X123352381Y-110483390D01*
X123352381Y-110483390D02*
X123400000Y-110292914D01*
X123400000Y-110292914D02*
X123447619Y-110197676D01*
X123447619Y-110197676D02*
X123542857Y-110102438D01*
X123542857Y-110102438D02*
X123685714Y-110054819D01*
X123685714Y-110054819D02*
X123780952Y-110054819D01*
X123780952Y-110054819D02*
X123923809Y-110102438D01*
X123923809Y-110102438D02*
X123971428Y-110150057D01*
X124923809Y-111054819D02*
X124352381Y-111054819D01*
X124638095Y-111054819D02*
X124638095Y-110054819D01*
X124638095Y-110054819D02*
X124542857Y-110197676D01*
X124542857Y-110197676D02*
X124447619Y-110292914D01*
X124447619Y-110292914D02*
X124352381Y-110340533D01*
X135538095Y-81854819D02*
X135538095Y-82664342D01*
X135538095Y-82664342D02*
X135585714Y-82759580D01*
X135585714Y-82759580D02*
X135633333Y-82807200D01*
X135633333Y-82807200D02*
X135728571Y-82854819D01*
X135728571Y-82854819D02*
X135919047Y-82854819D01*
X135919047Y-82854819D02*
X136014285Y-82807200D01*
X136014285Y-82807200D02*
X136061904Y-82759580D01*
X136061904Y-82759580D02*
X136109523Y-82664342D01*
X136109523Y-82664342D02*
X136109523Y-81854819D01*
X137109523Y-82854819D02*
X136538095Y-82854819D01*
X136823809Y-82854819D02*
X136823809Y-81854819D01*
X136823809Y-81854819D02*
X136728571Y-81997676D01*
X136728571Y-81997676D02*
X136633333Y-82092914D01*
X136633333Y-82092914D02*
X136538095Y-82140533D01*
X144666666Y-84624819D02*
X144666666Y-85339104D01*
X144666666Y-85339104D02*
X144619047Y-85481961D01*
X144619047Y-85481961D02*
X144523809Y-85577200D01*
X144523809Y-85577200D02*
X144380952Y-85624819D01*
X144380952Y-85624819D02*
X144285714Y-85624819D01*
X145047619Y-84624819D02*
X145666666Y-84624819D01*
X145666666Y-84624819D02*
X145333333Y-85005771D01*
X145333333Y-85005771D02*
X145476190Y-85005771D01*
X145476190Y-85005771D02*
X145571428Y-85053390D01*
X145571428Y-85053390D02*
X145619047Y-85101009D01*
X145619047Y-85101009D02*
X145666666Y-85196247D01*
X145666666Y-85196247D02*
X145666666Y-85434342D01*
X145666666Y-85434342D02*
X145619047Y-85529580D01*
X145619047Y-85529580D02*
X145571428Y-85577200D01*
X145571428Y-85577200D02*
X145476190Y-85624819D01*
X145476190Y-85624819D02*
X145190476Y-85624819D01*
X145190476Y-85624819D02*
X145095238Y-85577200D01*
X145095238Y-85577200D02*
X145047619Y-85529580D01*
X118833333Y-90359580D02*
X118785714Y-90407200D01*
X118785714Y-90407200D02*
X118642857Y-90454819D01*
X118642857Y-90454819D02*
X118547619Y-90454819D01*
X118547619Y-90454819D02*
X118404762Y-90407200D01*
X118404762Y-90407200D02*
X118309524Y-90311961D01*
X118309524Y-90311961D02*
X118261905Y-90216723D01*
X118261905Y-90216723D02*
X118214286Y-90026247D01*
X118214286Y-90026247D02*
X118214286Y-89883390D01*
X118214286Y-89883390D02*
X118261905Y-89692914D01*
X118261905Y-89692914D02*
X118309524Y-89597676D01*
X118309524Y-89597676D02*
X118404762Y-89502438D01*
X118404762Y-89502438D02*
X118547619Y-89454819D01*
X118547619Y-89454819D02*
X118642857Y-89454819D01*
X118642857Y-89454819D02*
X118785714Y-89502438D01*
X118785714Y-89502438D02*
X118833333Y-89550057D01*
X119690476Y-89454819D02*
X119500000Y-89454819D01*
X119500000Y-89454819D02*
X119404762Y-89502438D01*
X119404762Y-89502438D02*
X119357143Y-89550057D01*
X119357143Y-89550057D02*
X119261905Y-89692914D01*
X119261905Y-89692914D02*
X119214286Y-89883390D01*
X119214286Y-89883390D02*
X119214286Y-90264342D01*
X119214286Y-90264342D02*
X119261905Y-90359580D01*
X119261905Y-90359580D02*
X119309524Y-90407200D01*
X119309524Y-90407200D02*
X119404762Y-90454819D01*
X119404762Y-90454819D02*
X119595238Y-90454819D01*
X119595238Y-90454819D02*
X119690476Y-90407200D01*
X119690476Y-90407200D02*
X119738095Y-90359580D01*
X119738095Y-90359580D02*
X119785714Y-90264342D01*
X119785714Y-90264342D02*
X119785714Y-90026247D01*
X119785714Y-90026247D02*
X119738095Y-89931009D01*
X119738095Y-89931009D02*
X119690476Y-89883390D01*
X119690476Y-89883390D02*
X119595238Y-89835771D01*
X119595238Y-89835771D02*
X119404762Y-89835771D01*
X119404762Y-89835771D02*
X119309524Y-89883390D01*
X119309524Y-89883390D02*
X119261905Y-89931009D01*
X119261905Y-89931009D02*
X119214286Y-90026247D01*
X112331009Y-88888095D02*
X112331009Y-89221428D01*
X112854819Y-89221428D02*
X111854819Y-89221428D01*
X111854819Y-89221428D02*
X111854819Y-88745238D01*
X112854819Y-87888095D02*
X112854819Y-88364285D01*
X112854819Y-88364285D02*
X111854819Y-88364285D01*
X112854819Y-87030952D02*
X112854819Y-87602380D01*
X112854819Y-87316666D02*
X111854819Y-87316666D01*
X111854819Y-87316666D02*
X111997676Y-87411904D01*
X111997676Y-87411904D02*
X112092914Y-87507142D01*
X112092914Y-87507142D02*
X112140533Y-87602380D01*
X125857142Y-90929580D02*
X125809523Y-90977200D01*
X125809523Y-90977200D02*
X125666666Y-91024819D01*
X125666666Y-91024819D02*
X125571428Y-91024819D01*
X125571428Y-91024819D02*
X125428571Y-90977200D01*
X125428571Y-90977200D02*
X125333333Y-90881961D01*
X125333333Y-90881961D02*
X125285714Y-90786723D01*
X125285714Y-90786723D02*
X125238095Y-90596247D01*
X125238095Y-90596247D02*
X125238095Y-90453390D01*
X125238095Y-90453390D02*
X125285714Y-90262914D01*
X125285714Y-90262914D02*
X125333333Y-90167676D01*
X125333333Y-90167676D02*
X125428571Y-90072438D01*
X125428571Y-90072438D02*
X125571428Y-90024819D01*
X125571428Y-90024819D02*
X125666666Y-90024819D01*
X125666666Y-90024819D02*
X125809523Y-90072438D01*
X125809523Y-90072438D02*
X125857142Y-90120057D01*
X126809523Y-91024819D02*
X126238095Y-91024819D01*
X126523809Y-91024819D02*
X126523809Y-90024819D01*
X126523809Y-90024819D02*
X126428571Y-90167676D01*
X126428571Y-90167676D02*
X126333333Y-90262914D01*
X126333333Y-90262914D02*
X126238095Y-90310533D01*
X127761904Y-91024819D02*
X127190476Y-91024819D01*
X127476190Y-91024819D02*
X127476190Y-90024819D01*
X127476190Y-90024819D02*
X127380952Y-90167676D01*
X127380952Y-90167676D02*
X127285714Y-90262914D01*
X127285714Y-90262914D02*
X127190476Y-90310533D01*
X109166666Y-74954819D02*
X109166666Y-75669104D01*
X109166666Y-75669104D02*
X109119047Y-75811961D01*
X109119047Y-75811961D02*
X109023809Y-75907200D01*
X109023809Y-75907200D02*
X108880952Y-75954819D01*
X108880952Y-75954819D02*
X108785714Y-75954819D01*
X110166666Y-75954819D02*
X109595238Y-75954819D01*
X109880952Y-75954819D02*
X109880952Y-74954819D01*
X109880952Y-74954819D02*
X109785714Y-75097676D01*
X109785714Y-75097676D02*
X109690476Y-75192914D01*
X109690476Y-75192914D02*
X109595238Y-75240533D01*
X142666666Y-75454819D02*
X142666666Y-76169104D01*
X142666666Y-76169104D02*
X142619047Y-76311961D01*
X142619047Y-76311961D02*
X142523809Y-76407200D01*
X142523809Y-76407200D02*
X142380952Y-76454819D01*
X142380952Y-76454819D02*
X142285714Y-76454819D01*
X143571428Y-75788152D02*
X143571428Y-76454819D01*
X143333333Y-75407200D02*
X143095238Y-76121485D01*
X143095238Y-76121485D02*
X143714285Y-76121485D01*
X142454819Y-79666666D02*
X141978628Y-79999999D01*
X142454819Y-80238094D02*
X141454819Y-80238094D01*
X141454819Y-80238094D02*
X141454819Y-79857142D01*
X141454819Y-79857142D02*
X141502438Y-79761904D01*
X141502438Y-79761904D02*
X141550057Y-79714285D01*
X141550057Y-79714285D02*
X141645295Y-79666666D01*
X141645295Y-79666666D02*
X141788152Y-79666666D01*
X141788152Y-79666666D02*
X141883390Y-79714285D01*
X141883390Y-79714285D02*
X141931009Y-79761904D01*
X141931009Y-79761904D02*
X141978628Y-79857142D01*
X141978628Y-79857142D02*
X141978628Y-80238094D01*
X141454819Y-79333332D02*
X141454819Y-78714285D01*
X141454819Y-78714285D02*
X141835771Y-79047618D01*
X141835771Y-79047618D02*
X141835771Y-78904761D01*
X141835771Y-78904761D02*
X141883390Y-78809523D01*
X141883390Y-78809523D02*
X141931009Y-78761904D01*
X141931009Y-78761904D02*
X142026247Y-78714285D01*
X142026247Y-78714285D02*
X142264342Y-78714285D01*
X142264342Y-78714285D02*
X142359580Y-78761904D01*
X142359580Y-78761904D02*
X142407200Y-78809523D01*
X142407200Y-78809523D02*
X142454819Y-78904761D01*
X142454819Y-78904761D02*
X142454819Y-79190475D01*
X142454819Y-79190475D02*
X142407200Y-79285713D01*
X142407200Y-79285713D02*
X142359580Y-79333332D01*
X130857142Y-98429580D02*
X130809523Y-98477200D01*
X130809523Y-98477200D02*
X130666666Y-98524819D01*
X130666666Y-98524819D02*
X130571428Y-98524819D01*
X130571428Y-98524819D02*
X130428571Y-98477200D01*
X130428571Y-98477200D02*
X130333333Y-98381961D01*
X130333333Y-98381961D02*
X130285714Y-98286723D01*
X130285714Y-98286723D02*
X130238095Y-98096247D01*
X130238095Y-98096247D02*
X130238095Y-97953390D01*
X130238095Y-97953390D02*
X130285714Y-97762914D01*
X130285714Y-97762914D02*
X130333333Y-97667676D01*
X130333333Y-97667676D02*
X130428571Y-97572438D01*
X130428571Y-97572438D02*
X130571428Y-97524819D01*
X130571428Y-97524819D02*
X130666666Y-97524819D01*
X130666666Y-97524819D02*
X130809523Y-97572438D01*
X130809523Y-97572438D02*
X130857142Y-97620057D01*
X131809523Y-98524819D02*
X131238095Y-98524819D01*
X131523809Y-98524819D02*
X131523809Y-97524819D01*
X131523809Y-97524819D02*
X131428571Y-97667676D01*
X131428571Y-97667676D02*
X131333333Y-97762914D01*
X131333333Y-97762914D02*
X131238095Y-97810533D01*
X132428571Y-97524819D02*
X132523809Y-97524819D01*
X132523809Y-97524819D02*
X132619047Y-97572438D01*
X132619047Y-97572438D02*
X132666666Y-97620057D01*
X132666666Y-97620057D02*
X132714285Y-97715295D01*
X132714285Y-97715295D02*
X132761904Y-97905771D01*
X132761904Y-97905771D02*
X132761904Y-98143866D01*
X132761904Y-98143866D02*
X132714285Y-98334342D01*
X132714285Y-98334342D02*
X132666666Y-98429580D01*
X132666666Y-98429580D02*
X132619047Y-98477200D01*
X132619047Y-98477200D02*
X132523809Y-98524819D01*
X132523809Y-98524819D02*
X132428571Y-98524819D01*
X132428571Y-98524819D02*
X132333333Y-98477200D01*
X132333333Y-98477200D02*
X132285714Y-98429580D01*
X132285714Y-98429580D02*
X132238095Y-98334342D01*
X132238095Y-98334342D02*
X132190476Y-98143866D01*
X132190476Y-98143866D02*
X132190476Y-97905771D01*
X132190476Y-97905771D02*
X132238095Y-97715295D01*
X132238095Y-97715295D02*
X132285714Y-97620057D01*
X132285714Y-97620057D02*
X132333333Y-97572438D01*
X132333333Y-97572438D02*
X132428571Y-97524819D01*
X103566666Y-84624819D02*
X103566666Y-85339104D01*
X103566666Y-85339104D02*
X103519047Y-85481961D01*
X103519047Y-85481961D02*
X103423809Y-85577200D01*
X103423809Y-85577200D02*
X103280952Y-85624819D01*
X103280952Y-85624819D02*
X103185714Y-85624819D01*
X103995238Y-84720057D02*
X104042857Y-84672438D01*
X104042857Y-84672438D02*
X104138095Y-84624819D01*
X104138095Y-84624819D02*
X104376190Y-84624819D01*
X104376190Y-84624819D02*
X104471428Y-84672438D01*
X104471428Y-84672438D02*
X104519047Y-84720057D01*
X104519047Y-84720057D02*
X104566666Y-84815295D01*
X104566666Y-84815295D02*
X104566666Y-84910533D01*
X104566666Y-84910533D02*
X104519047Y-85053390D01*
X104519047Y-85053390D02*
X103947619Y-85624819D01*
X103947619Y-85624819D02*
X104566666Y-85624819D01*
X122261905Y-73954819D02*
X122261905Y-72954819D01*
X122261905Y-72954819D02*
X122500000Y-72954819D01*
X122500000Y-72954819D02*
X122642857Y-73002438D01*
X122642857Y-73002438D02*
X122738095Y-73097676D01*
X122738095Y-73097676D02*
X122785714Y-73192914D01*
X122785714Y-73192914D02*
X122833333Y-73383390D01*
X122833333Y-73383390D02*
X122833333Y-73526247D01*
X122833333Y-73526247D02*
X122785714Y-73716723D01*
X122785714Y-73716723D02*
X122738095Y-73811961D01*
X122738095Y-73811961D02*
X122642857Y-73907200D01*
X122642857Y-73907200D02*
X122500000Y-73954819D01*
X122500000Y-73954819D02*
X122261905Y-73954819D01*
X123214286Y-73050057D02*
X123261905Y-73002438D01*
X123261905Y-73002438D02*
X123357143Y-72954819D01*
X123357143Y-72954819D02*
X123595238Y-72954819D01*
X123595238Y-72954819D02*
X123690476Y-73002438D01*
X123690476Y-73002438D02*
X123738095Y-73050057D01*
X123738095Y-73050057D02*
X123785714Y-73145295D01*
X123785714Y-73145295D02*
X123785714Y-73240533D01*
X123785714Y-73240533D02*
X123738095Y-73383390D01*
X123738095Y-73383390D02*
X123166667Y-73954819D01*
X123166667Y-73954819D02*
X123785714Y-73954819D01*
X115954819Y-82991666D02*
X115478628Y-83324999D01*
X115954819Y-83563094D02*
X114954819Y-83563094D01*
X114954819Y-83563094D02*
X114954819Y-83182142D01*
X114954819Y-83182142D02*
X115002438Y-83086904D01*
X115002438Y-83086904D02*
X115050057Y-83039285D01*
X115050057Y-83039285D02*
X115145295Y-82991666D01*
X115145295Y-82991666D02*
X115288152Y-82991666D01*
X115288152Y-82991666D02*
X115383390Y-83039285D01*
X115383390Y-83039285D02*
X115431009Y-83086904D01*
X115431009Y-83086904D02*
X115478628Y-83182142D01*
X115478628Y-83182142D02*
X115478628Y-83563094D01*
X114954819Y-82086904D02*
X114954819Y-82563094D01*
X114954819Y-82563094D02*
X115431009Y-82610713D01*
X115431009Y-82610713D02*
X115383390Y-82563094D01*
X115383390Y-82563094D02*
X115335771Y-82467856D01*
X115335771Y-82467856D02*
X115335771Y-82229761D01*
X115335771Y-82229761D02*
X115383390Y-82134523D01*
X115383390Y-82134523D02*
X115431009Y-82086904D01*
X115431009Y-82086904D02*
X115526247Y-82039285D01*
X115526247Y-82039285D02*
X115764342Y-82039285D01*
X115764342Y-82039285D02*
X115859580Y-82086904D01*
X115859580Y-82086904D02*
X115907200Y-82134523D01*
X115907200Y-82134523D02*
X115954819Y-82229761D01*
X115954819Y-82229761D02*
X115954819Y-82467856D01*
X115954819Y-82467856D02*
X115907200Y-82563094D01*
X115907200Y-82563094D02*
X115859580Y-82610713D01*
X122478628Y-99976190D02*
X122954819Y-99976190D01*
X121954819Y-100309523D02*
X122478628Y-99976190D01*
X122478628Y-99976190D02*
X121954819Y-99642857D01*
X122954819Y-98785714D02*
X122954819Y-99357142D01*
X122954819Y-99071428D02*
X121954819Y-99071428D01*
X121954819Y-99071428D02*
X122097676Y-99166666D01*
X122097676Y-99166666D02*
X122192914Y-99261904D01*
X122192914Y-99261904D02*
X122240533Y-99357142D01*
D12*
X139977500Y-82237258D02*
X139977500Y-81762742D01*
X141022500Y-82237258D02*
X141022500Y-81762742D01*
D13*
X117450000Y-88675000D02*
G75*
G02*
X117200000Y-88675000I-125000J0D01*
G01*
X117200000Y-88675000D02*
G75*
G02*
X117450000Y-88675000I125000J0D01*
G01*
D14*
X112900000Y-100900000D02*
X117100000Y-100900000D01*
X112900000Y-103000000D02*
X112900000Y-102000000D01*
X117100000Y-103000000D02*
X117100000Y-102000000D01*
X117100000Y-104100000D02*
X112900000Y-104100000D01*
X117959370Y-103589000D02*
G75*
G02*
X117852630Y-103589000I-53370J0D01*
G01*
X117852630Y-103589000D02*
G75*
G02*
X117959370Y-103589000I53370J0D01*
G01*
D12*
X124990000Y-102440580D02*
X124990000Y-102159420D01*
X126010000Y-102440580D02*
X126010000Y-102159420D01*
X133761252Y-83765000D02*
X133238748Y-83765000D01*
X133761252Y-85235000D02*
X133238748Y-85235000D01*
X129265000Y-80738748D02*
X129265000Y-81261252D01*
X130735000Y-80738748D02*
X130735000Y-81261252D01*
D14*
X108750000Y-78002000D02*
X108950000Y-78002000D01*
X108750000Y-80898000D02*
X108750000Y-78002000D01*
X108950000Y-78002000D02*
X108950000Y-80898000D01*
X108950000Y-80898000D02*
X108750000Y-80898000D01*
X110700000Y-80950000D02*
X109300000Y-80950000D01*
D12*
X113477500Y-82587742D02*
X113477500Y-83062258D01*
X114522500Y-82587742D02*
X114522500Y-83062258D01*
D14*
X112900000Y-94400000D02*
X117100000Y-94400000D01*
X112900000Y-96500000D02*
X112900000Y-95500000D01*
X117100000Y-96500000D02*
X117100000Y-95500000D01*
X117100000Y-97600000D02*
X112900000Y-97600000D01*
X117959370Y-97089000D02*
G75*
G02*
X117852630Y-97089000I-53370J0D01*
G01*
X117852630Y-97089000D02*
G75*
G02*
X117959370Y-97089000I53370J0D01*
G01*
D12*
X122477500Y-87262742D02*
X122477500Y-87737258D01*
X123522500Y-87262742D02*
X123522500Y-87737258D01*
X120477500Y-87262742D02*
X120477500Y-87737258D01*
X121522500Y-87262742D02*
X121522500Y-87737258D01*
X115237258Y-89977500D02*
X114762742Y-89977500D01*
X115237258Y-91022500D02*
X114762742Y-91022500D01*
X119832500Y-77200000D02*
X121267500Y-77200000D01*
X119832500Y-82720000D02*
X119832500Y-77200000D01*
X119832500Y-82720000D02*
X120648500Y-82720000D01*
X122658500Y-77200000D02*
X124093500Y-77200000D01*
X122658500Y-82720000D02*
X124093500Y-82720000D01*
X124093500Y-82720000D02*
X124093500Y-77200000D01*
X111990000Y-79965580D02*
X111990000Y-79684420D01*
X113010000Y-79965580D02*
X113010000Y-79684420D01*
X127238748Y-74265000D02*
X127761252Y-74265000D01*
X127238748Y-75735000D02*
X127761252Y-75735000D01*
X113490000Y-79965580D02*
X113490000Y-79684420D01*
X114510000Y-79965580D02*
X114510000Y-79684420D01*
X141265000Y-83515000D02*
X141265000Y-85800000D01*
X142735000Y-83515000D02*
X141265000Y-83515000D01*
X142735000Y-85800000D02*
X142735000Y-83515000D01*
D13*
X127375000Y-104200000D02*
G75*
G02*
X127125000Y-104200000I-125000J0D01*
G01*
X127125000Y-104200000D02*
G75*
G02*
X127375000Y-104200000I125000J0D01*
G01*
D12*
X131890000Y-81062500D02*
X131890000Y-80412500D01*
X131890000Y-81062500D02*
X131890000Y-81712500D01*
X135010000Y-81062500D02*
X135010000Y-80412500D01*
X135010000Y-81062500D02*
X135010000Y-81712500D01*
X131940000Y-82225000D02*
X131610000Y-82465000D01*
X131610000Y-81985000D01*
X131940000Y-82225000D01*
G36*
X131940000Y-82225000D02*
G01*
X131610000Y-82465000D01*
X131610000Y-81985000D01*
X131940000Y-82225000D01*
G37*
X143670000Y-86170000D02*
X145000000Y-86170000D01*
X143670000Y-87500000D02*
X143670000Y-86170000D01*
X143670000Y-88770000D02*
X143670000Y-111690000D01*
X143670000Y-88770000D02*
X146330000Y-88770000D01*
X143670000Y-111690000D02*
X146330000Y-111690000D01*
X146330000Y-88770000D02*
X146330000Y-111690000D01*
X118490000Y-87359420D02*
X118490000Y-87640580D01*
X119510000Y-87359420D02*
X119510000Y-87640580D01*
D15*
X108850000Y-85900000D02*
X109100000Y-85900000D01*
X108850000Y-89100000D02*
X108850000Y-85900000D01*
X109100000Y-89100000D02*
X108850000Y-89100000D01*
D14*
X110600000Y-90000000D02*
X110600000Y-90000000D01*
X110600000Y-90100000D02*
X110600000Y-90100000D01*
D15*
X111100000Y-89100000D02*
X111350000Y-89100000D01*
X111350000Y-85900000D02*
X111100000Y-85900000D01*
X111350000Y-89100000D02*
X111350000Y-85900000D01*
D14*
X110600000Y-90000000D02*
G75*
G02*
X110600000Y-90100000I0J-50000D01*
G01*
X110600000Y-90100000D02*
G75*
G02*
X110600000Y-90000000I0J50000D01*
G01*
D12*
X126359420Y-91490000D02*
X126640580Y-91490000D01*
X126359420Y-92510000D02*
X126640580Y-92510000D01*
D14*
X117250000Y-70000000D02*
X110500000Y-70000000D01*
X115806000Y-76316000D02*
G75*
G02*
X115702000Y-76316000I-52000J0D01*
G01*
X115702000Y-76316000D02*
G75*
G02*
X115806000Y-76316000I52000J0D01*
G01*
D15*
X130875000Y-70000000D02*
X130875000Y-70000000D01*
X130875000Y-70000000D02*
X143125000Y-70000000D01*
X130875000Y-74200000D02*
X130875000Y-74200000D01*
X130875000Y-74200000D02*
X132750000Y-74200000D01*
X132750000Y-74200000D02*
X130875000Y-74200000D01*
X132750000Y-74200000D02*
X132750000Y-74200000D01*
D14*
X140125000Y-76400000D02*
X140125000Y-76400000D01*
X140125000Y-76500000D02*
X140125000Y-76500000D01*
X140125000Y-76500000D02*
X140125000Y-76500000D01*
D15*
X141250000Y-74200000D02*
X141250000Y-74200000D01*
X141250000Y-74200000D02*
X143125000Y-74200000D01*
X143125000Y-70000000D02*
X130875000Y-70000000D01*
X143125000Y-70000000D02*
X143125000Y-70000000D01*
X143125000Y-74200000D02*
X141250000Y-74200000D01*
X143125000Y-74200000D02*
X143125000Y-74200000D01*
D14*
X140125000Y-76400000D02*
G75*
G02*
X140125000Y-76500000I0J-50000D01*
G01*
X140125000Y-76400000D02*
G75*
G02*
X140125000Y-76500000I0J-50000D01*
G01*
X140125000Y-76500000D02*
G75*
G02*
X140125000Y-76400000I0J50000D01*
G01*
D12*
X139765000Y-83515000D02*
X139765000Y-85800000D01*
X141235000Y-83515000D02*
X139765000Y-83515000D01*
X141235000Y-85800000D02*
X141235000Y-83515000D01*
X141477500Y-82237258D02*
X141477500Y-81762742D01*
X142522500Y-82237258D02*
X142522500Y-81762742D01*
X131359420Y-98990000D02*
X131640580Y-98990000D01*
X131359420Y-100010000D02*
X131640580Y-100010000D01*
X102670000Y-86170000D02*
X104000000Y-86170000D01*
X102670000Y-87500000D02*
X102670000Y-86170000D01*
X102670000Y-88770000D02*
X102670000Y-111690000D01*
X102670000Y-88770000D02*
X105330000Y-88770000D01*
X102670000Y-111690000D02*
X105330000Y-111690000D01*
X105330000Y-88770000D02*
X105330000Y-111690000D01*
D14*
X124412000Y-70675000D02*
X121588000Y-70675000D01*
X125325000Y-72325000D02*
X121588000Y-72325000D01*
D12*
X111977500Y-82587742D02*
X111977500Y-83062258D01*
X113022500Y-82587742D02*
X113022500Y-83062258D01*
D15*
X124900000Y-97900000D02*
X124900000Y-96100000D01*
X126200000Y-94500000D02*
X126800000Y-94500000D01*
X126200000Y-99500000D02*
X126800000Y-99500000D01*
X128100000Y-97900000D02*
X128100000Y-96100000D01*
X129050000Y-99450000D02*
G75*
G02*
X128950000Y-99450000I-50000J0D01*
G01*
X128950000Y-99450000D02*
G75*
G02*
X129050000Y-99450000I50000J0D01*
G01*
X129050000Y-99450000D02*
G75*
G02*
X128950000Y-99450000I-50000J0D01*
G01*
X128950000Y-99450000D02*
G75*
G02*
X129050000Y-99450000I50000J0D01*
G01*
%LPC*%
D16*
X140500000Y-82825000D03*
X140500000Y-81175000D03*
D17*
X116900000Y-88000000D03*
X116900000Y-87350000D03*
X116900000Y-86700000D03*
X116900000Y-86050000D03*
X114000000Y-86050000D03*
X114000000Y-86700000D03*
X114000000Y-87350000D03*
X114000000Y-88000000D03*
D18*
X115450000Y-87025000D03*
D19*
X117075000Y-103575000D03*
X112925000Y-103575000D03*
X117075000Y-101425000D03*
X112925000Y-101425000D03*
D20*
X125500000Y-103075000D03*
X125500000Y-101525000D03*
D21*
X134450000Y-84500000D03*
X132550000Y-84500000D03*
D22*
X130000000Y-80050000D03*
X130000000Y-81950000D03*
D23*
X110000000Y-80400000D03*
X110000000Y-78500000D03*
X107700000Y-79450000D03*
D24*
X114000000Y-82000000D03*
X114000000Y-83650000D03*
D19*
X117075000Y-97075000D03*
X112925000Y-97075000D03*
X117075000Y-94925000D03*
X112925000Y-94925000D03*
D24*
X123000000Y-86675000D03*
X123000000Y-88325000D03*
X121000000Y-86675000D03*
X121000000Y-88325000D03*
D25*
X115825000Y-90500000D03*
X114175000Y-90500000D03*
D26*
X121350000Y-83800000D03*
X122620000Y-83800000D03*
X122620000Y-76180000D03*
X121350000Y-76180000D03*
D20*
X112500000Y-80600000D03*
X112500000Y-79050000D03*
D27*
X126550000Y-75000000D03*
X128450000Y-75000000D03*
D20*
X114000000Y-80600000D03*
X114000000Y-79050000D03*
D28*
X142000000Y-84212500D03*
X142000000Y-85787500D03*
D29*
X126500000Y-104500000D03*
X126000000Y-104500000D03*
X125500000Y-104500000D03*
X125000000Y-104500000D03*
X124500000Y-104500000D03*
X124000000Y-104500000D03*
X123500000Y-104500000D03*
D30*
X122900000Y-105100000D03*
X122900000Y-105600000D03*
X122900000Y-106100000D03*
X122900000Y-106600000D03*
X122900000Y-107100000D03*
X122900000Y-107600000D03*
X122900000Y-108100000D03*
D29*
X123500000Y-108700000D03*
X124000000Y-108700000D03*
X124500000Y-108700000D03*
X125000000Y-108700000D03*
X125500000Y-108700000D03*
X126000000Y-108700000D03*
X126500000Y-108700000D03*
D30*
X127100000Y-108100000D03*
X127100000Y-107600000D03*
X127100000Y-107100000D03*
X127100000Y-106600000D03*
X127100000Y-106100000D03*
X127100000Y-105600000D03*
X127100000Y-105100000D03*
D31*
X132500000Y-82000000D03*
X134400000Y-82000000D03*
X133450000Y-80125000D03*
D32*
X145000000Y-87500000D03*
D33*
X145000000Y-90040000D03*
X145000000Y-92580000D03*
X145000000Y-95120000D03*
X145000000Y-97660000D03*
X145000000Y-100200000D03*
X145000000Y-102740000D03*
X145000000Y-105280000D03*
X145000000Y-107820000D03*
X145000000Y-110360000D03*
D34*
X119000000Y-86725000D03*
X119000000Y-88275000D03*
D35*
X110600000Y-89025000D03*
X110600000Y-85975000D03*
X109600000Y-85975000D03*
X109600000Y-89025000D03*
D36*
X125725000Y-92000000D03*
X127275000Y-92000000D03*
D37*
X115750000Y-75000000D03*
X114500000Y-75000000D03*
X113250000Y-75000000D03*
X112000000Y-75000000D03*
D38*
X109450000Y-72100000D03*
X118300000Y-72100000D03*
D39*
X140125000Y-75000000D03*
X138875000Y-75000000D03*
X137625000Y-75000000D03*
X136375000Y-75000000D03*
X135125000Y-75000000D03*
X133875000Y-75000000D03*
D40*
X142800000Y-72100000D03*
X131200000Y-72100000D03*
D28*
X140500000Y-84212500D03*
X140500000Y-85787500D03*
D16*
X142000000Y-82825000D03*
X142000000Y-81175000D03*
D36*
X130725000Y-99500000D03*
X132275000Y-99500000D03*
D32*
X104000000Y-87500000D03*
D33*
X104000000Y-90040000D03*
X104000000Y-92580000D03*
X104000000Y-95120000D03*
X104000000Y-97660000D03*
X104000000Y-100200000D03*
X104000000Y-102740000D03*
X104000000Y-105280000D03*
X104000000Y-107820000D03*
X104000000Y-110360000D03*
D41*
X124750000Y-71500000D03*
X121250000Y-71500000D03*
D24*
X112500000Y-82000000D03*
X112500000Y-83650000D03*
D42*
X127850000Y-99100000D03*
X127850000Y-94900000D03*
X125150000Y-94900000D03*
X125150000Y-99100000D03*
%LPD*%
M02*
