M48
; DRILL file {KiCad 8.0.8} date 2025-06-14T11:12:46+0900
; FORMAT={-:-/ absolute / inch / decimal}
; #@! TF.CreationDate,2025-06-14T11:12:46+09:00
; #@! TF.GenerationSoftware,Kicad,Pcbnew,8.0.8
; #@! TF.FileFunction,Plated,1,2,PTH
FMAT,2
INCH
; #@! TA.AperFunction,Plated,PTH,ViaDrill
T1C0.0118
; #@! TA.AperFunction,Plated,PTH,ComponentDrill
T2C0.0394
%
G90
G05
T1
X4.1339Y-2.8543
X4.1339Y-2.9528
X4.1339Y-3.0512
X4.1339Y-3.1496
X4.1339Y-3.248
X4.2323Y-2.8543
X4.2323Y-2.9528
X4.2323Y-3.0512
X4.2323Y-3.6417
X4.3071Y-2.8386
X4.3307Y-2.9528
X4.3307Y-3.0906
X4.3307Y-3.1654
X4.3307Y-3.7402
X4.4055Y-4.2992
X4.4094Y-2.9528
X4.4291Y-2.8543
X4.4291Y-3.1112
X4.4291Y-3.3701
X4.4291Y-3.6417
X4.4291Y-3.937
X4.4606Y-2.9528
X4.4882Y-3.1122
X4.4961Y-4.2992
X4.5079Y-2.9528
X4.5276Y-2.8543
X4.5315Y-3.3937
X4.5315Y-3.4606
X4.563Y-3.3937
X4.563Y-3.4606
X4.563Y-3.563
X4.5787Y-4.126
X4.5945Y-3.5197
X4.6102Y-3.7362
X4.6102Y-3.9921
X4.626Y-3.0276
X4.626Y-3.1496
X4.626Y-3.248
X4.6407Y-3.3976
X4.6575Y-2.8386
X4.685Y-3.4764
X4.6969Y-3.7362
X4.6969Y-3.9921
X4.6969Y-4.126
X4.7156Y-4.0778
X4.7244Y-4.3071
X4.7254Y-3.8219
X4.752Y-4.2795
X4.8169Y-3.9104
X4.8228Y-3.7402
X4.8228Y-3.8386
X4.8268Y-3.0
X4.9094Y-3.2835
X4.9213Y-4.2008
X4.9213Y-4.248
X4.9252Y-3.9016
X4.9409Y-3.9961
X4.9409Y-4.0591
X4.9567Y-3.2087
X4.9567Y-3.3661
X4.9567Y-4.1575
X5.0197Y-2.8543
X5.0197Y-3.5433
X5.0244Y-3.3583
X5.0354Y-3.7362
X5.0472Y-4.1063
X5.0512Y-3.3824
X5.0591Y-2.9281
X5.0591Y-2.9774
X5.0591Y-3.063
X5.0787Y-4.0591
X5.1024Y-3.9882
X5.1102Y-4.1063
X5.1181Y-3.4449
X5.1181Y-3.5433
X5.1181Y-3.6417
X5.1181Y-3.7402
X5.1181Y-3.8386
X5.1434Y-3.0613
X5.1575Y-3.2953
X5.1654Y-3.0906
X5.1693Y-2.9764
X5.2165Y-3.4449
X5.2165Y-3.5433
X5.2165Y-3.6417
X5.2165Y-3.7402
X5.2165Y-3.8386
X5.315Y-2.8543
X5.3701Y-2.9291
X5.3701Y-2.9764
X5.374Y-3.311
X5.374Y-3.4449
X5.374Y-3.5433
X5.374Y-3.6417
X5.374Y-3.7402
X5.4134Y-2.8543
X5.4183Y-3.1378
X5.4232Y-4.2736
X5.4675Y-3.1378
X5.4685Y-4.189
X5.5118Y-2.8543
X5.5118Y-3.4449
X5.5118Y-3.5433
X5.5118Y-3.6417
X5.5118Y-4.2323
X5.6102Y-2.9528
X5.6102Y-3.0512
X5.6102Y-3.1496
X5.6102Y-4.1339
X5.6339Y-3.6417
X5.7087Y-2.8543
X5.7087Y-2.9528
X5.7087Y-3.0512
X5.7087Y-3.1496
X5.7087Y-3.248
X5.7087Y-3.3465
T2
X4.0945Y-3.4449
X4.0945Y-3.5449
X4.0945Y-3.6449
X4.0945Y-3.7449
X4.0945Y-3.8449
X4.0945Y-3.9449
X4.0945Y-4.0449
X4.0945Y-4.1449
X4.0945Y-4.2449
X4.0945Y-4.3449
X5.7087Y-3.4449
X5.7087Y-3.5449
X5.7087Y-3.6449
X5.7087Y-3.7449
X5.7087Y-3.8449
X5.7087Y-3.9449
X5.7087Y-4.0449
X5.7087Y-4.1449
X5.7087Y-4.2449
X5.7087Y-4.3449
M30
