%TF.GenerationSoftware,KiCad,Pcbnew,8.0.8*%
%TF.CreationDate,2025-06-14T11:12:51+09:00*%
%TF.ProjectId,stm32c0_fdcan_module,73746d33-3263-4305-9f66-6463616e5f6d,rev?*%
%TF.SameCoordinates,Original*%
%TF.FileFunction,Drillmap*%
%TF.FilePolarity,Positive*%
%FSLAX45Y45*%
G04 Gerber Fmt 4.5, Leading zero omitted, Abs format (unit mm)*
G04 Created by KiCad (PCBNEW 8.0.8) date 2025-06-14 11:12:51*
%MOMM*%
%LPD*%
G01*
G04 APERTURE LIST*
%ADD10C,0.200000*%
%ADD11C,0.100000*%
G04 APERTURE END LIST*
D10*
X10200000Y-7000000D02*
X14700000Y-7000000D01*
X14700000Y-11200000D01*
X10200000Y-11200000D01*
X10200000Y-7000000D01*
D11*
X10485000Y-7235000D02*
X10515000Y-7265000D01*
X10515000Y-7235000D02*
X10485000Y-7265000D01*
X10485000Y-7485000D02*
X10515000Y-7515000D01*
X10515000Y-7485000D02*
X10485000Y-7515000D01*
X10485000Y-7735000D02*
X10515000Y-7765000D01*
X10515000Y-7735000D02*
X10485000Y-7765000D01*
X10485000Y-7985000D02*
X10515000Y-8015000D01*
X10515000Y-7985000D02*
X10485000Y-8015000D01*
X10485000Y-8235000D02*
X10515000Y-8265000D01*
X10515000Y-8235000D02*
X10485000Y-8265000D01*
X10735000Y-7235000D02*
X10765000Y-7265000D01*
X10765000Y-7235000D02*
X10735000Y-7265000D01*
X10735000Y-7485000D02*
X10765000Y-7515000D01*
X10765000Y-7485000D02*
X10735000Y-7515000D01*
X10735000Y-7735000D02*
X10765000Y-7765000D01*
X10765000Y-7735000D02*
X10735000Y-7765000D01*
X10735000Y-9235000D02*
X10765000Y-9265000D01*
X10765000Y-9235000D02*
X10735000Y-9265000D01*
X10925000Y-7195000D02*
X10955000Y-7225000D01*
X10955000Y-7195000D02*
X10925000Y-7225000D01*
X10985000Y-7485000D02*
X11015000Y-7515000D01*
X11015000Y-7485000D02*
X10985000Y-7515000D01*
X10985000Y-7835000D02*
X11015000Y-7865000D01*
X11015000Y-7835000D02*
X10985000Y-7865000D01*
X10985000Y-8025000D02*
X11015000Y-8055000D01*
X11015000Y-8025000D02*
X10985000Y-8055000D01*
X10985000Y-9485000D02*
X11015000Y-9515000D01*
X11015000Y-9485000D02*
X10985000Y-9515000D01*
X11175000Y-10905000D02*
X11205000Y-10935000D01*
X11205000Y-10905000D02*
X11175000Y-10935000D01*
X11185000Y-7485000D02*
X11215000Y-7515000D01*
X11215000Y-7485000D02*
X11185000Y-7515000D01*
X11235000Y-7235000D02*
X11265000Y-7265000D01*
X11265000Y-7235000D02*
X11235000Y-7265000D01*
X11235000Y-7887500D02*
X11265000Y-7917500D01*
X11265000Y-7887500D02*
X11235000Y-7917500D01*
X11235000Y-8545000D02*
X11265000Y-8575000D01*
X11265000Y-8545000D02*
X11235000Y-8575000D01*
X11235000Y-9235000D02*
X11265000Y-9265000D01*
X11265000Y-9235000D02*
X11235000Y-9265000D01*
X11235000Y-9985000D02*
X11265000Y-10015000D01*
X11265000Y-9985000D02*
X11235000Y-10015000D01*
X11315000Y-7485000D02*
X11345000Y-7515000D01*
X11345000Y-7485000D02*
X11315000Y-7515000D01*
X11385000Y-7890000D02*
X11415000Y-7920000D01*
X11415000Y-7890000D02*
X11385000Y-7920000D01*
X11405000Y-10905000D02*
X11435000Y-10935000D01*
X11435000Y-10905000D02*
X11405000Y-10935000D01*
X11435000Y-7485000D02*
X11465000Y-7515000D01*
X11465000Y-7485000D02*
X11435000Y-7515000D01*
X11485000Y-7235000D02*
X11515000Y-7265000D01*
X11515000Y-7235000D02*
X11485000Y-7265000D01*
X11495000Y-8605000D02*
X11525000Y-8635000D01*
X11525000Y-8605000D02*
X11495000Y-8635000D01*
X11495000Y-8775000D02*
X11525000Y-8805000D01*
X11525000Y-8775000D02*
X11495000Y-8805000D01*
X11575000Y-8605000D02*
X11605000Y-8635000D01*
X11605000Y-8605000D02*
X11575000Y-8635000D01*
X11575000Y-8775000D02*
X11605000Y-8805000D01*
X11605000Y-8775000D02*
X11575000Y-8805000D01*
X11575000Y-9035000D02*
X11605000Y-9065000D01*
X11605000Y-9035000D02*
X11575000Y-9065000D01*
X11615000Y-10465000D02*
X11645000Y-10495000D01*
X11645000Y-10465000D02*
X11615000Y-10495000D01*
X11655000Y-8925000D02*
X11685000Y-8955000D01*
X11685000Y-8925000D02*
X11655000Y-8955000D01*
X11695000Y-9475000D02*
X11725000Y-9505000D01*
X11725000Y-9475000D02*
X11695000Y-9505000D01*
X11695000Y-10125000D02*
X11725000Y-10155000D01*
X11725000Y-10125000D02*
X11695000Y-10155000D01*
X11735000Y-7675000D02*
X11765000Y-7705000D01*
X11765000Y-7675000D02*
X11735000Y-7705000D01*
X11735000Y-7985000D02*
X11765000Y-8015000D01*
X11765000Y-7985000D02*
X11735000Y-8015000D01*
X11735000Y-8235000D02*
X11765000Y-8265000D01*
X11765000Y-8235000D02*
X11735000Y-8265000D01*
X11772500Y-8615000D02*
X11802500Y-8645000D01*
X11802500Y-8615000D02*
X11772500Y-8645000D01*
X11815000Y-7195000D02*
X11845000Y-7225000D01*
X11845000Y-7195000D02*
X11815000Y-7225000D01*
X11885000Y-8815000D02*
X11915000Y-8845000D01*
X11915000Y-8815000D02*
X11885000Y-8845000D01*
X11915000Y-9475000D02*
X11945000Y-9505000D01*
X11945000Y-9475000D02*
X11915000Y-9505000D01*
X11915000Y-10125000D02*
X11945000Y-10155000D01*
X11945000Y-10125000D02*
X11915000Y-10155000D01*
X11915000Y-10465000D02*
X11945000Y-10495000D01*
X11945000Y-10465000D02*
X11915000Y-10495000D01*
X11962500Y-10342500D02*
X11992500Y-10372500D01*
X11992500Y-10342500D02*
X11962500Y-10372500D01*
X11985000Y-10925000D02*
X12015000Y-10955000D01*
X12015000Y-10925000D02*
X11985000Y-10955000D01*
X11987500Y-9692500D02*
X12017500Y-9722500D01*
X12017500Y-9692500D02*
X11987500Y-9722500D01*
X12055000Y-10855000D02*
X12085000Y-10885000D01*
X12085000Y-10855000D02*
X12055000Y-10885000D01*
X12220000Y-9917500D02*
X12250000Y-9947500D01*
X12250000Y-9917500D02*
X12220000Y-9947500D01*
X12235000Y-9485000D02*
X12265000Y-9515000D01*
X12265000Y-9485000D02*
X12235000Y-9515000D01*
X12235000Y-9735000D02*
X12265000Y-9765000D01*
X12265000Y-9735000D02*
X12235000Y-9765000D01*
X12245000Y-7605000D02*
X12275000Y-7635000D01*
X12275000Y-7605000D02*
X12245000Y-7635000D01*
X12455000Y-8325000D02*
X12485000Y-8355000D01*
X12485000Y-8325000D02*
X12455000Y-8355000D01*
X12485000Y-10655000D02*
X12515000Y-10685000D01*
X12515000Y-10655000D02*
X12485000Y-10685000D01*
X12485000Y-10775000D02*
X12515000Y-10805000D01*
X12515000Y-10775000D02*
X12485000Y-10805000D01*
X12495000Y-9895000D02*
X12525000Y-9925000D01*
X12525000Y-9895000D02*
X12495000Y-9925000D01*
X12535000Y-10135000D02*
X12565000Y-10165000D01*
X12565000Y-10135000D02*
X12535000Y-10165000D01*
X12535000Y-10295000D02*
X12565000Y-10325000D01*
X12565000Y-10295000D02*
X12535000Y-10325000D01*
X12575000Y-8135000D02*
X12605000Y-8165000D01*
X12605000Y-8135000D02*
X12575000Y-8165000D01*
X12575000Y-8535000D02*
X12605000Y-8565000D01*
X12605000Y-8535000D02*
X12575000Y-8565000D01*
X12575000Y-10545000D02*
X12605000Y-10575000D01*
X12605000Y-10545000D02*
X12575000Y-10575000D01*
X12735000Y-7235000D02*
X12765000Y-7265000D01*
X12765000Y-7235000D02*
X12735000Y-7265000D01*
X12735000Y-8985000D02*
X12765000Y-9015000D01*
X12765000Y-8985000D02*
X12735000Y-9015000D01*
X12746867Y-8515000D02*
X12776867Y-8545000D01*
X12776867Y-8515000D02*
X12746867Y-8545000D01*
X12775000Y-9475000D02*
X12805000Y-9505000D01*
X12805000Y-9475000D02*
X12775000Y-9505000D01*
X12805000Y-10415000D02*
X12835000Y-10445000D01*
X12835000Y-10415000D02*
X12805000Y-10445000D01*
X12815000Y-8576421D02*
X12845000Y-8606421D01*
X12845000Y-8576421D02*
X12815000Y-8606421D01*
X12835000Y-7422500D02*
X12865000Y-7452500D01*
X12865000Y-7422500D02*
X12835000Y-7452500D01*
X12835000Y-7547500D02*
X12865000Y-7577500D01*
X12865000Y-7547500D02*
X12835000Y-7577500D01*
X12835000Y-7765000D02*
X12865000Y-7795000D01*
X12865000Y-7765000D02*
X12835000Y-7795000D01*
X12885000Y-10295000D02*
X12915000Y-10325000D01*
X12915000Y-10295000D02*
X12885000Y-10325000D01*
X12945000Y-10115000D02*
X12975000Y-10145000D01*
X12975000Y-10115000D02*
X12945000Y-10145000D01*
X12965000Y-10415000D02*
X12995000Y-10445000D01*
X12995000Y-10415000D02*
X12965000Y-10445000D01*
X12985000Y-8735000D02*
X13015000Y-8765000D01*
X13015000Y-8735000D02*
X12985000Y-8765000D01*
X12985000Y-8985000D02*
X13015000Y-9015000D01*
X13015000Y-8985000D02*
X12985000Y-9015000D01*
X12985000Y-9235000D02*
X13015000Y-9265000D01*
X13015000Y-9235000D02*
X12985000Y-9265000D01*
X12985000Y-9485000D02*
X13015000Y-9515000D01*
X13015000Y-9485000D02*
X12985000Y-9515000D01*
X12985000Y-9735000D02*
X13015000Y-9765000D01*
X13015000Y-9735000D02*
X12985000Y-9765000D01*
X13049278Y-7760722D02*
X13079278Y-7790722D01*
X13079278Y-7760722D02*
X13049278Y-7790722D01*
X13085000Y-8355000D02*
X13115000Y-8385000D01*
X13115000Y-8355000D02*
X13085000Y-8385000D01*
X13105000Y-7835000D02*
X13135000Y-7865000D01*
X13135000Y-7835000D02*
X13105000Y-7865000D01*
X13115000Y-7545000D02*
X13145000Y-7575000D01*
X13145000Y-7545000D02*
X13115000Y-7575000D01*
X13235000Y-8735000D02*
X13265000Y-8765000D01*
X13265000Y-8735000D02*
X13235000Y-8765000D01*
X13235000Y-8985000D02*
X13265000Y-9015000D01*
X13265000Y-8985000D02*
X13235000Y-9015000D01*
X13235000Y-9235000D02*
X13265000Y-9265000D01*
X13265000Y-9235000D02*
X13235000Y-9265000D01*
X13235000Y-9485000D02*
X13265000Y-9515000D01*
X13265000Y-9485000D02*
X13235000Y-9515000D01*
X13235000Y-9735000D02*
X13265000Y-9765000D01*
X13265000Y-9735000D02*
X13235000Y-9765000D01*
X13485000Y-7235000D02*
X13515000Y-7265000D01*
X13515000Y-7235000D02*
X13485000Y-7265000D01*
X13625000Y-7425000D02*
X13655000Y-7455000D01*
X13655000Y-7425000D02*
X13625000Y-7455000D01*
X13625000Y-7545000D02*
X13655000Y-7575000D01*
X13655000Y-7545000D02*
X13625000Y-7575000D01*
X13635000Y-8395000D02*
X13665000Y-8425000D01*
X13665000Y-8395000D02*
X13635000Y-8425000D01*
X13635000Y-8735000D02*
X13665000Y-8765000D01*
X13665000Y-8735000D02*
X13635000Y-8765000D01*
X13635000Y-8985000D02*
X13665000Y-9015000D01*
X13665000Y-8985000D02*
X13635000Y-9015000D01*
X13635000Y-9235000D02*
X13665000Y-9265000D01*
X13665000Y-9235000D02*
X13635000Y-9265000D01*
X13635000Y-9485000D02*
X13665000Y-9515000D01*
X13665000Y-9485000D02*
X13635000Y-9515000D01*
X13735000Y-7235000D02*
X13765000Y-7265000D01*
X13765000Y-7235000D02*
X13735000Y-7265000D01*
X13747500Y-7955000D02*
X13777500Y-7985000D01*
X13777500Y-7955000D02*
X13747500Y-7985000D01*
X13760000Y-10840000D02*
X13790000Y-10870000D01*
X13790000Y-10840000D02*
X13760000Y-10870000D01*
X13872500Y-7955000D02*
X13902500Y-7985000D01*
X13902500Y-7955000D02*
X13872500Y-7985000D01*
X13875000Y-10625000D02*
X13905000Y-10655000D01*
X13905000Y-10625000D02*
X13875000Y-10655000D01*
X13985000Y-7235000D02*
X14015000Y-7265000D01*
X14015000Y-7235000D02*
X13985000Y-7265000D01*
X13985000Y-8735000D02*
X14015000Y-8765000D01*
X14015000Y-8735000D02*
X13985000Y-8765000D01*
X13985000Y-8985000D02*
X14015000Y-9015000D01*
X14015000Y-8985000D02*
X13985000Y-9015000D01*
X13985000Y-9235000D02*
X14015000Y-9265000D01*
X14015000Y-9235000D02*
X13985000Y-9265000D01*
X13985000Y-10735000D02*
X14015000Y-10765000D01*
X14015000Y-10735000D02*
X13985000Y-10765000D01*
X14235000Y-7485000D02*
X14265000Y-7515000D01*
X14265000Y-7485000D02*
X14235000Y-7515000D01*
X14235000Y-7735000D02*
X14265000Y-7765000D01*
X14265000Y-7735000D02*
X14235000Y-7765000D01*
X14235000Y-7985000D02*
X14265000Y-8015000D01*
X14265000Y-7985000D02*
X14235000Y-8015000D01*
X14235000Y-10485000D02*
X14265000Y-10515000D01*
X14265000Y-10485000D02*
X14235000Y-10515000D01*
X14295000Y-9235000D02*
X14325000Y-9265000D01*
X14325000Y-9235000D02*
X14295000Y-9265000D01*
X14485000Y-7235000D02*
X14515000Y-7265000D01*
X14515000Y-7235000D02*
X14485000Y-7265000D01*
X14485000Y-7485000D02*
X14515000Y-7515000D01*
X14515000Y-7485000D02*
X14485000Y-7515000D01*
X14485000Y-7735000D02*
X14515000Y-7765000D01*
X14515000Y-7735000D02*
X14485000Y-7765000D01*
X14485000Y-7985000D02*
X14515000Y-8015000D01*
X14515000Y-7985000D02*
X14485000Y-8015000D01*
X14485000Y-8235000D02*
X14515000Y-8265000D01*
X14515000Y-8235000D02*
X14485000Y-8265000D01*
X14485000Y-8485000D02*
X14515000Y-8515000D01*
X14515000Y-8485000D02*
X14485000Y-8515000D01*
X10450000Y-8750000D02*
G75*
G02*
X10350000Y-8750000I-50000J0D01*
G01*
X10350000Y-8750000D02*
G75*
G02*
X10450000Y-8750000I50000J0D01*
G01*
X10450000Y-9004000D02*
G75*
G02*
X10350000Y-9004000I-50000J0D01*
G01*
X10350000Y-9004000D02*
G75*
G02*
X10450000Y-9004000I50000J0D01*
G01*
X10450000Y-9258000D02*
G75*
G02*
X10350000Y-9258000I-50000J0D01*
G01*
X10350000Y-9258000D02*
G75*
G02*
X10450000Y-9258000I50000J0D01*
G01*
X10450000Y-9512000D02*
G75*
G02*
X10350000Y-9512000I-50000J0D01*
G01*
X10350000Y-9512000D02*
G75*
G02*
X10450000Y-9512000I50000J0D01*
G01*
X10450000Y-9766000D02*
G75*
G02*
X10350000Y-9766000I-50000J0D01*
G01*
X10350000Y-9766000D02*
G75*
G02*
X10450000Y-9766000I50000J0D01*
G01*
X10450000Y-10020000D02*
G75*
G02*
X10350000Y-10020000I-50000J0D01*
G01*
X10350000Y-10020000D02*
G75*
G02*
X10450000Y-10020000I50000J0D01*
G01*
X10450000Y-10274000D02*
G75*
G02*
X10350000Y-10274000I-50000J0D01*
G01*
X10350000Y-10274000D02*
G75*
G02*
X10450000Y-10274000I50000J0D01*
G01*
X10450000Y-10528000D02*
G75*
G02*
X10350000Y-10528000I-50000J0D01*
G01*
X10350000Y-10528000D02*
G75*
G02*
X10450000Y-10528000I50000J0D01*
G01*
X10450000Y-10782000D02*
G75*
G02*
X10350000Y-10782000I-50000J0D01*
G01*
X10350000Y-10782000D02*
G75*
G02*
X10450000Y-10782000I50000J0D01*
G01*
X10450000Y-11036000D02*
G75*
G02*
X10350000Y-11036000I-50000J0D01*
G01*
X10350000Y-11036000D02*
G75*
G02*
X10450000Y-11036000I50000J0D01*
G01*
X14550000Y-8750000D02*
G75*
G02*
X14450000Y-8750000I-50000J0D01*
G01*
X14450000Y-8750000D02*
G75*
G02*
X14550000Y-8750000I50000J0D01*
G01*
X14550000Y-9004000D02*
G75*
G02*
X14450000Y-9004000I-50000J0D01*
G01*
X14450000Y-9004000D02*
G75*
G02*
X14550000Y-9004000I50000J0D01*
G01*
X14550000Y-9258000D02*
G75*
G02*
X14450000Y-9258000I-50000J0D01*
G01*
X14450000Y-9258000D02*
G75*
G02*
X14550000Y-9258000I50000J0D01*
G01*
X14550000Y-9512000D02*
G75*
G02*
X14450000Y-9512000I-50000J0D01*
G01*
X14450000Y-9512000D02*
G75*
G02*
X14550000Y-9512000I50000J0D01*
G01*
X14550000Y-9766000D02*
G75*
G02*
X14450000Y-9766000I-50000J0D01*
G01*
X14450000Y-9766000D02*
G75*
G02*
X14550000Y-9766000I50000J0D01*
G01*
X14550000Y-10020000D02*
G75*
G02*
X14450000Y-10020000I-50000J0D01*
G01*
X14450000Y-10020000D02*
G75*
G02*
X14550000Y-10020000I50000J0D01*
G01*
X14550000Y-10274000D02*
G75*
G02*
X14450000Y-10274000I-50000J0D01*
G01*
X14450000Y-10274000D02*
G75*
G02*
X14550000Y-10274000I50000J0D01*
G01*
X14550000Y-10528000D02*
G75*
G02*
X14450000Y-10528000I-50000J0D01*
G01*
X14450000Y-10528000D02*
G75*
G02*
X14550000Y-10528000I50000J0D01*
G01*
X14550000Y-10782000D02*
G75*
G02*
X14450000Y-10782000I-50000J0D01*
G01*
X14450000Y-10782000D02*
G75*
G02*
X14550000Y-10782000I50000J0D01*
G01*
X14550000Y-11036000D02*
G75*
G02*
X14450000Y-11036000I-50000J0D01*
G01*
X14450000Y-11036000D02*
G75*
G02*
X14550000Y-11036000I50000J0D01*
G01*
D10*
X10450777Y-11521484D02*
X10450777Y-11321484D01*
X10450777Y-11321484D02*
X10498396Y-11321484D01*
X10498396Y-11321484D02*
X10526967Y-11331008D01*
X10526967Y-11331008D02*
X10546015Y-11350055D01*
X10546015Y-11350055D02*
X10555539Y-11369103D01*
X10555539Y-11369103D02*
X10565063Y-11407198D01*
X10565063Y-11407198D02*
X10565063Y-11435769D01*
X10565063Y-11435769D02*
X10555539Y-11473865D01*
X10555539Y-11473865D02*
X10546015Y-11492912D01*
X10546015Y-11492912D02*
X10526967Y-11511960D01*
X10526967Y-11511960D02*
X10498396Y-11521484D01*
X10498396Y-11521484D02*
X10450777Y-11521484D01*
X10650777Y-11521484D02*
X10650777Y-11388150D01*
X10650777Y-11426246D02*
X10660301Y-11407198D01*
X10660301Y-11407198D02*
X10669824Y-11397674D01*
X10669824Y-11397674D02*
X10688872Y-11388150D01*
X10688872Y-11388150D02*
X10707920Y-11388150D01*
X10774586Y-11521484D02*
X10774586Y-11388150D01*
X10774586Y-11321484D02*
X10765063Y-11331008D01*
X10765063Y-11331008D02*
X10774586Y-11340531D01*
X10774586Y-11340531D02*
X10784110Y-11331008D01*
X10784110Y-11331008D02*
X10774586Y-11321484D01*
X10774586Y-11321484D02*
X10774586Y-11340531D01*
X10898396Y-11521484D02*
X10879348Y-11511960D01*
X10879348Y-11511960D02*
X10869824Y-11492912D01*
X10869824Y-11492912D02*
X10869824Y-11321484D01*
X11003158Y-11521484D02*
X10984110Y-11511960D01*
X10984110Y-11511960D02*
X10974586Y-11492912D01*
X10974586Y-11492912D02*
X10974586Y-11321484D01*
X11231729Y-11521484D02*
X11231729Y-11321484D01*
X11231729Y-11321484D02*
X11298396Y-11464341D01*
X11298396Y-11464341D02*
X11365062Y-11321484D01*
X11365062Y-11321484D02*
X11365062Y-11521484D01*
X11546015Y-11521484D02*
X11546015Y-11416722D01*
X11546015Y-11416722D02*
X11536491Y-11397674D01*
X11536491Y-11397674D02*
X11517443Y-11388150D01*
X11517443Y-11388150D02*
X11479348Y-11388150D01*
X11479348Y-11388150D02*
X11460301Y-11397674D01*
X11546015Y-11511960D02*
X11526967Y-11521484D01*
X11526967Y-11521484D02*
X11479348Y-11521484D01*
X11479348Y-11521484D02*
X11460301Y-11511960D01*
X11460301Y-11511960D02*
X11450777Y-11492912D01*
X11450777Y-11492912D02*
X11450777Y-11473865D01*
X11450777Y-11473865D02*
X11460301Y-11454817D01*
X11460301Y-11454817D02*
X11479348Y-11445293D01*
X11479348Y-11445293D02*
X11526967Y-11445293D01*
X11526967Y-11445293D02*
X11546015Y-11435769D01*
X11641253Y-11388150D02*
X11641253Y-11588150D01*
X11641253Y-11397674D02*
X11660301Y-11388150D01*
X11660301Y-11388150D02*
X11698396Y-11388150D01*
X11698396Y-11388150D02*
X11717443Y-11397674D01*
X11717443Y-11397674D02*
X11726967Y-11407198D01*
X11726967Y-11407198D02*
X11736491Y-11426246D01*
X11736491Y-11426246D02*
X11736491Y-11483388D01*
X11736491Y-11483388D02*
X11726967Y-11502436D01*
X11726967Y-11502436D02*
X11717443Y-11511960D01*
X11717443Y-11511960D02*
X11698396Y-11521484D01*
X11698396Y-11521484D02*
X11660301Y-11521484D01*
X11660301Y-11521484D02*
X11641253Y-11511960D01*
X11822205Y-11502436D02*
X11831729Y-11511960D01*
X11831729Y-11511960D02*
X11822205Y-11521484D01*
X11822205Y-11521484D02*
X11812682Y-11511960D01*
X11812682Y-11511960D02*
X11822205Y-11502436D01*
X11822205Y-11502436D02*
X11822205Y-11521484D01*
X11822205Y-11397674D02*
X11831729Y-11407198D01*
X11831729Y-11407198D02*
X11822205Y-11416722D01*
X11822205Y-11416722D02*
X11812682Y-11407198D01*
X11812682Y-11407198D02*
X11822205Y-11397674D01*
X11822205Y-11397674D02*
X11822205Y-11416722D01*
D11*
X10160000Y-11835000D02*
X10190000Y-11865000D01*
X10190000Y-11835000D02*
X10160000Y-11865000D01*
D10*
X10488872Y-11741484D02*
X10507920Y-11741484D01*
X10507920Y-11741484D02*
X10526967Y-11751008D01*
X10526967Y-11751008D02*
X10536491Y-11760531D01*
X10536491Y-11760531D02*
X10546015Y-11779579D01*
X10546015Y-11779579D02*
X10555539Y-11817674D01*
X10555539Y-11817674D02*
X10555539Y-11865293D01*
X10555539Y-11865293D02*
X10546015Y-11903388D01*
X10546015Y-11903388D02*
X10536491Y-11922436D01*
X10536491Y-11922436D02*
X10526967Y-11931960D01*
X10526967Y-11931960D02*
X10507920Y-11941484D01*
X10507920Y-11941484D02*
X10488872Y-11941484D01*
X10488872Y-11941484D02*
X10469824Y-11931960D01*
X10469824Y-11931960D02*
X10460301Y-11922436D01*
X10460301Y-11922436D02*
X10450777Y-11903388D01*
X10450777Y-11903388D02*
X10441253Y-11865293D01*
X10441253Y-11865293D02*
X10441253Y-11817674D01*
X10441253Y-11817674D02*
X10450777Y-11779579D01*
X10450777Y-11779579D02*
X10460301Y-11760531D01*
X10460301Y-11760531D02*
X10469824Y-11751008D01*
X10469824Y-11751008D02*
X10488872Y-11741484D01*
X10641253Y-11922436D02*
X10650777Y-11931960D01*
X10650777Y-11931960D02*
X10641253Y-11941484D01*
X10641253Y-11941484D02*
X10631729Y-11931960D01*
X10631729Y-11931960D02*
X10641253Y-11922436D01*
X10641253Y-11922436D02*
X10641253Y-11941484D01*
X10717444Y-11741484D02*
X10841253Y-11741484D01*
X10841253Y-11741484D02*
X10774586Y-11817674D01*
X10774586Y-11817674D02*
X10803158Y-11817674D01*
X10803158Y-11817674D02*
X10822205Y-11827198D01*
X10822205Y-11827198D02*
X10831729Y-11836722D01*
X10831729Y-11836722D02*
X10841253Y-11855769D01*
X10841253Y-11855769D02*
X10841253Y-11903388D01*
X10841253Y-11903388D02*
X10831729Y-11922436D01*
X10831729Y-11922436D02*
X10822205Y-11931960D01*
X10822205Y-11931960D02*
X10803158Y-11941484D01*
X10803158Y-11941484D02*
X10746015Y-11941484D01*
X10746015Y-11941484D02*
X10726967Y-11931960D01*
X10726967Y-11931960D02*
X10717444Y-11922436D01*
X10965063Y-11741484D02*
X10984110Y-11741484D01*
X10984110Y-11741484D02*
X11003158Y-11751008D01*
X11003158Y-11751008D02*
X11012682Y-11760531D01*
X11012682Y-11760531D02*
X11022205Y-11779579D01*
X11022205Y-11779579D02*
X11031729Y-11817674D01*
X11031729Y-11817674D02*
X11031729Y-11865293D01*
X11031729Y-11865293D02*
X11022205Y-11903388D01*
X11022205Y-11903388D02*
X11012682Y-11922436D01*
X11012682Y-11922436D02*
X11003158Y-11931960D01*
X11003158Y-11931960D02*
X10984110Y-11941484D01*
X10984110Y-11941484D02*
X10965063Y-11941484D01*
X10965063Y-11941484D02*
X10946015Y-11931960D01*
X10946015Y-11931960D02*
X10936491Y-11922436D01*
X10936491Y-11922436D02*
X10926967Y-11903388D01*
X10926967Y-11903388D02*
X10917444Y-11865293D01*
X10917444Y-11865293D02*
X10917444Y-11817674D01*
X10917444Y-11817674D02*
X10926967Y-11779579D01*
X10926967Y-11779579D02*
X10936491Y-11760531D01*
X10936491Y-11760531D02*
X10946015Y-11751008D01*
X10946015Y-11751008D02*
X10965063Y-11741484D01*
X11155539Y-11741484D02*
X11174586Y-11741484D01*
X11174586Y-11741484D02*
X11193634Y-11751008D01*
X11193634Y-11751008D02*
X11203158Y-11760531D01*
X11203158Y-11760531D02*
X11212682Y-11779579D01*
X11212682Y-11779579D02*
X11222205Y-11817674D01*
X11222205Y-11817674D02*
X11222205Y-11865293D01*
X11222205Y-11865293D02*
X11212682Y-11903388D01*
X11212682Y-11903388D02*
X11203158Y-11922436D01*
X11203158Y-11922436D02*
X11193634Y-11931960D01*
X11193634Y-11931960D02*
X11174586Y-11941484D01*
X11174586Y-11941484D02*
X11155539Y-11941484D01*
X11155539Y-11941484D02*
X11136491Y-11931960D01*
X11136491Y-11931960D02*
X11126967Y-11922436D01*
X11126967Y-11922436D02*
X11117444Y-11903388D01*
X11117444Y-11903388D02*
X11107920Y-11865293D01*
X11107920Y-11865293D02*
X11107920Y-11817674D01*
X11107920Y-11817674D02*
X11117444Y-11779579D01*
X11117444Y-11779579D02*
X11126967Y-11760531D01*
X11126967Y-11760531D02*
X11136491Y-11751008D01*
X11136491Y-11751008D02*
X11155539Y-11741484D01*
X11307920Y-11941484D02*
X11307920Y-11808150D01*
X11307920Y-11827198D02*
X11317443Y-11817674D01*
X11317443Y-11817674D02*
X11336491Y-11808150D01*
X11336491Y-11808150D02*
X11365063Y-11808150D01*
X11365063Y-11808150D02*
X11384110Y-11817674D01*
X11384110Y-11817674D02*
X11393634Y-11836722D01*
X11393634Y-11836722D02*
X11393634Y-11941484D01*
X11393634Y-11836722D02*
X11403158Y-11817674D01*
X11403158Y-11817674D02*
X11422205Y-11808150D01*
X11422205Y-11808150D02*
X11450777Y-11808150D01*
X11450777Y-11808150D02*
X11469824Y-11817674D01*
X11469824Y-11817674D02*
X11479348Y-11836722D01*
X11479348Y-11836722D02*
X11479348Y-11941484D01*
X11574586Y-11941484D02*
X11574586Y-11808150D01*
X11574586Y-11827198D02*
X11584110Y-11817674D01*
X11584110Y-11817674D02*
X11603158Y-11808150D01*
X11603158Y-11808150D02*
X11631729Y-11808150D01*
X11631729Y-11808150D02*
X11650777Y-11817674D01*
X11650777Y-11817674D02*
X11660301Y-11836722D01*
X11660301Y-11836722D02*
X11660301Y-11941484D01*
X11660301Y-11836722D02*
X11669824Y-11817674D01*
X11669824Y-11817674D02*
X11688872Y-11808150D01*
X11688872Y-11808150D02*
X11717443Y-11808150D01*
X11717443Y-11808150D02*
X11736491Y-11817674D01*
X11736491Y-11817674D02*
X11746015Y-11836722D01*
X11746015Y-11836722D02*
X11746015Y-11941484D01*
X12136491Y-11731960D02*
X11965063Y-11989103D01*
X12393634Y-11741484D02*
X12412682Y-11741484D01*
X12412682Y-11741484D02*
X12431729Y-11751008D01*
X12431729Y-11751008D02*
X12441253Y-11760531D01*
X12441253Y-11760531D02*
X12450777Y-11779579D01*
X12450777Y-11779579D02*
X12460301Y-11817674D01*
X12460301Y-11817674D02*
X12460301Y-11865293D01*
X12460301Y-11865293D02*
X12450777Y-11903388D01*
X12450777Y-11903388D02*
X12441253Y-11922436D01*
X12441253Y-11922436D02*
X12431729Y-11931960D01*
X12431729Y-11931960D02*
X12412682Y-11941484D01*
X12412682Y-11941484D02*
X12393634Y-11941484D01*
X12393634Y-11941484D02*
X12374586Y-11931960D01*
X12374586Y-11931960D02*
X12365063Y-11922436D01*
X12365063Y-11922436D02*
X12355539Y-11903388D01*
X12355539Y-11903388D02*
X12346015Y-11865293D01*
X12346015Y-11865293D02*
X12346015Y-11817674D01*
X12346015Y-11817674D02*
X12355539Y-11779579D01*
X12355539Y-11779579D02*
X12365063Y-11760531D01*
X12365063Y-11760531D02*
X12374586Y-11751008D01*
X12374586Y-11751008D02*
X12393634Y-11741484D01*
X12546015Y-11922436D02*
X12555539Y-11931960D01*
X12555539Y-11931960D02*
X12546015Y-11941484D01*
X12546015Y-11941484D02*
X12536491Y-11931960D01*
X12536491Y-11931960D02*
X12546015Y-11922436D01*
X12546015Y-11922436D02*
X12546015Y-11941484D01*
X12679348Y-11741484D02*
X12698396Y-11741484D01*
X12698396Y-11741484D02*
X12717444Y-11751008D01*
X12717444Y-11751008D02*
X12726967Y-11760531D01*
X12726967Y-11760531D02*
X12736491Y-11779579D01*
X12736491Y-11779579D02*
X12746015Y-11817674D01*
X12746015Y-11817674D02*
X12746015Y-11865293D01*
X12746015Y-11865293D02*
X12736491Y-11903388D01*
X12736491Y-11903388D02*
X12726967Y-11922436D01*
X12726967Y-11922436D02*
X12717444Y-11931960D01*
X12717444Y-11931960D02*
X12698396Y-11941484D01*
X12698396Y-11941484D02*
X12679348Y-11941484D01*
X12679348Y-11941484D02*
X12660301Y-11931960D01*
X12660301Y-11931960D02*
X12650777Y-11922436D01*
X12650777Y-11922436D02*
X12641253Y-11903388D01*
X12641253Y-11903388D02*
X12631729Y-11865293D01*
X12631729Y-11865293D02*
X12631729Y-11817674D01*
X12631729Y-11817674D02*
X12641253Y-11779579D01*
X12641253Y-11779579D02*
X12650777Y-11760531D01*
X12650777Y-11760531D02*
X12660301Y-11751008D01*
X12660301Y-11751008D02*
X12679348Y-11741484D01*
X12936491Y-11941484D02*
X12822206Y-11941484D01*
X12879348Y-11941484D02*
X12879348Y-11741484D01*
X12879348Y-11741484D02*
X12860301Y-11770055D01*
X12860301Y-11770055D02*
X12841253Y-11789103D01*
X12841253Y-11789103D02*
X12822206Y-11798627D01*
X13126967Y-11941484D02*
X13012682Y-11941484D01*
X13069825Y-11941484D02*
X13069825Y-11741484D01*
X13069825Y-11741484D02*
X13050777Y-11770055D01*
X13050777Y-11770055D02*
X13031729Y-11789103D01*
X13031729Y-11789103D02*
X13012682Y-11798627D01*
X13241253Y-11827198D02*
X13222206Y-11817674D01*
X13222206Y-11817674D02*
X13212682Y-11808150D01*
X13212682Y-11808150D02*
X13203158Y-11789103D01*
X13203158Y-11789103D02*
X13203158Y-11779579D01*
X13203158Y-11779579D02*
X13212682Y-11760531D01*
X13212682Y-11760531D02*
X13222206Y-11751008D01*
X13222206Y-11751008D02*
X13241253Y-11741484D01*
X13241253Y-11741484D02*
X13279348Y-11741484D01*
X13279348Y-11741484D02*
X13298396Y-11751008D01*
X13298396Y-11751008D02*
X13307920Y-11760531D01*
X13307920Y-11760531D02*
X13317444Y-11779579D01*
X13317444Y-11779579D02*
X13317444Y-11789103D01*
X13317444Y-11789103D02*
X13307920Y-11808150D01*
X13307920Y-11808150D02*
X13298396Y-11817674D01*
X13298396Y-11817674D02*
X13279348Y-11827198D01*
X13279348Y-11827198D02*
X13241253Y-11827198D01*
X13241253Y-11827198D02*
X13222206Y-11836722D01*
X13222206Y-11836722D02*
X13212682Y-11846246D01*
X13212682Y-11846246D02*
X13203158Y-11865293D01*
X13203158Y-11865293D02*
X13203158Y-11903388D01*
X13203158Y-11903388D02*
X13212682Y-11922436D01*
X13212682Y-11922436D02*
X13222206Y-11931960D01*
X13222206Y-11931960D02*
X13241253Y-11941484D01*
X13241253Y-11941484D02*
X13279348Y-11941484D01*
X13279348Y-11941484D02*
X13298396Y-11931960D01*
X13298396Y-11931960D02*
X13307920Y-11922436D01*
X13307920Y-11922436D02*
X13317444Y-11903388D01*
X13317444Y-11903388D02*
X13317444Y-11865293D01*
X13317444Y-11865293D02*
X13307920Y-11846246D01*
X13307920Y-11846246D02*
X13298396Y-11836722D01*
X13298396Y-11836722D02*
X13279348Y-11827198D01*
X13393634Y-11741484D02*
X13393634Y-11779579D01*
X13469825Y-11741484D02*
X13469825Y-11779579D01*
X13765063Y-12017674D02*
X13755539Y-12008150D01*
X13755539Y-12008150D02*
X13736491Y-11979579D01*
X13736491Y-11979579D02*
X13726968Y-11960531D01*
X13726968Y-11960531D02*
X13717444Y-11931960D01*
X13717444Y-11931960D02*
X13707920Y-11884341D01*
X13707920Y-11884341D02*
X13707920Y-11846246D01*
X13707920Y-11846246D02*
X13717444Y-11798627D01*
X13717444Y-11798627D02*
X13726968Y-11770055D01*
X13726968Y-11770055D02*
X13736491Y-11751008D01*
X13736491Y-11751008D02*
X13755539Y-11722436D01*
X13755539Y-11722436D02*
X13765063Y-11712912D01*
X13946015Y-11941484D02*
X13831729Y-11941484D01*
X13888872Y-11941484D02*
X13888872Y-11741484D01*
X13888872Y-11741484D02*
X13869825Y-11770055D01*
X13869825Y-11770055D02*
X13850777Y-11789103D01*
X13850777Y-11789103D02*
X13831729Y-11798627D01*
X14136491Y-11941484D02*
X14022206Y-11941484D01*
X14079348Y-11941484D02*
X14079348Y-11741484D01*
X14079348Y-11741484D02*
X14060301Y-11770055D01*
X14060301Y-11770055D02*
X14041253Y-11789103D01*
X14041253Y-11789103D02*
X14022206Y-11798627D01*
X14307920Y-11741484D02*
X14269825Y-11741484D01*
X14269825Y-11741484D02*
X14250777Y-11751008D01*
X14250777Y-11751008D02*
X14241253Y-11760531D01*
X14241253Y-11760531D02*
X14222206Y-11789103D01*
X14222206Y-11789103D02*
X14212682Y-11827198D01*
X14212682Y-11827198D02*
X14212682Y-11903388D01*
X14212682Y-11903388D02*
X14222206Y-11922436D01*
X14222206Y-11922436D02*
X14231729Y-11931960D01*
X14231729Y-11931960D02*
X14250777Y-11941484D01*
X14250777Y-11941484D02*
X14288872Y-11941484D01*
X14288872Y-11941484D02*
X14307920Y-11931960D01*
X14307920Y-11931960D02*
X14317444Y-11922436D01*
X14317444Y-11922436D02*
X14326968Y-11903388D01*
X14326968Y-11903388D02*
X14326968Y-11855769D01*
X14326968Y-11855769D02*
X14317444Y-11836722D01*
X14317444Y-11836722D02*
X14307920Y-11827198D01*
X14307920Y-11827198D02*
X14288872Y-11817674D01*
X14288872Y-11817674D02*
X14250777Y-11817674D01*
X14250777Y-11817674D02*
X14231729Y-11827198D01*
X14231729Y-11827198D02*
X14222206Y-11836722D01*
X14222206Y-11836722D02*
X14212682Y-11855769D01*
X14565063Y-11941484D02*
X14565063Y-11741484D01*
X14650777Y-11941484D02*
X14650777Y-11836722D01*
X14650777Y-11836722D02*
X14641253Y-11817674D01*
X14641253Y-11817674D02*
X14622206Y-11808150D01*
X14622206Y-11808150D02*
X14593634Y-11808150D01*
X14593634Y-11808150D02*
X14574587Y-11817674D01*
X14574587Y-11817674D02*
X14565063Y-11827198D01*
X14774587Y-11941484D02*
X14755539Y-11931960D01*
X14755539Y-11931960D02*
X14746015Y-11922436D01*
X14746015Y-11922436D02*
X14736491Y-11903388D01*
X14736491Y-11903388D02*
X14736491Y-11846246D01*
X14736491Y-11846246D02*
X14746015Y-11827198D01*
X14746015Y-11827198D02*
X14755539Y-11817674D01*
X14755539Y-11817674D02*
X14774587Y-11808150D01*
X14774587Y-11808150D02*
X14803158Y-11808150D01*
X14803158Y-11808150D02*
X14822206Y-11817674D01*
X14822206Y-11817674D02*
X14831730Y-11827198D01*
X14831730Y-11827198D02*
X14841253Y-11846246D01*
X14841253Y-11846246D02*
X14841253Y-11903388D01*
X14841253Y-11903388D02*
X14831730Y-11922436D01*
X14831730Y-11922436D02*
X14822206Y-11931960D01*
X14822206Y-11931960D02*
X14803158Y-11941484D01*
X14803158Y-11941484D02*
X14774587Y-11941484D01*
X14955539Y-11941484D02*
X14936491Y-11931960D01*
X14936491Y-11931960D02*
X14926968Y-11912912D01*
X14926968Y-11912912D02*
X14926968Y-11741484D01*
X15107920Y-11931960D02*
X15088872Y-11941484D01*
X15088872Y-11941484D02*
X15050777Y-11941484D01*
X15050777Y-11941484D02*
X15031730Y-11931960D01*
X15031730Y-11931960D02*
X15022206Y-11912912D01*
X15022206Y-11912912D02*
X15022206Y-11836722D01*
X15022206Y-11836722D02*
X15031730Y-11817674D01*
X15031730Y-11817674D02*
X15050777Y-11808150D01*
X15050777Y-11808150D02*
X15088872Y-11808150D01*
X15088872Y-11808150D02*
X15107920Y-11817674D01*
X15107920Y-11817674D02*
X15117444Y-11836722D01*
X15117444Y-11836722D02*
X15117444Y-11855769D01*
X15117444Y-11855769D02*
X15022206Y-11874817D01*
X15193634Y-11931960D02*
X15212682Y-11941484D01*
X15212682Y-11941484D02*
X15250777Y-11941484D01*
X15250777Y-11941484D02*
X15269825Y-11931960D01*
X15269825Y-11931960D02*
X15279349Y-11912912D01*
X15279349Y-11912912D02*
X15279349Y-11903388D01*
X15279349Y-11903388D02*
X15269825Y-11884341D01*
X15269825Y-11884341D02*
X15250777Y-11874817D01*
X15250777Y-11874817D02*
X15222206Y-11874817D01*
X15222206Y-11874817D02*
X15203158Y-11865293D01*
X15203158Y-11865293D02*
X15193634Y-11846246D01*
X15193634Y-11846246D02*
X15193634Y-11836722D01*
X15193634Y-11836722D02*
X15203158Y-11817674D01*
X15203158Y-11817674D02*
X15222206Y-11808150D01*
X15222206Y-11808150D02*
X15250777Y-11808150D01*
X15250777Y-11808150D02*
X15269825Y-11817674D01*
X15346015Y-12017674D02*
X15355539Y-12008150D01*
X15355539Y-12008150D02*
X15374587Y-11979579D01*
X15374587Y-11979579D02*
X15384111Y-11960531D01*
X15384111Y-11960531D02*
X15393634Y-11931960D01*
X15393634Y-11931960D02*
X15403158Y-11884341D01*
X15403158Y-11884341D02*
X15403158Y-11846246D01*
X15403158Y-11846246D02*
X15393634Y-11798627D01*
X15393634Y-11798627D02*
X15384111Y-11770055D01*
X15384111Y-11770055D02*
X15374587Y-11751008D01*
X15374587Y-11751008D02*
X15355539Y-11722436D01*
X15355539Y-11722436D02*
X15346015Y-11712912D01*
D11*
X10190000Y-12114000D02*
G75*
G02*
X10090000Y-12114000I-50000J0D01*
G01*
X10090000Y-12114000D02*
G75*
G02*
X10190000Y-12114000I50000J0D01*
G01*
D10*
X10555539Y-12205484D02*
X10441253Y-12205484D01*
X10498396Y-12205484D02*
X10498396Y-12005484D01*
X10498396Y-12005484D02*
X10479348Y-12034055D01*
X10479348Y-12034055D02*
X10460301Y-12053103D01*
X10460301Y-12053103D02*
X10441253Y-12062627D01*
X10641253Y-12186436D02*
X10650777Y-12195960D01*
X10650777Y-12195960D02*
X10641253Y-12205484D01*
X10641253Y-12205484D02*
X10631729Y-12195960D01*
X10631729Y-12195960D02*
X10641253Y-12186436D01*
X10641253Y-12186436D02*
X10641253Y-12205484D01*
X10774586Y-12005484D02*
X10793634Y-12005484D01*
X10793634Y-12005484D02*
X10812682Y-12015008D01*
X10812682Y-12015008D02*
X10822205Y-12024531D01*
X10822205Y-12024531D02*
X10831729Y-12043579D01*
X10831729Y-12043579D02*
X10841253Y-12081674D01*
X10841253Y-12081674D02*
X10841253Y-12129293D01*
X10841253Y-12129293D02*
X10831729Y-12167388D01*
X10831729Y-12167388D02*
X10822205Y-12186436D01*
X10822205Y-12186436D02*
X10812682Y-12195960D01*
X10812682Y-12195960D02*
X10793634Y-12205484D01*
X10793634Y-12205484D02*
X10774586Y-12205484D01*
X10774586Y-12205484D02*
X10755539Y-12195960D01*
X10755539Y-12195960D02*
X10746015Y-12186436D01*
X10746015Y-12186436D02*
X10736491Y-12167388D01*
X10736491Y-12167388D02*
X10726967Y-12129293D01*
X10726967Y-12129293D02*
X10726967Y-12081674D01*
X10726967Y-12081674D02*
X10736491Y-12043579D01*
X10736491Y-12043579D02*
X10746015Y-12024531D01*
X10746015Y-12024531D02*
X10755539Y-12015008D01*
X10755539Y-12015008D02*
X10774586Y-12005484D01*
X10965063Y-12005484D02*
X10984110Y-12005484D01*
X10984110Y-12005484D02*
X11003158Y-12015008D01*
X11003158Y-12015008D02*
X11012682Y-12024531D01*
X11012682Y-12024531D02*
X11022205Y-12043579D01*
X11022205Y-12043579D02*
X11031729Y-12081674D01*
X11031729Y-12081674D02*
X11031729Y-12129293D01*
X11031729Y-12129293D02*
X11022205Y-12167388D01*
X11022205Y-12167388D02*
X11012682Y-12186436D01*
X11012682Y-12186436D02*
X11003158Y-12195960D01*
X11003158Y-12195960D02*
X10984110Y-12205484D01*
X10984110Y-12205484D02*
X10965063Y-12205484D01*
X10965063Y-12205484D02*
X10946015Y-12195960D01*
X10946015Y-12195960D02*
X10936491Y-12186436D01*
X10936491Y-12186436D02*
X10926967Y-12167388D01*
X10926967Y-12167388D02*
X10917444Y-12129293D01*
X10917444Y-12129293D02*
X10917444Y-12081674D01*
X10917444Y-12081674D02*
X10926967Y-12043579D01*
X10926967Y-12043579D02*
X10936491Y-12024531D01*
X10936491Y-12024531D02*
X10946015Y-12015008D01*
X10946015Y-12015008D02*
X10965063Y-12005484D01*
X11155539Y-12005484D02*
X11174586Y-12005484D01*
X11174586Y-12005484D02*
X11193634Y-12015008D01*
X11193634Y-12015008D02*
X11203158Y-12024531D01*
X11203158Y-12024531D02*
X11212682Y-12043579D01*
X11212682Y-12043579D02*
X11222205Y-12081674D01*
X11222205Y-12081674D02*
X11222205Y-12129293D01*
X11222205Y-12129293D02*
X11212682Y-12167388D01*
X11212682Y-12167388D02*
X11203158Y-12186436D01*
X11203158Y-12186436D02*
X11193634Y-12195960D01*
X11193634Y-12195960D02*
X11174586Y-12205484D01*
X11174586Y-12205484D02*
X11155539Y-12205484D01*
X11155539Y-12205484D02*
X11136491Y-12195960D01*
X11136491Y-12195960D02*
X11126967Y-12186436D01*
X11126967Y-12186436D02*
X11117444Y-12167388D01*
X11117444Y-12167388D02*
X11107920Y-12129293D01*
X11107920Y-12129293D02*
X11107920Y-12081674D01*
X11107920Y-12081674D02*
X11117444Y-12043579D01*
X11117444Y-12043579D02*
X11126967Y-12024531D01*
X11126967Y-12024531D02*
X11136491Y-12015008D01*
X11136491Y-12015008D02*
X11155539Y-12005484D01*
X11307920Y-12205484D02*
X11307920Y-12072150D01*
X11307920Y-12091198D02*
X11317443Y-12081674D01*
X11317443Y-12081674D02*
X11336491Y-12072150D01*
X11336491Y-12072150D02*
X11365063Y-12072150D01*
X11365063Y-12072150D02*
X11384110Y-12081674D01*
X11384110Y-12081674D02*
X11393634Y-12100722D01*
X11393634Y-12100722D02*
X11393634Y-12205484D01*
X11393634Y-12100722D02*
X11403158Y-12081674D01*
X11403158Y-12081674D02*
X11422205Y-12072150D01*
X11422205Y-12072150D02*
X11450777Y-12072150D01*
X11450777Y-12072150D02*
X11469824Y-12081674D01*
X11469824Y-12081674D02*
X11479348Y-12100722D01*
X11479348Y-12100722D02*
X11479348Y-12205484D01*
X11574586Y-12205484D02*
X11574586Y-12072150D01*
X11574586Y-12091198D02*
X11584110Y-12081674D01*
X11584110Y-12081674D02*
X11603158Y-12072150D01*
X11603158Y-12072150D02*
X11631729Y-12072150D01*
X11631729Y-12072150D02*
X11650777Y-12081674D01*
X11650777Y-12081674D02*
X11660301Y-12100722D01*
X11660301Y-12100722D02*
X11660301Y-12205484D01*
X11660301Y-12100722D02*
X11669824Y-12081674D01*
X11669824Y-12081674D02*
X11688872Y-12072150D01*
X11688872Y-12072150D02*
X11717443Y-12072150D01*
X11717443Y-12072150D02*
X11736491Y-12081674D01*
X11736491Y-12081674D02*
X11746015Y-12100722D01*
X11746015Y-12100722D02*
X11746015Y-12205484D01*
X12136491Y-11995960D02*
X11965063Y-12253103D01*
X12393634Y-12005484D02*
X12412682Y-12005484D01*
X12412682Y-12005484D02*
X12431729Y-12015008D01*
X12431729Y-12015008D02*
X12441253Y-12024531D01*
X12441253Y-12024531D02*
X12450777Y-12043579D01*
X12450777Y-12043579D02*
X12460301Y-12081674D01*
X12460301Y-12081674D02*
X12460301Y-12129293D01*
X12460301Y-12129293D02*
X12450777Y-12167388D01*
X12450777Y-12167388D02*
X12441253Y-12186436D01*
X12441253Y-12186436D02*
X12431729Y-12195960D01*
X12431729Y-12195960D02*
X12412682Y-12205484D01*
X12412682Y-12205484D02*
X12393634Y-12205484D01*
X12393634Y-12205484D02*
X12374586Y-12195960D01*
X12374586Y-12195960D02*
X12365063Y-12186436D01*
X12365063Y-12186436D02*
X12355539Y-12167388D01*
X12355539Y-12167388D02*
X12346015Y-12129293D01*
X12346015Y-12129293D02*
X12346015Y-12081674D01*
X12346015Y-12081674D02*
X12355539Y-12043579D01*
X12355539Y-12043579D02*
X12365063Y-12024531D01*
X12365063Y-12024531D02*
X12374586Y-12015008D01*
X12374586Y-12015008D02*
X12393634Y-12005484D01*
X12546015Y-12186436D02*
X12555539Y-12195960D01*
X12555539Y-12195960D02*
X12546015Y-12205484D01*
X12546015Y-12205484D02*
X12536491Y-12195960D01*
X12536491Y-12195960D02*
X12546015Y-12186436D01*
X12546015Y-12186436D02*
X12546015Y-12205484D01*
X12679348Y-12005484D02*
X12698396Y-12005484D01*
X12698396Y-12005484D02*
X12717444Y-12015008D01*
X12717444Y-12015008D02*
X12726967Y-12024531D01*
X12726967Y-12024531D02*
X12736491Y-12043579D01*
X12736491Y-12043579D02*
X12746015Y-12081674D01*
X12746015Y-12081674D02*
X12746015Y-12129293D01*
X12746015Y-12129293D02*
X12736491Y-12167388D01*
X12736491Y-12167388D02*
X12726967Y-12186436D01*
X12726967Y-12186436D02*
X12717444Y-12195960D01*
X12717444Y-12195960D02*
X12698396Y-12205484D01*
X12698396Y-12205484D02*
X12679348Y-12205484D01*
X12679348Y-12205484D02*
X12660301Y-12195960D01*
X12660301Y-12195960D02*
X12650777Y-12186436D01*
X12650777Y-12186436D02*
X12641253Y-12167388D01*
X12641253Y-12167388D02*
X12631729Y-12129293D01*
X12631729Y-12129293D02*
X12631729Y-12081674D01*
X12631729Y-12081674D02*
X12641253Y-12043579D01*
X12641253Y-12043579D02*
X12650777Y-12024531D01*
X12650777Y-12024531D02*
X12660301Y-12015008D01*
X12660301Y-12015008D02*
X12679348Y-12005484D01*
X12812682Y-12005484D02*
X12936491Y-12005484D01*
X12936491Y-12005484D02*
X12869825Y-12081674D01*
X12869825Y-12081674D02*
X12898396Y-12081674D01*
X12898396Y-12081674D02*
X12917444Y-12091198D01*
X12917444Y-12091198D02*
X12926967Y-12100722D01*
X12926967Y-12100722D02*
X12936491Y-12119769D01*
X12936491Y-12119769D02*
X12936491Y-12167388D01*
X12936491Y-12167388D02*
X12926967Y-12186436D01*
X12926967Y-12186436D02*
X12917444Y-12195960D01*
X12917444Y-12195960D02*
X12898396Y-12205484D01*
X12898396Y-12205484D02*
X12841253Y-12205484D01*
X12841253Y-12205484D02*
X12822206Y-12195960D01*
X12822206Y-12195960D02*
X12812682Y-12186436D01*
X13031729Y-12205484D02*
X13069825Y-12205484D01*
X13069825Y-12205484D02*
X13088872Y-12195960D01*
X13088872Y-12195960D02*
X13098396Y-12186436D01*
X13098396Y-12186436D02*
X13117444Y-12157865D01*
X13117444Y-12157865D02*
X13126967Y-12119769D01*
X13126967Y-12119769D02*
X13126967Y-12043579D01*
X13126967Y-12043579D02*
X13117444Y-12024531D01*
X13117444Y-12024531D02*
X13107920Y-12015008D01*
X13107920Y-12015008D02*
X13088872Y-12005484D01*
X13088872Y-12005484D02*
X13050777Y-12005484D01*
X13050777Y-12005484D02*
X13031729Y-12015008D01*
X13031729Y-12015008D02*
X13022206Y-12024531D01*
X13022206Y-12024531D02*
X13012682Y-12043579D01*
X13012682Y-12043579D02*
X13012682Y-12091198D01*
X13012682Y-12091198D02*
X13022206Y-12110246D01*
X13022206Y-12110246D02*
X13031729Y-12119769D01*
X13031729Y-12119769D02*
X13050777Y-12129293D01*
X13050777Y-12129293D02*
X13088872Y-12129293D01*
X13088872Y-12129293D02*
X13107920Y-12119769D01*
X13107920Y-12119769D02*
X13117444Y-12110246D01*
X13117444Y-12110246D02*
X13126967Y-12091198D01*
X13298396Y-12072150D02*
X13298396Y-12205484D01*
X13250777Y-11995960D02*
X13203158Y-12138817D01*
X13203158Y-12138817D02*
X13326967Y-12138817D01*
X13393634Y-12005484D02*
X13393634Y-12043579D01*
X13469825Y-12005484D02*
X13469825Y-12043579D01*
X13765063Y-12281674D02*
X13755539Y-12272150D01*
X13755539Y-12272150D02*
X13736491Y-12243579D01*
X13736491Y-12243579D02*
X13726968Y-12224531D01*
X13726968Y-12224531D02*
X13717444Y-12195960D01*
X13717444Y-12195960D02*
X13707920Y-12148341D01*
X13707920Y-12148341D02*
X13707920Y-12110246D01*
X13707920Y-12110246D02*
X13717444Y-12062627D01*
X13717444Y-12062627D02*
X13726968Y-12034055D01*
X13726968Y-12034055D02*
X13736491Y-12015008D01*
X13736491Y-12015008D02*
X13755539Y-11986436D01*
X13755539Y-11986436D02*
X13765063Y-11976912D01*
X13831729Y-12024531D02*
X13841253Y-12015008D01*
X13841253Y-12015008D02*
X13860301Y-12005484D01*
X13860301Y-12005484D02*
X13907920Y-12005484D01*
X13907920Y-12005484D02*
X13926968Y-12015008D01*
X13926968Y-12015008D02*
X13936491Y-12024531D01*
X13936491Y-12024531D02*
X13946015Y-12043579D01*
X13946015Y-12043579D02*
X13946015Y-12062627D01*
X13946015Y-12062627D02*
X13936491Y-12091198D01*
X13936491Y-12091198D02*
X13822206Y-12205484D01*
X13822206Y-12205484D02*
X13946015Y-12205484D01*
X14069825Y-12005484D02*
X14088872Y-12005484D01*
X14088872Y-12005484D02*
X14107920Y-12015008D01*
X14107920Y-12015008D02*
X14117444Y-12024531D01*
X14117444Y-12024531D02*
X14126968Y-12043579D01*
X14126968Y-12043579D02*
X14136491Y-12081674D01*
X14136491Y-12081674D02*
X14136491Y-12129293D01*
X14136491Y-12129293D02*
X14126968Y-12167388D01*
X14126968Y-12167388D02*
X14117444Y-12186436D01*
X14117444Y-12186436D02*
X14107920Y-12195960D01*
X14107920Y-12195960D02*
X14088872Y-12205484D01*
X14088872Y-12205484D02*
X14069825Y-12205484D01*
X14069825Y-12205484D02*
X14050777Y-12195960D01*
X14050777Y-12195960D02*
X14041253Y-12186436D01*
X14041253Y-12186436D02*
X14031729Y-12167388D01*
X14031729Y-12167388D02*
X14022206Y-12129293D01*
X14022206Y-12129293D02*
X14022206Y-12081674D01*
X14022206Y-12081674D02*
X14031729Y-12043579D01*
X14031729Y-12043579D02*
X14041253Y-12024531D01*
X14041253Y-12024531D02*
X14050777Y-12015008D01*
X14050777Y-12015008D02*
X14069825Y-12005484D01*
X14374587Y-12205484D02*
X14374587Y-12005484D01*
X14460301Y-12205484D02*
X14460301Y-12100722D01*
X14460301Y-12100722D02*
X14450777Y-12081674D01*
X14450777Y-12081674D02*
X14431730Y-12072150D01*
X14431730Y-12072150D02*
X14403158Y-12072150D01*
X14403158Y-12072150D02*
X14384110Y-12081674D01*
X14384110Y-12081674D02*
X14374587Y-12091198D01*
X14584110Y-12205484D02*
X14565063Y-12195960D01*
X14565063Y-12195960D02*
X14555539Y-12186436D01*
X14555539Y-12186436D02*
X14546015Y-12167388D01*
X14546015Y-12167388D02*
X14546015Y-12110246D01*
X14546015Y-12110246D02*
X14555539Y-12091198D01*
X14555539Y-12091198D02*
X14565063Y-12081674D01*
X14565063Y-12081674D02*
X14584110Y-12072150D01*
X14584110Y-12072150D02*
X14612682Y-12072150D01*
X14612682Y-12072150D02*
X14631730Y-12081674D01*
X14631730Y-12081674D02*
X14641253Y-12091198D01*
X14641253Y-12091198D02*
X14650777Y-12110246D01*
X14650777Y-12110246D02*
X14650777Y-12167388D01*
X14650777Y-12167388D02*
X14641253Y-12186436D01*
X14641253Y-12186436D02*
X14631730Y-12195960D01*
X14631730Y-12195960D02*
X14612682Y-12205484D01*
X14612682Y-12205484D02*
X14584110Y-12205484D01*
X14765063Y-12205484D02*
X14746015Y-12195960D01*
X14746015Y-12195960D02*
X14736491Y-12176912D01*
X14736491Y-12176912D02*
X14736491Y-12005484D01*
X14917444Y-12195960D02*
X14898396Y-12205484D01*
X14898396Y-12205484D02*
X14860301Y-12205484D01*
X14860301Y-12205484D02*
X14841253Y-12195960D01*
X14841253Y-12195960D02*
X14831730Y-12176912D01*
X14831730Y-12176912D02*
X14831730Y-12100722D01*
X14831730Y-12100722D02*
X14841253Y-12081674D01*
X14841253Y-12081674D02*
X14860301Y-12072150D01*
X14860301Y-12072150D02*
X14898396Y-12072150D01*
X14898396Y-12072150D02*
X14917444Y-12081674D01*
X14917444Y-12081674D02*
X14926968Y-12100722D01*
X14926968Y-12100722D02*
X14926968Y-12119769D01*
X14926968Y-12119769D02*
X14831730Y-12138817D01*
X15003158Y-12195960D02*
X15022206Y-12205484D01*
X15022206Y-12205484D02*
X15060301Y-12205484D01*
X15060301Y-12205484D02*
X15079349Y-12195960D01*
X15079349Y-12195960D02*
X15088872Y-12176912D01*
X15088872Y-12176912D02*
X15088872Y-12167388D01*
X15088872Y-12167388D02*
X15079349Y-12148341D01*
X15079349Y-12148341D02*
X15060301Y-12138817D01*
X15060301Y-12138817D02*
X15031730Y-12138817D01*
X15031730Y-12138817D02*
X15012682Y-12129293D01*
X15012682Y-12129293D02*
X15003158Y-12110246D01*
X15003158Y-12110246D02*
X15003158Y-12100722D01*
X15003158Y-12100722D02*
X15012682Y-12081674D01*
X15012682Y-12081674D02*
X15031730Y-12072150D01*
X15031730Y-12072150D02*
X15060301Y-12072150D01*
X15060301Y-12072150D02*
X15079349Y-12081674D01*
X15155539Y-12281674D02*
X15165063Y-12272150D01*
X15165063Y-12272150D02*
X15184111Y-12243579D01*
X15184111Y-12243579D02*
X15193634Y-12224531D01*
X15193634Y-12224531D02*
X15203158Y-12195960D01*
X15203158Y-12195960D02*
X15212682Y-12148341D01*
X15212682Y-12148341D02*
X15212682Y-12110246D01*
X15212682Y-12110246D02*
X15203158Y-12062627D01*
X15203158Y-12062627D02*
X15193634Y-12034055D01*
X15193634Y-12034055D02*
X15184111Y-12015008D01*
X15184111Y-12015008D02*
X15165063Y-11986436D01*
X15165063Y-11986436D02*
X15155539Y-11976912D01*
M02*
