G04 #@! TF.GenerationSoftware,KiCad,Pcbnew,8.0.8*
G04 #@! TF.CreationDate,2025-06-14T11:12:35+09:00*
G04 #@! TF.ProjectId,stm32c0_fdcan_module,73746d33-3263-4305-9f66-6463616e5f6d,rev?*
G04 #@! TF.SameCoordinates,Original*
G04 #@! TF.FileFunction,Copper,L1,Top*
G04 #@! TF.FilePolarity,Positive*
%FSLAX46Y46*%
G04 Gerber Fmt 4.6, Leading zero omitted, Abs format (unit mm)*
G04 Created by KiCad (PCBNEW 8.0.8) date 2025-06-14 11:12:35*
%MOMM*%
%LPD*%
G01*
G04 APERTURE LIST*
G04 Aperture macros list*
%AMRoundRect*
0 Rectangle with rounded corners*
0 $1 Rounding radius*
0 $2 $3 $4 $5 $6 $7 $8 $9 X,Y pos of 4 corners*
0 Add a 4 corners polygon primitive as box body*
4,1,4,$2,$3,$4,$5,$6,$7,$8,$9,$2,$3,0*
0 Add four circle primitives for the rounded corners*
1,1,$1+$1,$2,$3*
1,1,$1+$1,$4,$5*
1,1,$1+$1,$6,$7*
1,1,$1+$1,$8,$9*
0 Add four rect primitives between the rounded corners*
20,1,$1+$1,$2,$3,$4,$5,0*
20,1,$1+$1,$4,$5,$6,$7,0*
20,1,$1+$1,$6,$7,$8,$9,0*
20,1,$1+$1,$8,$9,$2,$3,0*%
G04 Aperture macros list end*
%ADD10C,0.300000*%
G04 #@! TA.AperFunction,NonConductor*
%ADD11C,0.300000*%
G04 #@! TD*
G04 #@! TA.AperFunction,NonConductor*
%ADD12C,0.200000*%
G04 #@! TD*
G04 #@! TA.AperFunction,SMDPad,CuDef*
%ADD13RoundRect,0.200000X0.275000X-0.200000X0.275000X0.200000X-0.275000X0.200000X-0.275000X-0.200000X0*%
G04 #@! TD*
G04 #@! TA.AperFunction,SMDPad,CuDef*
%ADD14R,0.850000X0.350000*%
G04 #@! TD*
G04 #@! TA.AperFunction,SMDPad,CuDef*
%ADD15R,1.650000X2.450000*%
G04 #@! TD*
G04 #@! TA.AperFunction,SMDPad,CuDef*
%ADD16R,1.050000X0.650000*%
G04 #@! TD*
G04 #@! TA.AperFunction,SMDPad,CuDef*
%ADD17RoundRect,0.225000X0.250000X-0.225000X0.250000X0.225000X-0.250000X0.225000X-0.250000X-0.225000X0*%
G04 #@! TD*
G04 #@! TA.AperFunction,SMDPad,CuDef*
%ADD18RoundRect,0.250000X0.250000X0.475000X-0.250000X0.475000X-0.250000X-0.475000X0.250000X-0.475000X0*%
G04 #@! TD*
G04 #@! TA.AperFunction,SMDPad,CuDef*
%ADD19RoundRect,0.250000X-0.475000X0.250000X-0.475000X-0.250000X0.475000X-0.250000X0.475000X0.250000X0*%
G04 #@! TD*
G04 #@! TA.AperFunction,SMDPad,CuDef*
%ADD20R,1.400000X0.600000*%
G04 #@! TD*
G04 #@! TA.AperFunction,SMDPad,CuDef*
%ADD21RoundRect,0.200000X-0.275000X0.200000X-0.275000X-0.200000X0.275000X-0.200000X0.275000X0.200000X0*%
G04 #@! TD*
G04 #@! TA.AperFunction,SMDPad,CuDef*
%ADD22RoundRect,0.200000X0.200000X0.275000X-0.200000X0.275000X-0.200000X-0.275000X0.200000X-0.275000X0*%
G04 #@! TD*
G04 #@! TA.AperFunction,SMDPad,CuDef*
%ADD23R,0.760000X2.160000*%
G04 #@! TD*
G04 #@! TA.AperFunction,SMDPad,CuDef*
%ADD24RoundRect,0.250000X-0.250000X-0.475000X0.250000X-0.475000X0.250000X0.475000X-0.250000X0.475000X0*%
G04 #@! TD*
G04 #@! TA.AperFunction,SMDPad,CuDef*
%ADD25RoundRect,0.218750X-0.256250X0.218750X-0.256250X-0.218750X0.256250X-0.218750X0.256250X0.218750X0*%
G04 #@! TD*
G04 #@! TA.AperFunction,SMDPad,CuDef*
%ADD26R,0.300000X0.600000*%
G04 #@! TD*
G04 #@! TA.AperFunction,SMDPad,CuDef*
%ADD27R,0.600000X0.300000*%
G04 #@! TD*
G04 #@! TA.AperFunction,SMDPad,CuDef*
%ADD28RoundRect,0.150000X0.150000X-0.587500X0.150000X0.587500X-0.150000X0.587500X-0.150000X-0.587500X0*%
G04 #@! TD*
G04 #@! TA.AperFunction,ComponentPad*
%ADD29R,1.700000X1.700000*%
G04 #@! TD*
G04 #@! TA.AperFunction,ComponentPad*
%ADD30O,1.700000X1.700000*%
G04 #@! TD*
G04 #@! TA.AperFunction,SMDPad,CuDef*
%ADD31RoundRect,0.225000X-0.250000X0.225000X-0.250000X-0.225000X0.250000X-0.225000X0.250000X0.225000X0*%
G04 #@! TD*
G04 #@! TA.AperFunction,SMDPad,CuDef*
%ADD32R,0.600000X1.050000*%
G04 #@! TD*
G04 #@! TA.AperFunction,SMDPad,CuDef*
%ADD33RoundRect,0.225000X-0.225000X-0.250000X0.225000X-0.250000X0.225000X0.250000X-0.225000X0.250000X0*%
G04 #@! TD*
G04 #@! TA.AperFunction,SMDPad,CuDef*
%ADD34R,0.800000X1.600000*%
G04 #@! TD*
G04 #@! TA.AperFunction,SMDPad,CuDef*
%ADD35R,2.100000X3.000000*%
G04 #@! TD*
G04 #@! TA.AperFunction,SMDPad,CuDef*
%ADD36R,0.800000X1.750000*%
G04 #@! TD*
G04 #@! TA.AperFunction,SMDPad,CuDef*
%ADD37R,2.250000X3.150000*%
G04 #@! TD*
G04 #@! TA.AperFunction,SMDPad,CuDef*
%ADD38R,1.150000X1.150000*%
G04 #@! TD*
G04 #@! TA.AperFunction,SMDPad,CuDef*
%ADD39R,1.500000X1.800000*%
G04 #@! TD*
G04 #@! TA.AperFunction,ViaPad*
%ADD40C,0.600000*%
G04 #@! TD*
G04 #@! TA.AperFunction,Conductor*
%ADD41C,0.300000*%
G04 #@! TD*
G04 #@! TA.AperFunction,Conductor*
%ADD42C,0.400000*%
G04 #@! TD*
G04 #@! TA.AperFunction,Conductor*
%ADD43C,1.250000*%
G04 #@! TD*
G04 #@! TA.AperFunction,Conductor*
%ADD44C,0.750000*%
G04 #@! TD*
G04 #@! TA.AperFunction,Conductor*
%ADD45C,0.500000*%
G04 #@! TD*
G04 APERTURE END LIST*
D10*
D11*
X97778328Y-97214284D02*
X98778328Y-97214284D01*
X97206900Y-97571426D02*
X98278328Y-97928569D01*
X98278328Y-97928569D02*
X98278328Y-96999998D01*
X97421185Y-96499998D02*
X97349757Y-96428570D01*
X97349757Y-96428570D02*
X97278328Y-96285713D01*
X97278328Y-96285713D02*
X97278328Y-95928570D01*
X97278328Y-95928570D02*
X97349757Y-95785713D01*
X97349757Y-95785713D02*
X97421185Y-95714284D01*
X97421185Y-95714284D02*
X97564042Y-95642855D01*
X97564042Y-95642855D02*
X97706900Y-95642855D01*
X97706900Y-95642855D02*
X97921185Y-95714284D01*
X97921185Y-95714284D02*
X98778328Y-96571427D01*
X98778328Y-96571427D02*
X98778328Y-95642855D01*
X98635471Y-94999999D02*
X98706900Y-94928570D01*
X98706900Y-94928570D02*
X98778328Y-94999999D01*
X98778328Y-94999999D02*
X98706900Y-95071427D01*
X98706900Y-95071427D02*
X98635471Y-94999999D01*
X98635471Y-94999999D02*
X98778328Y-94999999D01*
X97278328Y-93999998D02*
X97278328Y-93857141D01*
X97278328Y-93857141D02*
X97349757Y-93714284D01*
X97349757Y-93714284D02*
X97421185Y-93642856D01*
X97421185Y-93642856D02*
X97564042Y-93571427D01*
X97564042Y-93571427D02*
X97849757Y-93499998D01*
X97849757Y-93499998D02*
X98206900Y-93499998D01*
X98206900Y-93499998D02*
X98492614Y-93571427D01*
X98492614Y-93571427D02*
X98635471Y-93642856D01*
X98635471Y-93642856D02*
X98706900Y-93714284D01*
X98706900Y-93714284D02*
X98778328Y-93857141D01*
X98778328Y-93857141D02*
X98778328Y-93999998D01*
X98778328Y-93999998D02*
X98706900Y-94142856D01*
X98706900Y-94142856D02*
X98635471Y-94214284D01*
X98635471Y-94214284D02*
X98492614Y-94285713D01*
X98492614Y-94285713D02*
X98206900Y-94357141D01*
X98206900Y-94357141D02*
X97849757Y-94357141D01*
X97849757Y-94357141D02*
X97564042Y-94285713D01*
X97564042Y-94285713D02*
X97421185Y-94214284D01*
X97421185Y-94214284D02*
X97349757Y-94142856D01*
X97349757Y-94142856D02*
X97278328Y-93999998D01*
X97278328Y-92571427D02*
X97278328Y-92428570D01*
X97278328Y-92428570D02*
X97349757Y-92285713D01*
X97349757Y-92285713D02*
X97421185Y-92214285D01*
X97421185Y-92214285D02*
X97564042Y-92142856D01*
X97564042Y-92142856D02*
X97849757Y-92071427D01*
X97849757Y-92071427D02*
X98206900Y-92071427D01*
X98206900Y-92071427D02*
X98492614Y-92142856D01*
X98492614Y-92142856D02*
X98635471Y-92214285D01*
X98635471Y-92214285D02*
X98706900Y-92285713D01*
X98706900Y-92285713D02*
X98778328Y-92428570D01*
X98778328Y-92428570D02*
X98778328Y-92571427D01*
X98778328Y-92571427D02*
X98706900Y-92714285D01*
X98706900Y-92714285D02*
X98635471Y-92785713D01*
X98635471Y-92785713D02*
X98492614Y-92857142D01*
X98492614Y-92857142D02*
X98206900Y-92928570D01*
X98206900Y-92928570D02*
X97849757Y-92928570D01*
X97849757Y-92928570D02*
X97564042Y-92857142D01*
X97564042Y-92857142D02*
X97421185Y-92785713D01*
X97421185Y-92785713D02*
X97349757Y-92714285D01*
X97349757Y-92714285D02*
X97278328Y-92571427D01*
X97278328Y-91142856D02*
X97278328Y-90999999D01*
X97278328Y-90999999D02*
X97349757Y-90857142D01*
X97349757Y-90857142D02*
X97421185Y-90785714D01*
X97421185Y-90785714D02*
X97564042Y-90714285D01*
X97564042Y-90714285D02*
X97849757Y-90642856D01*
X97849757Y-90642856D02*
X98206900Y-90642856D01*
X98206900Y-90642856D02*
X98492614Y-90714285D01*
X98492614Y-90714285D02*
X98635471Y-90785714D01*
X98635471Y-90785714D02*
X98706900Y-90857142D01*
X98706900Y-90857142D02*
X98778328Y-90999999D01*
X98778328Y-90999999D02*
X98778328Y-91142856D01*
X98778328Y-91142856D02*
X98706900Y-91285714D01*
X98706900Y-91285714D02*
X98635471Y-91357142D01*
X98635471Y-91357142D02*
X98492614Y-91428571D01*
X98492614Y-91428571D02*
X98206900Y-91499999D01*
X98206900Y-91499999D02*
X97849757Y-91499999D01*
X97849757Y-91499999D02*
X97564042Y-91428571D01*
X97564042Y-91428571D02*
X97421185Y-91357142D01*
X97421185Y-91357142D02*
X97349757Y-91285714D01*
X97349757Y-91285714D02*
X97278328Y-91142856D01*
X97278328Y-89714285D02*
X97278328Y-89571428D01*
X97278328Y-89571428D02*
X97349757Y-89428571D01*
X97349757Y-89428571D02*
X97421185Y-89357143D01*
X97421185Y-89357143D02*
X97564042Y-89285714D01*
X97564042Y-89285714D02*
X97849757Y-89214285D01*
X97849757Y-89214285D02*
X98206900Y-89214285D01*
X98206900Y-89214285D02*
X98492614Y-89285714D01*
X98492614Y-89285714D02*
X98635471Y-89357143D01*
X98635471Y-89357143D02*
X98706900Y-89428571D01*
X98706900Y-89428571D02*
X98778328Y-89571428D01*
X98778328Y-89571428D02*
X98778328Y-89714285D01*
X98778328Y-89714285D02*
X98706900Y-89857143D01*
X98706900Y-89857143D02*
X98635471Y-89928571D01*
X98635471Y-89928571D02*
X98492614Y-90000000D01*
X98492614Y-90000000D02*
X98206900Y-90071428D01*
X98206900Y-90071428D02*
X97849757Y-90071428D01*
X97849757Y-90071428D02*
X97564042Y-90000000D01*
X97564042Y-90000000D02*
X97421185Y-89928571D01*
X97421185Y-89928571D02*
X97349757Y-89857143D01*
X97349757Y-89857143D02*
X97278328Y-89714285D01*
X98778328Y-87428572D02*
X97778328Y-87428572D01*
X97921185Y-87428572D02*
X97849757Y-87357143D01*
X97849757Y-87357143D02*
X97778328Y-87214286D01*
X97778328Y-87214286D02*
X97778328Y-87000000D01*
X97778328Y-87000000D02*
X97849757Y-86857143D01*
X97849757Y-86857143D02*
X97992614Y-86785715D01*
X97992614Y-86785715D02*
X98778328Y-86785715D01*
X97992614Y-86785715D02*
X97849757Y-86714286D01*
X97849757Y-86714286D02*
X97778328Y-86571429D01*
X97778328Y-86571429D02*
X97778328Y-86357143D01*
X97778328Y-86357143D02*
X97849757Y-86214286D01*
X97849757Y-86214286D02*
X97992614Y-86142857D01*
X97992614Y-86142857D02*
X98778328Y-86142857D01*
X98778328Y-85428572D02*
X97778328Y-85428572D01*
X97921185Y-85428572D02*
X97849757Y-85357143D01*
X97849757Y-85357143D02*
X97778328Y-85214286D01*
X97778328Y-85214286D02*
X97778328Y-85000000D01*
X97778328Y-85000000D02*
X97849757Y-84857143D01*
X97849757Y-84857143D02*
X97992614Y-84785715D01*
X97992614Y-84785715D02*
X98778328Y-84785715D01*
X97992614Y-84785715D02*
X97849757Y-84714286D01*
X97849757Y-84714286D02*
X97778328Y-84571429D01*
X97778328Y-84571429D02*
X97778328Y-84357143D01*
X97778328Y-84357143D02*
X97849757Y-84214286D01*
X97849757Y-84214286D02*
X97992614Y-84142857D01*
X97992614Y-84142857D02*
X98778328Y-84142857D01*
D12*
X101500000Y-70000000D02*
X99313580Y-70000000D01*
X101500000Y-112000000D02*
X99313580Y-112000000D01*
X99900000Y-70000000D02*
X99900000Y-112000000D01*
X99900000Y-70000000D02*
X99900000Y-112000000D01*
X99900000Y-70000000D02*
X100486421Y-71126504D01*
X99900000Y-70000000D02*
X99313579Y-71126504D01*
X99900000Y-112000000D02*
X99313579Y-110873496D01*
X99900000Y-112000000D02*
X100486421Y-110873496D01*
D10*
D11*
X118285716Y-66378328D02*
X118285716Y-67378328D01*
X117928573Y-65806900D02*
X117571430Y-66878328D01*
X117571430Y-66878328D02*
X118500001Y-66878328D01*
X119785715Y-65878328D02*
X119071429Y-65878328D01*
X119071429Y-65878328D02*
X119000001Y-66592614D01*
X119000001Y-66592614D02*
X119071429Y-66521185D01*
X119071429Y-66521185D02*
X119214287Y-66449757D01*
X119214287Y-66449757D02*
X119571429Y-66449757D01*
X119571429Y-66449757D02*
X119714287Y-66521185D01*
X119714287Y-66521185D02*
X119785715Y-66592614D01*
X119785715Y-66592614D02*
X119857144Y-66735471D01*
X119857144Y-66735471D02*
X119857144Y-67092614D01*
X119857144Y-67092614D02*
X119785715Y-67235471D01*
X119785715Y-67235471D02*
X119714287Y-67306900D01*
X119714287Y-67306900D02*
X119571429Y-67378328D01*
X119571429Y-67378328D02*
X119214287Y-67378328D01*
X119214287Y-67378328D02*
X119071429Y-67306900D01*
X119071429Y-67306900D02*
X119000001Y-67235471D01*
X120500000Y-67235471D02*
X120571429Y-67306900D01*
X120571429Y-67306900D02*
X120500000Y-67378328D01*
X120500000Y-67378328D02*
X120428572Y-67306900D01*
X120428572Y-67306900D02*
X120500000Y-67235471D01*
X120500000Y-67235471D02*
X120500000Y-67378328D01*
X121500001Y-65878328D02*
X121642858Y-65878328D01*
X121642858Y-65878328D02*
X121785715Y-65949757D01*
X121785715Y-65949757D02*
X121857144Y-66021185D01*
X121857144Y-66021185D02*
X121928572Y-66164042D01*
X121928572Y-66164042D02*
X122000001Y-66449757D01*
X122000001Y-66449757D02*
X122000001Y-66806900D01*
X122000001Y-66806900D02*
X121928572Y-67092614D01*
X121928572Y-67092614D02*
X121857144Y-67235471D01*
X121857144Y-67235471D02*
X121785715Y-67306900D01*
X121785715Y-67306900D02*
X121642858Y-67378328D01*
X121642858Y-67378328D02*
X121500001Y-67378328D01*
X121500001Y-67378328D02*
X121357144Y-67306900D01*
X121357144Y-67306900D02*
X121285715Y-67235471D01*
X121285715Y-67235471D02*
X121214286Y-67092614D01*
X121214286Y-67092614D02*
X121142858Y-66806900D01*
X121142858Y-66806900D02*
X121142858Y-66449757D01*
X121142858Y-66449757D02*
X121214286Y-66164042D01*
X121214286Y-66164042D02*
X121285715Y-66021185D01*
X121285715Y-66021185D02*
X121357144Y-65949757D01*
X121357144Y-65949757D02*
X121500001Y-65878328D01*
X122928572Y-65878328D02*
X123071429Y-65878328D01*
X123071429Y-65878328D02*
X123214286Y-65949757D01*
X123214286Y-65949757D02*
X123285715Y-66021185D01*
X123285715Y-66021185D02*
X123357143Y-66164042D01*
X123357143Y-66164042D02*
X123428572Y-66449757D01*
X123428572Y-66449757D02*
X123428572Y-66806900D01*
X123428572Y-66806900D02*
X123357143Y-67092614D01*
X123357143Y-67092614D02*
X123285715Y-67235471D01*
X123285715Y-67235471D02*
X123214286Y-67306900D01*
X123214286Y-67306900D02*
X123071429Y-67378328D01*
X123071429Y-67378328D02*
X122928572Y-67378328D01*
X122928572Y-67378328D02*
X122785715Y-67306900D01*
X122785715Y-67306900D02*
X122714286Y-67235471D01*
X122714286Y-67235471D02*
X122642857Y-67092614D01*
X122642857Y-67092614D02*
X122571429Y-66806900D01*
X122571429Y-66806900D02*
X122571429Y-66449757D01*
X122571429Y-66449757D02*
X122642857Y-66164042D01*
X122642857Y-66164042D02*
X122714286Y-66021185D01*
X122714286Y-66021185D02*
X122785715Y-65949757D01*
X122785715Y-65949757D02*
X122928572Y-65878328D01*
X124357143Y-65878328D02*
X124500000Y-65878328D01*
X124500000Y-65878328D02*
X124642857Y-65949757D01*
X124642857Y-65949757D02*
X124714286Y-66021185D01*
X124714286Y-66021185D02*
X124785714Y-66164042D01*
X124785714Y-66164042D02*
X124857143Y-66449757D01*
X124857143Y-66449757D02*
X124857143Y-66806900D01*
X124857143Y-66806900D02*
X124785714Y-67092614D01*
X124785714Y-67092614D02*
X124714286Y-67235471D01*
X124714286Y-67235471D02*
X124642857Y-67306900D01*
X124642857Y-67306900D02*
X124500000Y-67378328D01*
X124500000Y-67378328D02*
X124357143Y-67378328D01*
X124357143Y-67378328D02*
X124214286Y-67306900D01*
X124214286Y-67306900D02*
X124142857Y-67235471D01*
X124142857Y-67235471D02*
X124071428Y-67092614D01*
X124071428Y-67092614D02*
X124000000Y-66806900D01*
X124000000Y-66806900D02*
X124000000Y-66449757D01*
X124000000Y-66449757D02*
X124071428Y-66164042D01*
X124071428Y-66164042D02*
X124142857Y-66021185D01*
X124142857Y-66021185D02*
X124214286Y-65949757D01*
X124214286Y-65949757D02*
X124357143Y-65878328D01*
X125785714Y-65878328D02*
X125928571Y-65878328D01*
X125928571Y-65878328D02*
X126071428Y-65949757D01*
X126071428Y-65949757D02*
X126142857Y-66021185D01*
X126142857Y-66021185D02*
X126214285Y-66164042D01*
X126214285Y-66164042D02*
X126285714Y-66449757D01*
X126285714Y-66449757D02*
X126285714Y-66806900D01*
X126285714Y-66806900D02*
X126214285Y-67092614D01*
X126214285Y-67092614D02*
X126142857Y-67235471D01*
X126142857Y-67235471D02*
X126071428Y-67306900D01*
X126071428Y-67306900D02*
X125928571Y-67378328D01*
X125928571Y-67378328D02*
X125785714Y-67378328D01*
X125785714Y-67378328D02*
X125642857Y-67306900D01*
X125642857Y-67306900D02*
X125571428Y-67235471D01*
X125571428Y-67235471D02*
X125499999Y-67092614D01*
X125499999Y-67092614D02*
X125428571Y-66806900D01*
X125428571Y-66806900D02*
X125428571Y-66449757D01*
X125428571Y-66449757D02*
X125499999Y-66164042D01*
X125499999Y-66164042D02*
X125571428Y-66021185D01*
X125571428Y-66021185D02*
X125642857Y-65949757D01*
X125642857Y-65949757D02*
X125785714Y-65878328D01*
X128071427Y-67378328D02*
X128071427Y-66378328D01*
X128071427Y-66521185D02*
X128142856Y-66449757D01*
X128142856Y-66449757D02*
X128285713Y-66378328D01*
X128285713Y-66378328D02*
X128499999Y-66378328D01*
X128499999Y-66378328D02*
X128642856Y-66449757D01*
X128642856Y-66449757D02*
X128714285Y-66592614D01*
X128714285Y-66592614D02*
X128714285Y-67378328D01*
X128714285Y-66592614D02*
X128785713Y-66449757D01*
X128785713Y-66449757D02*
X128928570Y-66378328D01*
X128928570Y-66378328D02*
X129142856Y-66378328D01*
X129142856Y-66378328D02*
X129285713Y-66449757D01*
X129285713Y-66449757D02*
X129357142Y-66592614D01*
X129357142Y-66592614D02*
X129357142Y-67378328D01*
X130071427Y-67378328D02*
X130071427Y-66378328D01*
X130071427Y-66521185D02*
X130142856Y-66449757D01*
X130142856Y-66449757D02*
X130285713Y-66378328D01*
X130285713Y-66378328D02*
X130499999Y-66378328D01*
X130499999Y-66378328D02*
X130642856Y-66449757D01*
X130642856Y-66449757D02*
X130714285Y-66592614D01*
X130714285Y-66592614D02*
X130714285Y-67378328D01*
X130714285Y-66592614D02*
X130785713Y-66449757D01*
X130785713Y-66449757D02*
X130928570Y-66378328D01*
X130928570Y-66378328D02*
X131142856Y-66378328D01*
X131142856Y-66378328D02*
X131285713Y-66449757D01*
X131285713Y-66449757D02*
X131357142Y-66592614D01*
X131357142Y-66592614D02*
X131357142Y-67378328D01*
D12*
X102000000Y-69500000D02*
X102000000Y-67913580D01*
X147000000Y-69500000D02*
X147000000Y-67913580D01*
X102000000Y-68500000D02*
X147000000Y-68500000D01*
X102000000Y-68500000D02*
X147000000Y-68500000D01*
X102000000Y-68500000D02*
X103126504Y-67913579D01*
X102000000Y-68500000D02*
X103126504Y-69086421D01*
X147000000Y-68500000D02*
X145873496Y-69086421D01*
X147000000Y-68500000D02*
X145873496Y-67913579D01*
D13*
X140500000Y-82825000D03*
X140500000Y-81175000D03*
D14*
X116900000Y-88000000D03*
X116900000Y-87350000D03*
X116900000Y-86700000D03*
X116900000Y-86050000D03*
X114000000Y-86050000D03*
X114000000Y-86700000D03*
X114000000Y-87350000D03*
X114000000Y-88000000D03*
D15*
X115450000Y-87025000D03*
D16*
X117075000Y-103575000D03*
X112925000Y-103575000D03*
X117075000Y-101425000D03*
X112925000Y-101425000D03*
D17*
X125500000Y-103075000D03*
X125500000Y-101525000D03*
D18*
X134450000Y-84500000D03*
X132550000Y-84500000D03*
D19*
X130000000Y-80050000D03*
X130000000Y-81950000D03*
D20*
X110000000Y-80400000D03*
X110000000Y-78500000D03*
X107700000Y-79450000D03*
D21*
X114000000Y-82000000D03*
X114000000Y-83650000D03*
D16*
X117075000Y-97075000D03*
X112925000Y-97075000D03*
X117075000Y-94925000D03*
X112925000Y-94925000D03*
D21*
X123000000Y-86675000D03*
X123000000Y-88325000D03*
X121000000Y-86675000D03*
X121000000Y-88325000D03*
D22*
X115825000Y-90500000D03*
X114175000Y-90500000D03*
D23*
X121350000Y-83800000D03*
X122620000Y-83800000D03*
X122620000Y-76180000D03*
X121350000Y-76180000D03*
D17*
X112500000Y-80600000D03*
X112500000Y-79050000D03*
D24*
X126550000Y-75000000D03*
X128450000Y-75000000D03*
D17*
X114000000Y-80600000D03*
X114000000Y-79050000D03*
D25*
X142000000Y-84212500D03*
X142000000Y-85787500D03*
D26*
X126500000Y-104500000D03*
X126000000Y-104500000D03*
X125500000Y-104500000D03*
X125000000Y-104500000D03*
X124500000Y-104500000D03*
X124000000Y-104500000D03*
X123500000Y-104500000D03*
D27*
X122900000Y-105100000D03*
X122900000Y-105600000D03*
X122900000Y-106100000D03*
X122900000Y-106600000D03*
X122900000Y-107100000D03*
X122900000Y-107600000D03*
X122900000Y-108100000D03*
D26*
X123500000Y-108700000D03*
X124000000Y-108700000D03*
X124500000Y-108700000D03*
X125000000Y-108700000D03*
X125500000Y-108700000D03*
X126000000Y-108700000D03*
X126500000Y-108700000D03*
D27*
X127100000Y-108100000D03*
X127100000Y-107600000D03*
X127100000Y-107100000D03*
X127100000Y-106600000D03*
X127100000Y-106100000D03*
X127100000Y-105600000D03*
X127100000Y-105100000D03*
D28*
X132500000Y-82000000D03*
X134400000Y-82000000D03*
X133450000Y-80125000D03*
D29*
X145000000Y-87500000D03*
D30*
X145000000Y-90040000D03*
X145000000Y-92580000D03*
X145000000Y-95120000D03*
X145000000Y-97660000D03*
X145000000Y-100200000D03*
X145000000Y-102740000D03*
X145000000Y-105280000D03*
X145000000Y-107820000D03*
X145000000Y-110360000D03*
D31*
X119000000Y-86725000D03*
X119000000Y-88275000D03*
D32*
X110600000Y-89025000D03*
X110600000Y-85975000D03*
X109600000Y-85975000D03*
X109600000Y-89025000D03*
D33*
X125725000Y-92000000D03*
X127275000Y-92000000D03*
D34*
X115750000Y-75000000D03*
X114500000Y-75000000D03*
X113250000Y-75000000D03*
X112000000Y-75000000D03*
D35*
X109450000Y-72100000D03*
X118300000Y-72100000D03*
D36*
X140125000Y-75000000D03*
X138875000Y-75000000D03*
X137625000Y-75000000D03*
X136375000Y-75000000D03*
X135125000Y-75000000D03*
X133875000Y-75000000D03*
D37*
X142800000Y-72100000D03*
X131200000Y-72100000D03*
D25*
X140500000Y-84212500D03*
X140500000Y-85787500D03*
D13*
X142000000Y-82825000D03*
X142000000Y-81175000D03*
D33*
X130725000Y-99500000D03*
X132275000Y-99500000D03*
D29*
X104000000Y-87500000D03*
D30*
X104000000Y-90040000D03*
X104000000Y-92580000D03*
X104000000Y-95120000D03*
X104000000Y-97660000D03*
X104000000Y-100200000D03*
X104000000Y-102740000D03*
X104000000Y-105280000D03*
X104000000Y-107820000D03*
X104000000Y-110360000D03*
D38*
X124750000Y-71500000D03*
X121250000Y-71500000D03*
D21*
X112500000Y-82000000D03*
X112500000Y-83650000D03*
D39*
X127850000Y-99100000D03*
X127850000Y-94900000D03*
X125150000Y-94900000D03*
X125150000Y-99100000D03*
D40*
X117500000Y-76900000D03*
X118300000Y-72100000D03*
X125000000Y-107900000D03*
X136500000Y-84100000D03*
X105000000Y-80000000D03*
X119300000Y-94900000D03*
X143100000Y-92500000D03*
X112500000Y-72500000D03*
X142500000Y-80000000D03*
X140000000Y-92500000D03*
X140000000Y-107500000D03*
X119300000Y-101400000D03*
X140000000Y-72500000D03*
X119300000Y-104800000D03*
X117100000Y-101400000D03*
X145000000Y-77500000D03*
X129600000Y-101300000D03*
X132500000Y-87500000D03*
X130000000Y-97500000D03*
X145000000Y-75000000D03*
X128500000Y-75625000D03*
X145000000Y-85000000D03*
X115100000Y-87900000D03*
X125900000Y-81500000D03*
X125100000Y-99100000D03*
X130000000Y-92500000D03*
X105000000Y-82500000D03*
X130000000Y-87500000D03*
X140000000Y-90000000D03*
X114000000Y-79050000D03*
X145000000Y-82500000D03*
X135000000Y-72500000D03*
X131000000Y-83700000D03*
X125500000Y-101500000D03*
X112500000Y-92500000D03*
X119000000Y-88300000D03*
X109400000Y-72100000D03*
X110000000Y-95000000D03*
X137500000Y-72500000D03*
X130000000Y-95000000D03*
X125900000Y-85500000D03*
X112500000Y-79025000D03*
X117500000Y-82500000D03*
X128500000Y-77800000D03*
X122500000Y-97500000D03*
X136500000Y-90000000D03*
X117100000Y-94900000D03*
X114200000Y-109200000D03*
X115100000Y-86200000D03*
X130000000Y-90000000D03*
X132500000Y-90000000D03*
X115900000Y-87900000D03*
X129800000Y-104300000D03*
X128200000Y-104300000D03*
X131300000Y-75600000D03*
X145000000Y-72500000D03*
X136500000Y-95000000D03*
X115000000Y-72500000D03*
X127500000Y-72500000D03*
X142500000Y-77500000D03*
X142500000Y-105000000D03*
X105000000Y-77500000D03*
X111900000Y-109200000D03*
X116300000Y-104800000D03*
X132500000Y-95000000D03*
X107500000Y-77500000D03*
X107500000Y-75000000D03*
X127900000Y-94900000D03*
X105000000Y-75000000D03*
X107500000Y-92500000D03*
X136500000Y-92500000D03*
X127500000Y-90000000D03*
X125000000Y-106700000D03*
X140000000Y-87500000D03*
X112500000Y-100000000D03*
X117500000Y-80000000D03*
X132500000Y-97500000D03*
X110000000Y-75000000D03*
X136400000Y-75600000D03*
X107500000Y-72500000D03*
X105000000Y-72500000D03*
X145000000Y-80000000D03*
X142500000Y-75000000D03*
X128500000Y-74375000D03*
X136400000Y-74400000D03*
X122600000Y-76200000D03*
X136500000Y-87500000D03*
X115900000Y-86200000D03*
X122500000Y-95000000D03*
X115900000Y-90500000D03*
X132500000Y-92500000D03*
X112000000Y-75000000D03*
X112500000Y-85600000D03*
X124700000Y-83400000D03*
X129000000Y-103100000D03*
X125500000Y-103100000D03*
X110000000Y-80400000D03*
X113300000Y-75000000D03*
X114500000Y-75000000D03*
X110000000Y-78500000D03*
X137625000Y-79700000D03*
X137750000Y-108550000D03*
X119775000Y-103575000D03*
X125900000Y-105600000D03*
X127618671Y-85300000D03*
X130642783Y-77757217D03*
X120000000Y-109400000D03*
X116700000Y-89400000D03*
X131200000Y-78500000D03*
X128300000Y-85914212D03*
X138900000Y-106400000D03*
X138875000Y-79700000D03*
X117875000Y-86300000D03*
X120700000Y-108700000D03*
X120025000Y-97075000D03*
X122350000Y-99325000D03*
D41*
X126500000Y-109100000D02*
X126500000Y-108700000D01*
X126800000Y-109400000D02*
X126500000Y-109100000D01*
X135900000Y-109400000D02*
X126800000Y-109400000D01*
X138900000Y-106400000D02*
X135900000Y-109400000D01*
X126592893Y-109900000D02*
X126000000Y-109307107D01*
X126000000Y-109307107D02*
X126000000Y-108700000D01*
X136400000Y-109900000D02*
X126592893Y-109900000D01*
X137750000Y-108550000D02*
X136400000Y-109900000D01*
X126385787Y-110400000D02*
X139880000Y-110400000D01*
X125500000Y-108700000D02*
X125500000Y-109514213D01*
X125500000Y-109514213D02*
X126385787Y-110400000D01*
X139880000Y-110400000D02*
X145000000Y-105280000D01*
X125000000Y-109721319D02*
X126178681Y-110900000D01*
X126178681Y-110900000D02*
X141920000Y-110900000D01*
X141920000Y-110900000D02*
X145000000Y-107820000D01*
X125000000Y-108700000D02*
X125000000Y-109721319D01*
X121300000Y-108100000D02*
X122900000Y-108100000D01*
X120700000Y-108700000D02*
X121300000Y-108100000D01*
X123200000Y-109400000D02*
X123500000Y-109100000D01*
X123500000Y-109100000D02*
X123500000Y-108700000D01*
X120000000Y-109400000D02*
X123200000Y-109400000D01*
X108860000Y-107600000D02*
X122900000Y-107600000D01*
X104000000Y-102740000D02*
X108860000Y-107600000D01*
X110900000Y-107100000D02*
X104000000Y-100200000D01*
X122900000Y-107100000D02*
X110900000Y-107100000D01*
X112940000Y-106600000D02*
X104000000Y-97660000D01*
X122900000Y-106600000D02*
X112940000Y-106600000D01*
X113147106Y-106100000D02*
X122900000Y-106100000D01*
X109300000Y-102252894D02*
X113147106Y-106100000D01*
X109300000Y-100420000D02*
X109300000Y-102252894D01*
X104000000Y-95120000D02*
X109300000Y-100420000D01*
X113400000Y-105600000D02*
X122900000Y-105600000D01*
X109800000Y-102000000D02*
X113400000Y-105600000D01*
X109800000Y-98380000D02*
X109800000Y-102000000D01*
X104000000Y-92580000D02*
X109800000Y-98380000D01*
X141334213Y-102740000D02*
X145000000Y-102740000D01*
X135974213Y-108100000D02*
X141334213Y-102740000D01*
X127100000Y-108100000D02*
X135974213Y-108100000D01*
X135767106Y-107600000D02*
X143167106Y-100200000D01*
X143167106Y-100200000D02*
X145000000Y-100200000D01*
X127100000Y-107600000D02*
X135767106Y-107600000D01*
X135560000Y-107100000D02*
X127100000Y-107100000D01*
X145000000Y-97660000D02*
X135560000Y-107100000D01*
X133520000Y-106600000D02*
X145000000Y-95120000D01*
X127100000Y-106600000D02*
X133520000Y-106600000D01*
X127100000Y-106100000D02*
X131480000Y-106100000D01*
X131480000Y-106100000D02*
X145000000Y-92580000D01*
X125900000Y-105600000D02*
X127100000Y-105600000D01*
X142000000Y-93664470D02*
X142000000Y-85787500D01*
X130564470Y-105100000D02*
X142000000Y-93664470D01*
X127100000Y-105100000D02*
X130564470Y-105100000D01*
X107080000Y-110900000D02*
X104000000Y-107820000D01*
X123114212Y-110900000D02*
X107080000Y-110900000D01*
X124500000Y-109514212D02*
X123114212Y-110900000D01*
X124500000Y-108700000D02*
X124500000Y-109514212D01*
X124000000Y-109307106D02*
X124000000Y-108700000D01*
X122907106Y-110400000D02*
X124000000Y-109307106D01*
X109120000Y-110400000D02*
X122907106Y-110400000D01*
X104000000Y-105280000D02*
X109120000Y-110400000D01*
X123500000Y-104200000D02*
X123500000Y-104500000D01*
X121200000Y-101900000D02*
X123500000Y-104200000D01*
X121200000Y-92307106D02*
X121200000Y-101900000D01*
X127618671Y-85888435D02*
X121200000Y-92307106D01*
X127618671Y-85300000D02*
X127618671Y-85888435D01*
X124000000Y-103900000D02*
X124000000Y-104500000D01*
X121700000Y-101600000D02*
X124000000Y-103900000D01*
X128300000Y-85914212D02*
X121700000Y-92514212D01*
X121700000Y-92514212D02*
X121700000Y-101600000D01*
X122350000Y-101442894D02*
X124500000Y-103592894D01*
X122350000Y-99325000D02*
X122350000Y-101442894D01*
X124500000Y-103592894D02*
X124500000Y-104500000D01*
X127850000Y-102857106D02*
X127850000Y-99100000D01*
X126500000Y-104207106D02*
X127850000Y-102857106D01*
X126500000Y-104507106D02*
X126500000Y-104207106D01*
X126500000Y-103500000D02*
X126500000Y-98000000D01*
X126500000Y-98000000D02*
X125150000Y-96650000D01*
X126000000Y-104000000D02*
X126500000Y-103500000D01*
X126000000Y-104500000D02*
X126000000Y-104000000D01*
X125150000Y-96650000D02*
X125150000Y-94900000D01*
X125500000Y-103075000D02*
X125500000Y-104500000D01*
X123000000Y-89800000D02*
X123000000Y-88325000D01*
X120700000Y-104200000D02*
X120700000Y-92100000D01*
X121600000Y-105100000D02*
X120700000Y-104200000D01*
X120700000Y-92100000D02*
X123000000Y-89800000D01*
X122900000Y-105100000D02*
X121600000Y-105100000D01*
D42*
X115775000Y-87350000D02*
X115450000Y-87025000D01*
X116900000Y-87350000D02*
X115775000Y-87350000D01*
D43*
X126300000Y-78900000D02*
X122400000Y-78900000D01*
X127450000Y-80050000D02*
X130000000Y-80050000D01*
X126500000Y-79100000D02*
X126300000Y-78900000D01*
X124750000Y-73200000D02*
X126550000Y-75000000D01*
X126300000Y-78900000D02*
X127450000Y-80050000D01*
X119000000Y-82300000D02*
X119000000Y-86725000D01*
X126500000Y-75050000D02*
X126500000Y-79100000D01*
X126550000Y-75000000D02*
X126500000Y-75050000D01*
X122400000Y-78900000D02*
X119000000Y-82300000D01*
X124750000Y-71500000D02*
X124750000Y-73200000D01*
D44*
X134450000Y-86100000D02*
X134450000Y-98937606D01*
X130287606Y-103100000D02*
X129000000Y-103100000D01*
X140125000Y-80800000D02*
X140500000Y-81175000D01*
X134450000Y-84500000D02*
X134450000Y-86100000D01*
X142000000Y-81175000D02*
X137525000Y-81175000D01*
D45*
X131100000Y-86100000D02*
X134450000Y-86100000D01*
D44*
X134450000Y-98937606D02*
X130287606Y-103100000D01*
X140125000Y-75000000D02*
X140125000Y-80800000D01*
D45*
X112950000Y-86050000D02*
X114000000Y-86050000D01*
X112500000Y-85600000D02*
X112950000Y-86050000D01*
X128400000Y-83400000D02*
X131100000Y-86100000D01*
D44*
X137525000Y-81175000D02*
X136700000Y-82000000D01*
X136700000Y-82000000D02*
X134400000Y-82000000D01*
D45*
X124700000Y-83400000D02*
X128400000Y-83400000D01*
D41*
X121000000Y-89600000D02*
X118900000Y-91700000D01*
X111000000Y-82000000D02*
X112500000Y-82000000D01*
X112300000Y-80400000D02*
X110000000Y-80400000D01*
X112500000Y-80600000D02*
X112300000Y-80400000D01*
X110200000Y-91700000D02*
X108200000Y-89700000D01*
X108200000Y-89700000D02*
X108200000Y-84800000D01*
X118900000Y-91700000D02*
X110200000Y-91700000D01*
X121000000Y-88325000D02*
X121000000Y-89600000D01*
X112500000Y-82000000D02*
X112500000Y-80600000D01*
X108200000Y-84800000D02*
X111000000Y-82000000D01*
X121350000Y-77400000D02*
X121350000Y-76180000D01*
X111300000Y-78500000D02*
X110000000Y-78500000D01*
X114000000Y-80600000D02*
X114825000Y-79775000D01*
X112000000Y-77800000D02*
X111300000Y-78500000D01*
X114500000Y-75000000D02*
X114500000Y-76800000D01*
X114825000Y-79775000D02*
X114825000Y-78580592D01*
X120850000Y-77900000D02*
X121350000Y-77400000D01*
X114825000Y-78580592D02*
X114044408Y-77800000D01*
X114000000Y-82000000D02*
X114000000Y-80600000D01*
X114500000Y-76800000D02*
X115600000Y-77900000D01*
X114044408Y-77800000D02*
X112000000Y-77800000D01*
X115600000Y-77900000D02*
X120850000Y-77900000D01*
X128250000Y-99500000D02*
X127850000Y-99100000D01*
X130725000Y-99500000D02*
X128250000Y-99500000D01*
X125150000Y-94900000D02*
X125725000Y-94325000D01*
X125725000Y-94325000D02*
X125725000Y-92000000D01*
X142000000Y-84212500D02*
X142000000Y-82825000D01*
D42*
X114000000Y-86700000D02*
X111300000Y-86700000D01*
X111300000Y-86700000D02*
X109600000Y-88400000D01*
X109600000Y-88400000D02*
X109600000Y-89025000D01*
D41*
X113250000Y-84400000D02*
X114000000Y-83650000D01*
X110600000Y-85100000D02*
X111300000Y-84400000D01*
X111300000Y-84400000D02*
X113250000Y-84400000D01*
X110600000Y-85975000D02*
X110600000Y-85100000D01*
D42*
X114000000Y-87350000D02*
X111550000Y-87350000D01*
X110600000Y-88300000D02*
X110600000Y-89025000D01*
X111550000Y-87350000D02*
X110600000Y-88300000D01*
D41*
X109600000Y-85975000D02*
X109600000Y-84800000D01*
X109600000Y-84800000D02*
X110750000Y-83650000D01*
X110750000Y-83650000D02*
X112500000Y-83650000D01*
X137625000Y-75000000D02*
X137625000Y-79700000D01*
X119775000Y-103575000D02*
X117075000Y-103575000D01*
X133875000Y-76725000D02*
X133875000Y-75000000D01*
X132842783Y-77757217D02*
X133875000Y-76725000D01*
X130642783Y-77757217D02*
X132842783Y-77757217D01*
X118000000Y-88300000D02*
X117700000Y-88000000D01*
X116700000Y-89400000D02*
X117700000Y-89400000D01*
X117700000Y-89400000D02*
X118000000Y-89100000D01*
X118000000Y-89100000D02*
X118000000Y-88300000D01*
X117700000Y-88000000D02*
X116900000Y-88000000D01*
X133800000Y-78500000D02*
X135125000Y-77175000D01*
X131200000Y-78500000D02*
X133800000Y-78500000D01*
X135125000Y-77175000D02*
X135125000Y-75000000D01*
X138875000Y-75000000D02*
X138875000Y-79700000D01*
X117875000Y-86300000D02*
X117625000Y-86050000D01*
X117625000Y-86050000D02*
X116900000Y-86050000D01*
X120025000Y-97075000D02*
X117075000Y-97075000D01*
X114000000Y-88000000D02*
X113400000Y-88000000D01*
X113000000Y-88400000D02*
X113000000Y-90100000D01*
X113400000Y-88000000D02*
X113000000Y-88400000D01*
X113400000Y-90500000D02*
X114175000Y-90500000D01*
X113000000Y-90100000D02*
X113400000Y-90500000D01*
X140500000Y-84212500D02*
X140500000Y-82825000D01*
X121000000Y-85900000D02*
X121000000Y-86675000D01*
X121350000Y-85550000D02*
X121000000Y-85900000D01*
X121350000Y-83800000D02*
X121350000Y-85550000D01*
X123000000Y-85937500D02*
X123000000Y-86675000D01*
X122620000Y-83800000D02*
X122620000Y-85557500D01*
X122620000Y-85557500D02*
X123000000Y-85937500D01*
G04 #@! TA.AperFunction,Conductor*
G36*
X134913228Y-81119685D02*
G01*
X134931706Y-81134207D01*
X135067165Y-81263215D01*
X135102135Y-81323703D01*
X135105648Y-81353334D01*
X135095923Y-85048829D01*
X135076062Y-85115817D01*
X135059604Y-85136184D01*
X134832108Y-85363681D01*
X134770785Y-85397166D01*
X134744427Y-85400000D01*
X134247151Y-85400000D01*
X134180112Y-85380315D01*
X134159470Y-85363681D01*
X133932108Y-85136319D01*
X133898623Y-85074996D01*
X133895789Y-85048638D01*
X133895789Y-81351362D01*
X133915474Y-81284323D01*
X133932108Y-81263681D01*
X134059470Y-81136319D01*
X134120793Y-81102834D01*
X134147151Y-81100000D01*
X134846189Y-81100000D01*
X134913228Y-81119685D01*
G37*
G04 #@! TD.AperFunction*
G04 #@! TA.AperFunction,Conductor*
G36*
X118657451Y-86345061D02*
G01*
X118685221Y-86359655D01*
X119123997Y-86666798D01*
X119478918Y-86915243D01*
X119522551Y-86969814D01*
X119529754Y-87039312D01*
X119498240Y-87101671D01*
X119495490Y-87104509D01*
X119236319Y-87363681D01*
X119174996Y-87397166D01*
X119148638Y-87400000D01*
X117851362Y-87400000D01*
X117784323Y-87380315D01*
X117763681Y-87363681D01*
X117543397Y-87143397D01*
X117516516Y-87103166D01*
X117513867Y-87096771D01*
X117513867Y-87096769D01*
X117475475Y-87039312D01*
X117469552Y-87030447D01*
X117403233Y-86986134D01*
X117396828Y-86983481D01*
X117356601Y-86956601D01*
X117300000Y-86900000D01*
X116624000Y-86900000D01*
X116556961Y-86880315D01*
X116511206Y-86827511D01*
X116500000Y-86776000D01*
X116500000Y-86624000D01*
X116519685Y-86556961D01*
X116572489Y-86511206D01*
X116624000Y-86500000D01*
X117319064Y-86500000D01*
X117386103Y-86519685D01*
X117410735Y-86540499D01*
X117502707Y-86641470D01*
X117505782Y-86644773D01*
X117506144Y-86645153D01*
X117506150Y-86645159D01*
X117506152Y-86645160D01*
X117506155Y-86645163D01*
X117507130Y-86645833D01*
X117511030Y-86649321D01*
X117511048Y-86649336D01*
X117511047Y-86649336D01*
X117530574Y-86666798D01*
X117543866Y-86682137D01*
X117543868Y-86682139D01*
X117543872Y-86682143D01*
X117664947Y-86759953D01*
X117790391Y-86796786D01*
X117800918Y-86800500D01*
X117803039Y-86800500D01*
X117952316Y-86800500D01*
X117959307Y-86800000D01*
X118100000Y-86800000D01*
X118526439Y-86373560D01*
X118587760Y-86340077D01*
X118657451Y-86345061D01*
G37*
G04 #@! TD.AperFunction*
G04 #@! TA.AperFunction,Conductor*
G36*
X121915677Y-70719685D02*
G01*
X121936319Y-70736319D01*
X122063681Y-70863681D01*
X122097166Y-70925004D01*
X122100000Y-70951362D01*
X122100000Y-74048638D01*
X122080315Y-74115677D01*
X122063681Y-74136319D01*
X121536319Y-74663681D01*
X121474996Y-74697166D01*
X121448638Y-74700000D01*
X120799999Y-74700000D01*
X119636319Y-75863681D01*
X119574996Y-75897166D01*
X119548638Y-75900000D01*
X115451362Y-75900000D01*
X115384323Y-75880315D01*
X115363681Y-75863681D01*
X115336319Y-75836319D01*
X115302834Y-75774996D01*
X115300000Y-75748638D01*
X115300000Y-74251362D01*
X115319685Y-74184323D01*
X115336319Y-74163681D01*
X115363681Y-74136319D01*
X115425004Y-74102834D01*
X115451362Y-74100000D01*
X119200000Y-74100000D01*
X120400000Y-72900000D01*
X120400000Y-70951362D01*
X120419685Y-70884323D01*
X120436319Y-70863681D01*
X120563681Y-70736319D01*
X120625004Y-70702834D01*
X120651362Y-70700000D01*
X121848638Y-70700000D01*
X121915677Y-70719685D01*
G37*
G04 #@! TD.AperFunction*
G04 #@! TA.AperFunction,Conductor*
G36*
X133715677Y-79419685D02*
G01*
X133736319Y-79436319D01*
X133763681Y-79463681D01*
X133797166Y-79525004D01*
X133800000Y-79551362D01*
X133800000Y-80748638D01*
X133780315Y-80815677D01*
X133763681Y-80836319D01*
X133736319Y-80863681D01*
X133674996Y-80897166D01*
X133648638Y-80900000D01*
X129251362Y-80900000D01*
X129184323Y-80880315D01*
X129163681Y-80863681D01*
X128836319Y-80536319D01*
X128802834Y-80474996D01*
X128800000Y-80448638D01*
X128800000Y-79576636D01*
X128819685Y-79509597D01*
X128868546Y-79465727D01*
X128973818Y-79413091D01*
X129029272Y-79400000D01*
X133648638Y-79400000D01*
X133715677Y-79419685D01*
G37*
G04 #@! TD.AperFunction*
G04 #@! TA.AperFunction,Conductor*
G36*
X105454647Y-109779973D02*
G01*
X105488147Y-109803829D01*
X106472637Y-110788319D01*
X106506122Y-110849642D01*
X106501138Y-110919334D01*
X106459266Y-110975267D01*
X106393802Y-110999684D01*
X106384956Y-111000000D01*
X105385764Y-111000000D01*
X105318725Y-110980315D01*
X105272970Y-110927511D01*
X105263026Y-110858353D01*
X105271868Y-110828676D01*
X105271581Y-110828572D01*
X105273340Y-110823739D01*
X105273385Y-110823589D01*
X105273430Y-110823491D01*
X105273432Y-110823486D01*
X105330636Y-110610000D01*
X104433012Y-110610000D01*
X104465925Y-110552993D01*
X104500000Y-110425826D01*
X104500000Y-110294174D01*
X104465925Y-110167007D01*
X104433012Y-110110000D01*
X105330636Y-110110000D01*
X105330635Y-110109999D01*
X105280691Y-109923604D01*
X105282354Y-109853754D01*
X105321516Y-109795891D01*
X105385745Y-109768387D01*
X105454647Y-109779973D01*
G37*
G04 #@! TD.AperFunction*
G04 #@! TA.AperFunction,Conductor*
G36*
X143642866Y-109775327D02*
G01*
X143698800Y-109817198D01*
X143723217Y-109882663D01*
X143719308Y-109923602D01*
X143669363Y-110109999D01*
X143669364Y-110110000D01*
X144566988Y-110110000D01*
X144534075Y-110167007D01*
X144500000Y-110294174D01*
X144500000Y-110425826D01*
X144534075Y-110552993D01*
X144566988Y-110610000D01*
X143669364Y-110610000D01*
X143726567Y-110823486D01*
X143726569Y-110823491D01*
X143726615Y-110823589D01*
X143726622Y-110823635D01*
X143728419Y-110828572D01*
X143727427Y-110828933D01*
X143737111Y-110892666D01*
X143708595Y-110956452D01*
X143650120Y-110994694D01*
X143614236Y-111000000D01*
X142615044Y-111000000D01*
X142548005Y-110980315D01*
X142502250Y-110927511D01*
X142492306Y-110858353D01*
X142521331Y-110794797D01*
X142527363Y-110788319D01*
X142769016Y-110546666D01*
X143511854Y-109803826D01*
X143573175Y-109770343D01*
X143642866Y-109775327D01*
G37*
G04 #@! TD.AperFunction*
G04 #@! TA.AperFunction,Conductor*
G36*
X103205203Y-103430253D02*
G01*
X103219854Y-103445302D01*
X103253589Y-103486410D01*
X103343888Y-103560515D01*
X103413550Y-103617685D01*
X103596046Y-103715232D01*
X103598568Y-103715997D01*
X103609472Y-103720259D01*
X103759094Y-103775300D01*
X104968253Y-104220111D01*
X105013123Y-104248805D01*
X108644788Y-107880470D01*
X108644789Y-107880471D01*
X108644791Y-107880472D01*
X108684750Y-107903542D01*
X108724712Y-107926614D01*
X108813856Y-107950500D01*
X120528151Y-107950500D01*
X120595190Y-107970185D01*
X120640945Y-108022989D01*
X120650889Y-108092147D01*
X120621864Y-108155703D01*
X120590737Y-108181547D01*
X120498687Y-108235365D01*
X120491110Y-108239298D01*
X120368874Y-108317855D01*
X120274623Y-108426626D01*
X120274622Y-108426628D01*
X120214834Y-108557543D01*
X120194353Y-108699999D01*
X120202671Y-108757853D01*
X120192727Y-108827012D01*
X120146972Y-108879816D01*
X120079933Y-108899500D01*
X119928036Y-108899500D01*
X119789949Y-108940045D01*
X119668873Y-109017856D01*
X119574623Y-109126626D01*
X119574622Y-109126628D01*
X119514834Y-109257543D01*
X119494353Y-109400000D01*
X119514834Y-109542456D01*
X119518051Y-109549500D01*
X119574623Y-109673373D01*
X119668872Y-109782143D01*
X119668874Y-109782144D01*
X119668873Y-109782144D01*
X119729622Y-109821185D01*
X119775376Y-109873989D01*
X119785320Y-109943147D01*
X119756295Y-110006703D01*
X119697517Y-110044477D01*
X119662582Y-110049500D01*
X109316544Y-110049500D01*
X109249505Y-110029815D01*
X109228863Y-110013181D01*
X105508805Y-106293123D01*
X105480111Y-106248253D01*
X105453903Y-106177011D01*
X105021103Y-105000500D01*
X104982365Y-104895197D01*
X104980909Y-104891359D01*
X104980906Y-104891353D01*
X104980882Y-104891288D01*
X104980715Y-104890861D01*
X104980713Y-104890858D01*
X104978387Y-104884910D01*
X104978826Y-104884738D01*
X104977579Y-104881667D01*
X104977563Y-104881674D01*
X104975233Y-104876051D01*
X104975232Y-104876046D01*
X104877685Y-104693550D01*
X104792496Y-104589746D01*
X104746410Y-104533589D01*
X104586452Y-104402317D01*
X104586453Y-104402317D01*
X104586450Y-104402315D01*
X104403954Y-104304768D01*
X104205934Y-104244700D01*
X104205932Y-104244699D01*
X104205934Y-104244699D01*
X104000000Y-104224417D01*
X103794067Y-104244699D01*
X103596043Y-104304769D01*
X103536474Y-104336610D01*
X103413550Y-104402315D01*
X103413548Y-104402316D01*
X103413547Y-104402317D01*
X103253589Y-104533590D01*
X103219853Y-104574698D01*
X103162108Y-104614032D01*
X103092263Y-104615903D01*
X103032495Y-104579716D01*
X103001779Y-104516960D01*
X103000000Y-104496033D01*
X103000000Y-103523966D01*
X103019685Y-103456927D01*
X103072489Y-103411172D01*
X103141647Y-103401228D01*
X103205203Y-103430253D01*
G37*
G04 #@! TD.AperFunction*
G04 #@! TA.AperFunction,Conductor*
G36*
X143268744Y-103101937D02*
G01*
X144577467Y-103706737D01*
X144581047Y-103708350D01*
X144581466Y-103708534D01*
X144581467Y-103708534D01*
X144587334Y-103711111D01*
X144587156Y-103711514D01*
X144590953Y-103713123D01*
X144596036Y-103715228D01*
X144596041Y-103715229D01*
X144596046Y-103715232D01*
X144794066Y-103775300D01*
X144794065Y-103775300D01*
X144812529Y-103777118D01*
X145000000Y-103795583D01*
X145205934Y-103775300D01*
X145403954Y-103715232D01*
X145586450Y-103617685D01*
X145746410Y-103486410D01*
X145780146Y-103445301D01*
X145837891Y-103405967D01*
X145907736Y-103404096D01*
X145967504Y-103440282D01*
X145998221Y-103503038D01*
X146000000Y-103523966D01*
X146000000Y-104496033D01*
X145980315Y-104563072D01*
X145927511Y-104608827D01*
X145858353Y-104618771D01*
X145794797Y-104589746D01*
X145780147Y-104574698D01*
X145746410Y-104533590D01*
X145586452Y-104402317D01*
X145586453Y-104402317D01*
X145586450Y-104402315D01*
X145403954Y-104304768D01*
X145205934Y-104244700D01*
X145205932Y-104244699D01*
X145205934Y-104244699D01*
X145000000Y-104224417D01*
X144794067Y-104244699D01*
X144596043Y-104304769D01*
X144536474Y-104336610D01*
X144413550Y-104402315D01*
X144413548Y-104402316D01*
X144413547Y-104402317D01*
X144253589Y-104533589D01*
X144122317Y-104693547D01*
X144024765Y-104876050D01*
X144024765Y-104876051D01*
X144023999Y-104878578D01*
X144019698Y-104889583D01*
X143519886Y-106248254D01*
X143491192Y-106293124D01*
X139771137Y-110013181D01*
X139709814Y-110046666D01*
X139683456Y-110049500D01*
X137045543Y-110049500D01*
X136978504Y-110029815D01*
X136932749Y-109977011D01*
X136922805Y-109907853D01*
X136951830Y-109844297D01*
X136957862Y-109837819D01*
X137045181Y-109750500D01*
X137530060Y-109265619D01*
X137555146Y-109246260D01*
X137951291Y-109014643D01*
X137958882Y-109010704D01*
X137960048Y-109009954D01*
X137960053Y-109009953D01*
X138081128Y-108932143D01*
X138175377Y-108823373D01*
X138235165Y-108692457D01*
X138255647Y-108550000D01*
X138235165Y-108407543D01*
X138175377Y-108276627D01*
X138081128Y-108167857D01*
X137960053Y-108090047D01*
X137960051Y-108090046D01*
X137960049Y-108090045D01*
X137951983Y-108086361D01*
X137952987Y-108084161D01*
X137905126Y-108053401D01*
X137876104Y-107989844D01*
X137886049Y-107920686D01*
X137911159Y-107884522D01*
X138680062Y-107115618D01*
X138705149Y-107096259D01*
X139101291Y-106864643D01*
X139108882Y-106860704D01*
X139110048Y-106859954D01*
X139110053Y-106859953D01*
X139231128Y-106782143D01*
X139325377Y-106673373D01*
X139385165Y-106542457D01*
X139405647Y-106400000D01*
X139385165Y-106257543D01*
X139325377Y-106126627D01*
X139231128Y-106017857D01*
X139110053Y-105940047D01*
X139110051Y-105940046D01*
X139110049Y-105940045D01*
X139110050Y-105940045D01*
X138971963Y-105899500D01*
X138971961Y-105899500D01*
X138969757Y-105899500D01*
X138967641Y-105898878D01*
X138963184Y-105898238D01*
X138963276Y-105897596D01*
X138902718Y-105879815D01*
X138856963Y-105827011D01*
X138847019Y-105757853D01*
X138876044Y-105694297D01*
X138882076Y-105687819D01*
X141443076Y-103126819D01*
X141504399Y-103093334D01*
X141530757Y-103090500D01*
X143216727Y-103090500D01*
X143268744Y-103101937D01*
G37*
G04 #@! TD.AperFunction*
G04 #@! TA.AperFunction,Conductor*
G36*
X125092539Y-104519685D02*
G01*
X125138294Y-104572489D01*
X125149500Y-104624000D01*
X125149500Y-104820747D01*
X125150000Y-104830915D01*
X125150000Y-105300000D01*
X125197828Y-105300000D01*
X125197844Y-105299999D01*
X125257372Y-105293598D01*
X125264930Y-105291813D01*
X125265251Y-105293174D01*
X125326602Y-105288784D01*
X125387927Y-105322266D01*
X125421415Y-105383587D01*
X125416749Y-105448864D01*
X125417333Y-105449036D01*
X125416545Y-105451717D01*
X125416434Y-105453279D01*
X125415241Y-105456158D01*
X125414834Y-105457542D01*
X125394353Y-105600000D01*
X125414834Y-105742456D01*
X125453450Y-105827011D01*
X125474623Y-105873373D01*
X125568872Y-105982143D01*
X125689947Y-106059953D01*
X125689950Y-106059954D01*
X125689949Y-106059954D01*
X125828036Y-106100499D01*
X125828038Y-106100500D01*
X125828039Y-106100500D01*
X125971962Y-106100500D01*
X125997701Y-106092941D01*
X126047695Y-106078262D01*
X126075206Y-106073462D01*
X126076744Y-106073370D01*
X126444065Y-105977100D01*
X126513902Y-105979145D01*
X126571550Y-106018624D01*
X126598702Y-106083002D01*
X126599500Y-106097049D01*
X126599500Y-106269748D01*
X126600315Y-106273843D01*
X126610651Y-106325810D01*
X126610651Y-106374190D01*
X126599501Y-106430249D01*
X126599500Y-106430252D01*
X126599500Y-106769748D01*
X126601966Y-106782143D01*
X126610651Y-106825810D01*
X126610651Y-106874190D01*
X126599500Y-106930252D01*
X126599500Y-107269748D01*
X126603011Y-107287399D01*
X126610651Y-107325810D01*
X126610651Y-107374190D01*
X126599500Y-107430252D01*
X126599500Y-107769748D01*
X126603011Y-107787399D01*
X126610651Y-107825810D01*
X126610651Y-107874190D01*
X126599500Y-107930252D01*
X126599500Y-108075500D01*
X126579815Y-108142539D01*
X126527011Y-108188294D01*
X126475500Y-108199500D01*
X126330252Y-108199500D01*
X126274190Y-108210651D01*
X126225810Y-108210651D01*
X126169748Y-108199500D01*
X125830252Y-108199500D01*
X125774190Y-108210651D01*
X125725810Y-108210651D01*
X125669748Y-108199500D01*
X125330252Y-108199500D01*
X125274190Y-108210651D01*
X125225810Y-108210651D01*
X125169748Y-108199500D01*
X124830252Y-108199500D01*
X124774190Y-108210651D01*
X124725810Y-108210651D01*
X124669748Y-108199500D01*
X124330252Y-108199500D01*
X124274190Y-108210651D01*
X124225810Y-108210651D01*
X124169748Y-108199500D01*
X123830252Y-108199500D01*
X123774190Y-108210651D01*
X123725810Y-108210651D01*
X123669748Y-108199500D01*
X123524500Y-108199500D01*
X123457461Y-108179815D01*
X123411706Y-108127011D01*
X123400500Y-108075500D01*
X123400500Y-107930249D01*
X123389349Y-107874192D01*
X123389349Y-107825808D01*
X123400500Y-107769750D01*
X123400500Y-107430249D01*
X123389349Y-107374192D01*
X123389349Y-107325808D01*
X123400500Y-107269750D01*
X123400500Y-106930249D01*
X123389349Y-106874192D01*
X123389349Y-106825808D01*
X123400500Y-106769750D01*
X123400500Y-106430249D01*
X123389349Y-106374192D01*
X123389349Y-106325808D01*
X123400500Y-106269750D01*
X123400500Y-105930249D01*
X123389349Y-105874192D01*
X123389349Y-105825808D01*
X123400500Y-105769750D01*
X123400500Y-105430249D01*
X123389349Y-105374192D01*
X123389349Y-105325808D01*
X123400500Y-105269750D01*
X123400500Y-105124500D01*
X123420185Y-105057461D01*
X123472989Y-105011706D01*
X123524500Y-105000500D01*
X123669750Y-105000500D01*
X123725808Y-104989349D01*
X123774192Y-104989349D01*
X123830249Y-105000500D01*
X123830252Y-105000500D01*
X124169750Y-105000500D01*
X124225808Y-104989349D01*
X124274192Y-104989349D01*
X124336227Y-105001689D01*
X124335686Y-105004405D01*
X124389416Y-105026027D01*
X124411856Y-105049048D01*
X124492812Y-105157190D01*
X124607906Y-105243350D01*
X124607913Y-105243354D01*
X124742620Y-105293596D01*
X124742627Y-105293598D01*
X124802155Y-105299999D01*
X124802172Y-105300000D01*
X124850000Y-105300000D01*
X124850000Y-104830915D01*
X124850500Y-104820747D01*
X124850500Y-104624000D01*
X124870185Y-104556961D01*
X124922989Y-104511206D01*
X124974500Y-104500000D01*
X125025500Y-104500000D01*
X125092539Y-104519685D01*
G37*
G04 #@! TD.AperFunction*
G04 #@! TA.AperFunction,Conductor*
G36*
X129518039Y-71019685D02*
G01*
X129563794Y-71072489D01*
X129575000Y-71124000D01*
X129575000Y-71850000D01*
X132825000Y-71850000D01*
X132825000Y-71124000D01*
X132844685Y-71056961D01*
X132897489Y-71011206D01*
X132949000Y-71000000D01*
X141051000Y-71000000D01*
X141118039Y-71019685D01*
X141163794Y-71072489D01*
X141175000Y-71124000D01*
X141175000Y-71850000D01*
X144425000Y-71850000D01*
X144425000Y-71124000D01*
X144444685Y-71056961D01*
X144497489Y-71011206D01*
X144549000Y-71000000D01*
X144948638Y-71000000D01*
X145015677Y-71019685D01*
X145036319Y-71036319D01*
X145963681Y-71963681D01*
X145997166Y-72025004D01*
X146000000Y-72051362D01*
X146000000Y-86026000D01*
X145980315Y-86093039D01*
X145927511Y-86138794D01*
X145876000Y-86150000D01*
X145250000Y-86150000D01*
X145250000Y-87066988D01*
X145192993Y-87034075D01*
X145065826Y-87000000D01*
X144934174Y-87000000D01*
X144807007Y-87034075D01*
X144750000Y-87066988D01*
X144750000Y-86150000D01*
X144102155Y-86150000D01*
X144042627Y-86156401D01*
X144042620Y-86156403D01*
X143907913Y-86206645D01*
X143907906Y-86206649D01*
X143792812Y-86292809D01*
X143792809Y-86292812D01*
X143706649Y-86407906D01*
X143706645Y-86407913D01*
X143656403Y-86542620D01*
X143656401Y-86542627D01*
X143650000Y-86602155D01*
X143650000Y-87250000D01*
X144566988Y-87250000D01*
X144534075Y-87307007D01*
X144500000Y-87434174D01*
X144500000Y-87565826D01*
X144534075Y-87692993D01*
X144566988Y-87750000D01*
X143650000Y-87750000D01*
X143650000Y-88397844D01*
X143656401Y-88457372D01*
X143656403Y-88457379D01*
X143706645Y-88592086D01*
X143706649Y-88592093D01*
X143792809Y-88707187D01*
X143792812Y-88707190D01*
X143907906Y-88793350D01*
X143907913Y-88793354D01*
X144039986Y-88842614D01*
X144095920Y-88884485D01*
X144120337Y-88949949D01*
X144105486Y-89018222D01*
X144084335Y-89046477D01*
X143961886Y-89168926D01*
X143826400Y-89362420D01*
X143826399Y-89362422D01*
X143726570Y-89576507D01*
X143726567Y-89576513D01*
X143669364Y-89789999D01*
X143669364Y-89790000D01*
X144566988Y-89790000D01*
X144534075Y-89847007D01*
X144500000Y-89974174D01*
X144500000Y-90105826D01*
X144534075Y-90232993D01*
X144566988Y-90290000D01*
X143669364Y-90290000D01*
X143726567Y-90503486D01*
X143726570Y-90503492D01*
X143826399Y-90717578D01*
X143961894Y-90911082D01*
X144128917Y-91078105D01*
X144322421Y-91213600D01*
X144536507Y-91313429D01*
X144536516Y-91313433D01*
X144658649Y-91346158D01*
X144718310Y-91382523D01*
X144748839Y-91445369D01*
X144740545Y-91514745D01*
X144696059Y-91568623D01*
X144662552Y-91584593D01*
X144596046Y-91604767D01*
X144465358Y-91674622D01*
X144413550Y-91702315D01*
X144413548Y-91702316D01*
X144413547Y-91702317D01*
X144253589Y-91833589D01*
X144122317Y-91993547D01*
X144024765Y-92176050D01*
X144024765Y-92176051D01*
X144023999Y-92178578D01*
X144019698Y-92189583D01*
X143519885Y-93548256D01*
X143491191Y-93593126D01*
X131371137Y-105713181D01*
X131309814Y-105746666D01*
X131283456Y-105749500D01*
X127724500Y-105749500D01*
X127657461Y-105729815D01*
X127611706Y-105677011D01*
X127600500Y-105625500D01*
X127600500Y-105574500D01*
X127620185Y-105507461D01*
X127672989Y-105461706D01*
X127724500Y-105450500D01*
X130610612Y-105450500D01*
X130610614Y-105450500D01*
X130699758Y-105426614D01*
X130719375Y-105415288D01*
X130779682Y-105380470D01*
X142280470Y-93879682D01*
X142326614Y-93799758D01*
X142327746Y-93795534D01*
X142350500Y-93710614D01*
X142350500Y-86753984D01*
X142364986Y-86695822D01*
X142414732Y-86602155D01*
X142592036Y-86268306D01*
X142598675Y-86257678D01*
X142599655Y-86255753D01*
X142599658Y-86255751D01*
X142659951Y-86137420D01*
X142659951Y-86137418D01*
X142659952Y-86137417D01*
X142675500Y-86039251D01*
X142675500Y-85535748D01*
X142659952Y-85437582D01*
X142653199Y-85424329D01*
X142599658Y-85319249D01*
X142599654Y-85319245D01*
X142599653Y-85319243D01*
X142505756Y-85225346D01*
X142505753Y-85225344D01*
X142505751Y-85225342D01*
X142387420Y-85165049D01*
X142387419Y-85165048D01*
X142387416Y-85165047D01*
X142387417Y-85165047D01*
X142289251Y-85149500D01*
X142289246Y-85149500D01*
X141710754Y-85149500D01*
X141710749Y-85149500D01*
X141612582Y-85165047D01*
X141515934Y-85214293D01*
X141447265Y-85227189D01*
X141382524Y-85200913D01*
X141354100Y-85168905D01*
X141323885Y-85119919D01*
X141205080Y-85001114D01*
X141075206Y-84921007D01*
X141028482Y-84869059D01*
X141017259Y-84800096D01*
X141045103Y-84736014D01*
X141052623Y-84727786D01*
X141099654Y-84680755D01*
X141099658Y-84680751D01*
X141139516Y-84602524D01*
X141187490Y-84551730D01*
X141255311Y-84534935D01*
X141321445Y-84557472D01*
X141360482Y-84602523D01*
X141400342Y-84680751D01*
X141400344Y-84680753D01*
X141400346Y-84680756D01*
X141494243Y-84774653D01*
X141494245Y-84774654D01*
X141494249Y-84774658D01*
X141612580Y-84834951D01*
X141612581Y-84834951D01*
X141612583Y-84834952D01*
X141612582Y-84834952D01*
X141710749Y-84850500D01*
X141710754Y-84850500D01*
X142289251Y-84850500D01*
X142387417Y-84834952D01*
X142387418Y-84834951D01*
X142387420Y-84834951D01*
X142505751Y-84774658D01*
X142599658Y-84680751D01*
X142659951Y-84562420D01*
X142659951Y-84562418D01*
X142659952Y-84562417D01*
X142675500Y-84464251D01*
X142675500Y-83960748D01*
X142659952Y-83862582D01*
X142639515Y-83822472D01*
X142599658Y-83744249D01*
X142599656Y-83744247D01*
X142598676Y-83742323D01*
X142592039Y-83731695D01*
X142588613Y-83725245D01*
X142523428Y-83602507D01*
X142493947Y-83546997D01*
X142479887Y-83478556D01*
X142495201Y-83428370D01*
X142500725Y-83418481D01*
X142559145Y-83313882D01*
X142579725Y-83286666D01*
X142603048Y-83263344D01*
X142603048Y-83263343D01*
X142603050Y-83263342D01*
X142660646Y-83150304D01*
X142660646Y-83150302D01*
X142660647Y-83150301D01*
X142675499Y-83056524D01*
X142675500Y-83056519D01*
X142675499Y-82593482D01*
X142660646Y-82499696D01*
X142603050Y-82386658D01*
X142603046Y-82386654D01*
X142603045Y-82386652D01*
X142513347Y-82296954D01*
X142513344Y-82296952D01*
X142513342Y-82296950D01*
X142421198Y-82250000D01*
X142400301Y-82239352D01*
X142306524Y-82224500D01*
X141693482Y-82224500D01*
X141612519Y-82237323D01*
X141599696Y-82239354D01*
X141486658Y-82296950D01*
X141486657Y-82296951D01*
X141486652Y-82296954D01*
X141396954Y-82386652D01*
X141396949Y-82386659D01*
X141360483Y-82458226D01*
X141312508Y-82509022D01*
X141244687Y-82525816D01*
X141178552Y-82503278D01*
X141139516Y-82458226D01*
X141103050Y-82386658D01*
X141103047Y-82386655D01*
X141103045Y-82386652D01*
X141013347Y-82296954D01*
X141013344Y-82296952D01*
X141013342Y-82296950D01*
X140921198Y-82250000D01*
X140900301Y-82239352D01*
X140806524Y-82224500D01*
X140193482Y-82224500D01*
X140112519Y-82237323D01*
X140099696Y-82239354D01*
X139986658Y-82296950D01*
X139986657Y-82296951D01*
X139986652Y-82296954D01*
X139896954Y-82386652D01*
X139896951Y-82386657D01*
X139896950Y-82386658D01*
X139896868Y-82386819D01*
X139839352Y-82499698D01*
X139824500Y-82593475D01*
X139824500Y-83056517D01*
X139832207Y-83105178D01*
X139839354Y-83150304D01*
X139896950Y-83263342D01*
X139920274Y-83286666D01*
X139940848Y-83313877D01*
X140004797Y-83428372D01*
X140020301Y-83496498D01*
X140006051Y-83546998D01*
X139907955Y-83731702D01*
X139901323Y-83742322D01*
X139840047Y-83862582D01*
X139824500Y-83960748D01*
X139824500Y-84464251D01*
X139840047Y-84562417D01*
X139852155Y-84586180D01*
X139900342Y-84680751D01*
X139900344Y-84680753D01*
X139900346Y-84680756D01*
X139947377Y-84727787D01*
X139980862Y-84789110D01*
X139975878Y-84858802D01*
X139934006Y-84914735D01*
X139924793Y-84921006D01*
X139794924Y-85001110D01*
X139794920Y-85001113D01*
X139676114Y-85119919D01*
X139587908Y-85262922D01*
X139587906Y-85262927D01*
X139535057Y-85422416D01*
X139525000Y-85520849D01*
X139525000Y-85537500D01*
X140376000Y-85537500D01*
X140443039Y-85557185D01*
X140488794Y-85609989D01*
X140500000Y-85661500D01*
X140500000Y-85787500D01*
X140626000Y-85787500D01*
X140693039Y-85807185D01*
X140738794Y-85859989D01*
X140750000Y-85911500D01*
X140750000Y-86724999D01*
X140804136Y-86724999D01*
X140804152Y-86724998D01*
X140902583Y-86714943D01*
X141062072Y-86662093D01*
X141062077Y-86662091D01*
X141205077Y-86573887D01*
X141325030Y-86453934D01*
X141386353Y-86420449D01*
X141456045Y-86425433D01*
X141511979Y-86467304D01*
X141522225Y-86483453D01*
X141600186Y-86630247D01*
X141619757Y-86667096D01*
X141635013Y-86695822D01*
X141649500Y-86753984D01*
X141649500Y-93467926D01*
X141629815Y-93534965D01*
X141613181Y-93555607D01*
X130455607Y-104713181D01*
X130394284Y-104746666D01*
X130367926Y-104749500D01*
X126974500Y-104749500D01*
X126907461Y-104729815D01*
X126861706Y-104677011D01*
X126850500Y-104625500D01*
X126850500Y-104403649D01*
X126870185Y-104336610D01*
X126886819Y-104315968D01*
X127504618Y-103698169D01*
X128130469Y-103072318D01*
X128176614Y-102992394D01*
X128182528Y-102970321D01*
X128202027Y-102938328D01*
X128198732Y-102928018D01*
X128199759Y-102908875D01*
X128200500Y-102903249D01*
X128200500Y-100871832D01*
X128220185Y-100804793D01*
X128227665Y-100794378D01*
X128712334Y-100188540D01*
X128756721Y-100153637D01*
X129381375Y-99862132D01*
X129433813Y-99850500D01*
X129734854Y-99850500D01*
X129792046Y-99864476D01*
X130298350Y-100127667D01*
X130305370Y-100129987D01*
X130322751Y-100137237D01*
X130366874Y-100159719D01*
X130366876Y-100159720D01*
X130466507Y-100175500D01*
X130466512Y-100175500D01*
X130983493Y-100175500D01*
X131083121Y-100159720D01*
X131083121Y-100159719D01*
X131083126Y-100159719D01*
X131203220Y-100098528D01*
X131222173Y-100079574D01*
X131283494Y-100046090D01*
X131353185Y-100051073D01*
X131409120Y-100092944D01*
X131415392Y-100102159D01*
X131477424Y-100202728D01*
X131477427Y-100202732D01*
X131597267Y-100322572D01*
X131597271Y-100322575D01*
X131741507Y-100411542D01*
X131741518Y-100411547D01*
X131866649Y-100453011D01*
X131924094Y-100492783D01*
X131950917Y-100557299D01*
X131938602Y-100626075D01*
X131915326Y-100658398D01*
X130085545Y-102488181D01*
X130024222Y-102521666D01*
X129997864Y-102524500D01*
X128924234Y-102524500D01*
X128777863Y-102563719D01*
X128646635Y-102639485D01*
X128646632Y-102639487D01*
X128539487Y-102746632D01*
X128539485Y-102746635D01*
X128463719Y-102877865D01*
X128455410Y-102908875D01*
X128442472Y-102957161D01*
X128422971Y-102989153D01*
X128426267Y-102999461D01*
X128425242Y-103018595D01*
X128424500Y-103024232D01*
X128424500Y-103024234D01*
X128424500Y-103175766D01*
X128436473Y-103220449D01*
X128463719Y-103322136D01*
X128486114Y-103360924D01*
X128539485Y-103453365D01*
X128646635Y-103560515D01*
X128777865Y-103636281D01*
X128924234Y-103675500D01*
X128924236Y-103675500D01*
X130363370Y-103675500D01*
X130363372Y-103675500D01*
X130509741Y-103636281D01*
X130640971Y-103560515D01*
X134910515Y-99290971D01*
X134986281Y-99159741D01*
X135025500Y-99013373D01*
X135025500Y-98861840D01*
X135025500Y-86054152D01*
X139525001Y-86054152D01*
X139535056Y-86152583D01*
X139587906Y-86312072D01*
X139587908Y-86312077D01*
X139676114Y-86455080D01*
X139794919Y-86573885D01*
X139937922Y-86662091D01*
X139937927Y-86662093D01*
X140097416Y-86714942D01*
X140195855Y-86724999D01*
X140249999Y-86724998D01*
X140250000Y-86724998D01*
X140250000Y-86037500D01*
X139525001Y-86037500D01*
X139525001Y-86054152D01*
X135025500Y-86054152D01*
X135025500Y-86024234D01*
X135025500Y-85512271D01*
X135045185Y-85445232D01*
X135061814Y-85424594D01*
X135204915Y-85281494D01*
X135219441Y-85265344D01*
X135235899Y-85244977D01*
X135273085Y-85174231D01*
X135292946Y-85107243D01*
X135301422Y-85049370D01*
X135305919Y-83340641D01*
X135307607Y-82699174D01*
X135327468Y-82632186D01*
X135380393Y-82586570D01*
X135431607Y-82575500D01*
X136775764Y-82575500D01*
X136775766Y-82575500D01*
X136922135Y-82536281D01*
X137053365Y-82460515D01*
X137727060Y-81786818D01*
X137788383Y-81753334D01*
X137814741Y-81750500D01*
X140050013Y-81750500D01*
X140089637Y-81760013D01*
X140090412Y-81757630D01*
X140099694Y-81760645D01*
X140099696Y-81760646D01*
X140193481Y-81775500D01*
X140806518Y-81775499D01*
X140900304Y-81760646D01*
X140900309Y-81760643D01*
X140909587Y-81757630D01*
X140910361Y-81760013D01*
X140949986Y-81750500D01*
X141550013Y-81750500D01*
X141589637Y-81760013D01*
X141590412Y-81757630D01*
X141599694Y-81760645D01*
X141599696Y-81760646D01*
X141693481Y-81775500D01*
X142306518Y-81775499D01*
X142400304Y-81760646D01*
X142513342Y-81703050D01*
X142603050Y-81613342D01*
X142660646Y-81500304D01*
X142660646Y-81500302D01*
X142660647Y-81500301D01*
X142675499Y-81406524D01*
X142675500Y-81406519D01*
X142675499Y-80943482D01*
X142660646Y-80849696D01*
X142603050Y-80736658D01*
X142603046Y-80736654D01*
X142603045Y-80736652D01*
X142513347Y-80646954D01*
X142513344Y-80646952D01*
X142513342Y-80646950D01*
X142420217Y-80599500D01*
X142400301Y-80589352D01*
X142306524Y-80574500D01*
X141693482Y-80574500D01*
X141624847Y-80585370D01*
X141599696Y-80589354D01*
X141599694Y-80589354D01*
X141599692Y-80589355D01*
X141590413Y-80592370D01*
X141589638Y-80589986D01*
X141550014Y-80599500D01*
X140949987Y-80599500D01*
X140910362Y-80589986D01*
X140909588Y-80592370D01*
X140900303Y-80589353D01*
X140805101Y-80574274D01*
X140741967Y-80544344D01*
X140705036Y-80485032D01*
X140700500Y-80451801D01*
X140700500Y-76010165D01*
X140709941Y-75962706D01*
X140713863Y-75953236D01*
X140713867Y-75953231D01*
X140715594Y-75944552D01*
X140721622Y-75914242D01*
X140725500Y-75894748D01*
X140725500Y-74105252D01*
X140725500Y-74105249D01*
X140725499Y-74105247D01*
X140713868Y-74046770D01*
X140713867Y-74046769D01*
X140669552Y-73980447D01*
X140603230Y-73936132D01*
X140603229Y-73936131D01*
X140544752Y-73924500D01*
X140544748Y-73924500D01*
X139705252Y-73924500D01*
X139705247Y-73924500D01*
X139646770Y-73936131D01*
X139646769Y-73936132D01*
X139570293Y-73987233D01*
X139568078Y-73983918D01*
X139526358Y-74006699D01*
X139456666Y-74001715D01*
X139431036Y-73985243D01*
X139429707Y-73987233D01*
X139353230Y-73936132D01*
X139353229Y-73936131D01*
X139294752Y-73924500D01*
X139294748Y-73924500D01*
X138455252Y-73924500D01*
X138455247Y-73924500D01*
X138396770Y-73936131D01*
X138396769Y-73936132D01*
X138320293Y-73987233D01*
X138318078Y-73983918D01*
X138276358Y-74006699D01*
X138206666Y-74001715D01*
X138181036Y-73985243D01*
X138179707Y-73987233D01*
X138103230Y-73936132D01*
X138103229Y-73936131D01*
X138044752Y-73924500D01*
X138044748Y-73924500D01*
X137311556Y-73924500D01*
X137244517Y-73904815D01*
X137212290Y-73874811D01*
X137132190Y-73767812D01*
X137132187Y-73767809D01*
X137072122Y-73722844D01*
X141175000Y-73722844D01*
X141181401Y-73782372D01*
X141181403Y-73782379D01*
X141231645Y-73917086D01*
X141231649Y-73917093D01*
X141317809Y-74032187D01*
X141317812Y-74032190D01*
X141432906Y-74118350D01*
X141432913Y-74118354D01*
X141567620Y-74168596D01*
X141567627Y-74168598D01*
X141627155Y-74174999D01*
X141627172Y-74175000D01*
X142550000Y-74175000D01*
X143050000Y-74175000D01*
X143972828Y-74175000D01*
X143972844Y-74174999D01*
X144032372Y-74168598D01*
X144032379Y-74168596D01*
X144167086Y-74118354D01*
X144167093Y-74118350D01*
X144282187Y-74032190D01*
X144282190Y-74032187D01*
X144368350Y-73917093D01*
X144368354Y-73917086D01*
X144418596Y-73782379D01*
X144418598Y-73782372D01*
X144424999Y-73722844D01*
X144425000Y-73722827D01*
X144425000Y-72350000D01*
X143050000Y-72350000D01*
X143050000Y-74175000D01*
X142550000Y-74175000D01*
X142550000Y-72350000D01*
X141175000Y-72350000D01*
X141175000Y-73722844D01*
X137072122Y-73722844D01*
X137017093Y-73681649D01*
X137017086Y-73681645D01*
X136882379Y-73631403D01*
X136882372Y-73631401D01*
X136822844Y-73625000D01*
X136625000Y-73625000D01*
X136625000Y-76375000D01*
X136822828Y-76375000D01*
X136822844Y-76374999D01*
X136882372Y-76368598D01*
X136882379Y-76368596D01*
X137017086Y-76318354D01*
X137017089Y-76318352D01*
X137074432Y-76275425D01*
X137139896Y-76251007D01*
X137208169Y-76265858D01*
X137253889Y-76308961D01*
X137255645Y-76311770D01*
X137274500Y-76377500D01*
X137274500Y-79038461D01*
X137270449Y-79069895D01*
X137151629Y-79523254D01*
X137151629Y-79523255D01*
X137150360Y-79528098D01*
X137149932Y-79527985D01*
X137142632Y-79551416D01*
X137139836Y-79557539D01*
X137139835Y-79557543D01*
X137119353Y-79700000D01*
X137139834Y-79842456D01*
X137174615Y-79918614D01*
X137199623Y-79973373D01*
X137293872Y-80082143D01*
X137414947Y-80159953D01*
X137414950Y-80159954D01*
X137414949Y-80159954D01*
X137553036Y-80200499D01*
X137553038Y-80200500D01*
X137553039Y-80200500D01*
X137696962Y-80200500D01*
X137696962Y-80200499D01*
X137835053Y-80159953D01*
X137956128Y-80082143D01*
X138050377Y-79973373D01*
X138110165Y-79842457D01*
X138127262Y-79723542D01*
X138138014Y-79699999D01*
X138127262Y-79676456D01*
X138110165Y-79557546D01*
X138110165Y-79557544D01*
X138110163Y-79557539D01*
X138107445Y-79551588D01*
X138100616Y-79528966D01*
X138099915Y-79529150D01*
X137979551Y-79069898D01*
X137975500Y-79038461D01*
X137975500Y-76377499D01*
X137994348Y-76311779D01*
X138001710Y-76300000D01*
X138144848Y-76070977D01*
X138197070Y-76024563D01*
X138266098Y-76013748D01*
X138330014Y-76041970D01*
X138355151Y-76070979D01*
X138505652Y-76311780D01*
X138524500Y-76377500D01*
X138524500Y-79038461D01*
X138520449Y-79069895D01*
X138401629Y-79523254D01*
X138401629Y-79523255D01*
X138400360Y-79528098D01*
X138399932Y-79527985D01*
X138392632Y-79551416D01*
X138389836Y-79557539D01*
X138389835Y-79557543D01*
X138372738Y-79676456D01*
X138361986Y-79699999D01*
X138372738Y-79723543D01*
X138389834Y-79842456D01*
X138424615Y-79918614D01*
X138449623Y-79973373D01*
X138543872Y-80082143D01*
X138664947Y-80159953D01*
X138664950Y-80159954D01*
X138664949Y-80159954D01*
X138803036Y-80200499D01*
X138803038Y-80200500D01*
X138803039Y-80200500D01*
X138946962Y-80200500D01*
X138946962Y-80200499D01*
X139085053Y-80159953D01*
X139206128Y-80082143D01*
X139300377Y-79973373D01*
X139312706Y-79946375D01*
X139358460Y-79893573D01*
X139425499Y-79873888D01*
X139492539Y-79893572D01*
X139538294Y-79946376D01*
X139549500Y-79997888D01*
X139549500Y-80475500D01*
X139529815Y-80542539D01*
X139477011Y-80588294D01*
X139425500Y-80599500D01*
X137449233Y-80599500D01*
X137317474Y-80634803D01*
X137317475Y-80634804D01*
X137302864Y-80638719D01*
X137171635Y-80714485D01*
X137171632Y-80714487D01*
X136497939Y-81388181D01*
X136436616Y-81421666D01*
X136410258Y-81424500D01*
X135431192Y-81424500D01*
X135364153Y-81404815D01*
X135318398Y-81352011D01*
X135308054Y-81315098D01*
X135306206Y-81299511D01*
X135306206Y-81299509D01*
X135280043Y-81220849D01*
X135280042Y-81220848D01*
X135280042Y-81220846D01*
X135245070Y-81160356D01*
X135209965Y-81115771D01*
X135208889Y-81114404D01*
X135208882Y-81114397D01*
X135073436Y-80985401D01*
X135073430Y-80985396D01*
X135058688Y-80972634D01*
X135040210Y-80958112D01*
X134971126Y-80922510D01*
X134971125Y-80922509D01*
X134971124Y-80922509D01*
X134904094Y-80902826D01*
X134897160Y-80901829D01*
X134846189Y-80894500D01*
X134147151Y-80894500D01*
X134147146Y-80894500D01*
X134134142Y-80895197D01*
X134066145Y-80879129D01*
X134017629Y-80828849D01*
X134003999Y-80760322D01*
X134004764Y-80753751D01*
X134005500Y-80748638D01*
X134005500Y-79551362D01*
X134004322Y-79529393D01*
X134001488Y-79503035D01*
X133977529Y-79426518D01*
X133944044Y-79365195D01*
X133944039Y-79365188D01*
X133909001Y-79318384D01*
X133908998Y-79318381D01*
X133908991Y-79318371D01*
X133881629Y-79291009D01*
X133881628Y-79291008D01*
X133881623Y-79291003D01*
X133865283Y-79276325D01*
X133865269Y-79276313D01*
X133844620Y-79259672D01*
X133773580Y-79222512D01*
X133773573Y-79222509D01*
X133733947Y-79210873D01*
X133714429Y-79203300D01*
X133701393Y-79196927D01*
X133701388Y-79196925D01*
X133633261Y-79187000D01*
X133633260Y-79187000D01*
X133266740Y-79187000D01*
X133266739Y-79187000D01*
X133224159Y-79193204D01*
X133206281Y-79194500D01*
X131495248Y-79194500D01*
X131428209Y-79174815D01*
X131382454Y-79122011D01*
X131372510Y-79052853D01*
X131401535Y-78989297D01*
X131460313Y-78951523D01*
X131463811Y-78950551D01*
X131565117Y-78924000D01*
X131830103Y-78854550D01*
X131861538Y-78850500D01*
X133846142Y-78850500D01*
X133846144Y-78850500D01*
X133935288Y-78826614D01*
X133945493Y-78820722D01*
X134015212Y-78780470D01*
X135405470Y-77390212D01*
X135451614Y-77310288D01*
X135458699Y-77283848D01*
X135460244Y-77278083D01*
X135469934Y-77241916D01*
X135475500Y-77221144D01*
X135475500Y-76377497D01*
X135494341Y-76311790D01*
X135496099Y-76308977D01*
X135548315Y-76262559D01*
X135617341Y-76251738D01*
X135675566Y-76275424D01*
X135732910Y-76318352D01*
X135732913Y-76318354D01*
X135867620Y-76368596D01*
X135867627Y-76368598D01*
X135927155Y-76374999D01*
X135927172Y-76375000D01*
X136125000Y-76375000D01*
X136125000Y-73625000D01*
X135927155Y-73625000D01*
X135867627Y-73631401D01*
X135867620Y-73631403D01*
X135732913Y-73681645D01*
X135732906Y-73681649D01*
X135617812Y-73767809D01*
X135617809Y-73767812D01*
X135537710Y-73874811D01*
X135481777Y-73916682D01*
X135438444Y-73924500D01*
X134705247Y-73924500D01*
X134646770Y-73936131D01*
X134646769Y-73936132D01*
X134570293Y-73987233D01*
X134568078Y-73983918D01*
X134526358Y-74006699D01*
X134456666Y-74001715D01*
X134431036Y-73985243D01*
X134429707Y-73987233D01*
X134353230Y-73936132D01*
X134353229Y-73936131D01*
X134294752Y-73924500D01*
X134294748Y-73924500D01*
X133455252Y-73924500D01*
X133455247Y-73924500D01*
X133396770Y-73936131D01*
X133396769Y-73936132D01*
X133330447Y-73980447D01*
X133286132Y-74046769D01*
X133286131Y-74046770D01*
X133274500Y-74105247D01*
X133274500Y-75896241D01*
X133274288Y-75903492D01*
X133274175Y-75905422D01*
X133275653Y-75914254D01*
X133275736Y-75914474D01*
X133277742Y-75919766D01*
X133283401Y-75939499D01*
X133286133Y-75953231D01*
X133286134Y-75953232D01*
X133288195Y-75956317D01*
X133301042Y-75981260D01*
X133304067Y-75989242D01*
X133304071Y-75989250D01*
X133304071Y-75989251D01*
X133400640Y-76143762D01*
X133505652Y-76311780D01*
X133524500Y-76377500D01*
X133524500Y-76528456D01*
X133504815Y-76595495D01*
X133488181Y-76616137D01*
X132733920Y-77370398D01*
X132672597Y-77403883D01*
X132646239Y-77406717D01*
X131304323Y-77406717D01*
X131272886Y-77402666D01*
X131225371Y-77390213D01*
X131071950Y-77350003D01*
X130819535Y-77283848D01*
X130819523Y-77283845D01*
X130813001Y-77283225D01*
X130789819Y-77278760D01*
X130714746Y-77256717D01*
X130714744Y-77256717D01*
X130570822Y-77256717D01*
X130570819Y-77256717D01*
X130432732Y-77297262D01*
X130311656Y-77375073D01*
X130217406Y-77483843D01*
X130217405Y-77483845D01*
X130157617Y-77614760D01*
X130137136Y-77757217D01*
X130157617Y-77899673D01*
X130210082Y-78014553D01*
X130217406Y-78030590D01*
X130311655Y-78139360D01*
X130432730Y-78217170D01*
X130432733Y-78217171D01*
X130432732Y-78217171D01*
X130518067Y-78242227D01*
X130546239Y-78250499D01*
X130570819Y-78257716D01*
X130570821Y-78257717D01*
X130586084Y-78257717D01*
X130653123Y-78277402D01*
X130698878Y-78330206D01*
X130708822Y-78399364D01*
X130694353Y-78499999D01*
X130714834Y-78642456D01*
X130721203Y-78656401D01*
X130774623Y-78773373D01*
X130868872Y-78882143D01*
X130976830Y-78951523D01*
X130997407Y-78964747D01*
X130995885Y-78967114D01*
X131037834Y-79003468D01*
X131057514Y-79070509D01*
X131037825Y-79137547D01*
X130985017Y-79183298D01*
X130933514Y-79194500D01*
X129029270Y-79194500D01*
X128982057Y-79199997D01*
X128982049Y-79199998D01*
X128926599Y-79213088D01*
X128915595Y-79217078D01*
X128873338Y-79224500D01*
X127843295Y-79224500D01*
X127776256Y-79204815D01*
X127755614Y-79188181D01*
X127361819Y-78794386D01*
X127328334Y-78733063D01*
X127325500Y-78706705D01*
X127325500Y-75923090D01*
X127345185Y-75856051D01*
X127397989Y-75810296D01*
X127467147Y-75800352D01*
X127530703Y-75829377D01*
X127555039Y-75857994D01*
X127607682Y-75943343D01*
X127731654Y-76067315D01*
X127880875Y-76159356D01*
X127880880Y-76159358D01*
X128047302Y-76214505D01*
X128047309Y-76214506D01*
X128150019Y-76224999D01*
X128700000Y-76224999D01*
X128749972Y-76224999D01*
X128749986Y-76224998D01*
X128852697Y-76214505D01*
X129019119Y-76159358D01*
X129019124Y-76159356D01*
X129168345Y-76067315D01*
X129292315Y-75943345D01*
X129384356Y-75794124D01*
X129384358Y-75794119D01*
X129439505Y-75627697D01*
X129439506Y-75627690D01*
X129449999Y-75524986D01*
X129450000Y-75524973D01*
X129450000Y-75250000D01*
X128700000Y-75250000D01*
X128700000Y-76224999D01*
X128150019Y-76224999D01*
X128199999Y-76224998D01*
X128200000Y-76224998D01*
X128200000Y-74750000D01*
X128700000Y-74750000D01*
X129449999Y-74750000D01*
X129449999Y-74475028D01*
X129449998Y-74475013D01*
X129439505Y-74372302D01*
X129384358Y-74205880D01*
X129384356Y-74205875D01*
X129292315Y-74056654D01*
X129168345Y-73932684D01*
X129019124Y-73840643D01*
X129019119Y-73840641D01*
X128852697Y-73785494D01*
X128852690Y-73785493D01*
X128749986Y-73775000D01*
X128700000Y-73775000D01*
X128700000Y-74750000D01*
X128200000Y-74750000D01*
X128200000Y-73775000D01*
X128199999Y-73774999D01*
X128150029Y-73775000D01*
X128150011Y-73775001D01*
X128047302Y-73785494D01*
X127880880Y-73840641D01*
X127880875Y-73840643D01*
X127731654Y-73932684D01*
X127607684Y-74056654D01*
X127515643Y-74205875D01*
X127515641Y-74205880D01*
X127459905Y-74374082D01*
X127420132Y-74431527D01*
X127355617Y-74458350D01*
X127286841Y-74446035D01*
X127235641Y-74398492D01*
X127225158Y-74376033D01*
X127202793Y-74312119D01*
X127202792Y-74312117D01*
X127122150Y-74202850D01*
X127012882Y-74122207D01*
X127012880Y-74122206D01*
X126884700Y-74077353D01*
X126854270Y-74074500D01*
X126854266Y-74074500D01*
X126843296Y-74074500D01*
X126776257Y-74054815D01*
X126755615Y-74038181D01*
X126440278Y-73722844D01*
X129575000Y-73722844D01*
X129581401Y-73782372D01*
X129581403Y-73782379D01*
X129631645Y-73917086D01*
X129631649Y-73917093D01*
X129717809Y-74032187D01*
X129717812Y-74032190D01*
X129832906Y-74118350D01*
X129832913Y-74118354D01*
X129967620Y-74168596D01*
X129967627Y-74168598D01*
X130027155Y-74174999D01*
X130027172Y-74175000D01*
X130950000Y-74175000D01*
X131450000Y-74175000D01*
X132372828Y-74175000D01*
X132372844Y-74174999D01*
X132432372Y-74168598D01*
X132432379Y-74168596D01*
X132567086Y-74118354D01*
X132567093Y-74118350D01*
X132682187Y-74032190D01*
X132682190Y-74032187D01*
X132768350Y-73917093D01*
X132768354Y-73917086D01*
X132818596Y-73782379D01*
X132818598Y-73782372D01*
X132824999Y-73722844D01*
X132825000Y-73722827D01*
X132825000Y-72350000D01*
X131450000Y-72350000D01*
X131450000Y-74175000D01*
X130950000Y-74175000D01*
X130950000Y-72350000D01*
X129575000Y-72350000D01*
X129575000Y-73722844D01*
X126440278Y-73722844D01*
X125611819Y-72894385D01*
X125578334Y-72833062D01*
X125575500Y-72806704D01*
X125575500Y-71418692D01*
X125543777Y-71259217D01*
X125543776Y-71259211D01*
X125534937Y-71237872D01*
X125525500Y-71190424D01*
X125525500Y-71124000D01*
X125545185Y-71056961D01*
X125597989Y-71011206D01*
X125649500Y-71000000D01*
X129451000Y-71000000D01*
X129518039Y-71019685D01*
G37*
G04 #@! TD.AperFunction*
G04 #@! TA.AperFunction,Conductor*
G36*
X107843039Y-71019685D02*
G01*
X107888794Y-71072489D01*
X107900000Y-71124000D01*
X107900000Y-71850000D01*
X111000000Y-71850000D01*
X111000000Y-71124000D01*
X111019685Y-71056961D01*
X111072489Y-71011206D01*
X111124000Y-71000000D01*
X116626000Y-71000000D01*
X116693039Y-71019685D01*
X116738794Y-71072489D01*
X116750000Y-71124000D01*
X116750000Y-71850000D01*
X119850000Y-71850000D01*
X119850000Y-71124000D01*
X119869685Y-71056961D01*
X119922489Y-71011206D01*
X119974000Y-71000000D01*
X120070500Y-71000000D01*
X120137539Y-71019685D01*
X120183294Y-71072489D01*
X120194500Y-71124000D01*
X120194500Y-72763518D01*
X120174815Y-72830557D01*
X120158181Y-72851199D01*
X120061681Y-72947699D01*
X120000358Y-72981184D01*
X119930666Y-72976200D01*
X119874733Y-72934328D01*
X119850316Y-72868864D01*
X119850000Y-72860018D01*
X119850000Y-72350000D01*
X116750000Y-72350000D01*
X116750000Y-73647844D01*
X116756401Y-73707372D01*
X116756403Y-73707380D01*
X116763783Y-73727165D01*
X116768769Y-73796856D01*
X116735285Y-73858180D01*
X116673962Y-73891666D01*
X116647602Y-73894500D01*
X115451361Y-73894500D01*
X115429381Y-73895678D01*
X115403034Y-73898511D01*
X115403032Y-73898512D01*
X115326521Y-73922470D01*
X115326516Y-73922471D01*
X115265188Y-73955960D01*
X115218384Y-73990998D01*
X115218370Y-73991010D01*
X115191001Y-74018378D01*
X115187061Y-74022765D01*
X115127617Y-74059482D01*
X115057758Y-74058232D01*
X115025925Y-74043001D01*
X114978230Y-74011132D01*
X114978229Y-74011131D01*
X114919752Y-73999500D01*
X114919748Y-73999500D01*
X114080252Y-73999500D01*
X114080247Y-73999500D01*
X114021770Y-74011131D01*
X114021769Y-74011132D01*
X113945293Y-74062233D01*
X113943078Y-74058918D01*
X113901358Y-74081699D01*
X113831666Y-74076715D01*
X113806036Y-74060243D01*
X113804707Y-74062233D01*
X113728230Y-74011132D01*
X113728229Y-74011131D01*
X113669752Y-73999500D01*
X113669748Y-73999500D01*
X112936556Y-73999500D01*
X112869517Y-73979815D01*
X112837290Y-73949811D01*
X112757190Y-73842812D01*
X112757187Y-73842809D01*
X112642093Y-73756649D01*
X112642086Y-73756645D01*
X112507379Y-73706403D01*
X112507372Y-73706401D01*
X112447844Y-73700000D01*
X112250000Y-73700000D01*
X112250000Y-76300000D01*
X112447828Y-76300000D01*
X112447844Y-76299999D01*
X112507372Y-76293598D01*
X112507379Y-76293596D01*
X112642086Y-76243354D01*
X112642093Y-76243350D01*
X112757187Y-76157190D01*
X112757190Y-76157187D01*
X112837290Y-76050189D01*
X112893223Y-76008318D01*
X112936556Y-76000500D01*
X113669750Y-76000500D01*
X113669751Y-76000499D01*
X113689418Y-75996587D01*
X113728228Y-75988868D01*
X113728228Y-75988867D01*
X113728231Y-75988867D01*
X113794552Y-75944552D01*
X113794553Y-75944549D01*
X113796509Y-75943243D01*
X113863186Y-75922364D01*
X113930567Y-75940847D01*
X113970554Y-75980624D01*
X114130652Y-76236780D01*
X114149500Y-76302500D01*
X114149500Y-76846145D01*
X114162464Y-76894529D01*
X114173384Y-76935283D01*
X114173387Y-76935290D01*
X114219527Y-77015208D01*
X114219529Y-77015211D01*
X114219530Y-77015212D01*
X115384788Y-78180470D01*
X115451311Y-78218877D01*
X115464712Y-78226614D01*
X115553856Y-78250500D01*
X115553858Y-78250500D01*
X120896142Y-78250500D01*
X120896144Y-78250500D01*
X120985288Y-78226614D01*
X120998689Y-78218877D01*
X121065212Y-78180470D01*
X121440236Y-77805444D01*
X121445540Y-77800445D01*
X121458309Y-77789099D01*
X121458314Y-77789095D01*
X121458539Y-77788797D01*
X121469723Y-77775957D01*
X121630470Y-77615212D01*
X121645706Y-77588823D01*
X121696272Y-77540607D01*
X121764879Y-77527383D01*
X121829744Y-77553351D01*
X121852360Y-77576511D01*
X121882813Y-77617190D01*
X121997906Y-77703350D01*
X121997913Y-77703354D01*
X122132620Y-77753596D01*
X122132627Y-77753598D01*
X122192155Y-77759999D01*
X122192172Y-77760000D01*
X122370000Y-77760000D01*
X122870000Y-77760000D01*
X123047828Y-77760000D01*
X123047844Y-77759999D01*
X123107372Y-77753598D01*
X123107379Y-77753596D01*
X123242086Y-77703354D01*
X123242093Y-77703350D01*
X123357187Y-77617190D01*
X123357190Y-77617187D01*
X123443350Y-77502093D01*
X123443354Y-77502086D01*
X123493596Y-77367379D01*
X123493598Y-77367372D01*
X123499999Y-77307844D01*
X123500000Y-77307827D01*
X123500000Y-76430000D01*
X122870000Y-76430000D01*
X122870000Y-77760000D01*
X122370000Y-77760000D01*
X122370000Y-75930000D01*
X122870000Y-75930000D01*
X123500000Y-75930000D01*
X123500000Y-75052172D01*
X123499999Y-75052155D01*
X123493598Y-74992627D01*
X123493596Y-74992620D01*
X123443354Y-74857913D01*
X123443350Y-74857906D01*
X123357190Y-74742812D01*
X123357187Y-74742809D01*
X123242093Y-74656649D01*
X123242086Y-74656645D01*
X123107379Y-74606403D01*
X123107372Y-74606401D01*
X123047844Y-74600000D01*
X122870000Y-74600000D01*
X122870000Y-75930000D01*
X122370000Y-75930000D01*
X122370000Y-74600000D01*
X122189983Y-74600000D01*
X122122944Y-74580315D01*
X122077189Y-74527511D01*
X122067245Y-74458353D01*
X122096270Y-74394797D01*
X122102302Y-74388319D01*
X122208986Y-74281635D01*
X122208987Y-74281633D01*
X122223674Y-74265283D01*
X122223693Y-74265262D01*
X122240327Y-74244620D01*
X122277490Y-74173575D01*
X122297175Y-74106536D01*
X122305500Y-74048638D01*
X122305500Y-71124000D01*
X122325185Y-71056961D01*
X122377989Y-71011206D01*
X122429500Y-71000000D01*
X123850500Y-71000000D01*
X123917539Y-71019685D01*
X123963294Y-71072489D01*
X123974500Y-71124000D01*
X123974500Y-71190424D01*
X123965062Y-71237872D01*
X123958135Y-71254597D01*
X123956223Y-71259214D01*
X123956222Y-71259217D01*
X123924500Y-71418692D01*
X123924500Y-71418695D01*
X123924500Y-73118695D01*
X123924500Y-73281305D01*
X123924500Y-73281307D01*
X123924499Y-73281307D01*
X123956222Y-73440783D01*
X123956225Y-73440793D01*
X124018450Y-73591019D01*
X124018452Y-73591023D01*
X124108788Y-73726220D01*
X124108794Y-73726228D01*
X125638181Y-75255614D01*
X125671666Y-75316937D01*
X125674500Y-75343295D01*
X125674500Y-77950500D01*
X125654815Y-78017539D01*
X125602011Y-78063294D01*
X125550500Y-78074500D01*
X122318693Y-78074500D01*
X122159216Y-78106222D01*
X122159206Y-78106225D01*
X122008980Y-78168450D01*
X122008976Y-78168452D01*
X121873779Y-78258788D01*
X121873771Y-78258794D01*
X119316128Y-80816439D01*
X118473775Y-81658792D01*
X118432567Y-81700000D01*
X118358790Y-81773776D01*
X118358788Y-81773779D01*
X118268452Y-81908976D01*
X118268450Y-81908980D01*
X118206225Y-82059206D01*
X118206222Y-82059216D01*
X118174500Y-82218692D01*
X118174500Y-85699332D01*
X118154815Y-85766371D01*
X118102011Y-85812126D01*
X118032853Y-85822070D01*
X118022370Y-85819730D01*
X118022363Y-85819770D01*
X118014229Y-85818135D01*
X118007491Y-85816780D01*
X117997001Y-85814192D01*
X117946961Y-85799500D01*
X117946960Y-85799500D01*
X117933830Y-85799500D01*
X117909400Y-85797069D01*
X117892504Y-85793673D01*
X117847469Y-85773213D01*
X117847250Y-85773593D01*
X117843355Y-85771344D01*
X117841446Y-85770477D01*
X117840209Y-85769528D01*
X117760290Y-85723387D01*
X117760289Y-85723386D01*
X117760288Y-85723386D01*
X117753436Y-85721550D01*
X117753432Y-85721548D01*
X117689576Y-85704438D01*
X117671144Y-85699500D01*
X117671143Y-85699500D01*
X117551824Y-85699500D01*
X117522339Y-85695943D01*
X117519024Y-85695131D01*
X117357215Y-85672015D01*
X117357209Y-85672014D01*
X117302766Y-85671525D01*
X117302765Y-85671525D01*
X117302761Y-85671525D01*
X117302755Y-85671525D01*
X117302750Y-85671526D01*
X117292578Y-85672793D01*
X117292561Y-85672664D01*
X117273329Y-85674500D01*
X116847933Y-85674500D01*
X116780894Y-85654815D01*
X116735139Y-85602011D01*
X116731751Y-85593832D01*
X116718355Y-85557915D01*
X116718350Y-85557906D01*
X116632190Y-85442812D01*
X116632187Y-85442809D01*
X116517093Y-85356649D01*
X116517086Y-85356645D01*
X116382379Y-85306403D01*
X116382372Y-85306401D01*
X116322844Y-85300000D01*
X115700000Y-85300000D01*
X115700000Y-88750000D01*
X116322828Y-88750000D01*
X116322841Y-88749999D01*
X116356910Y-88746336D01*
X116425670Y-88758740D01*
X116476808Y-88806350D01*
X116494088Y-88874049D01*
X116472024Y-88940343D01*
X116437207Y-88973940D01*
X116368874Y-89017855D01*
X116274623Y-89126626D01*
X116274622Y-89126628D01*
X116214834Y-89257543D01*
X116194353Y-89400000D01*
X116194353Y-89401000D01*
X116194071Y-89401958D01*
X116193091Y-89408778D01*
X116192110Y-89408637D01*
X116174668Y-89468039D01*
X116121864Y-89513794D01*
X116076292Y-89523707D01*
X116075000Y-89525000D01*
X116075000Y-90250000D01*
X116724999Y-90250000D01*
X116724999Y-90168417D01*
X116718591Y-90097897D01*
X116718591Y-90097895D01*
X116704214Y-90051758D01*
X116703062Y-89981897D01*
X116739862Y-89922504D01*
X116787663Y-89895889D01*
X116847694Y-89878262D01*
X116875206Y-89873462D01*
X116876744Y-89873370D01*
X117330103Y-89754550D01*
X117361538Y-89750500D01*
X117746142Y-89750500D01*
X117746144Y-89750500D01*
X117835288Y-89726614D01*
X117845493Y-89720722D01*
X117915212Y-89680470D01*
X118280470Y-89315212D01*
X118326614Y-89235288D01*
X118326615Y-89235283D01*
X118330296Y-89228908D01*
X118380862Y-89180692D01*
X118449469Y-89167468D01*
X118476688Y-89173201D01*
X118602393Y-89214855D01*
X118701683Y-89224999D01*
X119250000Y-89224999D01*
X119298308Y-89224999D01*
X119298322Y-89224998D01*
X119397607Y-89214855D01*
X119558481Y-89161547D01*
X119558492Y-89161542D01*
X119702728Y-89072575D01*
X119702732Y-89072572D01*
X119822572Y-88952732D01*
X119822575Y-88952728D01*
X119911542Y-88808492D01*
X119911547Y-88808481D01*
X119964855Y-88647606D01*
X119974999Y-88548322D01*
X119975000Y-88548309D01*
X119975000Y-88525000D01*
X119250000Y-88525000D01*
X119250000Y-89224999D01*
X118701683Y-89224999D01*
X118749999Y-89224998D01*
X118750000Y-89224998D01*
X118750000Y-88399000D01*
X118769685Y-88331961D01*
X118822489Y-88286206D01*
X118874000Y-88275000D01*
X119000000Y-88275000D01*
X119000000Y-88149000D01*
X119019685Y-88081961D01*
X119072489Y-88036206D01*
X119124000Y-88025000D01*
X119974999Y-88025000D01*
X119974999Y-88001692D01*
X119974998Y-88001677D01*
X119964855Y-87902392D01*
X119911547Y-87741518D01*
X119911542Y-87741507D01*
X119822575Y-87597271D01*
X119822572Y-87597267D01*
X119702731Y-87477426D01*
X119658247Y-87449988D01*
X119611523Y-87398040D01*
X119600302Y-87329077D01*
X119628145Y-87264995D01*
X119635657Y-87256775D01*
X119641208Y-87251225D01*
X119641210Y-87251221D01*
X119643310Y-87248663D01*
X119643091Y-87248507D01*
X119645820Y-87244675D01*
X119681650Y-87194360D01*
X119685850Y-87186046D01*
X119693413Y-87173091D01*
X119731548Y-87116021D01*
X119793776Y-86965789D01*
X119807907Y-86894748D01*
X119825500Y-86806307D01*
X119825500Y-86443475D01*
X120324500Y-86443475D01*
X120324500Y-86906517D01*
X120331899Y-86953231D01*
X120339354Y-87000304D01*
X120396950Y-87113342D01*
X120396952Y-87113344D01*
X120396954Y-87113347D01*
X120486652Y-87203045D01*
X120486654Y-87203046D01*
X120486658Y-87203050D01*
X120592077Y-87256764D01*
X120599698Y-87260647D01*
X120693475Y-87275499D01*
X120693481Y-87275500D01*
X121306518Y-87275499D01*
X121400304Y-87260646D01*
X121513342Y-87203050D01*
X121603050Y-87113342D01*
X121660646Y-87000304D01*
X121660646Y-87000302D01*
X121660647Y-87000301D01*
X121675499Y-86906524D01*
X121675500Y-86906519D01*
X121675499Y-86443482D01*
X121660646Y-86349696D01*
X121603050Y-86236658D01*
X121575324Y-86208932D01*
X121560554Y-86191105D01*
X121557660Y-86186860D01*
X121471560Y-86083923D01*
X121443648Y-86019872D01*
X121454796Y-85950897D01*
X121478988Y-85916693D01*
X121630470Y-85765212D01*
X121676614Y-85685288D01*
X121682206Y-85664417D01*
X121700500Y-85596144D01*
X121700500Y-85360210D01*
X121718418Y-85296003D01*
X121719555Y-85294124D01*
X121878918Y-85030828D01*
X121930470Y-84983670D01*
X121999336Y-84971869D01*
X122063650Y-84999172D01*
X122091079Y-85030826D01*
X122250441Y-85294119D01*
X122251582Y-85296004D01*
X122269500Y-85360212D01*
X122269500Y-85603644D01*
X122291376Y-85685288D01*
X122292381Y-85689038D01*
X122293386Y-85692789D01*
X122339527Y-85772708D01*
X122339531Y-85772713D01*
X122499487Y-85932669D01*
X122532972Y-85993992D01*
X122527988Y-86063684D01*
X122508805Y-86097598D01*
X122430007Y-86196543D01*
X122426749Y-86201558D01*
X122426148Y-86201167D01*
X122408856Y-86224749D01*
X122396953Y-86236653D01*
X122396951Y-86236655D01*
X122339352Y-86349698D01*
X122324500Y-86443475D01*
X122324500Y-86906517D01*
X122331899Y-86953231D01*
X122339354Y-87000304D01*
X122396950Y-87113342D01*
X122396952Y-87113344D01*
X122396954Y-87113347D01*
X122486652Y-87203045D01*
X122486654Y-87203046D01*
X122486658Y-87203050D01*
X122592077Y-87256764D01*
X122599698Y-87260647D01*
X122693475Y-87275499D01*
X122693481Y-87275500D01*
X123306518Y-87275499D01*
X123400304Y-87260646D01*
X123513342Y-87203050D01*
X123603050Y-87113342D01*
X123660646Y-87000304D01*
X123660646Y-87000302D01*
X123660647Y-87000301D01*
X123675499Y-86906524D01*
X123675500Y-86906519D01*
X123675499Y-86443482D01*
X123660646Y-86349696D01*
X123603050Y-86236658D01*
X123603046Y-86236654D01*
X123603045Y-86236652D01*
X123545829Y-86179436D01*
X123527643Y-86156316D01*
X123420166Y-85980075D01*
X123420165Y-85980072D01*
X123347593Y-85861069D01*
X123333686Y-85828603D01*
X123328334Y-85808631D01*
X123326614Y-85802212D01*
X123323471Y-85796769D01*
X123316524Y-85784736D01*
X123316522Y-85784733D01*
X123313960Y-85780295D01*
X123280470Y-85722288D01*
X123236012Y-85677830D01*
X123228693Y-85669841D01*
X123221131Y-85660826D01*
X123221129Y-85660825D01*
X123221128Y-85660823D01*
X123219033Y-85658891D01*
X123206425Y-85648243D01*
X123006819Y-85448637D01*
X122973334Y-85387314D01*
X122970500Y-85360956D01*
X122970500Y-85360210D01*
X122988417Y-85296004D01*
X123172944Y-84991134D01*
X123177837Y-84982596D01*
X123178377Y-84981599D01*
X123178380Y-84981585D01*
X123180959Y-84975243D01*
X123182095Y-84975704D01*
X123184828Y-84969780D01*
X123184191Y-84969517D01*
X123188861Y-84958238D01*
X123188867Y-84958231D01*
X123197134Y-84916668D01*
X123199424Y-84907147D01*
X123199487Y-84906923D01*
X123202872Y-84894951D01*
X123203361Y-84886010D01*
X123201742Y-84874667D01*
X123200500Y-84857157D01*
X123200500Y-82700249D01*
X123200499Y-82700247D01*
X123188868Y-82641770D01*
X123188867Y-82641769D01*
X123144552Y-82575447D01*
X123078230Y-82531132D01*
X123078229Y-82531131D01*
X123019752Y-82519500D01*
X123019748Y-82519500D01*
X122220252Y-82519500D01*
X122220247Y-82519500D01*
X122161770Y-82531131D01*
X122161769Y-82531132D01*
X122095446Y-82575448D01*
X122088101Y-82586442D01*
X122034489Y-82631246D01*
X121965164Y-82639953D01*
X121902136Y-82609798D01*
X121881899Y-82586442D01*
X121874553Y-82575448D01*
X121808230Y-82531132D01*
X121808229Y-82531131D01*
X121749752Y-82519500D01*
X121749748Y-82519500D01*
X120950252Y-82519500D01*
X120950247Y-82519500D01*
X120891770Y-82531131D01*
X120891769Y-82531132D01*
X120825447Y-82575447D01*
X120781132Y-82641769D01*
X120781131Y-82641770D01*
X120769500Y-82700247D01*
X120769500Y-84886196D01*
X120769207Y-84894720D01*
X120768366Y-84906919D01*
X120768366Y-84906929D01*
X120769717Y-84915768D01*
X120769720Y-84915779D01*
X120773081Y-84925044D01*
X120778129Y-84943129D01*
X120781133Y-84958232D01*
X120781134Y-84958234D01*
X120781513Y-84958801D01*
X120794971Y-84985392D01*
X120797055Y-84991135D01*
X120907877Y-85174231D01*
X120979034Y-85291795D01*
X120996907Y-85359340D01*
X120975425Y-85425826D01*
X120960633Y-85443684D01*
X120719531Y-85684786D01*
X120719529Y-85684789D01*
X120686871Y-85741356D01*
X120686870Y-85741357D01*
X120673386Y-85764711D01*
X120669210Y-85780295D01*
X120657544Y-85808932D01*
X120451632Y-86175455D01*
X120431207Y-86202399D01*
X120396951Y-86236656D01*
X120339352Y-86349698D01*
X120324500Y-86443475D01*
X119825500Y-86443475D01*
X119825500Y-82693295D01*
X119845185Y-82626256D01*
X119861819Y-82605614D01*
X120217447Y-82249986D01*
X128775001Y-82249986D01*
X128785494Y-82352697D01*
X128840641Y-82519119D01*
X128840643Y-82519123D01*
X128932684Y-82668345D01*
X129056654Y-82792315D01*
X129205875Y-82884356D01*
X129205880Y-82884358D01*
X129372302Y-82939505D01*
X129372309Y-82939506D01*
X129475019Y-82949999D01*
X129749999Y-82949999D01*
X130250000Y-82949999D01*
X130524972Y-82949999D01*
X130524986Y-82949998D01*
X130627697Y-82939505D01*
X130794119Y-82884358D01*
X130794124Y-82884356D01*
X130943345Y-82792315D01*
X131067315Y-82668345D01*
X131159357Y-82519123D01*
X131159358Y-82519119D01*
X131214505Y-82352697D01*
X131214506Y-82352690D01*
X131224999Y-82249986D01*
X131225000Y-82249973D01*
X131225000Y-82200000D01*
X130250000Y-82200000D01*
X130250000Y-82949999D01*
X129749999Y-82949999D01*
X129750000Y-82949998D01*
X129750000Y-82200000D01*
X128775001Y-82200000D01*
X128775001Y-82249986D01*
X120217447Y-82249986D01*
X122705614Y-79761819D01*
X122766937Y-79728334D01*
X122793295Y-79725500D01*
X125906705Y-79725500D01*
X125973744Y-79745185D01*
X125994386Y-79761819D01*
X126923771Y-80691205D01*
X126923779Y-80691211D01*
X127058976Y-80781547D01*
X127058980Y-80781549D01*
X127207115Y-80842908D01*
X127209211Y-80843776D01*
X127209215Y-80843776D01*
X127209216Y-80843777D01*
X127368692Y-80875500D01*
X127368695Y-80875500D01*
X127531306Y-80875500D01*
X128833518Y-80875500D01*
X128900557Y-80895185D01*
X128921199Y-80911819D01*
X128999178Y-80989798D01*
X129032663Y-81051121D01*
X129027679Y-81120813D01*
X128999179Y-81165160D01*
X128932682Y-81231657D01*
X128840643Y-81380875D01*
X128840641Y-81380880D01*
X128785494Y-81547302D01*
X128785493Y-81547309D01*
X128775000Y-81650013D01*
X128775000Y-81700000D01*
X131224999Y-81700000D01*
X131224999Y-81650028D01*
X131224998Y-81650013D01*
X131214505Y-81547302D01*
X131159358Y-81380880D01*
X131159356Y-81380875D01*
X131106139Y-81294597D01*
X131087699Y-81227204D01*
X131108622Y-81160541D01*
X131162264Y-81115771D01*
X131211678Y-81105500D01*
X131597163Y-81105500D01*
X131664202Y-81125185D01*
X131709957Y-81177989D01*
X131719901Y-81247147D01*
X131716239Y-81264095D01*
X131702900Y-81310004D01*
X131702899Y-81310010D01*
X131700000Y-81346850D01*
X131700000Y-81750000D01*
X133300000Y-81750000D01*
X133300000Y-81346865D01*
X133299999Y-81346850D01*
X133297100Y-81310010D01*
X133297099Y-81310004D01*
X133283761Y-81264095D01*
X133283960Y-81194226D01*
X133321902Y-81135556D01*
X133385540Y-81106712D01*
X133402837Y-81105500D01*
X133588160Y-81105500D01*
X133655199Y-81125185D01*
X133700954Y-81177989D01*
X133710898Y-81247147D01*
X133707137Y-81264435D01*
X133698616Y-81293454D01*
X133698615Y-81293460D01*
X133698614Y-81293464D01*
X133690938Y-81346850D01*
X133690289Y-81351365D01*
X133690289Y-83602507D01*
X133670604Y-83669546D01*
X133617800Y-83715301D01*
X133548642Y-83725245D01*
X133485086Y-83696220D01*
X133460750Y-83667604D01*
X133392315Y-83556654D01*
X133268345Y-83432684D01*
X133119124Y-83340643D01*
X133119119Y-83340641D01*
X133079331Y-83327457D01*
X133021886Y-83287684D01*
X132995063Y-83223169D01*
X133007378Y-83154393D01*
X133046868Y-83111865D01*
X133045393Y-83109963D01*
X133051561Y-83105178D01*
X133167678Y-82989061D01*
X133167685Y-82989052D01*
X133251282Y-82847696D01*
X133251283Y-82847693D01*
X133297099Y-82689995D01*
X133297100Y-82689989D01*
X133299999Y-82653149D01*
X133300000Y-82653134D01*
X133300000Y-82250000D01*
X132750000Y-82250000D01*
X132750000Y-83145000D01*
X132763681Y-83158681D01*
X132797166Y-83220004D01*
X132800000Y-83246362D01*
X132800000Y-84376000D01*
X132780315Y-84443039D01*
X132727511Y-84488794D01*
X132676000Y-84500000D01*
X132550000Y-84500000D01*
X132550000Y-84626000D01*
X132530315Y-84693039D01*
X132477511Y-84738794D01*
X132426000Y-84750000D01*
X131550001Y-84750000D01*
X131550001Y-85024986D01*
X131560494Y-85127697D01*
X131615641Y-85294119D01*
X131615643Y-85294124D01*
X131707684Y-85443345D01*
X131711832Y-85448591D01*
X131737971Y-85513387D01*
X131724929Y-85582029D01*
X131676847Y-85632723D01*
X131614564Y-85649500D01*
X131337966Y-85649500D01*
X131270927Y-85629815D01*
X131250285Y-85613181D01*
X129612116Y-83975013D01*
X131550000Y-83975013D01*
X131550000Y-84250000D01*
X132300000Y-84250000D01*
X132300000Y-83367500D01*
X132286319Y-83353819D01*
X132252834Y-83292496D01*
X132250000Y-83266138D01*
X132250000Y-82250000D01*
X131700000Y-82250000D01*
X131700000Y-82653149D01*
X131702899Y-82689989D01*
X131702900Y-82689995D01*
X131748716Y-82847693D01*
X131748717Y-82847696D01*
X131832314Y-82989052D01*
X131832321Y-82989061D01*
X131948438Y-83105178D01*
X131948447Y-83105185D01*
X131983185Y-83125729D01*
X132030869Y-83176798D01*
X132043372Y-83245540D01*
X132016727Y-83310129D01*
X131985161Y-83337999D01*
X131831659Y-83432680D01*
X131831655Y-83432683D01*
X131707684Y-83556654D01*
X131615643Y-83705875D01*
X131615641Y-83705880D01*
X131560494Y-83872302D01*
X131560493Y-83872309D01*
X131550000Y-83975013D01*
X129612116Y-83975013D01*
X128676616Y-83039513D01*
X128676614Y-83039511D01*
X128625250Y-83009856D01*
X128573888Y-82980201D01*
X128561780Y-82976957D01*
X128549673Y-82973713D01*
X128549670Y-82973712D01*
X128511478Y-82963478D01*
X128459309Y-82949500D01*
X128459308Y-82949500D01*
X125341843Y-82949500D01*
X125312338Y-82945350D01*
X125312327Y-82945414D01*
X125310790Y-82945132D01*
X125307639Y-82944689D01*
X125306340Y-82944316D01*
X124780334Y-82900481D01*
X124773015Y-82899651D01*
X124771249Y-82899397D01*
X124763417Y-82899072D01*
X124754977Y-82898368D01*
X124729684Y-82896261D01*
X124729671Y-82896260D01*
X124729657Y-82896259D01*
X124721296Y-82895734D01*
X124720385Y-82895695D01*
X124720381Y-82895695D01*
X124709301Y-82897638D01*
X124687893Y-82899500D01*
X124628036Y-82899500D01*
X124489949Y-82940045D01*
X124368873Y-83017856D01*
X124274623Y-83126626D01*
X124274622Y-83126628D01*
X124214834Y-83257543D01*
X124194353Y-83400000D01*
X124214834Y-83542456D01*
X124242259Y-83602507D01*
X124274623Y-83673373D01*
X124368872Y-83782143D01*
X124489947Y-83859953D01*
X124489950Y-83859954D01*
X124489949Y-83859954D01*
X124581445Y-83886819D01*
X124627545Y-83900355D01*
X124628036Y-83900499D01*
X124628038Y-83900500D01*
X124628039Y-83900500D01*
X124694199Y-83900500D01*
X124708204Y-83901293D01*
X124729695Y-83903737D01*
X124763403Y-83900928D01*
X124771257Y-83900601D01*
X124771959Y-83900500D01*
X124771961Y-83900500D01*
X124771962Y-83900499D01*
X124772967Y-83900355D01*
X124780360Y-83899514D01*
X125306338Y-83855684D01*
X125310328Y-83854627D01*
X125342056Y-83850500D01*
X128162035Y-83850500D01*
X128229074Y-83870185D01*
X128249715Y-83886818D01*
X130823386Y-86460490D01*
X130906694Y-86508587D01*
X130906695Y-86508587D01*
X130926114Y-86519799D01*
X131040691Y-86550500D01*
X133750500Y-86550500D01*
X133817539Y-86570185D01*
X133863294Y-86622989D01*
X133874500Y-86674500D01*
X133874500Y-98647863D01*
X133854815Y-98714902D01*
X133838181Y-98735544D01*
X133420843Y-99152881D01*
X133359520Y-99186366D01*
X133289828Y-99181382D01*
X133233895Y-99139510D01*
X133215456Y-99104204D01*
X133161547Y-98941518D01*
X133161542Y-98941507D01*
X133072575Y-98797271D01*
X133072572Y-98797267D01*
X132952732Y-98677427D01*
X132952728Y-98677424D01*
X132808492Y-98588457D01*
X132808481Y-98588452D01*
X132647606Y-98535144D01*
X132548322Y-98525000D01*
X132525000Y-98525000D01*
X132525000Y-99376000D01*
X132505315Y-99443039D01*
X132452511Y-99488794D01*
X132401000Y-99500000D01*
X132149000Y-99500000D01*
X132081961Y-99480315D01*
X132036206Y-99427511D01*
X132025000Y-99376000D01*
X132025000Y-98524999D01*
X132001693Y-98525000D01*
X132001674Y-98525001D01*
X131902392Y-98535144D01*
X131741518Y-98588452D01*
X131741507Y-98588457D01*
X131597271Y-98677424D01*
X131597267Y-98677427D01*
X131477426Y-98797268D01*
X131415392Y-98897841D01*
X131363444Y-98944565D01*
X131294481Y-98955786D01*
X131230399Y-98927943D01*
X131222173Y-98920424D01*
X131203225Y-98901476D01*
X131203221Y-98901473D01*
X131203220Y-98901472D01*
X131083126Y-98840281D01*
X131083124Y-98840280D01*
X131083121Y-98840279D01*
X130983493Y-98824500D01*
X130983488Y-98824500D01*
X130466512Y-98824500D01*
X130466507Y-98824500D01*
X130366874Y-98840280D01*
X130321870Y-98863210D01*
X130300214Y-98871788D01*
X130298353Y-98872329D01*
X130298349Y-98872330D01*
X130298349Y-98872331D01*
X129803026Y-99129815D01*
X129792045Y-99135523D01*
X129734852Y-99149500D01*
X129500425Y-99149500D01*
X129433386Y-99129815D01*
X129408620Y-99108854D01*
X128832695Y-98474537D01*
X128802204Y-98411671D01*
X128800500Y-98391183D01*
X128800500Y-98180249D01*
X128800499Y-98180247D01*
X128788868Y-98121770D01*
X128788867Y-98121769D01*
X128744552Y-98055447D01*
X128678230Y-98011132D01*
X128678229Y-98011131D01*
X128619752Y-97999500D01*
X128619748Y-97999500D01*
X127080252Y-97999500D01*
X127080247Y-97999500D01*
X127021772Y-98011131D01*
X127012054Y-98015157D01*
X126942584Y-98022625D01*
X126880105Y-97991349D01*
X126844828Y-97932689D01*
X126826614Y-97864712D01*
X126813970Y-97842812D01*
X126780473Y-97784794D01*
X126780470Y-97784791D01*
X126780469Y-97784788D01*
X126715212Y-97719531D01*
X125633874Y-96638193D01*
X125600389Y-96576870D01*
X125605373Y-96507178D01*
X125624724Y-96473054D01*
X126054504Y-95935830D01*
X126081376Y-95889842D01*
X126085327Y-95883528D01*
X126088867Y-95878231D01*
X126092869Y-95858103D01*
X126094820Y-95849802D01*
X126095352Y-95847844D01*
X126600000Y-95847844D01*
X126606401Y-95907372D01*
X126606403Y-95907379D01*
X126656645Y-96042086D01*
X126656649Y-96042093D01*
X126742809Y-96157187D01*
X126742812Y-96157190D01*
X126857906Y-96243350D01*
X126857913Y-96243354D01*
X126992620Y-96293596D01*
X126992627Y-96293598D01*
X127052155Y-96299999D01*
X127052172Y-96300000D01*
X127600000Y-96300000D01*
X128100000Y-96300000D01*
X128647828Y-96300000D01*
X128647844Y-96299999D01*
X128707372Y-96293598D01*
X128707379Y-96293596D01*
X128842086Y-96243354D01*
X128842093Y-96243350D01*
X128957187Y-96157190D01*
X128957190Y-96157187D01*
X129043350Y-96042093D01*
X129043354Y-96042086D01*
X129093596Y-95907379D01*
X129093598Y-95907372D01*
X129099999Y-95847844D01*
X129100000Y-95847827D01*
X129100000Y-95150000D01*
X128100000Y-95150000D01*
X128100000Y-96300000D01*
X127600000Y-96300000D01*
X127600000Y-95150000D01*
X126600000Y-95150000D01*
X126600000Y-95847844D01*
X126095352Y-95847844D01*
X126099824Y-95831377D01*
X126099823Y-95831370D01*
X126100500Y-95824208D01*
X126100500Y-94029573D01*
X126101867Y-94011212D01*
X126105237Y-93988703D01*
X126104019Y-93952155D01*
X126600000Y-93952155D01*
X126600000Y-94650000D01*
X127600000Y-94650000D01*
X128100000Y-94650000D01*
X129100000Y-94650000D01*
X129100000Y-93952172D01*
X129099999Y-93952155D01*
X129093598Y-93892627D01*
X129093596Y-93892620D01*
X129043354Y-93757913D01*
X129043350Y-93757906D01*
X128957190Y-93642812D01*
X128957187Y-93642809D01*
X128842093Y-93556649D01*
X128842086Y-93556645D01*
X128707379Y-93506403D01*
X128707372Y-93506401D01*
X128647844Y-93500000D01*
X128100000Y-93500000D01*
X128100000Y-94650000D01*
X127600000Y-94650000D01*
X127600000Y-93500000D01*
X127052155Y-93500000D01*
X126992627Y-93506401D01*
X126992620Y-93506403D01*
X126857913Y-93556645D01*
X126857906Y-93556649D01*
X126742812Y-93642809D01*
X126742809Y-93642812D01*
X126656649Y-93757906D01*
X126656645Y-93757913D01*
X126606403Y-93892620D01*
X126606401Y-93892627D01*
X126600000Y-93952155D01*
X126104019Y-93952155D01*
X126095968Y-93710613D01*
X126080763Y-93254464D01*
X126078851Y-93245967D01*
X126078526Y-93244522D01*
X126075500Y-93217297D01*
X126075500Y-93010442D01*
X126087726Y-92956752D01*
X126152177Y-92822575D01*
X126228716Y-92663231D01*
X126275485Y-92611327D01*
X126342894Y-92592946D01*
X126409539Y-92613928D01*
X126446027Y-92651826D01*
X126477424Y-92702728D01*
X126477427Y-92702732D01*
X126597267Y-92822572D01*
X126597271Y-92822575D01*
X126741507Y-92911542D01*
X126741518Y-92911547D01*
X126902393Y-92964855D01*
X127001683Y-92974999D01*
X127525000Y-92974999D01*
X127548308Y-92974999D01*
X127548322Y-92974998D01*
X127647607Y-92964855D01*
X127808481Y-92911547D01*
X127808492Y-92911542D01*
X127952728Y-92822575D01*
X127952732Y-92822572D01*
X128072572Y-92702732D01*
X128072575Y-92702728D01*
X128161542Y-92558492D01*
X128161547Y-92558481D01*
X128214855Y-92397606D01*
X128224999Y-92298322D01*
X128225000Y-92298309D01*
X128225000Y-92250000D01*
X127525000Y-92250000D01*
X127525000Y-92974999D01*
X127001683Y-92974999D01*
X127025000Y-92974998D01*
X127025000Y-91750000D01*
X127525000Y-91750000D01*
X128224999Y-91750000D01*
X128224999Y-91701692D01*
X128224998Y-91701677D01*
X128214855Y-91602392D01*
X128161547Y-91441518D01*
X128161542Y-91441507D01*
X128072575Y-91297271D01*
X128072572Y-91297267D01*
X127952732Y-91177427D01*
X127952728Y-91177424D01*
X127808492Y-91088457D01*
X127808481Y-91088452D01*
X127647606Y-91035144D01*
X127548322Y-91025000D01*
X127525000Y-91025000D01*
X127525000Y-91750000D01*
X127025000Y-91750000D01*
X127025000Y-91024999D01*
X127001693Y-91025000D01*
X127001674Y-91025001D01*
X126902392Y-91035144D01*
X126741518Y-91088452D01*
X126741507Y-91088457D01*
X126597271Y-91177424D01*
X126597267Y-91177427D01*
X126477426Y-91297268D01*
X126415392Y-91397841D01*
X126363444Y-91444565D01*
X126294481Y-91455786D01*
X126230399Y-91427943D01*
X126222173Y-91420424D01*
X126203225Y-91401476D01*
X126203221Y-91401473D01*
X126203220Y-91401472D01*
X126083126Y-91340281D01*
X126083124Y-91340280D01*
X126083121Y-91340279D01*
X125983493Y-91324500D01*
X125983488Y-91324500D01*
X125466512Y-91324500D01*
X125466507Y-91324500D01*
X125366878Y-91340279D01*
X125246778Y-91401473D01*
X125246774Y-91401476D01*
X125151476Y-91496774D01*
X125151473Y-91496778D01*
X125151472Y-91496780D01*
X125106729Y-91584594D01*
X125090279Y-91616878D01*
X125074500Y-91716506D01*
X125074500Y-92283493D01*
X125090280Y-92383124D01*
X125090281Y-92383128D01*
X125099658Y-92401531D01*
X125109271Y-92426961D01*
X125110973Y-92433584D01*
X125340560Y-92911547D01*
X125362274Y-92956752D01*
X125374500Y-93010442D01*
X125374500Y-93090938D01*
X125354815Y-93157977D01*
X125329603Y-93186430D01*
X125210246Y-93285302D01*
X124639717Y-93757913D01*
X124623928Y-93770992D01*
X124559744Y-93798599D01*
X124544825Y-93799500D01*
X124380247Y-93799500D01*
X124321770Y-93811131D01*
X124321769Y-93811132D01*
X124255447Y-93855447D01*
X124211132Y-93921769D01*
X124211131Y-93921770D01*
X124199500Y-93980247D01*
X124199500Y-95819749D01*
X124204152Y-95843135D01*
X124204952Y-95849403D01*
X124206092Y-95856051D01*
X124206621Y-95857877D01*
X124209133Y-95868178D01*
X124211132Y-95878230D01*
X124227384Y-95902553D01*
X124234360Y-95914359D01*
X124245489Y-95935820D01*
X124245498Y-95935835D01*
X124772328Y-96594371D01*
X124798836Y-96659017D01*
X124799500Y-96671833D01*
X124799500Y-96696144D01*
X124806013Y-96720449D01*
X124819966Y-96772524D01*
X124819966Y-96772525D01*
X124823385Y-96785287D01*
X124869527Y-96865208D01*
X124869529Y-96865211D01*
X124869530Y-96865212D01*
X125492638Y-97488320D01*
X125526123Y-97549642D01*
X125521139Y-97619333D01*
X125479268Y-97675267D01*
X125413803Y-97699684D01*
X125404957Y-97700000D01*
X125400000Y-97700000D01*
X125400000Y-98976000D01*
X125380315Y-99043039D01*
X125327511Y-99088794D01*
X125276000Y-99100000D01*
X125150000Y-99100000D01*
X125150000Y-99226000D01*
X125130315Y-99293039D01*
X125077511Y-99338794D01*
X125026000Y-99350000D01*
X123900000Y-99350000D01*
X123900000Y-100047844D01*
X123906401Y-100107372D01*
X123906403Y-100107379D01*
X123956645Y-100242086D01*
X123956649Y-100242093D01*
X124042809Y-100357187D01*
X124042812Y-100357190D01*
X124157906Y-100443350D01*
X124157913Y-100443354D01*
X124292620Y-100493596D01*
X124292627Y-100493598D01*
X124352155Y-100499999D01*
X124352172Y-100500000D01*
X124728748Y-100500000D01*
X124795787Y-100519685D01*
X124841542Y-100572489D01*
X124851486Y-100641647D01*
X124822461Y-100705203D01*
X124802396Y-100722265D01*
X124802935Y-100722946D01*
X124797267Y-100727427D01*
X124677427Y-100847267D01*
X124677424Y-100847271D01*
X124588457Y-100991507D01*
X124588452Y-100991518D01*
X124535144Y-101152393D01*
X124525000Y-101251677D01*
X124525000Y-101275000D01*
X125376000Y-101275000D01*
X125443039Y-101294685D01*
X125488794Y-101347489D01*
X125500000Y-101399000D01*
X125500000Y-101651000D01*
X125480315Y-101718039D01*
X125427511Y-101763794D01*
X125376000Y-101775000D01*
X124525001Y-101775000D01*
X124525001Y-101798322D01*
X124535144Y-101897607D01*
X124588452Y-102058481D01*
X124588457Y-102058492D01*
X124677424Y-102202728D01*
X124677427Y-102202732D01*
X124797266Y-102322571D01*
X124897840Y-102384606D01*
X124944564Y-102436554D01*
X124955787Y-102505517D01*
X124927943Y-102569599D01*
X124920426Y-102577825D01*
X124901473Y-102596778D01*
X124840279Y-102716878D01*
X124824500Y-102816506D01*
X124824500Y-103122350D01*
X124804815Y-103189389D01*
X124752011Y-103235144D01*
X124682853Y-103245088D01*
X124619297Y-103216063D01*
X124612819Y-103210031D01*
X122736819Y-101334031D01*
X122703334Y-101272708D01*
X122700500Y-101246350D01*
X122700500Y-99986539D01*
X122704551Y-99955102D01*
X122824640Y-99496898D01*
X122825071Y-99497011D01*
X122832372Y-99473572D01*
X122835165Y-99467457D01*
X122855647Y-99325000D01*
X122835165Y-99182543D01*
X122775377Y-99051627D01*
X122681128Y-98942857D01*
X122560053Y-98865047D01*
X122560051Y-98865046D01*
X122560049Y-98865045D01*
X122560050Y-98865045D01*
X122421963Y-98824500D01*
X122421961Y-98824500D01*
X122278039Y-98824500D01*
X122278035Y-98824500D01*
X122209434Y-98844643D01*
X122139564Y-98844643D01*
X122080786Y-98806868D01*
X122051762Y-98743312D01*
X122050500Y-98725666D01*
X122050500Y-98152155D01*
X123900000Y-98152155D01*
X123900000Y-98850000D01*
X124900000Y-98850000D01*
X124900000Y-97700000D01*
X124352155Y-97700000D01*
X124292627Y-97706401D01*
X124292620Y-97706403D01*
X124157913Y-97756645D01*
X124157906Y-97756649D01*
X124042812Y-97842809D01*
X124042809Y-97842812D01*
X123956649Y-97957906D01*
X123956645Y-97957913D01*
X123906403Y-98092620D01*
X123906401Y-98092627D01*
X123900000Y-98152155D01*
X122050500Y-98152155D01*
X122050500Y-92710755D01*
X122070185Y-92643716D01*
X122086814Y-92623079D01*
X128080062Y-86629830D01*
X128105149Y-86610471D01*
X128501291Y-86378855D01*
X128508882Y-86374916D01*
X128510048Y-86374166D01*
X128510053Y-86374165D01*
X128631128Y-86296355D01*
X128725377Y-86187585D01*
X128785165Y-86056669D01*
X128805647Y-85914212D01*
X128785165Y-85771755D01*
X128725377Y-85640839D01*
X128631128Y-85532069D01*
X128510053Y-85454259D01*
X128510051Y-85454258D01*
X128510049Y-85454257D01*
X128510050Y-85454257D01*
X128371963Y-85413712D01*
X128371961Y-85413712D01*
X128248114Y-85413712D01*
X128181075Y-85394027D01*
X128135320Y-85341223D01*
X128125376Y-85307359D01*
X128103836Y-85157543D01*
X128090206Y-85127697D01*
X128044048Y-85026627D01*
X127949799Y-84917857D01*
X127828724Y-84840047D01*
X127828722Y-84840046D01*
X127828720Y-84840045D01*
X127828721Y-84840045D01*
X127690634Y-84799500D01*
X127690632Y-84799500D01*
X127546710Y-84799500D01*
X127546707Y-84799500D01*
X127408620Y-84840045D01*
X127287544Y-84917856D01*
X127287543Y-84917856D01*
X127287543Y-84917857D01*
X127277450Y-84929505D01*
X127193294Y-85026626D01*
X127193293Y-85026628D01*
X127133505Y-85157543D01*
X127113024Y-85300000D01*
X127133505Y-85442455D01*
X127134066Y-85443684D01*
X127147185Y-85472411D01*
X127155591Y-85497726D01*
X127157692Y-85507451D01*
X127157693Y-85507453D01*
X127224487Y-85661500D01*
X127228876Y-85671621D01*
X127237485Y-85740959D01*
X127207241Y-85803943D01*
X127202791Y-85808631D01*
X123562181Y-89449242D01*
X123500858Y-89482727D01*
X123431166Y-89477743D01*
X123375233Y-89435871D01*
X123350816Y-89370407D01*
X123350500Y-89361561D01*
X123350500Y-89219731D01*
X123366241Y-89159266D01*
X123384471Y-89126627D01*
X123559145Y-88813882D01*
X123579725Y-88786666D01*
X123590023Y-88776369D01*
X123603050Y-88763342D01*
X123660646Y-88650304D01*
X123660646Y-88650302D01*
X123660647Y-88650301D01*
X123671282Y-88583147D01*
X123675500Y-88556519D01*
X123675499Y-88093482D01*
X123660646Y-87999696D01*
X123603050Y-87886658D01*
X123603046Y-87886654D01*
X123603045Y-87886652D01*
X123513347Y-87796954D01*
X123513344Y-87796952D01*
X123513342Y-87796950D01*
X123427741Y-87753334D01*
X123400301Y-87739352D01*
X123306524Y-87724500D01*
X122693482Y-87724500D01*
X122612519Y-87737323D01*
X122599696Y-87739354D01*
X122486658Y-87796950D01*
X122486657Y-87796951D01*
X122486652Y-87796954D01*
X122396954Y-87886652D01*
X122396951Y-87886657D01*
X122396950Y-87886658D01*
X122388933Y-87902392D01*
X122339352Y-87999698D01*
X122324500Y-88093475D01*
X122324500Y-88556517D01*
X122332526Y-88607190D01*
X122339354Y-88650304D01*
X122396950Y-88763342D01*
X122420274Y-88786666D01*
X122440848Y-88813877D01*
X122633759Y-89159269D01*
X122649500Y-89219732D01*
X122649500Y-89603456D01*
X122629815Y-89670495D01*
X122613181Y-89691137D01*
X120419531Y-91884786D01*
X120419529Y-91884788D01*
X120407183Y-91906172D01*
X120401965Y-91915212D01*
X120387675Y-91939962D01*
X120373386Y-91964711D01*
X120349500Y-92053856D01*
X120349500Y-96483006D01*
X120329815Y-96550045D01*
X120277011Y-96595800D01*
X120207853Y-96605744D01*
X120190567Y-96601984D01*
X120096961Y-96574500D01*
X119953039Y-96574500D01*
X119919050Y-96584479D01*
X119877306Y-96596736D01*
X119849818Y-96601534D01*
X119848265Y-96601627D01*
X119848259Y-96601628D01*
X119848255Y-96601628D01*
X119848255Y-96601629D01*
X119394893Y-96720449D01*
X119363459Y-96724500D01*
X118017358Y-96724500D01*
X117958570Y-96709678D01*
X117703386Y-96572270D01*
X117703350Y-96572253D01*
X117678893Y-96561084D01*
X117678852Y-96561067D01*
X117676021Y-96559993D01*
X117661469Y-96555083D01*
X117653851Y-96554597D01*
X117649600Y-96554326D01*
X117633298Y-96552195D01*
X117619748Y-96549500D01*
X117577801Y-96549500D01*
X117570308Y-96549261D01*
X117568407Y-96549354D01*
X117562388Y-96549500D01*
X116530247Y-96549500D01*
X116471770Y-96561131D01*
X116471769Y-96561132D01*
X116405447Y-96605447D01*
X116361132Y-96671769D01*
X116361131Y-96671770D01*
X116349500Y-96730247D01*
X116349500Y-97419752D01*
X116361131Y-97478229D01*
X116361132Y-97478230D01*
X116405447Y-97544552D01*
X116471769Y-97588867D01*
X116471770Y-97588868D01*
X116530247Y-97600499D01*
X116530250Y-97600500D01*
X116530252Y-97600500D01*
X117596831Y-97600500D01*
X117612063Y-97601439D01*
X117612674Y-97601514D01*
X117617807Y-97602150D01*
X117626716Y-97601245D01*
X117640483Y-97597022D01*
X117652628Y-97593959D01*
X117678231Y-97588867D01*
X117678238Y-97588862D01*
X117689516Y-97584191D01*
X117689660Y-97584538D01*
X117697965Y-97580594D01*
X117697752Y-97580083D01*
X117703367Y-97577736D01*
X117703375Y-97577734D01*
X117958569Y-97440321D01*
X118017356Y-97425500D01*
X119363461Y-97425500D01*
X119394897Y-97429550D01*
X119848255Y-97548370D01*
X119854760Y-97548988D01*
X119877950Y-97553452D01*
X119953039Y-97575500D01*
X120096962Y-97575500D01*
X120096962Y-97575499D01*
X120135510Y-97564180D01*
X120190566Y-97548016D01*
X120260435Y-97548016D01*
X120319213Y-97585791D01*
X120348238Y-97649346D01*
X120349500Y-97666993D01*
X120349500Y-103141266D01*
X120329815Y-103208305D01*
X120277011Y-103254060D01*
X120207853Y-103264004D01*
X120144297Y-103234979D01*
X120131788Y-103222470D01*
X120106127Y-103192856D01*
X120030033Y-103143954D01*
X119985053Y-103115047D01*
X119985051Y-103115046D01*
X119985049Y-103115045D01*
X119985050Y-103115045D01*
X119846963Y-103074500D01*
X119846961Y-103074500D01*
X119703039Y-103074500D01*
X119669050Y-103084479D01*
X119627306Y-103096736D01*
X119599818Y-103101534D01*
X119598265Y-103101627D01*
X119598259Y-103101628D01*
X119598255Y-103101628D01*
X119598255Y-103101629D01*
X119144893Y-103220449D01*
X119113459Y-103224500D01*
X118017358Y-103224500D01*
X117958570Y-103209678D01*
X117703386Y-103072270D01*
X117703350Y-103072253D01*
X117678893Y-103061084D01*
X117678852Y-103061067D01*
X117676021Y-103059993D01*
X117661469Y-103055083D01*
X117653851Y-103054597D01*
X117649600Y-103054326D01*
X117633298Y-103052195D01*
X117619748Y-103049500D01*
X117577801Y-103049500D01*
X117570308Y-103049261D01*
X117568407Y-103049354D01*
X117562388Y-103049500D01*
X116530247Y-103049500D01*
X116471770Y-103061131D01*
X116471769Y-103061132D01*
X116405447Y-103105447D01*
X116361132Y-103171769D01*
X116361131Y-103171770D01*
X116349500Y-103230247D01*
X116349500Y-103919752D01*
X116361131Y-103978229D01*
X116361132Y-103978230D01*
X116405447Y-104044552D01*
X116471769Y-104088867D01*
X116471770Y-104088868D01*
X116530247Y-104100499D01*
X116530250Y-104100500D01*
X116530252Y-104100500D01*
X117596831Y-104100500D01*
X117612063Y-104101439D01*
X117612674Y-104101514D01*
X117617807Y-104102150D01*
X117626716Y-104101245D01*
X117640483Y-104097022D01*
X117652628Y-104093959D01*
X117678231Y-104088867D01*
X117678238Y-104088862D01*
X117689516Y-104084191D01*
X117689660Y-104084538D01*
X117697965Y-104080594D01*
X117697752Y-104080083D01*
X117703367Y-104077736D01*
X117703375Y-104077734D01*
X117958569Y-103940321D01*
X118017356Y-103925500D01*
X119113461Y-103925500D01*
X119144897Y-103929550D01*
X119598255Y-104048370D01*
X119604760Y-104048988D01*
X119627950Y-104053452D01*
X119703039Y-104075500D01*
X119846962Y-104075500D01*
X119846962Y-104075499D01*
X119985053Y-104034953D01*
X120106128Y-103957143D01*
X120131788Y-103927529D01*
X120190565Y-103889756D01*
X120260435Y-103889756D01*
X120319213Y-103927530D01*
X120348238Y-103991086D01*
X120349500Y-104008733D01*
X120349500Y-104246143D01*
X120371062Y-104326615D01*
X120371062Y-104326616D01*
X120373385Y-104335286D01*
X120419527Y-104415208D01*
X120419531Y-104415213D01*
X121042137Y-105037819D01*
X121075622Y-105099142D01*
X121070638Y-105168834D01*
X121028766Y-105224767D01*
X120963302Y-105249184D01*
X120954456Y-105249500D01*
X113596544Y-105249500D01*
X113529505Y-105229815D01*
X113508863Y-105213181D01*
X112607863Y-104312181D01*
X112574378Y-104250858D01*
X112579362Y-104181166D01*
X112621234Y-104125233D01*
X112686698Y-104100816D01*
X112695544Y-104100500D01*
X113469750Y-104100500D01*
X113469751Y-104100499D01*
X113487208Y-104097027D01*
X113528229Y-104088868D01*
X113528229Y-104088867D01*
X113528231Y-104088867D01*
X113594552Y-104044552D01*
X113638867Y-103978231D01*
X113638867Y-103978229D01*
X113638868Y-103978229D01*
X113650499Y-103919752D01*
X113650500Y-103919750D01*
X113650500Y-103230249D01*
X113650499Y-103230247D01*
X113638868Y-103171770D01*
X113638867Y-103171769D01*
X113594552Y-103105447D01*
X113528230Y-103061132D01*
X113528229Y-103061131D01*
X113469752Y-103049500D01*
X113469748Y-103049500D01*
X112380252Y-103049500D01*
X112380247Y-103049500D01*
X112321770Y-103061131D01*
X112321769Y-103061132D01*
X112255447Y-103105447D01*
X112211132Y-103171769D01*
X112211131Y-103171770D01*
X112199500Y-103230247D01*
X112199500Y-103604456D01*
X112179815Y-103671495D01*
X112127011Y-103717250D01*
X112057853Y-103727194D01*
X111994297Y-103698169D01*
X111987819Y-103692137D01*
X110186819Y-101891137D01*
X110153334Y-101829814D01*
X110150500Y-101803456D01*
X110150500Y-101080247D01*
X112199500Y-101080247D01*
X112199500Y-101769752D01*
X112211131Y-101828229D01*
X112211132Y-101828230D01*
X112255447Y-101894552D01*
X112321769Y-101938867D01*
X112321770Y-101938868D01*
X112380247Y-101950499D01*
X112380250Y-101950500D01*
X112380252Y-101950500D01*
X113469750Y-101950500D01*
X113469751Y-101950499D01*
X113484568Y-101947552D01*
X113528229Y-101938868D01*
X113528229Y-101938867D01*
X113528231Y-101938867D01*
X113594552Y-101894552D01*
X113638867Y-101828231D01*
X113638867Y-101828229D01*
X113638868Y-101828229D01*
X113644912Y-101797844D01*
X116050000Y-101797844D01*
X116056401Y-101857372D01*
X116056403Y-101857379D01*
X116106645Y-101992086D01*
X116106649Y-101992093D01*
X116192809Y-102107187D01*
X116192812Y-102107190D01*
X116307906Y-102193350D01*
X116307913Y-102193354D01*
X116442620Y-102243596D01*
X116442627Y-102243598D01*
X116502155Y-102249999D01*
X116502172Y-102250000D01*
X116825000Y-102250000D01*
X117325000Y-102250000D01*
X117647828Y-102250000D01*
X117647844Y-102249999D01*
X117707372Y-102243598D01*
X117707379Y-102243596D01*
X117842086Y-102193354D01*
X117842093Y-102193350D01*
X117957187Y-102107190D01*
X117957190Y-102107187D01*
X118043350Y-101992093D01*
X118043354Y-101992086D01*
X118093596Y-101857379D01*
X118093598Y-101857372D01*
X118099999Y-101797844D01*
X118100000Y-101797827D01*
X118100000Y-101675000D01*
X117325000Y-101675000D01*
X117325000Y-102250000D01*
X116825000Y-102250000D01*
X116825000Y-101675000D01*
X116050000Y-101675000D01*
X116050000Y-101797844D01*
X113644912Y-101797844D01*
X113650499Y-101769752D01*
X113650500Y-101769750D01*
X113650500Y-101080249D01*
X113650499Y-101080247D01*
X113644912Y-101052155D01*
X116050000Y-101052155D01*
X116050000Y-101175000D01*
X116825000Y-101175000D01*
X117325000Y-101175000D01*
X118100000Y-101175000D01*
X118100000Y-101052172D01*
X118099999Y-101052155D01*
X118093598Y-100992627D01*
X118093596Y-100992620D01*
X118043354Y-100857913D01*
X118043350Y-100857906D01*
X117957190Y-100742812D01*
X117957187Y-100742809D01*
X117842093Y-100656649D01*
X117842086Y-100656645D01*
X117707379Y-100606403D01*
X117707372Y-100606401D01*
X117647844Y-100600000D01*
X117325000Y-100600000D01*
X117325000Y-101175000D01*
X116825000Y-101175000D01*
X116825000Y-100600000D01*
X116502155Y-100600000D01*
X116442627Y-100606401D01*
X116442620Y-100606403D01*
X116307913Y-100656645D01*
X116307906Y-100656649D01*
X116192812Y-100742809D01*
X116192809Y-100742812D01*
X116106649Y-100857906D01*
X116106645Y-100857913D01*
X116056403Y-100992620D01*
X116056401Y-100992627D01*
X116050000Y-101052155D01*
X113644912Y-101052155D01*
X113638868Y-101021770D01*
X113638867Y-101021769D01*
X113594552Y-100955447D01*
X113528230Y-100911132D01*
X113528229Y-100911131D01*
X113469752Y-100899500D01*
X113469748Y-100899500D01*
X112380252Y-100899500D01*
X112380247Y-100899500D01*
X112321770Y-100911131D01*
X112321769Y-100911132D01*
X112255447Y-100955447D01*
X112211132Y-101021769D01*
X112211131Y-101021770D01*
X112199500Y-101080247D01*
X110150500Y-101080247D01*
X110150500Y-98333858D01*
X110150500Y-98333856D01*
X110126614Y-98244712D01*
X110126613Y-98244711D01*
X110126613Y-98244709D01*
X110109583Y-98215214D01*
X110109581Y-98215211D01*
X110080470Y-98164788D01*
X108645929Y-96730247D01*
X112199500Y-96730247D01*
X112199500Y-97419752D01*
X112211131Y-97478229D01*
X112211132Y-97478230D01*
X112255447Y-97544552D01*
X112321769Y-97588867D01*
X112321770Y-97588868D01*
X112380247Y-97600499D01*
X112380250Y-97600500D01*
X112380252Y-97600500D01*
X113469750Y-97600500D01*
X113469751Y-97600499D01*
X113487208Y-97597027D01*
X113528229Y-97588868D01*
X113528229Y-97588867D01*
X113528231Y-97588867D01*
X113594552Y-97544552D01*
X113638867Y-97478231D01*
X113638867Y-97478229D01*
X113638868Y-97478229D01*
X113650499Y-97419752D01*
X113650500Y-97419750D01*
X113650500Y-96730249D01*
X113650499Y-96730247D01*
X113638868Y-96671770D01*
X113638867Y-96671769D01*
X113594552Y-96605447D01*
X113528230Y-96561132D01*
X113528229Y-96561131D01*
X113469752Y-96549500D01*
X113469748Y-96549500D01*
X112380252Y-96549500D01*
X112380247Y-96549500D01*
X112321770Y-96561131D01*
X112321769Y-96561132D01*
X112255447Y-96605447D01*
X112211132Y-96671769D01*
X112211131Y-96671770D01*
X112199500Y-96730247D01*
X108645929Y-96730247D01*
X106495929Y-94580247D01*
X112199500Y-94580247D01*
X112199500Y-95269752D01*
X112211131Y-95328229D01*
X112211132Y-95328230D01*
X112255447Y-95394552D01*
X112321769Y-95438867D01*
X112321770Y-95438868D01*
X112380247Y-95450499D01*
X112380250Y-95450500D01*
X112380252Y-95450500D01*
X113469750Y-95450500D01*
X113469751Y-95450499D01*
X113484568Y-95447552D01*
X113528229Y-95438868D01*
X113528229Y-95438867D01*
X113528231Y-95438867D01*
X113594552Y-95394552D01*
X113638867Y-95328231D01*
X113638867Y-95328229D01*
X113638868Y-95328229D01*
X113644912Y-95297844D01*
X116050000Y-95297844D01*
X116056401Y-95357372D01*
X116056403Y-95357379D01*
X116106645Y-95492086D01*
X116106649Y-95492093D01*
X116192809Y-95607187D01*
X116192812Y-95607190D01*
X116307906Y-95693350D01*
X116307913Y-95693354D01*
X116442620Y-95743596D01*
X116442627Y-95743598D01*
X116502155Y-95749999D01*
X116502172Y-95750000D01*
X116825000Y-95750000D01*
X117325000Y-95750000D01*
X117647828Y-95750000D01*
X117647844Y-95749999D01*
X117707372Y-95743598D01*
X117707379Y-95743596D01*
X117842086Y-95693354D01*
X117842093Y-95693350D01*
X117957187Y-95607190D01*
X117957190Y-95607187D01*
X118043350Y-95492093D01*
X118043354Y-95492086D01*
X118093596Y-95357379D01*
X118093598Y-95357372D01*
X118099999Y-95297844D01*
X118100000Y-95297827D01*
X118100000Y-95175000D01*
X117325000Y-95175000D01*
X117325000Y-95750000D01*
X116825000Y-95750000D01*
X116825000Y-95175000D01*
X116050000Y-95175000D01*
X116050000Y-95297844D01*
X113644912Y-95297844D01*
X113650499Y-95269752D01*
X113650500Y-95269750D01*
X113650500Y-94580249D01*
X113650499Y-94580247D01*
X113644912Y-94552155D01*
X116050000Y-94552155D01*
X116050000Y-94675000D01*
X116825000Y-94675000D01*
X117325000Y-94675000D01*
X118100000Y-94675000D01*
X118100000Y-94552172D01*
X118099999Y-94552155D01*
X118093598Y-94492627D01*
X118093596Y-94492620D01*
X118043354Y-94357913D01*
X118043350Y-94357906D01*
X117957190Y-94242812D01*
X117957187Y-94242809D01*
X117842093Y-94156649D01*
X117842086Y-94156645D01*
X117707379Y-94106403D01*
X117707372Y-94106401D01*
X117647844Y-94100000D01*
X117325000Y-94100000D01*
X117325000Y-94675000D01*
X116825000Y-94675000D01*
X116825000Y-94100000D01*
X116502155Y-94100000D01*
X116442627Y-94106401D01*
X116442620Y-94106403D01*
X116307913Y-94156645D01*
X116307906Y-94156649D01*
X116192812Y-94242809D01*
X116192809Y-94242812D01*
X116106649Y-94357906D01*
X116106645Y-94357913D01*
X116056403Y-94492620D01*
X116056401Y-94492627D01*
X116050000Y-94552155D01*
X113644912Y-94552155D01*
X113638868Y-94521770D01*
X113638867Y-94521769D01*
X113594552Y-94455447D01*
X113528230Y-94411132D01*
X113528229Y-94411131D01*
X113469752Y-94399500D01*
X113469748Y-94399500D01*
X112380252Y-94399500D01*
X112380247Y-94399500D01*
X112321770Y-94411131D01*
X112321769Y-94411132D01*
X112255447Y-94455447D01*
X112211132Y-94521769D01*
X112211131Y-94521770D01*
X112199500Y-94580247D01*
X106495929Y-94580247D01*
X105508805Y-93593123D01*
X105480111Y-93548253D01*
X105462360Y-93500000D01*
X104982362Y-92195189D01*
X104980882Y-92191288D01*
X104980715Y-92190861D01*
X104980713Y-92190858D01*
X104978387Y-92184910D01*
X104978826Y-92184738D01*
X104977579Y-92181667D01*
X104977563Y-92181674D01*
X104975233Y-92176051D01*
X104975232Y-92176046D01*
X104877685Y-91993550D01*
X104788427Y-91884788D01*
X104746410Y-91833589D01*
X104586452Y-91702317D01*
X104586453Y-91702317D01*
X104586450Y-91702315D01*
X104403954Y-91604768D01*
X104337447Y-91584593D01*
X104279009Y-91546296D01*
X104250553Y-91482484D01*
X104261113Y-91413417D01*
X104307337Y-91361023D01*
X104341350Y-91346158D01*
X104463483Y-91313433D01*
X104463492Y-91313429D01*
X104677578Y-91213600D01*
X104871082Y-91078105D01*
X105038105Y-90911082D01*
X105173600Y-90717578D01*
X105273429Y-90503492D01*
X105273432Y-90503486D01*
X105330636Y-90290000D01*
X104433012Y-90290000D01*
X104465925Y-90232993D01*
X104500000Y-90105826D01*
X104500000Y-89974174D01*
X104465925Y-89847007D01*
X104433012Y-89790000D01*
X105330636Y-89790000D01*
X105330635Y-89789999D01*
X105273432Y-89576513D01*
X105273429Y-89576507D01*
X105173600Y-89362422D01*
X105173599Y-89362420D01*
X105038113Y-89168926D01*
X105038108Y-89168920D01*
X104871082Y-89001894D01*
X104677578Y-88866399D01*
X104507052Y-88786882D01*
X104454613Y-88740710D01*
X104435461Y-88673516D01*
X104455677Y-88606635D01*
X104508842Y-88561300D01*
X104559457Y-88550500D01*
X104869750Y-88550500D01*
X104869751Y-88550499D01*
X104884568Y-88547552D01*
X104928229Y-88538868D01*
X104928229Y-88538867D01*
X104928231Y-88538867D01*
X104994552Y-88494552D01*
X105038867Y-88428231D01*
X105038867Y-88428229D01*
X105038868Y-88428229D01*
X105049356Y-88375500D01*
X105050500Y-88369748D01*
X105050500Y-86630252D01*
X105050500Y-86630249D01*
X105050499Y-86630247D01*
X105038868Y-86571770D01*
X105038867Y-86571769D01*
X104994552Y-86505447D01*
X104928230Y-86461132D01*
X104928229Y-86461131D01*
X104869752Y-86449500D01*
X104869748Y-86449500D01*
X103130252Y-86449500D01*
X103124160Y-86449500D01*
X103124160Y-86446753D01*
X103066990Y-86435633D01*
X103016506Y-86387330D01*
X103000000Y-86325515D01*
X103000000Y-84753856D01*
X107849500Y-84753856D01*
X107849500Y-89746144D01*
X107868007Y-89815212D01*
X107868007Y-89815213D01*
X107868008Y-89815214D01*
X107873386Y-89835289D01*
X107919527Y-89915208D01*
X107919529Y-89915211D01*
X107919530Y-89915212D01*
X109984788Y-91980470D01*
X110064712Y-92026614D01*
X110153856Y-92050500D01*
X110153858Y-92050500D01*
X118946142Y-92050500D01*
X118946144Y-92050500D01*
X119035288Y-92026614D01*
X119115212Y-91980470D01*
X121280469Y-89815213D01*
X121326614Y-89735288D01*
X121341302Y-89680470D01*
X121350500Y-89646144D01*
X121350500Y-89219731D01*
X121366241Y-89159266D01*
X121384471Y-89126627D01*
X121559145Y-88813882D01*
X121579725Y-88786666D01*
X121590023Y-88776369D01*
X121603050Y-88763342D01*
X121660646Y-88650304D01*
X121660646Y-88650302D01*
X121660647Y-88650301D01*
X121671282Y-88583147D01*
X121675500Y-88556519D01*
X121675499Y-88093482D01*
X121660646Y-87999696D01*
X121603050Y-87886658D01*
X121603046Y-87886654D01*
X121603045Y-87886652D01*
X121513347Y-87796954D01*
X121513344Y-87796952D01*
X121513342Y-87796950D01*
X121427741Y-87753334D01*
X121400301Y-87739352D01*
X121306524Y-87724500D01*
X120693482Y-87724500D01*
X120612519Y-87737323D01*
X120599696Y-87739354D01*
X120486658Y-87796950D01*
X120486657Y-87796951D01*
X120486652Y-87796954D01*
X120396954Y-87886652D01*
X120396951Y-87886657D01*
X120396950Y-87886658D01*
X120388933Y-87902392D01*
X120339352Y-87999698D01*
X120324500Y-88093475D01*
X120324500Y-88556517D01*
X120332526Y-88607190D01*
X120339354Y-88650304D01*
X120396950Y-88763342D01*
X120420274Y-88786666D01*
X120440848Y-88813877D01*
X120633759Y-89159269D01*
X120649500Y-89219732D01*
X120649500Y-89403456D01*
X120629815Y-89470495D01*
X120613181Y-89491137D01*
X118791137Y-91313181D01*
X118729814Y-91346666D01*
X118703456Y-91349500D01*
X116715525Y-91349500D01*
X116648486Y-91329815D01*
X116602731Y-91277011D01*
X116592787Y-91207853D01*
X116609408Y-91161350D01*
X116668019Y-91064395D01*
X116718590Y-90902106D01*
X116725000Y-90831572D01*
X116725000Y-90750000D01*
X115949000Y-90750000D01*
X115881961Y-90730315D01*
X115836206Y-90677511D01*
X115825000Y-90626000D01*
X115825000Y-90500000D01*
X115699000Y-90500000D01*
X115631961Y-90480315D01*
X115586206Y-90427511D01*
X115575000Y-90376000D01*
X115575000Y-89525000D01*
X115574999Y-89524999D01*
X115568436Y-89525000D01*
X115568417Y-89525001D01*
X115497897Y-89531408D01*
X115497892Y-89531409D01*
X115335603Y-89581981D01*
X115190122Y-89669927D01*
X115069927Y-89790122D01*
X114981981Y-89935603D01*
X114956863Y-90016209D01*
X114918125Y-90074356D01*
X114854100Y-90102330D01*
X114785115Y-90091248D01*
X114733072Y-90044629D01*
X114728002Y-90035630D01*
X114703050Y-89986658D01*
X114703048Y-89986656D01*
X114703045Y-89986652D01*
X114613347Y-89896954D01*
X114613344Y-89896952D01*
X114613342Y-89896950D01*
X114515234Y-89846961D01*
X114500301Y-89839352D01*
X114406524Y-89824500D01*
X113943482Y-89824500D01*
X113862519Y-89837323D01*
X113849696Y-89839354D01*
X113782756Y-89873462D01*
X113736656Y-89896951D01*
X113708935Y-89924672D01*
X113691107Y-89939442D01*
X113686865Y-89942333D01*
X113583923Y-90028437D01*
X113519871Y-90056349D01*
X113450896Y-90045201D01*
X113416686Y-90021003D01*
X113386819Y-89991136D01*
X113353334Y-89929813D01*
X113350500Y-89903455D01*
X113350500Y-88596543D01*
X113370185Y-88529504D01*
X113386813Y-88508867D01*
X113481142Y-88414538D01*
X113542461Y-88381056D01*
X113569928Y-88378227D01*
X113597248Y-88378473D01*
X113603349Y-88377713D01*
X113603352Y-88377712D01*
X113607441Y-88377203D01*
X113607457Y-88377333D01*
X113626671Y-88375500D01*
X114052067Y-88375500D01*
X114119106Y-88395185D01*
X114164861Y-88447989D01*
X114168249Y-88456168D01*
X114181644Y-88492084D01*
X114181649Y-88492093D01*
X114267809Y-88607187D01*
X114267812Y-88607190D01*
X114382906Y-88693350D01*
X114382913Y-88693354D01*
X114517620Y-88743596D01*
X114517627Y-88743598D01*
X114577155Y-88749999D01*
X114577172Y-88750000D01*
X115200000Y-88750000D01*
X115200000Y-85300000D01*
X114577155Y-85300000D01*
X114517627Y-85306401D01*
X114517620Y-85306403D01*
X114382913Y-85356645D01*
X114382906Y-85356649D01*
X114267812Y-85442809D01*
X114185569Y-85552671D01*
X114129635Y-85594541D01*
X114067573Y-85598979D01*
X114067365Y-85600561D01*
X114059310Y-85599500D01*
X114059309Y-85599500D01*
X114059307Y-85599500D01*
X113217911Y-85599500D01*
X113150872Y-85579815D01*
X113123251Y-85555597D01*
X113097784Y-85525500D01*
X112877189Y-85264796D01*
X112875538Y-85262922D01*
X112871804Y-85258682D01*
X112871494Y-85258344D01*
X112871181Y-85258003D01*
X112871174Y-85257998D01*
X112870174Y-85257295D01*
X112847747Y-85237036D01*
X112831130Y-85217858D01*
X112748957Y-85165049D01*
X112710053Y-85140047D01*
X112710051Y-85140046D01*
X112710049Y-85140045D01*
X112710050Y-85140045D01*
X112571963Y-85099500D01*
X112571961Y-85099500D01*
X112428039Y-85099500D01*
X112428036Y-85099500D01*
X112289949Y-85140045D01*
X112168873Y-85217856D01*
X112074623Y-85326626D01*
X112074622Y-85326628D01*
X112014834Y-85457543D01*
X111994353Y-85600000D01*
X112014834Y-85742456D01*
X112050125Y-85819730D01*
X112074623Y-85873373D01*
X112167077Y-85980072D01*
X112168873Y-85982144D01*
X112169421Y-85982496D01*
X112182479Y-85992152D01*
X112287292Y-86080840D01*
X112325754Y-86139171D01*
X112326574Y-86209036D01*
X112289492Y-86268253D01*
X112226282Y-86298022D01*
X112207195Y-86299500D01*
X111247270Y-86299500D01*
X111240684Y-86300367D01*
X111171649Y-86289601D01*
X111119393Y-86243220D01*
X111100500Y-86177428D01*
X111100500Y-85463297D01*
X111101956Y-85444347D01*
X111102820Y-85438764D01*
X111102185Y-85429832D01*
X111096884Y-85410476D01*
X111094862Y-85401910D01*
X111093796Y-85396551D01*
X111088867Y-85371769D01*
X111088866Y-85371767D01*
X111084193Y-85360484D01*
X111084466Y-85360370D01*
X111082747Y-85357051D01*
X111081005Y-85352498D01*
X111041700Y-85273888D01*
X111029325Y-85205123D01*
X111056093Y-85140584D01*
X111064928Y-85130753D01*
X111223813Y-84971869D01*
X111408863Y-84786819D01*
X111470186Y-84753334D01*
X111496544Y-84750500D01*
X113296142Y-84750500D01*
X113296144Y-84750500D01*
X113385288Y-84726614D01*
X113465212Y-84680470D01*
X113545443Y-84600237D01*
X113577244Y-84577223D01*
X114198160Y-84263802D01*
X114254037Y-84250499D01*
X114306517Y-84250499D01*
X114306518Y-84250499D01*
X114400304Y-84235646D01*
X114513342Y-84178050D01*
X114603050Y-84088342D01*
X114660646Y-83975304D01*
X114660646Y-83975302D01*
X114660647Y-83975301D01*
X114672650Y-83899513D01*
X114675500Y-83881519D01*
X114675499Y-83418482D01*
X114660646Y-83324696D01*
X114603050Y-83211658D01*
X114603046Y-83211654D01*
X114603045Y-83211652D01*
X114513347Y-83121954D01*
X114513344Y-83121952D01*
X114513342Y-83121950D01*
X114425125Y-83077001D01*
X114400301Y-83064352D01*
X114306524Y-83049500D01*
X113693482Y-83049500D01*
X113612519Y-83062323D01*
X113599696Y-83064354D01*
X113486658Y-83121950D01*
X113486657Y-83121951D01*
X113486652Y-83121954D01*
X113396954Y-83211652D01*
X113396949Y-83211659D01*
X113360483Y-83283226D01*
X113312508Y-83334022D01*
X113244687Y-83350816D01*
X113178552Y-83328278D01*
X113139516Y-83283226D01*
X113103050Y-83211658D01*
X113103047Y-83211655D01*
X113103045Y-83211652D01*
X113013347Y-83121954D01*
X113013344Y-83121952D01*
X113013342Y-83121950D01*
X112925125Y-83077001D01*
X112900301Y-83064352D01*
X112806524Y-83049500D01*
X112193482Y-83049500D01*
X112099693Y-83064354D01*
X112099692Y-83064355D01*
X112088524Y-83070045D01*
X112059941Y-83080421D01*
X112056669Y-83081170D01*
X112056662Y-83081173D01*
X111834286Y-83180909D01*
X111596221Y-83287684D01*
X111594087Y-83288641D01*
X111543342Y-83299500D01*
X110703854Y-83299500D01*
X110666923Y-83309395D01*
X110666924Y-83309396D01*
X110614710Y-83323386D01*
X110614709Y-83323387D01*
X110534791Y-83369527D01*
X110534786Y-83369531D01*
X109319531Y-84584786D01*
X109319527Y-84584791D01*
X109273387Y-84664709D01*
X109273386Y-84664712D01*
X109249500Y-84753856D01*
X109249500Y-85062214D01*
X109236409Y-85117668D01*
X109118995Y-85352495D01*
X109118990Y-85352506D01*
X109115274Y-85360956D01*
X109110842Y-85371032D01*
X109110018Y-85373186D01*
X109107115Y-85381285D01*
X109105602Y-85396551D01*
X109103826Y-85408496D01*
X109099500Y-85430249D01*
X109099500Y-85451995D01*
X109098896Y-85464219D01*
X109098096Y-85472295D01*
X109098523Y-85475680D01*
X109099500Y-85491208D01*
X109099500Y-86519752D01*
X109111131Y-86578229D01*
X109111132Y-86578230D01*
X109155447Y-86644552D01*
X109221769Y-86688867D01*
X109221770Y-86688868D01*
X109280247Y-86700499D01*
X109280250Y-86700500D01*
X109280252Y-86700500D01*
X109919750Y-86700500D01*
X109919751Y-86700499D01*
X109943266Y-86695822D01*
X109978229Y-86688868D01*
X109978231Y-86688867D01*
X110010813Y-86667096D01*
X110031108Y-86653534D01*
X110097785Y-86632656D01*
X110165165Y-86651140D01*
X110168892Y-86653535D01*
X110221768Y-86688867D01*
X110221770Y-86688868D01*
X110280247Y-86700499D01*
X110280250Y-86700500D01*
X110280252Y-86700500D01*
X110433745Y-86700500D01*
X110500784Y-86720185D01*
X110546539Y-86772989D01*
X110556483Y-86842147D01*
X110527458Y-86905703D01*
X110521426Y-86912181D01*
X109279522Y-88154084D01*
X109279520Y-88154087D01*
X109226792Y-88245412D01*
X109226792Y-88245413D01*
X109218516Y-88276299D01*
X109182150Y-88335958D01*
X109167637Y-88347303D01*
X109155449Y-88355447D01*
X109155446Y-88355450D01*
X109111132Y-88421768D01*
X109111131Y-88421770D01*
X109099500Y-88480247D01*
X109099500Y-89569752D01*
X109111131Y-89628229D01*
X109111132Y-89628230D01*
X109155447Y-89694552D01*
X109221769Y-89738867D01*
X109221770Y-89738868D01*
X109280247Y-89750499D01*
X109280250Y-89750500D01*
X109280252Y-89750500D01*
X109919750Y-89750500D01*
X109919751Y-89750499D01*
X109934568Y-89747552D01*
X109978229Y-89738868D01*
X109978231Y-89738867D01*
X110031108Y-89703535D01*
X110097785Y-89682656D01*
X110165165Y-89701140D01*
X110168892Y-89703535D01*
X110221768Y-89738867D01*
X110221770Y-89738868D01*
X110280247Y-89750499D01*
X110280250Y-89750500D01*
X110280252Y-89750500D01*
X110919750Y-89750500D01*
X110919751Y-89750499D01*
X110934568Y-89747552D01*
X110978229Y-89738868D01*
X110978229Y-89738867D01*
X110978231Y-89738867D01*
X111044552Y-89694552D01*
X111088867Y-89628231D01*
X111088867Y-89628229D01*
X111088868Y-89628229D01*
X111099154Y-89576513D01*
X111100500Y-89569748D01*
X111100500Y-88480252D01*
X111100500Y-88480249D01*
X111099903Y-88474187D01*
X111100440Y-88474134D01*
X111099893Y-88467953D01*
X111099577Y-88467983D01*
X111098936Y-88461055D01*
X111098937Y-88461047D01*
X111097121Y-88452279D01*
X111097120Y-88452278D01*
X111096448Y-88449029D01*
X111102128Y-88379391D01*
X111130187Y-88336204D01*
X111679574Y-87786819D01*
X111740897Y-87753334D01*
X111767255Y-87750500D01*
X112854457Y-87750500D01*
X112921496Y-87770185D01*
X112967251Y-87822989D01*
X112977195Y-87892147D01*
X112948170Y-87955703D01*
X112942144Y-87962173D01*
X112879318Y-88025000D01*
X112719531Y-88184786D01*
X112719529Y-88184789D01*
X112695761Y-88225956D01*
X112680691Y-88252060D01*
X112673386Y-88264712D01*
X112649500Y-88353856D01*
X112649500Y-90146144D01*
X112655468Y-90168417D01*
X112668822Y-90218255D01*
X112668838Y-90218312D01*
X112673386Y-90235289D01*
X112719527Y-90315208D01*
X112719529Y-90315211D01*
X112719530Y-90315212D01*
X113119531Y-90715212D01*
X113184788Y-90780469D01*
X113184791Y-90780470D01*
X113184794Y-90780473D01*
X113264708Y-90826613D01*
X113264712Y-90826614D01*
X113280289Y-90830787D01*
X113308933Y-90842455D01*
X113675452Y-91048364D01*
X113702398Y-91068791D01*
X113736652Y-91103045D01*
X113736656Y-91103048D01*
X113736658Y-91103050D01*
X113760143Y-91115016D01*
X113810938Y-91162989D01*
X113827733Y-91230810D01*
X113805196Y-91296945D01*
X113750481Y-91340397D01*
X113703847Y-91349500D01*
X110396544Y-91349500D01*
X110329505Y-91329815D01*
X110308863Y-91313181D01*
X108586819Y-89591137D01*
X108553334Y-89529814D01*
X108550500Y-89503456D01*
X108550500Y-84996544D01*
X108570185Y-84929505D01*
X108586819Y-84908863D01*
X111108863Y-82386819D01*
X111170186Y-82353334D01*
X111196544Y-82350500D01*
X111543342Y-82350500D01*
X111594086Y-82361358D01*
X112056659Y-82568824D01*
X112073101Y-82574006D01*
X112092124Y-82581788D01*
X112099696Y-82585646D01*
X112193481Y-82600500D01*
X112806518Y-82600499D01*
X112900304Y-82585646D01*
X113013342Y-82528050D01*
X113103050Y-82438342D01*
X113139516Y-82366771D01*
X113187489Y-82315978D01*
X113255310Y-82299183D01*
X113321445Y-82321720D01*
X113360482Y-82366771D01*
X113370698Y-82386819D01*
X113396951Y-82438343D01*
X113396954Y-82438347D01*
X113486652Y-82528045D01*
X113486654Y-82528046D01*
X113486658Y-82528050D01*
X113599694Y-82585645D01*
X113599698Y-82585647D01*
X113693475Y-82600499D01*
X113693481Y-82600500D01*
X114306518Y-82600499D01*
X114400304Y-82585646D01*
X114513342Y-82528050D01*
X114603050Y-82438342D01*
X114660646Y-82325304D01*
X114660646Y-82325302D01*
X114660647Y-82325301D01*
X114675499Y-82231524D01*
X114675500Y-82231519D01*
X114675499Y-81768482D01*
X114660646Y-81674696D01*
X114603050Y-81561658D01*
X114579722Y-81538330D01*
X114559147Y-81511117D01*
X114553108Y-81500304D01*
X114496788Y-81399467D01*
X114481285Y-81331341D01*
X114495023Y-81281816D01*
X114627667Y-81026648D01*
X114629986Y-81019627D01*
X114637239Y-81002243D01*
X114639515Y-80997777D01*
X114659719Y-80958126D01*
X114659721Y-80958112D01*
X114675500Y-80858493D01*
X114675500Y-80842908D01*
X114686308Y-80792276D01*
X114986871Y-80120345D01*
X115012381Y-80083300D01*
X115105468Y-79990214D01*
X115105468Y-79990213D01*
X115105470Y-79990212D01*
X115151614Y-79910288D01*
X115155221Y-79896827D01*
X115157125Y-79889722D01*
X115157125Y-79889721D01*
X115161367Y-79873888D01*
X115175500Y-79821144D01*
X115175500Y-78534448D01*
X115151614Y-78445304D01*
X115127807Y-78404069D01*
X115105470Y-78365380D01*
X114259620Y-77519530D01*
X114259619Y-77519529D01*
X114259616Y-77519527D01*
X114179698Y-77473387D01*
X114179697Y-77473386D01*
X114179696Y-77473386D01*
X114090552Y-77449500D01*
X111953856Y-77449500D01*
X111864711Y-77473386D01*
X111784787Y-77519531D01*
X111784784Y-77519533D01*
X111191137Y-78113181D01*
X111129814Y-78146666D01*
X111103456Y-78149500D01*
X111087786Y-78149500D01*
X111032332Y-78136409D01*
X110796749Y-78018617D01*
X110788987Y-78014937D01*
X110788131Y-78014553D01*
X110785232Y-78013613D01*
X110778824Y-78011251D01*
X110719743Y-77999498D01*
X110718844Y-77999410D01*
X110705744Y-77997408D01*
X110701581Y-77996542D01*
X110701580Y-77996542D01*
X110692627Y-77996646D01*
X110692100Y-77996757D01*
X110691769Y-77996827D01*
X110666161Y-77999500D01*
X109280247Y-77999500D01*
X109221770Y-78011131D01*
X109221769Y-78011132D01*
X109155447Y-78055447D01*
X109111132Y-78121769D01*
X109111131Y-78121770D01*
X109099500Y-78180247D01*
X109099500Y-78819752D01*
X109111131Y-78878229D01*
X109111132Y-78878230D01*
X109155447Y-78944552D01*
X109221769Y-78988867D01*
X109221770Y-78988868D01*
X109280247Y-79000499D01*
X109280250Y-79000500D01*
X109280252Y-79000500D01*
X109928039Y-79000500D01*
X110071961Y-79000500D01*
X110683142Y-79000500D01*
X110701245Y-79001828D01*
X110710490Y-79003193D01*
X110719422Y-79002558D01*
X110741770Y-78996436D01*
X110750331Y-78994416D01*
X110778227Y-78988868D01*
X110778227Y-78988867D01*
X110778231Y-78988867D01*
X110778233Y-78988865D01*
X110789338Y-78984265D01*
X110792491Y-78983009D01*
X110796735Y-78981384D01*
X110796751Y-78981380D01*
X111032330Y-78863591D01*
X111087784Y-78850500D01*
X111346142Y-78850500D01*
X111346144Y-78850500D01*
X111435288Y-78826614D01*
X111439076Y-78824426D01*
X111445473Y-78820734D01*
X111445479Y-78820729D01*
X111445493Y-78820722D01*
X111452623Y-78816605D01*
X111514610Y-78800000D01*
X113876000Y-78800000D01*
X113943039Y-78819685D01*
X113988794Y-78872489D01*
X114000000Y-78924000D01*
X114000000Y-79176000D01*
X113980315Y-79243039D01*
X113927511Y-79288794D01*
X113876000Y-79300000D01*
X111525001Y-79300000D01*
X111525001Y-79323322D01*
X111535144Y-79422607D01*
X111588452Y-79583481D01*
X111588457Y-79583492D01*
X111677424Y-79727728D01*
X111677427Y-79727732D01*
X111763919Y-79814224D01*
X111797404Y-79875547D01*
X111792420Y-79945239D01*
X111750548Y-80001172D01*
X111694410Y-80024566D01*
X111554873Y-80045238D01*
X111550184Y-80046321D01*
X111522285Y-80049500D01*
X111087786Y-80049500D01*
X111032332Y-80036409D01*
X110796749Y-79918617D01*
X110788987Y-79914937D01*
X110788131Y-79914553D01*
X110785232Y-79913613D01*
X110778824Y-79911251D01*
X110719743Y-79899498D01*
X110718844Y-79899410D01*
X110705744Y-79897408D01*
X110701581Y-79896542D01*
X110701580Y-79896542D01*
X110692627Y-79896646D01*
X110692100Y-79896757D01*
X110691769Y-79896827D01*
X110666161Y-79899500D01*
X109280247Y-79899500D01*
X109221770Y-79911131D01*
X109221769Y-79911132D01*
X109155447Y-79955447D01*
X109111132Y-80021769D01*
X109111131Y-80021770D01*
X109099500Y-80080247D01*
X109099500Y-80719752D01*
X109111131Y-80778229D01*
X109111132Y-80778230D01*
X109155447Y-80844552D01*
X109221769Y-80888867D01*
X109221770Y-80888868D01*
X109280247Y-80900499D01*
X109280250Y-80900500D01*
X109280252Y-80900500D01*
X109928039Y-80900500D01*
X110071961Y-80900500D01*
X110683142Y-80900500D01*
X110701245Y-80901828D01*
X110710490Y-80903193D01*
X110719422Y-80902558D01*
X110741770Y-80896436D01*
X110750331Y-80894416D01*
X110778227Y-80888868D01*
X110778227Y-80888867D01*
X110778231Y-80888867D01*
X110778233Y-80888865D01*
X110789338Y-80884265D01*
X110792491Y-80883009D01*
X110796735Y-80881384D01*
X110796751Y-80881380D01*
X111032330Y-80763591D01*
X111087784Y-80750500D01*
X111450150Y-80750500D01*
X111517189Y-80770185D01*
X111529288Y-80779037D01*
X111848952Y-81044044D01*
X111886613Y-81075265D01*
X111917496Y-81113533D01*
X111938141Y-81153248D01*
X112004972Y-81281812D01*
X112018427Y-81350374D01*
X112003208Y-81399469D01*
X111981750Y-81437889D01*
X111931875Y-81486820D01*
X111924236Y-81490566D01*
X111594086Y-81638641D01*
X111543341Y-81649500D01*
X110953856Y-81649500D01*
X110864712Y-81673386D01*
X110864709Y-81673387D01*
X110784791Y-81719527D01*
X110784786Y-81719531D01*
X107919531Y-84584786D01*
X107919527Y-84584791D01*
X107873387Y-84664709D01*
X107873386Y-84664712D01*
X107849500Y-84753856D01*
X103000000Y-84753856D01*
X103000000Y-79797844D01*
X106500000Y-79797844D01*
X106506401Y-79857372D01*
X106506403Y-79857379D01*
X106556645Y-79992086D01*
X106556649Y-79992093D01*
X106642809Y-80107187D01*
X106642812Y-80107190D01*
X106757906Y-80193350D01*
X106757913Y-80193354D01*
X106892620Y-80243596D01*
X106892627Y-80243598D01*
X106952155Y-80249999D01*
X106952172Y-80250000D01*
X107450000Y-80250000D01*
X107950000Y-80250000D01*
X108447828Y-80250000D01*
X108447844Y-80249999D01*
X108507372Y-80243598D01*
X108507379Y-80243596D01*
X108642086Y-80193354D01*
X108642093Y-80193350D01*
X108757187Y-80107190D01*
X108757190Y-80107187D01*
X108843350Y-79992093D01*
X108843354Y-79992086D01*
X108893596Y-79857379D01*
X108893598Y-79857372D01*
X108899999Y-79797844D01*
X108900000Y-79797827D01*
X108900000Y-79700000D01*
X107950000Y-79700000D01*
X107950000Y-80250000D01*
X107450000Y-80250000D01*
X107450000Y-79700000D01*
X106500000Y-79700000D01*
X106500000Y-79797844D01*
X103000000Y-79797844D01*
X103000000Y-79102155D01*
X106500000Y-79102155D01*
X106500000Y-79200000D01*
X107450000Y-79200000D01*
X107950000Y-79200000D01*
X108900000Y-79200000D01*
X108900000Y-79102172D01*
X108899999Y-79102155D01*
X108893598Y-79042627D01*
X108893596Y-79042620D01*
X108843354Y-78907913D01*
X108843350Y-78907906D01*
X108757190Y-78792812D01*
X108757187Y-78792809D01*
X108642093Y-78706649D01*
X108642086Y-78706645D01*
X108507379Y-78656403D01*
X108507372Y-78656401D01*
X108447844Y-78650000D01*
X107950000Y-78650000D01*
X107950000Y-79200000D01*
X107450000Y-79200000D01*
X107450000Y-78650000D01*
X106952155Y-78650000D01*
X106892627Y-78656401D01*
X106892620Y-78656403D01*
X106757913Y-78706645D01*
X106757906Y-78706649D01*
X106642812Y-78792809D01*
X106642809Y-78792812D01*
X106556649Y-78907906D01*
X106556645Y-78907913D01*
X106506403Y-79042620D01*
X106506401Y-79042627D01*
X106500000Y-79102155D01*
X103000000Y-79102155D01*
X103000000Y-75847844D01*
X111100000Y-75847844D01*
X111106401Y-75907372D01*
X111106403Y-75907379D01*
X111156645Y-76042086D01*
X111156649Y-76042093D01*
X111242809Y-76157187D01*
X111242812Y-76157190D01*
X111357906Y-76243350D01*
X111357913Y-76243354D01*
X111492620Y-76293596D01*
X111492627Y-76293598D01*
X111552155Y-76299999D01*
X111552172Y-76300000D01*
X111750000Y-76300000D01*
X111750000Y-75250000D01*
X111100000Y-75250000D01*
X111100000Y-75847844D01*
X103000000Y-75847844D01*
X103000000Y-74152155D01*
X111100000Y-74152155D01*
X111100000Y-74750000D01*
X111750000Y-74750000D01*
X111750000Y-73700000D01*
X111552155Y-73700000D01*
X111492627Y-73706401D01*
X111492620Y-73706403D01*
X111357913Y-73756645D01*
X111357906Y-73756649D01*
X111242812Y-73842809D01*
X111162295Y-73950364D01*
X111153913Y-73956638D01*
X111153152Y-73967280D01*
X111106403Y-74092620D01*
X111106401Y-74092627D01*
X111100000Y-74152155D01*
X103000000Y-74152155D01*
X103000000Y-73647844D01*
X107900000Y-73647844D01*
X107906401Y-73707372D01*
X107906403Y-73707379D01*
X107956645Y-73842086D01*
X107956649Y-73842093D01*
X108042809Y-73957187D01*
X108042812Y-73957190D01*
X108157906Y-74043350D01*
X108157913Y-74043354D01*
X108292620Y-74093596D01*
X108292627Y-74093598D01*
X108352155Y-74099999D01*
X108352172Y-74100000D01*
X109200000Y-74100000D01*
X109700000Y-74100000D01*
X110547828Y-74100000D01*
X110547844Y-74099999D01*
X110607372Y-74093598D01*
X110607379Y-74093596D01*
X110742086Y-74043354D01*
X110742093Y-74043350D01*
X110857187Y-73957190D01*
X110857190Y-73957187D01*
X110937704Y-73849636D01*
X110946085Y-73843361D01*
X110946847Y-73832718D01*
X110993597Y-73707376D01*
X110993598Y-73707372D01*
X110999999Y-73647844D01*
X111000000Y-73647827D01*
X111000000Y-72350000D01*
X109700000Y-72350000D01*
X109700000Y-74100000D01*
X109200000Y-74100000D01*
X109200000Y-72350000D01*
X107900000Y-72350000D01*
X107900000Y-73647844D01*
X103000000Y-73647844D01*
X103000000Y-72051362D01*
X103019685Y-71984323D01*
X103036319Y-71963681D01*
X103963681Y-71036319D01*
X104025004Y-71002834D01*
X104051362Y-71000000D01*
X107776000Y-71000000D01*
X107843039Y-71019685D01*
G37*
G04 #@! TD.AperFunction*
G04 #@! TA.AperFunction,Conductor*
G36*
X145250000Y-89606988D02*
G01*
X145192993Y-89574075D01*
X145065826Y-89540000D01*
X144934174Y-89540000D01*
X144807007Y-89574075D01*
X144750000Y-89606988D01*
X144750000Y-87933012D01*
X144807007Y-87965925D01*
X144934174Y-88000000D01*
X145065826Y-88000000D01*
X145192993Y-87965925D01*
X145250000Y-87933012D01*
X145250000Y-89606988D01*
G37*
G04 #@! TD.AperFunction*
G04 #@! TA.AperFunction,Conductor*
G36*
X120688833Y-75204299D02*
G01*
X120744767Y-75246170D01*
X120769184Y-75311635D01*
X120769500Y-75320481D01*
X120769500Y-77241916D01*
X120768578Y-77257009D01*
X120766733Y-77272047D01*
X120767453Y-77280977D01*
X120773736Y-77303097D01*
X120776067Y-77312766D01*
X120781133Y-77338231D01*
X120785806Y-77349512D01*
X120784619Y-77350003D01*
X120785962Y-77352907D01*
X120787133Y-77352447D01*
X120789777Y-77359167D01*
X120789997Y-77361631D01*
X120790942Y-77363674D01*
X120791010Y-77363913D01*
X120790221Y-77364137D01*
X120796004Y-77428758D01*
X120763619Y-77490669D01*
X120762070Y-77492246D01*
X120741138Y-77513179D01*
X120679816Y-77546666D01*
X120653455Y-77549500D01*
X115796544Y-77549500D01*
X115729505Y-77529815D01*
X115708863Y-77513181D01*
X114886819Y-76691137D01*
X114853334Y-76629814D01*
X114850500Y-76603456D01*
X114850500Y-76302499D01*
X114869348Y-76236780D01*
X114956600Y-76097175D01*
X115008585Y-76013999D01*
X115060807Y-75967583D01*
X115129835Y-75956768D01*
X115193751Y-75984990D01*
X115201417Y-75992038D01*
X115218366Y-76008987D01*
X115234716Y-76023674D01*
X115234730Y-76023686D01*
X115234738Y-76023693D01*
X115235818Y-76024563D01*
X115255379Y-76040327D01*
X115326424Y-76077490D01*
X115393456Y-76097173D01*
X115393458Y-76097173D01*
X115393464Y-76097175D01*
X115451362Y-76105500D01*
X115451366Y-76105500D01*
X119548639Y-76105500D01*
X119551180Y-76105363D01*
X119570607Y-76104322D01*
X119570614Y-76104321D01*
X119570618Y-76104321D01*
X119596965Y-76101488D01*
X119673482Y-76077529D01*
X119734805Y-76044044D01*
X119781630Y-76008991D01*
X120557820Y-75232799D01*
X120619142Y-75199315D01*
X120688833Y-75204299D01*
G37*
G04 #@! TD.AperFunction*
G04 #@! TA.AperFunction,Conductor*
G36*
X138632243Y-106289057D02*
G01*
X138815011Y-106364105D01*
X138896184Y-106397436D01*
X138902536Y-106403748D01*
X138902563Y-106403815D01*
X139010941Y-106667754D01*
X139010914Y-106676709D01*
X139006023Y-106682298D01*
X138589596Y-106925773D01*
X138580725Y-106926991D01*
X138575418Y-106923946D01*
X138376053Y-106724581D01*
X138372626Y-106716308D01*
X138374224Y-106710407D01*
X138617702Y-106293974D01*
X138624835Y-106288563D01*
X138632243Y-106289057D01*
G37*
G04 #@! TD.AperFunction*
G04 #@! TA.AperFunction,Conductor*
G36*
X137482243Y-108439057D02*
G01*
X137665011Y-108514105D01*
X137746184Y-108547436D01*
X137752536Y-108553748D01*
X137752563Y-108553815D01*
X137860941Y-108817754D01*
X137860914Y-108826709D01*
X137856023Y-108832298D01*
X137439596Y-109075773D01*
X137430725Y-109076991D01*
X137425418Y-109073946D01*
X137226053Y-108874581D01*
X137222626Y-108866308D01*
X137224224Y-108860407D01*
X137467702Y-108443974D01*
X137474835Y-108438563D01*
X137482243Y-108439057D01*
G37*
G04 #@! TD.AperFunction*
G04 #@! TA.AperFunction,Conductor*
G36*
X144225948Y-104959363D02*
G01*
X144242355Y-104966138D01*
X144996215Y-105277438D01*
X145002552Y-105283761D01*
X145002562Y-105283785D01*
X145320636Y-106054051D01*
X145320627Y-106063006D01*
X145314288Y-106069331D01*
X145313861Y-106069498D01*
X143911006Y-106585564D01*
X143902059Y-106585204D01*
X143898694Y-106582856D01*
X143697143Y-106381305D01*
X143693716Y-106373032D01*
X143694433Y-106368999D01*
X144210501Y-104966137D01*
X144216574Y-104959556D01*
X144225521Y-104959196D01*
X144225948Y-104959363D01*
G37*
G04 #@! TD.AperFunction*
G04 #@! TA.AperFunction,Conductor*
G36*
X144225948Y-107499363D02*
G01*
X144242355Y-107506138D01*
X144996215Y-107817438D01*
X145002552Y-107823761D01*
X145002562Y-107823785D01*
X145320636Y-108594051D01*
X145320627Y-108603006D01*
X145314288Y-108609331D01*
X145313861Y-108609498D01*
X143911006Y-109125564D01*
X143902059Y-109125204D01*
X143898694Y-109122856D01*
X143697143Y-108921305D01*
X143693716Y-108913032D01*
X143694433Y-108908999D01*
X144210501Y-107506137D01*
X144216574Y-107499556D01*
X144225521Y-107499196D01*
X144225948Y-107499363D01*
G37*
G04 #@! TD.AperFunction*
G04 #@! TA.AperFunction,Conductor*
G36*
X121024581Y-108176053D02*
G01*
X121223946Y-108375418D01*
X121227373Y-108383691D01*
X121225773Y-108389596D01*
X120982298Y-108806023D01*
X120975164Y-108811436D01*
X120967754Y-108810941D01*
X120703815Y-108702563D01*
X120697463Y-108696251D01*
X120697436Y-108696184D01*
X120589058Y-108432245D01*
X120589085Y-108423290D01*
X120593974Y-108417702D01*
X121010406Y-108174225D01*
X121019274Y-108173008D01*
X121024581Y-108176053D01*
G37*
G04 #@! TD.AperFunction*
G04 #@! TA.AperFunction,Conductor*
G36*
X120591267Y-109247711D02*
G01*
X120598400Y-109253123D01*
X120600000Y-109259028D01*
X120600000Y-109540971D01*
X120596573Y-109549244D01*
X120591266Y-109552289D01*
X120124645Y-109674584D01*
X120115774Y-109673366D01*
X120110883Y-109667777D01*
X120099902Y-109641497D01*
X120000883Y-109404509D01*
X120000857Y-109395556D01*
X120000862Y-109395542D01*
X120110883Y-109132221D01*
X120117235Y-109125910D01*
X120124645Y-109125415D01*
X120591267Y-109247711D01*
G37*
G04 #@! TD.AperFunction*
G04 #@! TA.AperFunction,Conductor*
G36*
X104783006Y-102419372D02*
G01*
X104789331Y-102425711D01*
X104789498Y-102426138D01*
X105305564Y-103828993D01*
X105305204Y-103837940D01*
X105302856Y-103841305D01*
X105101305Y-104042856D01*
X105093032Y-104046283D01*
X105088993Y-104045564D01*
X103686138Y-103529498D01*
X103679556Y-103523425D01*
X103679196Y-103514478D01*
X103679363Y-103514051D01*
X103997438Y-102743783D01*
X104003759Y-102737448D01*
X104774051Y-102419363D01*
X104783006Y-102419372D01*
G37*
G04 #@! TD.AperFunction*
G04 #@! TA.AperFunction,Conductor*
G36*
X104783006Y-99879372D02*
G01*
X104789331Y-99885711D01*
X104789498Y-99886138D01*
X105305564Y-101288993D01*
X105305204Y-101297940D01*
X105302856Y-101301305D01*
X105101305Y-101502856D01*
X105093032Y-101506283D01*
X105088993Y-101505564D01*
X103686138Y-100989498D01*
X103679556Y-100983425D01*
X103679196Y-100974478D01*
X103679363Y-100974051D01*
X103997438Y-100203783D01*
X104003759Y-100197448D01*
X104774051Y-99879363D01*
X104783006Y-99879372D01*
G37*
G04 #@! TD.AperFunction*
G04 #@! TA.AperFunction,Conductor*
G36*
X104783006Y-97339372D02*
G01*
X104789331Y-97345711D01*
X104789498Y-97346138D01*
X105305564Y-98748993D01*
X105305204Y-98757940D01*
X105302856Y-98761305D01*
X105101305Y-98962856D01*
X105093032Y-98966283D01*
X105088993Y-98965564D01*
X103686138Y-98449498D01*
X103679556Y-98443425D01*
X103679196Y-98434478D01*
X103679363Y-98434051D01*
X103997438Y-97663783D01*
X104003759Y-97657448D01*
X104774051Y-97339363D01*
X104783006Y-97339372D01*
G37*
G04 #@! TD.AperFunction*
G04 #@! TA.AperFunction,Conductor*
G36*
X104783006Y-94799372D02*
G01*
X104789331Y-94805711D01*
X104789498Y-94806138D01*
X105305564Y-96208993D01*
X105305204Y-96217940D01*
X105302856Y-96221305D01*
X105101305Y-96422856D01*
X105093032Y-96426283D01*
X105088993Y-96425564D01*
X103686138Y-95909498D01*
X103679556Y-95903425D01*
X103679196Y-95894478D01*
X103679363Y-95894051D01*
X103997438Y-95123783D01*
X104003759Y-95117448D01*
X104774051Y-94799363D01*
X104783006Y-94799372D01*
G37*
G04 #@! TD.AperFunction*
G04 #@! TA.AperFunction,Conductor*
G36*
X104783006Y-92259372D02*
G01*
X104789331Y-92265711D01*
X104789498Y-92266138D01*
X105305564Y-93668993D01*
X105305204Y-93677940D01*
X105302856Y-93681305D01*
X105101305Y-93882856D01*
X105093032Y-93886283D01*
X105088993Y-93885564D01*
X103686138Y-93369498D01*
X103679556Y-93363425D01*
X103679196Y-93354478D01*
X103679363Y-93354051D01*
X103997438Y-92583783D01*
X104003759Y-92577448D01*
X104774051Y-92259363D01*
X104783006Y-92259372D01*
G37*
G04 #@! TD.AperFunction*
G04 #@! TA.AperFunction,Conductor*
G36*
X144679203Y-101965519D02*
G01*
X144679387Y-101965938D01*
X144999134Y-102735511D01*
X144999143Y-102744466D01*
X144999134Y-102744489D01*
X144679387Y-103514061D01*
X144673048Y-103520386D01*
X144664093Y-103520377D01*
X144663674Y-103520193D01*
X143306792Y-102893138D01*
X143300719Y-102886556D01*
X143300000Y-102882517D01*
X143300000Y-102597482D01*
X143303427Y-102589209D01*
X143306792Y-102586861D01*
X144663674Y-101959806D01*
X144672621Y-101959446D01*
X144679203Y-101965519D01*
G37*
G04 #@! TD.AperFunction*
G04 #@! TA.AperFunction,Conductor*
G36*
X144679203Y-99425519D02*
G01*
X144679387Y-99425938D01*
X144999134Y-100195511D01*
X144999143Y-100204466D01*
X144999134Y-100204489D01*
X144679387Y-100974061D01*
X144673048Y-100980386D01*
X144664093Y-100980377D01*
X144663674Y-100980193D01*
X143306792Y-100353138D01*
X143300719Y-100346556D01*
X143300000Y-100342517D01*
X143300000Y-100057482D01*
X143303427Y-100049209D01*
X143306792Y-100046861D01*
X144663674Y-99419806D01*
X144672621Y-99419446D01*
X144679203Y-99425519D01*
G37*
G04 #@! TD.AperFunction*
G04 #@! TA.AperFunction,Conductor*
G36*
X144225948Y-97339363D02*
G01*
X144242355Y-97346138D01*
X144996215Y-97657438D01*
X145002552Y-97663761D01*
X145002562Y-97663785D01*
X145320636Y-98434051D01*
X145320627Y-98443006D01*
X145314288Y-98449331D01*
X145313861Y-98449498D01*
X143911006Y-98965564D01*
X143902059Y-98965204D01*
X143898694Y-98962856D01*
X143697143Y-98761305D01*
X143693716Y-98753032D01*
X143694433Y-98748999D01*
X144210501Y-97346137D01*
X144216574Y-97339556D01*
X144225521Y-97339196D01*
X144225948Y-97339363D01*
G37*
G04 #@! TD.AperFunction*
G04 #@! TA.AperFunction,Conductor*
G36*
X144225948Y-94799363D02*
G01*
X144242355Y-94806138D01*
X144996215Y-95117438D01*
X145002552Y-95123761D01*
X145002562Y-95123785D01*
X145320636Y-95894051D01*
X145320627Y-95903006D01*
X145314288Y-95909331D01*
X145313861Y-95909498D01*
X143911006Y-96425564D01*
X143902059Y-96425204D01*
X143898694Y-96422856D01*
X143697143Y-96221305D01*
X143693716Y-96213032D01*
X143694433Y-96208999D01*
X144210501Y-94806137D01*
X144216574Y-94799556D01*
X144225521Y-94799196D01*
X144225948Y-94799363D01*
G37*
G04 #@! TD.AperFunction*
G04 #@! TA.AperFunction,Conductor*
G36*
X144225948Y-92259363D02*
G01*
X144242355Y-92266138D01*
X144996215Y-92577438D01*
X145002552Y-92583761D01*
X145002562Y-92583785D01*
X145320636Y-93354051D01*
X145320627Y-93363006D01*
X145314288Y-93369331D01*
X145313861Y-93369498D01*
X143911006Y-93885564D01*
X143902059Y-93885204D01*
X143898694Y-93882856D01*
X143697143Y-93681305D01*
X143693716Y-93673032D01*
X143694433Y-93668999D01*
X144210501Y-92266137D01*
X144216574Y-92259556D01*
X144225521Y-92259196D01*
X144225948Y-92259363D01*
G37*
G04 #@! TD.AperFunction*
G04 #@! TA.AperFunction,Conductor*
G36*
X126491267Y-105447711D02*
G01*
X126498400Y-105453123D01*
X126500000Y-105459028D01*
X126500000Y-105740971D01*
X126496573Y-105749244D01*
X126491266Y-105752289D01*
X126024645Y-105874584D01*
X126015774Y-105873366D01*
X126010883Y-105867777D01*
X125999902Y-105841497D01*
X125900883Y-105604509D01*
X125900857Y-105595556D01*
X125900862Y-105595542D01*
X126010883Y-105332221D01*
X126017235Y-105325910D01*
X126024645Y-105325415D01*
X126491267Y-105447711D01*
G37*
G04 #@! TD.AperFunction*
G04 #@! TA.AperFunction,Conductor*
G36*
X142007109Y-85791938D02*
G01*
X142429625Y-86115140D01*
X142434114Y-86122888D01*
X142432849Y-86129921D01*
X142153299Y-86656288D01*
X142146392Y-86661987D01*
X142142966Y-86662500D01*
X141857034Y-86662500D01*
X141848761Y-86659073D01*
X141846701Y-86656288D01*
X141801249Y-86570706D01*
X141567149Y-86129919D01*
X141566296Y-86121007D01*
X141570372Y-86115141D01*
X141992891Y-85791937D01*
X142001545Y-85789633D01*
X142007109Y-85791938D01*
G37*
G04 #@! TD.AperFunction*
G04 #@! TA.AperFunction,Conductor*
G36*
X104783006Y-107499372D02*
G01*
X104789331Y-107505711D01*
X104789498Y-107506138D01*
X105305564Y-108908993D01*
X105305204Y-108917940D01*
X105302856Y-108921305D01*
X105101305Y-109122856D01*
X105093032Y-109126283D01*
X105088993Y-109125564D01*
X103686138Y-108609498D01*
X103679556Y-108603425D01*
X103679196Y-108594478D01*
X103679363Y-108594051D01*
X103997438Y-107823783D01*
X104003759Y-107817448D01*
X104774051Y-107499363D01*
X104783006Y-107499372D01*
G37*
G04 #@! TD.AperFunction*
G04 #@! TA.AperFunction,Conductor*
G36*
X104783006Y-104959372D02*
G01*
X104789331Y-104965711D01*
X104789498Y-104966138D01*
X105305564Y-106368993D01*
X105305204Y-106377940D01*
X105302856Y-106381305D01*
X105101305Y-106582856D01*
X105093032Y-106586283D01*
X105088993Y-106585564D01*
X103686138Y-106069498D01*
X103679556Y-106063425D01*
X103679196Y-106054478D01*
X103679363Y-106054051D01*
X103997438Y-105283783D01*
X104003759Y-105277448D01*
X104774051Y-104959363D01*
X104783006Y-104959372D01*
G37*
G04 #@! TD.AperFunction*
G04 #@! TA.AperFunction,Conductor*
G36*
X127886066Y-85410723D02*
G01*
X127892378Y-85417075D01*
X127892746Y-85424932D01*
X127722242Y-85984037D01*
X127716551Y-85990951D01*
X127707638Y-85991815D01*
X127702778Y-85988897D01*
X127506002Y-85792121D01*
X127503541Y-85788502D01*
X127346232Y-85425703D01*
X127346085Y-85416750D01*
X127352312Y-85410315D01*
X127352434Y-85410262D01*
X127614877Y-85301163D01*
X127623830Y-85301153D01*
X127886066Y-85410723D01*
G37*
G04 #@! TD.AperFunction*
G04 #@! TA.AperFunction,Conductor*
G36*
X128032243Y-85803269D02*
G01*
X128215011Y-85878317D01*
X128296184Y-85911648D01*
X128302536Y-85917960D01*
X128302563Y-85918027D01*
X128410941Y-86181966D01*
X128410914Y-86190921D01*
X128406023Y-86196510D01*
X127989596Y-86439985D01*
X127980725Y-86441203D01*
X127975418Y-86438158D01*
X127778297Y-86241037D01*
X127774870Y-86232764D01*
X127778297Y-86224491D01*
X127820822Y-86181966D01*
X127899141Y-86103647D01*
X127945285Y-86023723D01*
X127969171Y-85934578D01*
X127969171Y-85894361D01*
X127970771Y-85888456D01*
X128017702Y-85808186D01*
X128024835Y-85802775D01*
X128032243Y-85803269D01*
G37*
G04 #@! TD.AperFunction*
G04 #@! TA.AperFunction,Conductor*
G36*
X122591497Y-99424902D02*
G01*
X122617777Y-99435883D01*
X122624089Y-99442235D01*
X122624584Y-99449645D01*
X122502289Y-99916266D01*
X122496876Y-99923400D01*
X122490971Y-99925000D01*
X122209029Y-99925000D01*
X122200756Y-99921573D01*
X122197711Y-99916266D01*
X122075415Y-99449645D01*
X122076633Y-99440774D01*
X122082221Y-99435883D01*
X122345490Y-99325883D01*
X122354444Y-99325857D01*
X122591497Y-99424902D01*
G37*
G04 #@! TD.AperFunction*
G04 #@! TA.AperFunction,Conductor*
G36*
X127857485Y-99108295D02*
G01*
X127858992Y-99109802D01*
X128593891Y-99992661D01*
X128596550Y-100001212D01*
X128594035Y-100007455D01*
X128003513Y-100745609D01*
X127995669Y-100749928D01*
X127994377Y-100750000D01*
X127705623Y-100750000D01*
X127697350Y-100746573D01*
X127696487Y-100745609D01*
X127105964Y-100007455D01*
X127103472Y-99998854D01*
X127106106Y-99992663D01*
X127841008Y-99109801D01*
X127848934Y-99105636D01*
X127857485Y-99108295D01*
G37*
G04 #@! TD.AperFunction*
G04 #@! TA.AperFunction,Conductor*
G36*
X125157485Y-94908295D02*
G01*
X125158992Y-94909802D01*
X125893891Y-95792661D01*
X125896550Y-95801212D01*
X125894035Y-95807455D01*
X125303513Y-96545609D01*
X125295669Y-96549928D01*
X125294377Y-96550000D01*
X125005623Y-96550000D01*
X124997350Y-96546573D01*
X124996487Y-96545609D01*
X124405964Y-95807455D01*
X124403472Y-95798854D01*
X124406106Y-95792663D01*
X125141008Y-94909801D01*
X125148934Y-94905636D01*
X125157485Y-94908295D01*
G37*
G04 #@! TD.AperFunction*
G04 #@! TA.AperFunction,Conductor*
G36*
X125506833Y-103078918D02*
G01*
X125941785Y-103391973D01*
X125946498Y-103399587D01*
X125945331Y-103406865D01*
X125781480Y-103722067D01*
X125779372Y-103724944D01*
X125719531Y-103784786D01*
X125719527Y-103784791D01*
X125673386Y-103864709D01*
X125673384Y-103864713D01*
X125649500Y-103953853D01*
X125649500Y-103963300D01*
X125646073Y-103971573D01*
X125637800Y-103975000D01*
X125357104Y-103975000D01*
X125348831Y-103971573D01*
X125346723Y-103968696D01*
X125054668Y-103406865D01*
X125053893Y-103397944D01*
X125058212Y-103391975D01*
X125493165Y-103078918D01*
X125501882Y-103076867D01*
X125506833Y-103078918D01*
G37*
G04 #@! TD.AperFunction*
G04 #@! TA.AperFunction,Conductor*
G36*
X125741497Y-103199902D02*
G01*
X125767777Y-103210883D01*
X125774089Y-103217235D01*
X125774584Y-103224645D01*
X125652289Y-103691266D01*
X125646876Y-103698400D01*
X125640971Y-103700000D01*
X125359029Y-103700000D01*
X125350756Y-103696573D01*
X125347711Y-103691266D01*
X125225415Y-103224645D01*
X125226633Y-103215774D01*
X125232221Y-103210883D01*
X125495490Y-103100883D01*
X125504444Y-103100857D01*
X125741497Y-103199902D01*
G37*
G04 #@! TD.AperFunction*
G04 #@! TA.AperFunction,Conductor*
G36*
X123007747Y-88330844D02*
G01*
X123392934Y-88671150D01*
X123396865Y-88679196D01*
X123395402Y-88685623D01*
X123153348Y-89119005D01*
X123146322Y-89124557D01*
X123143133Y-89125000D01*
X122856867Y-89125000D01*
X122848594Y-89121573D01*
X122846652Y-89119005D01*
X122604597Y-88685623D01*
X122603555Y-88676729D01*
X122607063Y-88671152D01*
X122992253Y-88330843D01*
X123000722Y-88327934D01*
X123007747Y-88330844D01*
G37*
G04 #@! TD.AperFunction*
G04 #@! TA.AperFunction,Conductor*
G36*
X112719687Y-85396854D02*
G01*
X112720313Y-85397537D01*
X113094086Y-85839269D01*
X113096814Y-85847798D01*
X113093427Y-85855099D01*
X112755099Y-86193427D01*
X112746826Y-86196854D01*
X112739269Y-86194086D01*
X112297541Y-85820317D01*
X112293440Y-85812358D01*
X112296168Y-85803828D01*
X112296783Y-85803156D01*
X112499293Y-85599293D01*
X112703142Y-85396798D01*
X112711425Y-85393400D01*
X112719687Y-85396854D01*
G37*
G04 #@! TD.AperFunction*
G04 #@! TA.AperFunction,Conductor*
G36*
X124712618Y-83101051D02*
G01*
X125289272Y-83149106D01*
X125297232Y-83153208D01*
X125300000Y-83160766D01*
X125300000Y-83639234D01*
X125296573Y-83647507D01*
X125289272Y-83650894D01*
X124712629Y-83698947D01*
X124704099Y-83696219D01*
X124699997Y-83688259D01*
X124699957Y-83687345D01*
X124699000Y-83400000D01*
X124699957Y-83112671D01*
X124703411Y-83104411D01*
X124711696Y-83101012D01*
X124712618Y-83101051D01*
G37*
G04 #@! TD.AperFunction*
G04 #@! TA.AperFunction,Conductor*
G36*
X112154169Y-81621452D02*
G01*
X112493758Y-81992096D01*
X112496820Y-82000511D01*
X112493758Y-82007904D01*
X112154169Y-82378547D01*
X112146053Y-82382332D01*
X112140754Y-82381318D01*
X111631912Y-82153100D01*
X111625766Y-82146588D01*
X111625000Y-82142425D01*
X111625000Y-81857574D01*
X111628427Y-81849301D01*
X111631908Y-81846901D01*
X112140755Y-81618680D01*
X112149705Y-81618422D01*
X112154169Y-81621452D01*
G37*
G04 #@! TD.AperFunction*
G04 #@! TA.AperFunction,Conductor*
G36*
X112250690Y-80153362D02*
G01*
X112253937Y-80157059D01*
X112496403Y-80591759D01*
X112497440Y-80600653D01*
X112493919Y-80606237D01*
X112088801Y-80963118D01*
X112080328Y-80966016D01*
X112073600Y-80963346D01*
X111579233Y-80553509D01*
X111575051Y-80545591D01*
X111575000Y-80544502D01*
X111575000Y-80260094D01*
X111578427Y-80251821D01*
X111584982Y-80248521D01*
X112242005Y-80151184D01*
X112250690Y-80153362D01*
G37*
G04 #@! TD.AperFunction*
G04 #@! TA.AperFunction,Conductor*
G36*
X110704839Y-80102419D02*
G01*
X110993532Y-80246766D01*
X110999400Y-80253531D01*
X111000000Y-80257231D01*
X111000000Y-80542769D01*
X110996573Y-80551042D01*
X110993532Y-80553234D01*
X110704849Y-80697575D01*
X110695917Y-80698210D01*
X110695014Y-80697866D01*
X110024133Y-80410756D01*
X110017875Y-80404351D01*
X110017980Y-80395397D01*
X110024133Y-80389244D01*
X110695015Y-80102132D01*
X110703968Y-80102028D01*
X110704839Y-80102419D01*
G37*
G04 #@! TD.AperFunction*
G04 #@! TA.AperFunction,Conductor*
G36*
X110591267Y-80247711D02*
G01*
X110598400Y-80253123D01*
X110600000Y-80259028D01*
X110600000Y-80540971D01*
X110596573Y-80549244D01*
X110591266Y-80552289D01*
X110124645Y-80674584D01*
X110115774Y-80673366D01*
X110110883Y-80667777D01*
X110099902Y-80641497D01*
X110000883Y-80404509D01*
X110000857Y-80395556D01*
X110000862Y-80395542D01*
X110110883Y-80132221D01*
X110117235Y-80125910D01*
X110124645Y-80125415D01*
X110591267Y-80247711D01*
G37*
G04 #@! TD.AperFunction*
G04 #@! TA.AperFunction,Conductor*
G36*
X121007747Y-88330844D02*
G01*
X121392934Y-88671150D01*
X121396865Y-88679196D01*
X121395402Y-88685623D01*
X121153348Y-89119005D01*
X121146322Y-89124557D01*
X121143133Y-89125000D01*
X120856867Y-89125000D01*
X120848594Y-89121573D01*
X120846652Y-89119005D01*
X120604597Y-88685623D01*
X120603555Y-88676729D01*
X120607063Y-88671152D01*
X120992253Y-88330843D01*
X121000722Y-88327934D01*
X121007747Y-88330844D01*
G37*
G04 #@! TD.AperFunction*
G04 #@! TA.AperFunction,Conductor*
G36*
X112651406Y-81203427D02*
G01*
X112653348Y-81205995D01*
X112895402Y-81639375D01*
X112896444Y-81648269D01*
X112892934Y-81653848D01*
X112507747Y-81994155D01*
X112499278Y-81997065D01*
X112492253Y-81994155D01*
X112107065Y-81653848D01*
X112103134Y-81645802D01*
X112104597Y-81639375D01*
X112346652Y-81205995D01*
X112353678Y-81200443D01*
X112356867Y-81200000D01*
X112643133Y-81200000D01*
X112651406Y-81203427D01*
G37*
G04 #@! TD.AperFunction*
G04 #@! TA.AperFunction,Conductor*
G36*
X112506833Y-80603918D02*
G01*
X112941785Y-80916973D01*
X112946498Y-80924587D01*
X112945331Y-80931865D01*
X112653277Y-81493696D01*
X112646421Y-81499456D01*
X112642896Y-81500000D01*
X112357104Y-81500000D01*
X112348831Y-81496573D01*
X112346723Y-81493696D01*
X112054668Y-80931865D01*
X112053893Y-80922944D01*
X112058212Y-80916975D01*
X112493165Y-80603918D01*
X112501882Y-80601867D01*
X112506833Y-80603918D01*
G37*
G04 #@! TD.AperFunction*
G04 #@! TA.AperFunction,Conductor*
G36*
X121358935Y-76216046D02*
G01*
X121359781Y-76218459D01*
X121599860Y-77254663D01*
X121598389Y-77263496D01*
X121597791Y-77264366D01*
X121294466Y-77665063D01*
X121286740Y-77669591D01*
X121278075Y-77667330D01*
X121276864Y-77666274D01*
X121075532Y-77464942D01*
X121073390Y-77462000D01*
X120972290Y-77264475D01*
X120971571Y-77255549D01*
X120971648Y-77255320D01*
X121337349Y-76217211D01*
X121343329Y-76210548D01*
X121352270Y-76210065D01*
X121358935Y-76216046D01*
G37*
G04 #@! TD.AperFunction*
G04 #@! TA.AperFunction,Conductor*
G36*
X110704839Y-78202419D02*
G01*
X110993532Y-78346766D01*
X110999400Y-78353531D01*
X111000000Y-78357231D01*
X111000000Y-78642769D01*
X110996573Y-78651042D01*
X110993532Y-78653234D01*
X110704849Y-78797575D01*
X110695917Y-78798210D01*
X110695014Y-78797866D01*
X110024133Y-78510756D01*
X110017875Y-78504351D01*
X110017980Y-78495397D01*
X110024133Y-78489244D01*
X110695015Y-78202132D01*
X110703968Y-78202028D01*
X110704839Y-78202419D01*
G37*
G04 #@! TD.AperFunction*
G04 #@! TA.AperFunction,Conductor*
G36*
X110591267Y-78347711D02*
G01*
X110598400Y-78353123D01*
X110600000Y-78359028D01*
X110600000Y-78640971D01*
X110596573Y-78649244D01*
X110591266Y-78652289D01*
X110124645Y-78774584D01*
X110115774Y-78773366D01*
X110110883Y-78767777D01*
X110099902Y-78741497D01*
X110000883Y-78504509D01*
X110000857Y-78495556D01*
X110000862Y-78495542D01*
X110110883Y-78232221D01*
X110117235Y-78225910D01*
X110124645Y-78225415D01*
X110591267Y-78347711D01*
G37*
G04 #@! TD.AperFunction*
G04 #@! TA.AperFunction,Conductor*
G36*
X114612029Y-79787407D02*
G01*
X114812680Y-79988058D01*
X114816107Y-79996331D01*
X114815087Y-80001108D01*
X114479344Y-80751683D01*
X114472838Y-80757836D01*
X114464920Y-80757991D01*
X114004338Y-80602411D01*
X113997596Y-80596516D01*
X113997264Y-80595783D01*
X113817866Y-80160347D01*
X113817883Y-80151394D01*
X113823751Y-80145283D01*
X114598828Y-79785069D01*
X114607772Y-79784691D01*
X114612029Y-79787407D01*
G37*
G04 #@! TD.AperFunction*
G04 #@! TA.AperFunction,Conductor*
G36*
X114505227Y-75014720D02*
G01*
X114510467Y-75019960D01*
X114897069Y-75794132D01*
X114897700Y-75803064D01*
X114896524Y-75805560D01*
X114653437Y-76194501D01*
X114646146Y-76199700D01*
X114643515Y-76200000D01*
X114356485Y-76200000D01*
X114348212Y-76196573D01*
X114346563Y-76194501D01*
X114103475Y-75805560D01*
X114101997Y-75796728D01*
X114102930Y-75794132D01*
X114489533Y-75019960D01*
X114496295Y-75014089D01*
X114505227Y-75014720D01*
G37*
G04 #@! TD.AperFunction*
G04 #@! TA.AperFunction,Conductor*
G36*
X114741497Y-75099902D02*
G01*
X114767777Y-75110883D01*
X114774089Y-75117235D01*
X114774584Y-75124645D01*
X114652289Y-75591266D01*
X114646876Y-75598400D01*
X114640971Y-75600000D01*
X114359029Y-75600000D01*
X114350756Y-75596573D01*
X114347711Y-75591266D01*
X114225415Y-75124645D01*
X114226633Y-75115774D01*
X114232221Y-75110883D01*
X114495490Y-75000883D01*
X114504444Y-75000857D01*
X114741497Y-75099902D01*
G37*
G04 #@! TD.AperFunction*
G04 #@! TA.AperFunction,Conductor*
G36*
X114006833Y-80603918D02*
G01*
X114441785Y-80916973D01*
X114446498Y-80924587D01*
X114445331Y-80931865D01*
X114153277Y-81493696D01*
X114146421Y-81499456D01*
X114142896Y-81500000D01*
X113857104Y-81500000D01*
X113848831Y-81496573D01*
X113846723Y-81493696D01*
X113554668Y-80931865D01*
X113553893Y-80922944D01*
X113558212Y-80916975D01*
X113993165Y-80603918D01*
X114001882Y-80601867D01*
X114006833Y-80603918D01*
G37*
G04 #@! TD.AperFunction*
G04 #@! TA.AperFunction,Conductor*
G36*
X114151406Y-81203427D02*
G01*
X114153348Y-81205995D01*
X114395402Y-81639375D01*
X114396444Y-81648269D01*
X114392934Y-81653848D01*
X114007747Y-81994155D01*
X113999278Y-81997065D01*
X113992253Y-81994155D01*
X113607065Y-81653848D01*
X113603134Y-81645802D01*
X113604597Y-81639375D01*
X113846652Y-81205995D01*
X113853678Y-81200443D01*
X113856867Y-81200000D01*
X114143133Y-81200000D01*
X114151406Y-81203427D01*
G37*
G04 #@! TD.AperFunction*
G04 #@! TA.AperFunction,Conductor*
G36*
X128607238Y-98531931D02*
G01*
X129346962Y-99346654D01*
X129350000Y-99354518D01*
X129350000Y-99642548D01*
X129346573Y-99650821D01*
X129343248Y-99653150D01*
X128608161Y-99996191D01*
X128599215Y-99996585D01*
X128594230Y-99993085D01*
X128310573Y-99653150D01*
X127856809Y-99109359D01*
X127854140Y-99100812D01*
X127858297Y-99092881D01*
X127858636Y-99092608D01*
X128591457Y-98530511D01*
X128600105Y-98528196D01*
X128607238Y-98531931D01*
G37*
G04 #@! TD.AperFunction*
G04 #@! TA.AperFunction,Conductor*
G36*
X130408025Y-99058214D02*
G01*
X130721080Y-99493165D01*
X130723132Y-99501882D01*
X130721080Y-99506835D01*
X130408025Y-99941785D01*
X130400411Y-99946498D01*
X130393133Y-99945331D01*
X129831304Y-99653277D01*
X129825544Y-99646421D01*
X129825000Y-99642896D01*
X129825000Y-99357103D01*
X129828427Y-99348830D01*
X129831299Y-99346725D01*
X130393133Y-99054667D01*
X130402054Y-99053893D01*
X130408025Y-99058214D01*
G37*
G04 #@! TD.AperFunction*
G04 #@! TA.AperFunction,Conductor*
G36*
X125871956Y-93253427D02*
G01*
X125875377Y-93261310D01*
X125899851Y-93995549D01*
X125897149Y-94003424D01*
X125161130Y-94887628D01*
X125153204Y-94891794D01*
X125144653Y-94889135D01*
X125141816Y-94885650D01*
X124674101Y-94008422D01*
X124673233Y-93999511D01*
X124676959Y-93993912D01*
X125571753Y-93252690D01*
X125579217Y-93250000D01*
X125863683Y-93250000D01*
X125871956Y-93253427D01*
G37*
G04 #@! TD.AperFunction*
G04 #@! TA.AperFunction,Conductor*
G36*
X125732187Y-92004597D02*
G01*
X125936003Y-92163320D01*
X126150431Y-92330309D01*
X126154853Y-92338096D01*
X126153788Y-92344606D01*
X125878187Y-92918366D01*
X125871516Y-92924340D01*
X125867641Y-92925000D01*
X125582359Y-92925000D01*
X125574086Y-92921573D01*
X125571813Y-92918366D01*
X125296211Y-92344606D01*
X125295717Y-92335665D01*
X125299568Y-92330309D01*
X125717811Y-92004597D01*
X125726444Y-92002218D01*
X125732187Y-92004597D01*
G37*
G04 #@! TD.AperFunction*
G04 #@! TA.AperFunction,Conductor*
G36*
X142007747Y-82830844D02*
G01*
X142392934Y-83171150D01*
X142396865Y-83179196D01*
X142395402Y-83185623D01*
X142153348Y-83619005D01*
X142146322Y-83624557D01*
X142143133Y-83625000D01*
X141856867Y-83625000D01*
X141848594Y-83621573D01*
X141846652Y-83619005D01*
X141604597Y-83185623D01*
X141603555Y-83176729D01*
X141607063Y-83171152D01*
X141992253Y-82830843D01*
X142000722Y-82827934D01*
X142007747Y-82830844D01*
G37*
G04 #@! TD.AperFunction*
G04 #@! TA.AperFunction,Conductor*
G36*
X142151239Y-83340927D02*
G01*
X142153299Y-83343712D01*
X142432849Y-83870077D01*
X142433703Y-83878991D01*
X142429625Y-83884858D01*
X142007109Y-84208061D01*
X141998455Y-84210366D01*
X141992891Y-84208061D01*
X141570374Y-83884858D01*
X141565885Y-83877110D01*
X141567149Y-83870080D01*
X141846701Y-83343712D01*
X141853608Y-83338013D01*
X141857034Y-83337500D01*
X142142966Y-83337500D01*
X142151239Y-83340927D01*
G37*
G04 #@! TD.AperFunction*
G04 #@! TA.AperFunction,Conductor*
G36*
X109608387Y-88126221D02*
G01*
X109611066Y-88128224D01*
X109880212Y-88397370D01*
X109883470Y-88403664D01*
X109899289Y-88495858D01*
X109897914Y-88503646D01*
X109611382Y-89004571D01*
X109604300Y-89010051D01*
X109595417Y-89008918D01*
X109590346Y-89003062D01*
X109393597Y-88505087D01*
X109393744Y-88496135D01*
X109394195Y-88495208D01*
X109592517Y-88130902D01*
X109599482Y-88125275D01*
X109608387Y-88126221D01*
G37*
G04 #@! TD.AperFunction*
G04 #@! TA.AperFunction,Conductor*
G36*
X113994476Y-83648114D02*
G01*
X114001969Y-83653019D01*
X114003121Y-83655156D01*
X114161560Y-84039982D01*
X114161541Y-84048936D01*
X114156013Y-84054881D01*
X113459319Y-84406554D01*
X113450389Y-84407223D01*
X113445774Y-84404382D01*
X113245323Y-84203931D01*
X113241896Y-84195658D01*
X113242913Y-84190887D01*
X113306314Y-84048936D01*
X113521229Y-83567755D01*
X113527731Y-83561600D01*
X113534083Y-83561032D01*
X113994476Y-83648114D01*
G37*
G04 #@! TD.AperFunction*
G04 #@! TA.AperFunction,Conductor*
G36*
X110751042Y-85153427D02*
G01*
X110753234Y-85156468D01*
X110897202Y-85444405D01*
X110897837Y-85453337D01*
X110896900Y-85455433D01*
X110610163Y-85958179D01*
X110603088Y-85963668D01*
X110594204Y-85962546D01*
X110589837Y-85958180D01*
X110303099Y-85455434D01*
X110301977Y-85446549D01*
X110302795Y-85444409D01*
X110446766Y-85156468D01*
X110453531Y-85150600D01*
X110457231Y-85150000D01*
X110742769Y-85150000D01*
X110751042Y-85153427D01*
G37*
G04 #@! TD.AperFunction*
G04 #@! TA.AperFunction,Conductor*
G36*
X110537810Y-88097480D02*
G01*
X110541312Y-88099890D01*
X110811347Y-88369925D01*
X110812751Y-88371622D01*
X110895892Y-88493957D01*
X110897708Y-88502725D01*
X110896371Y-88506342D01*
X110610319Y-89006429D01*
X110603237Y-89011909D01*
X110594354Y-89010776D01*
X110589629Y-89005711D01*
X110347597Y-88504896D01*
X110347082Y-88495956D01*
X110347441Y-88495050D01*
X110522357Y-88103390D01*
X110528859Y-88097235D01*
X110537810Y-88097480D01*
G37*
G04 #@! TD.AperFunction*
G04 #@! TA.AperFunction,Conductor*
G36*
X109751042Y-85153427D02*
G01*
X109753234Y-85156468D01*
X109897202Y-85444405D01*
X109897837Y-85453337D01*
X109896900Y-85455433D01*
X109610163Y-85958179D01*
X109603088Y-85963668D01*
X109594204Y-85962546D01*
X109589837Y-85958180D01*
X109303099Y-85455434D01*
X109301977Y-85446549D01*
X109302795Y-85444409D01*
X109446766Y-85156468D01*
X109453531Y-85150600D01*
X109457231Y-85150000D01*
X109742769Y-85150000D01*
X109751042Y-85153427D01*
G37*
G04 #@! TD.AperFunction*
G04 #@! TA.AperFunction,Conductor*
G36*
X112154169Y-83271452D02*
G01*
X112493758Y-83642096D01*
X112496820Y-83650511D01*
X112493758Y-83657904D01*
X112154169Y-84028547D01*
X112146053Y-84032332D01*
X112140754Y-84031318D01*
X111631912Y-83803100D01*
X111625766Y-83796588D01*
X111625000Y-83792425D01*
X111625000Y-83507574D01*
X111628427Y-83499301D01*
X111631908Y-83496901D01*
X112140755Y-83268680D01*
X112149705Y-83268422D01*
X112154169Y-83271452D01*
G37*
G04 #@! TD.AperFunction*
G04 #@! TA.AperFunction,Conductor*
G36*
X137629860Y-75016525D02*
G01*
X137635643Y-75022308D01*
X138022385Y-75869275D01*
X138022704Y-75878224D01*
X138021664Y-75880336D01*
X137778437Y-76269501D01*
X137771146Y-76274700D01*
X137768515Y-76275000D01*
X137481485Y-76275000D01*
X137473212Y-76271573D01*
X137471563Y-76269501D01*
X137228335Y-75880336D01*
X137226857Y-75871504D01*
X137227614Y-75869275D01*
X137614357Y-75022308D01*
X137620911Y-75016206D01*
X137629860Y-75016525D01*
G37*
G04 #@! TD.AperFunction*
G04 #@! TA.AperFunction,Conductor*
G36*
X137774244Y-79103427D02*
G01*
X137777289Y-79108734D01*
X137899584Y-79575354D01*
X137898366Y-79584225D01*
X137892777Y-79589116D01*
X137629511Y-79699115D01*
X137620556Y-79699142D01*
X137620489Y-79699115D01*
X137357222Y-79589116D01*
X137350910Y-79582764D01*
X137350415Y-79575354D01*
X137472711Y-79108734D01*
X137478124Y-79101600D01*
X137484029Y-79100000D01*
X137765971Y-79100000D01*
X137774244Y-79103427D01*
G37*
G04 #@! TD.AperFunction*
G04 #@! TA.AperFunction,Conductor*
G36*
X117605943Y-103253200D02*
G01*
X117918848Y-103421687D01*
X117924507Y-103428626D01*
X117925000Y-103431988D01*
X117925000Y-103718011D01*
X117921573Y-103726284D01*
X117918847Y-103728313D01*
X117605948Y-103896797D01*
X117597039Y-103897702D01*
X117594251Y-103896448D01*
X117316769Y-103725000D01*
X117090107Y-103584952D01*
X117084871Y-103577689D01*
X117086305Y-103568850D01*
X117090107Y-103565047D01*
X117594253Y-103253550D01*
X117603090Y-103252117D01*
X117605943Y-103253200D01*
G37*
G04 #@! TD.AperFunction*
G04 #@! TA.AperFunction,Conductor*
G36*
X119659225Y-103301633D02*
G01*
X119664116Y-103307222D01*
X119774115Y-103570489D01*
X119774142Y-103579444D01*
X119774115Y-103579511D01*
X119664116Y-103842777D01*
X119657764Y-103849089D01*
X119650354Y-103849584D01*
X119183734Y-103727289D01*
X119176600Y-103721876D01*
X119175000Y-103715971D01*
X119175000Y-103434028D01*
X119178427Y-103425755D01*
X119183731Y-103422711D01*
X119650354Y-103300415D01*
X119659225Y-103301633D01*
G37*
G04 #@! TD.AperFunction*
G04 #@! TA.AperFunction,Conductor*
G36*
X133879860Y-75016525D02*
G01*
X133885643Y-75022308D01*
X134272385Y-75869275D01*
X134272704Y-75878224D01*
X134271664Y-75880336D01*
X134028437Y-76269501D01*
X134021146Y-76274700D01*
X134018515Y-76275000D01*
X133731485Y-76275000D01*
X133723212Y-76271573D01*
X133721563Y-76269501D01*
X133478335Y-75880336D01*
X133476857Y-75871504D01*
X133477614Y-75869275D01*
X133864357Y-75022308D01*
X133870911Y-75016206D01*
X133879860Y-75016525D01*
G37*
G04 #@! TD.AperFunction*
G04 #@! TA.AperFunction,Conductor*
G36*
X131234050Y-77604928D02*
G01*
X131241183Y-77610340D01*
X131242783Y-77616245D01*
X131242783Y-77898188D01*
X131239356Y-77906461D01*
X131234049Y-77909506D01*
X130767428Y-78031801D01*
X130758557Y-78030583D01*
X130753666Y-78024994D01*
X130742685Y-77998714D01*
X130643666Y-77761726D01*
X130643640Y-77752773D01*
X130643645Y-77752759D01*
X130753666Y-77489438D01*
X130760018Y-77483127D01*
X130767428Y-77482632D01*
X131234050Y-77604928D01*
G37*
G04 #@! TD.AperFunction*
G04 #@! TA.AperFunction,Conductor*
G36*
X117291267Y-89247711D02*
G01*
X117298400Y-89253123D01*
X117300000Y-89259028D01*
X117300000Y-89540971D01*
X117296573Y-89549244D01*
X117291266Y-89552289D01*
X116824645Y-89674584D01*
X116815774Y-89673366D01*
X116810883Y-89667777D01*
X116799902Y-89641497D01*
X116700883Y-89404509D01*
X116700857Y-89395556D01*
X116700862Y-89395542D01*
X116810883Y-89132221D01*
X116817235Y-89125910D01*
X116824645Y-89125415D01*
X117291267Y-89247711D01*
G37*
G04 #@! TD.AperFunction*
G04 #@! TA.AperFunction,Conductor*
G36*
X117489955Y-87848565D02*
G01*
X117497660Y-87853127D01*
X117500000Y-87860147D01*
X117500000Y-88139853D01*
X117496573Y-88148126D01*
X117489955Y-88151435D01*
X117328154Y-88174549D01*
X117322053Y-88173789D01*
X117114681Y-88088601D01*
X116925342Y-88010821D01*
X116918993Y-88004509D01*
X116918967Y-87995554D01*
X116925279Y-87989204D01*
X117322055Y-87826209D01*
X117328151Y-87825450D01*
X117489955Y-87848565D01*
G37*
G04 #@! TD.AperFunction*
G04 #@! TA.AperFunction,Conductor*
G36*
X131791267Y-78347711D02*
G01*
X131798400Y-78353123D01*
X131800000Y-78359028D01*
X131800000Y-78640971D01*
X131796573Y-78649244D01*
X131791266Y-78652289D01*
X131324645Y-78774584D01*
X131315774Y-78773366D01*
X131310883Y-78767777D01*
X131299902Y-78741497D01*
X131200883Y-78504509D01*
X131200857Y-78495556D01*
X131200862Y-78495542D01*
X131310883Y-78232221D01*
X131317235Y-78225910D01*
X131324645Y-78225415D01*
X131791267Y-78347711D01*
G37*
G04 #@! TD.AperFunction*
G04 #@! TA.AperFunction,Conductor*
G36*
X135129860Y-75016525D02*
G01*
X135135643Y-75022308D01*
X135522385Y-75869275D01*
X135522704Y-75878224D01*
X135521664Y-75880336D01*
X135278437Y-76269501D01*
X135271146Y-76274700D01*
X135268515Y-76275000D01*
X134981485Y-76275000D01*
X134973212Y-76271573D01*
X134971563Y-76269501D01*
X134728335Y-75880336D01*
X134726857Y-75871504D01*
X134727614Y-75869275D01*
X135114357Y-75022308D01*
X135120911Y-75016206D01*
X135129860Y-75016525D01*
G37*
G04 #@! TD.AperFunction*
G04 #@! TA.AperFunction,Conductor*
G36*
X138879860Y-75016525D02*
G01*
X138885643Y-75022308D01*
X139272385Y-75869275D01*
X139272704Y-75878224D01*
X139271664Y-75880336D01*
X139028437Y-76269501D01*
X139021146Y-76274700D01*
X139018515Y-76275000D01*
X138731485Y-76275000D01*
X138723212Y-76271573D01*
X138721563Y-76269501D01*
X138478335Y-75880336D01*
X138476857Y-75871504D01*
X138477614Y-75869275D01*
X138864357Y-75022308D01*
X138870911Y-75016206D01*
X138879860Y-75016525D01*
G37*
G04 #@! TD.AperFunction*
G04 #@! TA.AperFunction,Conductor*
G36*
X139024244Y-79103427D02*
G01*
X139027289Y-79108734D01*
X139149584Y-79575354D01*
X139148366Y-79584225D01*
X139142777Y-79589116D01*
X138879511Y-79699115D01*
X138870556Y-79699142D01*
X138870489Y-79699115D01*
X138607222Y-79589116D01*
X138600910Y-79582764D01*
X138600415Y-79575354D01*
X138722711Y-79108734D01*
X138728124Y-79101600D01*
X138734029Y-79100000D01*
X139015971Y-79100000D01*
X139024244Y-79103427D01*
G37*
G04 #@! TD.AperFunction*
G04 #@! TA.AperFunction,Conductor*
G36*
X117392553Y-85902813D02*
G01*
X117975900Y-86020041D01*
X117983335Y-86025031D01*
X117985065Y-86033817D01*
X117984417Y-86035956D01*
X117876897Y-86297814D01*
X117874328Y-86301663D01*
X117671536Y-86503504D01*
X117663255Y-86506911D01*
X117654989Y-86503465D01*
X117654632Y-86503090D01*
X117381603Y-86203348D01*
X117378553Y-86195469D01*
X117378553Y-85914285D01*
X117381980Y-85906012D01*
X117390253Y-85902585D01*
X117392553Y-85902813D01*
G37*
G04 #@! TD.AperFunction*
G04 #@! TA.AperFunction,Conductor*
G36*
X117489955Y-85898565D02*
G01*
X117497660Y-85903127D01*
X117500000Y-85910147D01*
X117500000Y-86189853D01*
X117496573Y-86198126D01*
X117489955Y-86201435D01*
X117328154Y-86224549D01*
X117322053Y-86223789D01*
X117114681Y-86138601D01*
X116925342Y-86060821D01*
X116918993Y-86054509D01*
X116918967Y-86045554D01*
X116925279Y-86039204D01*
X117322055Y-85876209D01*
X117328151Y-85875450D01*
X117489955Y-85898565D01*
G37*
G04 #@! TD.AperFunction*
G04 #@! TA.AperFunction,Conductor*
G36*
X117605943Y-96753200D02*
G01*
X117918848Y-96921687D01*
X117924507Y-96928626D01*
X117925000Y-96931988D01*
X117925000Y-97218011D01*
X117921573Y-97226284D01*
X117918847Y-97228313D01*
X117605948Y-97396797D01*
X117597039Y-97397702D01*
X117594251Y-97396448D01*
X117316769Y-97225000D01*
X117090107Y-97084952D01*
X117084871Y-97077689D01*
X117086305Y-97068850D01*
X117090107Y-97065047D01*
X117594253Y-96753550D01*
X117603090Y-96752117D01*
X117605943Y-96753200D01*
G37*
G04 #@! TD.AperFunction*
G04 #@! TA.AperFunction,Conductor*
G36*
X119909225Y-96801633D02*
G01*
X119914116Y-96807222D01*
X120024115Y-97070489D01*
X120024142Y-97079444D01*
X120024115Y-97079511D01*
X119914116Y-97342777D01*
X119907764Y-97349089D01*
X119900354Y-97349584D01*
X119433734Y-97227289D01*
X119426600Y-97221876D01*
X119425000Y-97215971D01*
X119425000Y-96934028D01*
X119428427Y-96925755D01*
X119433731Y-96922711D01*
X119900354Y-96800415D01*
X119909225Y-96801633D01*
G37*
G04 #@! TD.AperFunction*
G04 #@! TA.AperFunction,Conductor*
G36*
X113577945Y-87826209D02*
G01*
X113640419Y-87851874D01*
X113974656Y-87989178D01*
X113981006Y-87995491D01*
X113981032Y-88004446D01*
X113974719Y-88010796D01*
X113974656Y-88010822D01*
X113577946Y-88173789D01*
X113571845Y-88174549D01*
X113410045Y-88151435D01*
X113402340Y-88146873D01*
X113400000Y-88139853D01*
X113400000Y-87860147D01*
X113403427Y-87851874D01*
X113410045Y-87848565D01*
X113571847Y-87825450D01*
X113577945Y-87826209D01*
G37*
G04 #@! TD.AperFunction*
G04 #@! TA.AperFunction,Conductor*
G36*
X113835116Y-90101350D02*
G01*
X114169003Y-90492847D01*
X114171764Y-90501365D01*
X114168737Y-90508332D01*
X113823873Y-90885658D01*
X113815762Y-90889453D01*
X113809507Y-90887966D01*
X113289710Y-90595946D01*
X113284178Y-90588908D01*
X113285242Y-90580016D01*
X113287166Y-90577478D01*
X113488024Y-90376620D01*
X113488767Y-90375939D01*
X113818708Y-90099966D01*
X113827252Y-90097288D01*
X113835116Y-90101350D01*
G37*
G04 #@! TD.AperFunction*
G04 #@! TA.AperFunction,Conductor*
G36*
X140651239Y-83340927D02*
G01*
X140653299Y-83343712D01*
X140932849Y-83870077D01*
X140933703Y-83878991D01*
X140929625Y-83884858D01*
X140507109Y-84208061D01*
X140498455Y-84210366D01*
X140492891Y-84208061D01*
X140070374Y-83884858D01*
X140065885Y-83877110D01*
X140067149Y-83870080D01*
X140346701Y-83343712D01*
X140353608Y-83338013D01*
X140357034Y-83337500D01*
X140642966Y-83337500D01*
X140651239Y-83340927D01*
G37*
G04 #@! TD.AperFunction*
G04 #@! TA.AperFunction,Conductor*
G36*
X140507747Y-82830844D02*
G01*
X140892934Y-83171150D01*
X140896865Y-83179196D01*
X140895402Y-83185623D01*
X140653348Y-83619005D01*
X140646322Y-83624557D01*
X140643133Y-83625000D01*
X140356867Y-83625000D01*
X140348594Y-83621573D01*
X140346652Y-83619005D01*
X140104597Y-83185623D01*
X140103555Y-83176729D01*
X140107063Y-83171152D01*
X140492253Y-82830843D01*
X140500722Y-82827934D01*
X140507747Y-82830844D01*
G37*
G04 #@! TD.AperFunction*
G04 #@! TA.AperFunction,Conductor*
G36*
X120919983Y-85785243D02*
G01*
X120922525Y-85787170D01*
X121123368Y-85988013D01*
X121124070Y-85988779D01*
X121400032Y-86318707D01*
X121402711Y-86327252D01*
X121398649Y-86335116D01*
X121007152Y-86669003D01*
X120998634Y-86671764D01*
X120991667Y-86668737D01*
X120614340Y-86323873D01*
X120610545Y-86315762D01*
X120612032Y-86309507D01*
X120904053Y-85789710D01*
X120911091Y-85784178D01*
X120919983Y-85785243D01*
G37*
G04 #@! TD.AperFunction*
G04 #@! TA.AperFunction,Conductor*
G36*
X121360549Y-83829219D02*
G01*
X121361038Y-83830400D01*
X121728168Y-84874788D01*
X121727679Y-84883729D01*
X121727139Y-84884726D01*
X121503415Y-85254358D01*
X121496200Y-85259662D01*
X121493406Y-85260000D01*
X121206594Y-85260000D01*
X121198321Y-85256573D01*
X121196585Y-85254358D01*
X120972860Y-84884726D01*
X120971507Y-84875874D01*
X120971824Y-84874809D01*
X121338962Y-83830399D01*
X121344939Y-83823731D01*
X121353880Y-83823242D01*
X121360549Y-83829219D01*
G37*
G04 #@! TD.AperFunction*
G04 #@! TA.AperFunction,Conductor*
G36*
X123067899Y-85797757D02*
G01*
X123069613Y-85799936D01*
X123235821Y-86072482D01*
X123375465Y-86301470D01*
X123376847Y-86310318D01*
X123373599Y-86315982D01*
X123008199Y-86668478D01*
X122999866Y-86671756D01*
X122992656Y-86669104D01*
X122592494Y-86340891D01*
X122588272Y-86332996D01*
X122590762Y-86324559D01*
X122849336Y-85999877D01*
X122850199Y-85998911D01*
X123051354Y-85797756D01*
X123059626Y-85794330D01*
X123067899Y-85797757D01*
G37*
G04 #@! TD.AperFunction*
G04 #@! TA.AperFunction,Conductor*
G36*
X122630549Y-83829219D02*
G01*
X122631038Y-83830400D01*
X122998168Y-84874788D01*
X122997679Y-84883729D01*
X122997139Y-84884726D01*
X122773415Y-85254358D01*
X122766200Y-85259662D01*
X122763406Y-85260000D01*
X122476594Y-85260000D01*
X122468321Y-85256573D01*
X122466585Y-85254358D01*
X122242860Y-84884726D01*
X122241507Y-84875874D01*
X122241824Y-84874809D01*
X122608962Y-83830399D01*
X122614939Y-83823731D01*
X122623880Y-83823242D01*
X122630549Y-83829219D01*
G37*
G04 #@! TD.AperFunction*
M02*
